<?xml version="1.0" encoding="utf-8"?>
<!-- Generator: Adobe Illustrator 26.5.0, SVG Export Plug-In . SVG Version: 6.00 Build 0)  -->
<svg version="1.1" id="Layer_1" xmlns="http://www.w3.org/2000/svg" xmlns:xlink="http://www.w3.org/1999/xlink" x="0px" y="0px"
	 viewBox="0 0 70.1 104.7" style="enable-background:new 0 0 70.1 104.7;" xml:space="preserve">
<style type="text/css">
	.st0{fill:#DDDDDD;}
	.st1{fill:#F3F3F3;}
	.st2{clip-path:url(#SVGID_00000122706181352634279100000006375944698494412985_);}
	.st3{fill:#F3B16D;}
	.st4{fill:#F2AB4D;}
	.st5{fill:#F3B160;}
	.st6{fill:#F3B45F;}
	.st7{fill:#F4BA5C;}
	.st8{fill:#F4BA60;}
	.st9{fill:#F2953C;}
	.st10{fill:#F5BC65;}
	.st11{fill:#F3B356;}
	.st12{fill:#F3A463;}
	.st13{fill:#F08831;}
	.st14{fill:#F5B351;}
	.st15{fill:#F4A733;}
	.st16{fill:#F3B14A;}
	.st17{fill:#F08A45;}
	.st18{fill:#F9C87A;}
	.st19{fill:#F2984F;}
	.st20{fill:#F4A578;}
	.st21{fill:#F29554;}
	.st22{fill:#F3A444;}
	.st23{fill:#F5B460;}
	.st24{fill:#F39D69;}
	.st25{fill:#F3A336;}
	.st26{fill:#F39D64;}
	.st27{fill:#F4A558;}
	.st28{fill:#F3A461;}
	.st29{fill:#F29A3E;}
	.st30{fill:#F4A65E;}
	.st31{fill:#F4BA56;}
	.st32{fill:#F29953;}
	.st33{fill:#F3AA62;}
	.st34{fill:#F3B25D;}
	.st35{fill:#F5BB56;}
	.st36{fill:#F39B43;}
	.st37{fill:#F2AA55;}
	.st38{fill:#F6C26E;}
	.st39{fill:#F39F50;}
	.st40{fill:#F9C96F;}
	.st41{fill:#F3A044;}
	.st42{fill:#F3A043;}
	.st43{fill:#F2A643;}
	.st44{fill:#F4B369;}
	.st45{fill:#F2AC4B;}
	.st46{fill:#F1972E;}
	.st47{fill:#F6B561;}
	.st48{fill:#F3A549;}
	.st49{fill:#F4B779;}
	.st50{fill:#F39D60;}
	.st51{fill:#F2953F;}
	.st52{fill:#F3AD6A;}
	.st53{fill:#F4AA77;}
	.st54{fill:#F3A851;}
	.st55{fill:#F8C46C;}
	.st56{fill:#F4A948;}
	.st57{fill:#F4AD7D;}
	.st58{fill:#F4A657;}
	.st59{fill:#F3AF5F;}
	.st60{fill:#F5BE67;}
	.st61{fill:#F2A233;}
	.st62{fill:#F3A243;}
	.st63{fill:#F2993C;}
	.st64{fill:#F4B95D;}
	.st65{fill:#F6C167;}
	.st66{fill:#F7C079;}
	.st67{fill:#F08340;}
	.st68{fill:#F3B15E;}
	.st69{fill:#F18E3D;}
	.st70{fill:#F3AB5C;}
	.st71{fill:#F5BD67;}
	.st72{fill:#F5B56C;}
	.st73{fill:#F5B252;}
	.st74{fill:#F6C163;}
	.st75{fill:#F2963D;}
	.st76{fill:#F4B361;}
	.st77{fill:#F2B05B;}
	.st78{fill:#F39F44;}
	.st79{fill:#F5B142;}
	.st80{fill:#F18B48;}
	.st81{fill:#F7C15D;}
	.st82{fill:#F3A951;}
	.st83{fill:#F4A757;}
	.st84{fill:#F4B762;}
	.st85{fill:#F3A337;}
	.st86{fill:#F3AE59;}
	.st87{fill:#F3A248;}
	.st88{fill:#F29C54;}
	.st89{fill:#F4BD58;}
	.st90{fill:#F2A154;}
	.st91{fill:#F3A539;}
	.st92{fill:#F1942C;}
	.st93{fill:#F5BE65;}
	.st94{fill:#F3A245;}
	.st95{fill:#F3B257;}
	.st96{fill:#F39C55;}
	.st97{fill:#F4B854;}
	.st98{fill:#F29D42;}
	.st99{fill:#F6C16A;}
	.st100{fill:#F4BA6D;}
	.st101{fill:#F3AD63;}
	.st102{fill:#F29D40;}
	.st103{fill:#F3B151;}
	.st104{fill:#F39A5C;}
	.st105{fill:#F5BE64;}
	.st106{fill:#F3A637;}
	.st107{fill:#F18F39;}
	.st108{fill:#F4B656;}
	.st109{fill:#F39B41;}
	.st110{fill:#F3AC3D;}
	.st111{fill:#F4AA69;}
	.st112{fill:#F5BA84;}
	.st113{fill:#F08637;}
	.st114{fill:#F4AB41;}
	.st115{fill:#F1914F;}
	.st116{fill:#F29C41;}
	.st117{fill:#F7C46B;}
	.st118{fill:#F4B57B;}
	.st119{fill:#F3A846;}
	.st120{fill:#F4BA64;}
	.st121{fill:#F4A776;}
	.st122{fill:#F5BD74;}
	.st123{fill:#F4B65B;}
	.st124{fill:#F2AB49;}
	.st125{fill:#F5BD79;}
	.st126{fill:#F4AA5F;}
	.st127{fill:#F3A656;}
	.st128{fill:#F6BC6B;}
	.st129{fill:#F4A958;}
	.st130{fill:#F6C369;}
	.st131{fill:#F4B384;}
	.st132{fill:#F2AB4C;}
	.st133{fill:#F3A83B;}
	.st134{fill:#F39F6C;}
	.st135{fill:#F4B65F;}
	.st136{fill:#F2943B;}
	.st137{fill:#F18D35;}
	.st138{fill:#F4AB3D;}
	.st139{fill:#F2965E;}
	.st140{fill:#F4AC47;}
	.st141{fill:#F5BD7B;}
	.st142{fill:#F3AD75;}
	.st143{fill:#F4B35E;}
	.st144{fill:#F4B963;}
	.st145{fill:#F19348;}
	.st146{fill:#F5B586;}
	.st147{fill:#F29F38;}
	.st148{fill:#F4B575;}
	.st149{fill:#F4AB73;}
	.st150{fill:#F5B673;}
	.st151{fill:#F4A464;}
	.st152{fill:#F7C67B;}
	.st153{fill:#F4B364;}
	.st154{fill:#F4A66B;}
	.st155{fill:#F5B14A;}
	.st156{fill:#F19438;}
	.st157{fill:#F2995C;}
	.st158{fill:#F2AC5B;}
	.st159{fill:#F18F36;}
	.st160{fill:#F7C36C;}
	.st161{fill:#F9C86E;}
	.st162{fill:#F39F4D;}
	.st163{fill:#F19147;}
	.st164{fill:#F3964D;}
	.st165{fill:#F6BD71;}
	.st166{fill:#F2AB5C;}
	.st167{fill:#F3B25E;}
	.st168{fill:#F29236;}
	.st169{fill:#F8C77E;}
	.st170{fill:#F4AA49;}
	.st171{fill:#F8CF89;}
	.st172{fill:#FFFFFF;}
</style>
<g>
	<path class="st0" d="M70.1,102c0,1.5-1.2,2.7-2.7,2.7H3.7c-1.5,0-2.7-1.2-2.7-2.7V3.7C1,2.2,2.2,1,3.7,1h63.7
		c1.5,0,2.7,1.2,2.7,2.7V102z"/>
	<g>
		<path class="st1" d="M69.1,101c0,1.5-1.2,2.7-2.7,2.7H2.7c-1.5,0-2.7-1.2-2.7-2.7V2.7C0,1.2,1.2,0,2.7,0h63.7
			c1.5,0,2.7,1.2,2.7,2.7V101z"/>
		<g>
			<g>
				<defs>
					<path id="SVGID_1_" d="M7.3,99.8c-1.8,0-3.2-1.5-3.2-3.4v-89c0-1.9,1.4-3.4,3.2-3.4h54.4c1.8,0,3.4,1.5,3.4,3.4v89
						c0,1.9-1.4,3.4-3.4,3.4H7.3z"/>
				</defs>
				<clipPath id="SVGID_00000124854083327078394250000010408609506275280313_">
					<use xlink:href="#SVGID_1_"  style="overflow:visible;"/>
				</clipPath>
				<g style="clip-path:url(#SVGID_00000124854083327078394250000010408609506275280313_);">
					<polygon class="st3" points="74.1,-6.4 66.2,-6.4 66.2,2.2 					"/>
					<polygon class="st4" points="74.1,60 66.5,68 74.1,68 					"/>
					<polygon class="st5" points="74.1,-5.1 66.2,3.3 66.2,3.3 74.1,3.3 					"/>
					<polygon class="st6" points="55.9,25.7 55.9,34.7 64.2,25.7 					"/>
					<polygon class="st7" points="74.1,49.1 66.5,57.1 74.1,57.1 					"/>
					<polygon class="st8" points="55.9,58.1 55.9,67.2 64.5,58.1 					"/>
					<polygon class="st9" points="55.9,36.6 55.9,45.6 64.4,36.6 					"/>
					<polygon class="st10" points="65.3,68 65.3,58.4 56.5,68 					"/>
					<polygon class="st11" points="55.9,68.8 55.9,78.2 64.5,68.8 					"/>
					<polygon class="st12" points="55.9,79.7 55.9,88.9 64.5,79.7 					"/>
					<polygon class="st13" points="65.3,78.7 65.3,69.4 56.5,78.7 					"/>
					<polygon class="st14" points="65.3,4.3 65.3,4.3 56.1,14 65.1,14 65.3,13.9 					"/>
					<polygon class="st15" points="65.3,-6.4 65.3,-6.4 55.9,3.3 64.9,3.3 65.3,2.9 					"/>
					<polygon class="st16" points="65.3,15.2 56.1,25 65.1,25 65.3,24.6 					"/>
					<polygon class="st17" points="55.9,15 55.9,24 64.2,15 					"/>
					<polygon class="st18" points="55.9,4.3 55.9,13.1 64.2,4.3 					"/>
					<polygon class="st19" points="55.9,-6.4 55.9,2.2 64,-6.4 					"/>
					<polygon class="st20" points="65.3,89.4 65.3,80.1 56.6,89.4 					"/>
					<polygon class="st21" points="55,15.2 46.1,25 55,25 55,24.8 					"/>
					<polygon class="st22" points="55.9,90.4 55.9,99.8 64.7,90.4 					"/>
					<polygon class="st23" points="55,-6.4 45.9,3.3 54.8,3.3 55,3.1 					"/>
					<polygon class="st24" points="55,4.5 45.9,14 54.8,14 55,14 					"/>
					<polygon class="st25" points="55,35.7 55,26.1 46.1,35.7 					"/>
					<polygon class="st26" points="65.3,111.1 65.3,101.9 56.6,111.1 					"/>
					<polygon class="st27" points="55.9,101.1 55.9,110.7 64.7,101.1 					"/>
					<polygon class="st28" points="65.3,100.2 65.3,91 56.6,100.2 					"/>
					<polygon class="st29" points="64.7,112 64.9,111.8 55.9,111.8 55.9,111.8 55.9,112 					"/>
					<polygon class="st30" points="55.9,47.3 55.9,56.3 64.4,47.3 					"/>
					<polygon class="st31" points="74.1,68.8 66.2,68.8 66.2,78 74.1,69.5 					"/>
					<polygon class="st32" points="74.1,58.1 66.2,58.1 66.2,67.1 74.1,58.6 					"/>
					<polygon class="st33" points="74.1,36.6 66.2,36.6 66.2,45.4 74.1,37 					"/>
					<polygon class="st34" points="74.1,47.3 66.2,47.3 66.2,56.3 74.1,47.9 					"/>
					<polygon class="st35" points="74.1,79.7 66.2,79.7 66.2,88.9 74.1,80.5 					"/>
					<polygon class="st36" points="74.1,90.4 66.2,90.4 66.2,99.6 74.1,91.2 					"/>
					<polygon class="st5" points="74.1,38.3 66.5,46.4 74.1,46.4 					"/>
					<polygon class="st37" points="74.1,25.7 66.2,25.7 66.2,34.5 74.1,26.1 					"/>
					<polygon class="st38" points="74.1,101.1 66.2,101.1 66.2,110.5 74.1,102.1 					"/>
					<polygon class="st39" points="74.1,16.5 66.3,25 74.1,25 					"/>
					<polygon class="st40" points="74.1,27.4 66.3,35.7 74.1,35.7 					"/>
					<polygon class="st41" points="74.1,15 66.2,15 66.2,23.8 74.1,15.4 					"/>
					<polygon class="st42" points="74.1,4.3 66.2,4.3 66.2,12.9 74.1,4.5 					"/>
					<polygon class="st43" points="74.1,5.8 66.2,14 74.1,14 					"/>
					<polygon class="st44" points="65.3,36.8 56.3,46.4 65.3,46.4 65.3,46.4 					"/>
					<polygon class="st45" points="65.3,57.1 65.3,47.5 56.3,57.1 					"/>
					<polygon class="st46" points="66.2,111.8 74.1,111.8 74.1,111.8 					"/>
					<polygon class="st47" points="65.3,25.9 56.3,35.7 65.3,35.7 65.3,35.5 					"/>
					<polygon class="st9" points="24.1,57.1 24.1,48.3 15.7,57.1 					"/>
					<polygon class="st48" points="3.5,3.3 3.5,-5.7 -4.9,3.3 					"/>
					<polygon class="st49" points="-6,-6.4 -6,-6.4 -6,3.1 3,-6.4 					"/>
					<polygon class="st50" points="-5.8,4.3 -6,4.5 -6,14 3.1,4.3 					"/>
					<polygon class="st51" points="3.5,58.1 3.5,58.1 -5.5,58.1 -6,58.6 -6,68 -5.8,68 					"/>
					<polygon class="st52" points="3.5,57.1 3.5,48.5 -4.6,57.1 					"/>
					<polygon class="st53" points="3.5,59.4 -4.6,68 3.5,68 					"/>
					<polygon class="st54" points="3.5,69 3.5,68.8 -5.5,68.8 -6,69.5 -6,78.7 -5.7,78.7 					"/>
					<polygon class="st55" points="13.7,112 13.7,111.8 5.1,111.8 4.9,112 					"/>
					<polygon class="st56" points="3.5,70.1 -4.6,78.7 3.5,78.7 					"/>
					<polygon class="st57" points="3.5,79.7 3.5,79.7 -5.3,79.7 -6,80.3 -6,89.4 -5.7,89.4 					"/>
					<polygon class="st58" points="3.5,90.6 3.5,90.4 -5.3,90.4 -6,91.2 -6,100.2 -5.5,100.2 					"/>
					<polygon class="st59" points="3.5,81 -4.4,89.4 3.5,89.4 					"/>
					<polygon class="st10" points="3.3,36.6 -5.7,36.6 -6,37 -6,46.4 -5.8,46.4 					"/>
					<polygon class="st60" points="3.3,47.3 -5.7,47.3 -6,47.7 -6,57.1 -5.8,57.1 					"/>
					<polygon class="st61" points="-5.8,15 -6,15.2 -6,24.8 3.1,15 					"/>
					<polygon class="st62" points="3.3,25.7 -5.7,25.7 -6,26.1 -6,35.7 -6,35.7 					"/>
					<polygon class="st63" points="3.5,25 3.5,16 -4.9,25 					"/>
					<polygon class="st64" points="3.5,46.4 3.5,37.8 -4.8,46.4 					"/>
					<polygon class="st65" points="3.5,14 3.5,5.2 -4.9,14 					"/>
					<polygon class="st66" points="3.5,35.7 3.5,26.9 -4.8,35.7 					"/>
					<polygon class="st67" points="3.5,91.9 -4.4,100.2 3.5,100.2 					"/>
					<polygon class="st68" points="4.2,-6.4 4.2,2.9 13.2,-6.4 					"/>
					<polygon class="st69" points="13.7,3.3 13.7,-5.9 5.1,3.3 					"/>
					<polygon class="st70" points="4.4,4.3 4.2,4.3 4.2,13.9 13.2,4.3 					"/>
					<polygon class="st71" points="4.4,15 4.2,15.2 4.2,24.8 13.4,15 					"/>
					<polygon class="st72" points="4.4,25.7 4.2,25.9 4.2,35.5 13.4,25.7 					"/>
					<polygon class="st73" points="13.7,80.8 5.7,89.4 13.7,89.4 					"/>
					<polygon class="st74" points="13.7,79.7 13.7,79.7 4.8,79.7 4.2,80.1 4.2,89.4 4.6,89.4 					"/>
					<polygon class="st52" points="13.7,78.7 13.7,70.1 5.7,78.7 					"/>
					<polygon class="st75" points="13.7,91.7 5.8,100.2 13.7,100.2 					"/>
					<polygon class="st76" points="13.7,90.4 13.7,90.4 4.9,90.4 4.2,91 4.2,100.2 4.6,100.2 					"/>
					<polygon class="st77" points="13.7,25 13.7,15.8 5.3,25 					"/>
					<polygon class="st78" points="13.7,68.8 4.8,68.8 4.2,69.4 4.2,78.7 4.4,78.7 					"/>
					<polygon class="st79" points="13.7,101.3 13.7,101.1 4.9,101.1 4.2,101.9 4.2,111.1 4.8,111.1 					"/>
					<polygon class="st80" points="4.6,36.6 4.2,36.8 4.2,46.4 13.6,36.6 					"/>
					<polygon class="st81" points="13.7,35.7 13.7,26.7 5.3,35.7 					"/>
					<polygon class="st82" points="13.7,102.7 5.8,111.1 13.7,111.1 					"/>
					<polygon class="st83" points="13.7,57.1 13.7,48.3 5.5,57.1 					"/>
					<polygon class="st84" points="13.6,58.1 4.8,58.1 4.2,58.4 4.2,68 4.4,68 					"/>
					<polygon class="st85" points="13.7,46.4 13.7,37.6 5.5,46.4 					"/>
					<polygon class="st86" points="13.7,68 13.7,59.2 5.7,68 					"/>
					<polygon class="st87" points="13.7,14 13.7,5 5.3,14 					"/>
					<polygon class="st88" points="3.5,101.5 3.5,101.1 -5.3,101.1 -6,101.9 -6,111.1 -5.5,111.1 					"/>
					<polygon class="st89" points="3.5,112 3.5,111.8 -5.1,111.8 -5.3,112 					"/>
					<polygon class="st90" points="3.5,102.7 -4.2,111.1 3.5,111.1 					"/>
					<polygon class="st91" points="13.6,47.3 4.6,47.3 4.2,47.5 4.2,57.1 4.4,57.1 					"/>
					<polygon class="st92" points="44.8,35.7 44.8,26.3 35.8,35.7 					"/>
					<polygon class="st93" points="35.3,36.6 35.3,45.8 44.1,36.6 					"/>
					<polygon class="st94" points="35.3,25.7 35.3,35.1 43.9,25.7 					"/>
					<polygon class="st95" points="44.8,25 44.8,15.4 35.8,25 					"/>
					<polygon class="st96" points="35.3,15 35.3,24.2 43.9,15 					"/>
					<polygon class="st97" points="44.8,57.1 44.8,47.9 36,57.1 					"/>
					<polygon class="st98" points="44.8,46.4 44.8,37 36,46.4 					"/>
					<polygon class="st99" points="35.3,47.3 35.3,56.7 44.1,47.3 					"/>
					<polygon class="st100" points="35.3,58.1 35.3,67.6 44.1,58.1 					"/>
					<polygon class="st101" points="35.3,-6.4 35.3,2.6 43.7,-6.4 					"/>
					<polygon class="st102" points="35.3,4.3 35.3,13.5 43.7,4.3 					"/>
					<polygon class="st103" points="44.8,111.1 44.8,102.1 36.4,111.1 					"/>
					<polygon class="st43" points="44.4,112 44.4,111.8 35.5,111.8 35.5,112 					"/>
					<polygon class="st104" points="35.5,90.4 35.3,90.6 35.3,100.2 44.4,90.4 					"/>
					<polygon class="st60" points="44.8,78.7 44.8,69.5 36.2,78.7 					"/>
					<polygon class="st105" points="35.3,68.8 35.3,68.8 35.3,78.3 44.3,68.8 					"/>
					<polygon class="st106" points="35.5,101.1 35.3,101.3 35.3,110.9 44.4,101.1 					"/>
					<polygon class="st107" points="35.3,79.7 35.3,79.7 35.3,89.3 44.3,79.7 					"/>
					<polygon class="st108" points="44.8,89.4 44.8,80.5 36.2,89.4 					"/>
					<polygon class="st106" points="44.8,100.2 44.8,91.4 36.4,100.2 					"/>
					<polygon class="st24" points="55,46.4 55,37 46.1,46.4 					"/>
					<polygon class="st109" points="45.5,47.3 45.5,56.5 54.3,47.3 					"/>
					<polygon class="st110" points="45.5,25.7 45.5,34.9 54.1,25.7 					"/>
					<polygon class="st111" points="55,57.1 55,47.7 46.2,57.1 					"/>
					<polygon class="st112" points="45.5,36.6 45.5,45.8 54.1,36.6 					"/>
					<polygon class="st113" points="45.5,68.8 45.5,78.3 54.3,68.8 					"/>
					<polygon class="st114" points="55,68 55,58.6 46.2,68 					"/>
					<polygon class="st115" points="45.5,58.1 45.5,67.4 54.3,58.1 					"/>
					<polygon class="st116" points="45.5,15 45.5,24 54,15 					"/>
					<polygon class="st117" points="55,78.7 55,69.4 46.4,78.7 					"/>
					<polygon class="st35" points="45.5,4.3 45.5,13.3 54,4.3 					"/>
					<polygon class="st118" points="45.5,-6.4 45.5,2.4 54,-6.4 					"/>
					<polygon class="st119" points="44.8,14 44.8,4.5 35.8,14 					"/>
					<polygon class="st120" points="44.8,-6.2 35.6,3.3 44.6,3.3 44.8,3.3 					"/>
					<polygon class="st121" points="45.5,79.7 45.5,89.1 54.5,79.7 					"/>
					<polygon class="st122" points="55,100.2 55,91.2 46.4,100.2 					"/>
					<polygon class="st123" points="45.5,90.4 45.5,90.4 45.5,100 54.5,90.4 					"/>
					<polygon class="st124" points="55,89.4 55,80.3 46.4,89.4 					"/>
					<polygon class="st125" points="45.7,101.1 45.5,101.1 45.5,110.7 54.7,101.1 					"/>
					<polygon class="st126" points="54.7,112 54.7,111.8 45.7,111.8 45.7,112 					"/>
					<polygon class="st127" points="55,111.1 55,101.9 46.6,111.1 					"/>
					<polygon class="st128" points="44.8,68 44.8,58.8 36.2,68 					"/>
					<polygon class="st40" points="14.6,-6.4 14.6,2.8 23.4,-6.4 					"/>
					<polygon class="st129" points="24.1,3.3 24.1,-6 15.4,3.3 					"/>
					<polygon class="st130" points="14.6,4.3 14.6,13.7 23.4,4.3 					"/>
					<polygon class="st131" points="24.1,25 24.1,15.8 15.5,25 					"/>
					<polygon class="st132" points="24.1,14 24.1,4.9 15.4,14 					"/>
					<polygon class="st133" points="14.6,15 14.6,24.6 23.6,15 					"/>
					<polygon class="st134" points="14.6,25.7 14.6,25.7 14.6,35.3 23.6,25.7 					"/>
					<polygon class="st135" points="24.1,78.7 24.1,69.9 15.9,78.7 					"/>
					<polygon class="st136" points="24,90.4 15,90.4 14.6,90.8 14.6,100.2 14.8,100.2 					"/>
					<polygon class="st137" points="24.1,89.4 24.1,80.6 15.9,89.4 					"/>
					<polygon class="st138" points="24.1,35.7 24.1,26.5 15.5,35.7 					"/>
					<polygon class="st139" points="24,79.7 15,79.7 14.6,80.1 14.6,89.4 14.6,89.4 					"/>
					<polygon class="st140" points="24.1,101.1 24.1,101.1 15.2,101.1 14.6,101.7 14.6,111.1 14.8,111.1 					"/>
					<polygon class="st141" points="24.1,112 24.1,112 24.1,111.8 15.2,111.8 15.2,112 					"/>
					<polygon class="st142" points="24.1,102.5 16.1,111.1 24.1,111.1 					"/>
					<polygon class="st143" points="24.1,100.2 24.1,91.6 15.9,100.2 					"/>
					<polygon class="st144" points="24.1,46.4 24.1,37.4 15.5,46.4 					"/>
					<polygon class="st145" points="14.6,36.6 14.6,36.6 14.6,46.2 23.6,36.6 					"/>
					<polygon class="st146" points="14.8,47.3 14.6,47.5 14.6,57.1 23.8,47.3 					"/>
					<polygon class="st147" points="24,68.8 15,68.8 14.6,69.2 14.6,78.7 14.6,78.7 					"/>
					<polygon class="st148" points="24.1,68 24.1,59 15.7,68 					"/>
					<polygon class="st149" points="14.8,58.1 14.6,58.3 14.6,67.8 23.8,58.1 					"/>
					<polygon class="st150" points="34.4,25 34.4,15.6 25.6,25 					"/>
					<polygon class="st151" points="24.9,25.7 24.9,35.3 33.8,25.7 					"/>
					<polygon class="st152" points="24.9,15 24.9,24.4 33.7,15 					"/>
					<polygon class="st153" points="24.9,47.3 24.9,47.3 24.9,56.9 33.8,47.3 					"/>
					<polygon class="st154" points="34.4,46.4 34.4,37.2 25.8,46.4 					"/>
					<polygon class="st155" points="24.9,36.6 24.9,46 33.8,36.6 					"/>
					<polygon class="st156" points="34.4,35.7 34.4,26.5 25.8,35.7 					"/>
					<polygon class="st128" points="24.9,-6.4 24.9,2.8 33.5,-6.4 					"/>
					<polygon class="st157" points="34.4,14 34.4,4.7 25.6,14 					"/>
					<polygon class="st158" points="24.9,4.3 24.9,13.5 33.7,4.3 					"/>
					<polygon class="st159" points="34.4,3.3 34.4,-6 25.6,3.3 					"/>
					<polygon class="st160" points="34.4,111.1 34.4,102.3 26.1,111.1 					"/>
					<polygon class="st161" points="34.2,101.1 25.2,101.1 24.9,101.5 24.9,111.1 25,111.1 					"/>
					<polygon class="st162" points="34.4,100.2 34.4,91.4 26.1,100.2 					"/>
					<polygon class="st163" points="34.2,90.4 25.2,90.4 24.9,90.6 24.9,100.2 24.9,100.2 					"/>
					<polygon class="st164" points="34.2,112 34.4,111.8 25.4,111.8 25.2,112 					"/>
					<polygon class="st165" points="34.4,78.7 34.4,69.7 25.9,78.7 					"/>
					<polygon class="st166" points="34.4,68 34.4,58.8 25.9,68 					"/>
					<polygon class="st167" points="34.4,89.4 34.4,80.6 26.1,89.4 					"/>
					<polygon class="st168" points="25,58.1 24.9,58.3 24.9,67.8 34,58.1 					"/>
					<polygon class="st169" points="25,68.8 24.9,69 24.9,78.5 34,68.8 					"/>
					<polygon class="st170" points="25.2,79.7 24.9,79.9 24.9,89.4 34.2,79.7 					"/>
					<polygon class="st171" points="34.4,57.1 34.4,48.1 25.8,57.1 					"/>
					<path class="st172" d="M-5.3,112L-5.3,112h8.6l0,0h1.4h0.2h8.8l0,0H15l0,0h9l0,0l0,0h1.3l0,0h9H34h1.3l0,0h9l0,0h1.3l0,0h9l0,0
						h1.3l0,0l0,0h9l0,0h1.4l0,0h7.9v-1h-7.2l7.2-7.7v-1.3l-7.9,8.4v-9.4h7.9v-1h-7.2l7.2-7.7v-1.3l-7.9,8.4v-9.2h7.9v-1h-7.4
						l7.4-7.8v-1.3l-7.9,8.4v-9h7.9v-1h-7.4l7.4-7.8v-1.3L66.2,78v-9.2h7.9v-1h-7.5l7.5-8v-1.1l-7.9,8.4v-9h7.9v-1h-7.5l7.5-8v-1.3
						l-7.9,8.4v-9h7.9v-1h-7.5l7.5-8v-1.3l-7.9,8.4v-8.8h7.9v-0.8h-7.7l7.7-8.2v-1.3l-7.9,8.4v-8.8h7.9v-1h-7.7l7.7-8.2v-1.1
						l-7.9,8.4V15h7.9v-1h-7.9l7.9-8.2V4.5l-7.9,8.4V4.3h7.9v-1h-7.9l0,0l7.9-8.4v-1.3L66.2,2v-8.4h7.9v-0.8h-81v119.4h1.6V112z
						 M65.3,111.1h-8.6l8.6-9.2V111.1z M65.3,100.2h-8.6l8.6-9.2V100.2z M65.3,89.4h-8.8l8.8-9.4V89.4z M65.3,78.7h-8.8l8.8-9.4
						V78.7z M65.3,68h-9l9-9.6V68z M65.3,57.1h-9l9-9.6V57.1z M65.3,46.4L65.3,46.4h-9l9-9.6V46.4z M65.3,35.5L65.3,35.5l-9,0.2
						l9.2-9.8v9.6H65.3z M65.3,24.6L65.1,25h-9l9.2-9.8V24.6z M65.3,13.9L65.1,14h-9l9.3-10v9.8H65.3z M65.3-6.4v9.6l-0.4,0.4h-9
						L65.3-6.4L65.3-6.4z M55.9-6.4h8.3l-8.3,8.8V-6.4z M55.9,4.3h8.3l-8.3,8.8V4.3z M55.9,15h8.3l-8.3,8.8V15z M55.9,25.7h8.4
						l-8.4,9C55.9,34.7,55.9,25.7,55.9,25.7z M55.9,36.6h8.4l-8.4,9C55.9,45.6,55.9,36.6,55.9,36.6z M55.9,47.3h8.6l-8.6,9.2
						C55.9,56.5,55.9,47.3,55.9,47.3z M55.9,58.1h8.6l-8.6,9.2C55.9,67.2,55.9,58.1,55.9,58.1z M55.9,68.8h8.6L55.9,78
						C55.9,78,55.9,68.8,55.9,68.8z M55.9,79.7h8.8l-8.8,9.4V79.7z M55.9,90.4h8.8l-8.8,9.4V90.4z M55.9,101.1h9l-9,9.6
						C55.9,110.7,55.9,101.1,55.9,101.1z M3.5,111.1h-7.7l7.7-8.4V111.1z M3.5,100.2h-7.9l7.9-8.4V100.2z M3.5,89.4h-7.9L3.5,81
						V89.4z M3.5,78.7h-7.9l7.9-8.6V78.7z M3.5,68h-8.1l8.1-8.6V68z M3.5,57.1h-8.1l8.1-8.6V57.1z M3.5,46.4h-8.3l8.3-8.8V46.4z
						 M3.5,35.7h-8.3l8.3-8.8V35.7z M3.5,25h-8.4l8.3-8.8V25H3.5z M3.5,14h-8.4l8.4-9C3.5,5,3.5,14,3.5,14z M13.7,111.1H5.8l7.9-8.4
						V111.1z M13.7,100.2H5.8l7.9-8.4V100.2z M13.7,89.4H5.7l8.1-8.6V89.4z M13.7,78.7H5.7l8.1-8.6V78.7z M13.7,68H5.7l8.3-8.8V68
						H13.7z M13.7,57.1H5.5l8.3-8.8V57.1z M13.7,46.4H5.5l8.3-8.8V46.4z M13.7,35.7H5.3l8.4-9V35.7z M13.7,25H5.3l8.4-9V25z
						 M13.7,14H5.3l8.4-9V14z M24.1,111.1h-8.1l8.1-8.6V111.1z M24.1,100.2h-8.3l8.1-8.6v8.6H24.1z M24.1,89.4h-8.3l8.3-8.8
						C24.1,80.6,24.1,89.4,24.1,89.4z M24.1,78.7h-8.3l8.3-8.8C24.1,69.9,24.1,78.7,24.1,78.7z M24.1,68h-8.4l8.3-8.8V68H24.1z
						 M24.1,57.1h-8.4l8.4-9V57.1z M24.1,46.4h-8.6l8.4-9v9H24.1z M24.1,35.7h-8.6l8.6-9.2V35.7z M24.1,25h-8.6l8.6-9.2V25z
						 M24.1,14h-8.8L24,4.9V14H24.1z M34.4,111.1h-8.3l8.3-8.8V111.1z M34.4,100.2h-8.3l8.3-8.8V100.2z M34.4,89.4h-8.3l8.3-8.8
						V89.4z M34.4,78.7h-8.4l8.4-9V78.7z M34.4,68h-8.4l8.4-9V68z M34.4,57.1h-8.6l8.6-9.2V57.1z M34.4,46.4h-8.6l8.6-9.2V46.4z
						 M34.4,35.7h-8.6l8.6-9.2V35.7z M34.4,25h-8.8l8.8-9.4V25z M34.4,14h-8.8l8.8-9.4V14z M44.8,111.1h-8.4l8.3-8.8v8.8H44.8z
						 M44.8,100.2h-8.4l8.4-9V100.2z M44.8,89.4h-8.4l8.4-9V89.4z M44.8,78.7h-8.6l8.6-9.2V78.7z M44.8,68h-8.6l8.6-9.2V68z
						 M44.8,57.1h-8.6l8.6-9.2V57.1z M44.8,46.4H36l8.8-9.4V46.4z M44.8,35.7H36l8.8-9.4V35.7z M44.8,25h-9l9-9.6V25z M44.8,14h-9
						l9-9.6V14z M55,111.1h-8.4l8.4-9C55,102.1,55,111.1,55,111.1z M55,100.2h-8.6L55,91C55,91,55,100.2,55,100.2z M55,89.4h-8.6
						l8.6-9.2C55,80.3,55,89.4,55,89.4z M55,78.7h-8.6l8.6-9.2C55,69.5,55,78.7,55,78.7z M55,68h-8.8l8.8-9.4V68z M55,57.1h-8.8
						l8.8-9.4V57.1z M55,46.4h-9l9-9.6V46.4z M55,35.7h-9l9-9.6V35.7z M55,24.8L55,24.8h-9l9-9.6V24.8z M55,14L55,14l-9.2,0.2
						L55,4.5V14z M55,3.1l-0.2,0.2h-9L55-6.4V3.1z M45.5-6.4h8.3l-8.3,8.8V-6.4z M45.5,4.3H54l-8.4,9C45.5,13.3,45.5,4.3,45.5,4.3z
						 M45.5,15H54l-8.4,9C45.5,24,45.5,15,45.5,15z M45.5,25.7h8.6l-8.6,9.2C45.5,34.9,45.5,25.7,45.5,25.7z M45.5,36.6h8.6
						l-8.6,9.2C45.5,45.8,45.5,36.6,45.5,36.6z M45.5,47.3h8.8l-8.6,9.2v-9.2H45.5z M45.5,58.1h8.8l-8.8,9.4V58.1z M45.5,68.8h8.8
						l-8.8,9.4V68.8z M45.5,79.7h9l-9,9.6V79.7z M45.5,90.4L45.5,90.4h9l-9,9.6V90.4z M45.5,101.1L45.5,101.1h9l-9,9.6V101.1z
						 M44.8,3.3L44.8,3.3h-9l9-9.6V3.3z M35.3-6.4h8.4l-8.4,9C35.3,2.6,35.3-6.4,35.3-6.4z M35.3,4.3h8.6l-8.6,9.2
						C35.3,13.5,35.3,4.3,35.3,4.3z M35.3,15h8.6l-8.6,9.2V15z M35.3,25.7h8.6l-8.6,9.2C35.3,34.9,35.3,25.7,35.3,25.7z M35.3,36.6
						h8.8L35.3,46V36.6z M35.3,47.3h8.8l-8.8,9.4V47.3z M35.3,58.1h9l-9,9.6V58.1z M35.3,68.8L35.3,68.8h9l-9,9.6V68.8z M35.3,79.7
						L35.3,79.7h9l-9,9.6V79.7z M35.3,90.6L35.3,90.6l9.2-0.2l-9.2,9.8V90.6z M35.3,101.3l0.2-0.2h9l-9.2,9.8V101.3z M34.4,3.3h-9
						l9-9.6V3.3z M24.9-6.4h8.6l-8.6,9.2C24.9,2.8,24.9-6.4,24.9-6.4z M24.9,4.3h8.6l-8.6,9.2C24.9,13.5,24.9,4.3,24.9,4.3z
						 M24.9,15h8.8l-8.8,9.4V15z M24.9,25.7h8.8l-8.8,9.4V25.7z M24.9,36.6h9l-9,9.6V36.6z M24.9,47.3L24.9,47.3h9l-9,9.6V47.3z
						 M24.9,58.3L24.9,58.3h9l-9,9.6V58.3z M24.9,69L24.9,69l9.2-0.2l-9.2,9.8V69z M24.9,79.9l0.2-0.2h9l-9.2,9.8V79.9z M24.9,90.6
						l0.4-0.4h9l-9.3,10l0,0C24.9,100.2,24.9,90.6,24.9,90.6z M24.9,101.5l0.4-0.4h9l-9.3,10h-0.2v-9.6H24.9z M24.1,3.3h-8.8L24.1-6
						C24.1-6,24.1,3.3,24.1,3.3z M14.6-6.4h8.8l-8.8,9.2V-6.4z M14.6,4.3h8.8l-8.8,9.4V4.3z M14.6,15h9l-9,9.6V15z M14.6,25.7
						L14.6,25.7h9l-9,9.6V25.7z M14.6,36.6L14.6,36.6h9l-9,9.6V36.6z M14.6,47.5L14.6,47.5l9.2-0.2l-9.2,9.8V47.5z M14.6,58.3
						l0.2-0.2h9l-9.2,9.8V58.3z M14.6,69.2l0.4-0.4h9l-9.3,10l0,0V69.2z M14.6,80.1l0.4-0.4h9l-9.3,10l0,0
						C14.6,89.6,14.6,80.1,14.6,80.1z M14.6,90.8l0.4-0.4h9l-9.2,9.8h-0.2V90.8z M14.6,101.7l0.5-0.6h9l0,0l-9.3,10h-0.2V101.7z
						 M13.7,3.3H5.1l8.6-9.2V3.3z M4.2-6.4h9l-9,9.6C4.2,3.1,4.2-6.4,4.2-6.4z M4.2,4.3L4.2,4.3h9l-9,9.6C4.2,13.9,4.2,4.3,4.2,4.3z
						 M4.2,15.2L4.2,15.2h9l-9,9.6C4.2,24.8,4.2,15.2,4.2,15.2z M4.2,25.9L4.2,25.9l9.2-0.2l-9.2,9.8V25.9z M4.2,36.8l0.2-0.2h9
						l-9.2,9.8V36.8z M4.2,47.5l0.4-0.4h9l-9.3,10l0,0C4.2,57.1,4.2,47.5,4.2,47.5z M4.2,58.4l0.4-0.4h9L4.2,68l0,0
						C4.2,68,4.2,58.4,4.2,58.4z M4.2,69.4L4.6,69h9l-9.3,10h0V69.4z M4.2,80.1l0.5-0.4h9l0,0l-9.2,9.8H4.2V80.1z M4.2,91l0.5-0.6
						h8.8l0,0l-9.2,9.8H4.2V91z M4.2,101.9l0.7-0.8h8.8v0.2l-9.2,9.8H4.2V101.9z M3.5,3.3h-8.4l8.4-9C3.5-5.7,3.5,3.3,3.5,3.3z
						 M-6-6.4L-6-6.4h9l-9,9.6V-6.4z M-6,4.5L-6,4.5l9.2-0.2L-6,14V4.5z M-6,15.2l0.2-0.2h9L-6,24.8V15.2z M-6,26.1l0.4-0.4h9
						l-9.3,10l0,0V26.1z M-6,37l0.4-0.4h9l-9.3,10l0,0C-6,46.6-6,37-6,37z M-6,47.7l0.4-0.4h9l-9.3,10h-0.2v-9.6H-6z M-6,58.6
						l0.5-0.6h9l0,0l-9.2,9.8h-0.2v-9.2H-6z M-6,69.5l0.5-0.6h9l0,0l-9.2,9.8H-6V69.5z M-6,80.3l0.7-0.8h8.8v0.2l-9.2,9.8H-6
						C-6,89.4-6,80.3-6,80.3z M-6,91.2l0.7-0.8h8.8v0.2l-9,9.6h-0.4v-9H-6z M-6,101.9l0.7-0.8h8.6v0.4l-9,9.6h-0.5v-9.2H-6z"/>
				</g>
			</g>
		</g>
	</g>
</g>
</svg>
