<?xml version="1.0" encoding="utf-8"?>
<!-- Generator: Adobe Illustrator 26.5.0, SVG Export Plug-In . SVG Version: 6.00 Build 0)  -->
<svg version="1.1" id="Layer_1" xmlns="http://www.w3.org/2000/svg" xmlns:xlink="http://www.w3.org/1999/xlink" x="0px" y="0px"
	 viewBox="0 0 69.1 103.7" style="enable-background:new 0 0 69.1 103.7;" xml:space="preserve">
<style type="text/css">
	.st0{fill:#F2F2F2;}
	.st1{fill:#333333;}
	.st2{fill:#4D4D4D;}
</style>
<g>
	<path class="st0" d="M69.1,101c0,1.5-1.2,2.7-2.7,2.7H2.7c-1.5,0-2.7-1.2-2.7-2.7V2.7C0,1.2,1.2,0,2.7,0h63.7
		c1.5,0,2.7,1.2,2.7,2.7V101z"/>
	<g>
		<g>
			<path class="st1" d="M65.1,10.7c0,1.6-1.5,2.5-2.9,2.3c-0.7-0.1-1.3-0.6-1.7-1.1c-0.4-0.5-0.5-0.2-0.5,0.2c0.3,1.5,1,2.4,2.3,2.8
				c0.1,0,0.7,0.2,0.2,0.2h-5.2c-0.5,0,0-0.1,0.2-0.2c1.3-0.4,2-1.3,2.3-2.8c0.1-0.3,0-0.7-0.5-0.2c-0.4,0.5-1,1-1.7,1.1
				c-1.4,0.2-2.9-0.7-2.9-2.3v0c0-1.2,0.9-2.5,2.2-2.4c0.1,0,0.7,0.1,0.8,0c0.3-0.3-0.1-0.4-0.1-1v0c0-1.4,0.9-2.1,2-2.2v0
				c0,0,0.2,0,0.3,0c0.2,0,0.3,0,0.4,0v0c1.1,0.1,2,0.9,2,2.2v0c0,0.6-0.4,0.8-0.1,1c0.2,0.2,0.8,0,0.8,0
				C64.2,8.3,65.1,9.5,65.1,10.7L65.1,10.7z"/>
			<path class="st2" d="M59.9,5C59.9,5,59.9,5,59.9,5c-0.1,0-0.3,0-0.3,0v0c-1.1,0.1-2,0.9-2,2.2v0c0,0.6,0.4,0.8,0.1,1
				c-0.2,0.2-0.8,0.1-0.8,0c-1.2-0.1-2.2,1.2-2.2,2.4v0c0,1.6,1.5,2.5,2.9,2.3c0.7-0.1,1.3-0.6,1.7-1.1c0.4-0.5,0.5-0.2,0.5,0.2
				c-0.3,1.5-1,2.4-2.3,2.8c-0.1,0-0.7,0.2-0.2,0.2h2.6V5z"/>
		</g>
		<g>
			<path class="st1" d="M6,6.4L6,6.4L4.3,7.3L4,6.3l2.1-1.1h1.1v9.8H6V6.4z"/>
			<path class="st1" d="M17.3,9.9c0,3.3-1.2,5.1-3.4,5.1c-1.9,0-3.2-1.8-3.2-5c0-3.3,1.4-5.1,3.4-5.1C16.1,5,17.3,6.8,17.3,9.9z
				 M12,10.1c0,2.5,0.8,4,2,4c1.4,0,2-1.6,2-4.1c0-2.4-0.6-4-2-4C12.8,6,12,7.4,12,10.1z"/>
		</g>
	</g>
	<g>
		<g>
			<path class="st1" d="M4,92c0-1.6,1.5-2.5,2.9-2.3c0.7,0.1,1.3,0.6,1.7,1.1C9,91.3,9.1,90.9,9,90.6c-0.3-1.5-1-2.4-2.3-2.8
				c-0.1,0-0.7-0.2-0.2-0.2h5.2c0.5,0,0,0.1-0.2,0.2c-1.3,0.4-2,1.3-2.3,2.8c-0.1,0.3,0,0.7,0.5,0.2c0.4-0.5,1-1,1.7-1.1
				c1.4-0.2,2.9,0.7,2.9,2.3v0c0,1.2-0.9,2.5-2.2,2.4c-0.1,0-0.7-0.1-0.8,0c-0.3,0.3,0.1,0.4,0.1,1v0c0,1.4-0.9,2.1-2,2.2v0
				c0,0-0.2,0-0.3,0c-0.2,0-0.3,0-0.4,0v0c-1.1-0.1-2-0.9-2-2.2v0c0-0.6,0.4-0.8,0.1-1c-0.2-0.2-0.8,0-0.8,0C4.9,94.4,4,93.1,4,92
				L4,92z"/>
			<path class="st2" d="M9.2,97.7C9.2,97.7,9.2,97.7,9.2,97.7c0.1,0,0.3,0,0.3,0v0c1.1-0.1,2-0.9,2-2.2v0c0-0.6-0.4-0.8-0.1-1
				c0.2-0.2,0.8-0.1,0.8,0c1.2,0.1,2.2-1.2,2.2-2.4v0c0-1.6-1.5-2.5-2.9-2.3c-0.7,0.1-1.3,0.6-1.7,1.1c-0.4,0.5-0.5,0.2-0.5-0.2
				c0.3-1.5,1-2.4,2.3-2.8c0.1,0,0.7-0.2,0.2-0.2H9.2V97.7z"/>
		</g>
		<g>
			<path class="st1" d="M63.1,96.3L63.1,96.3l1.7-0.9l0.3,1L63,97.5h-1.1v-9.8h1.3V96.3z"/>
			<path class="st1" d="M51.8,92.8c0-3.3,1.2-5.1,3.4-5.1c1.9,0,3.2,1.8,3.2,5c0,3.3-1.4,5.1-3.4,5.1C53,97.7,51.8,95.9,51.8,92.8z
				 M57.1,92.6c0-2.5-0.8-4-2-4c-1.4,0-2,1.6-2,4.1c0,2.4,0.6,4,2,4C56.3,96.7,57.1,95.3,57.1,92.6z"/>
		</g>
	</g>
	<g>
		<g>
			<g>
				<path class="st1" d="M28.2,29.9c0,1.8-1.6,2.8-3.2,2.6c-0.8-0.1-1.4-0.6-1.9-1.2c-0.5-0.6-0.6-0.2-0.5,0.2
					c0.3,1.7,1.1,2.7,2.6,3.2c0.1,0,0.8,0.2,0.2,0.2h-5.8c-0.6,0,0.1-0.1,0.2-0.2c1.5-0.5,2.3-1.4,2.6-3.2c0.1-0.4,0-0.7-0.5-0.2
					c-0.5,0.6-1.1,1.1-1.9,1.2c-1.6,0.2-3.2-0.8-3.2-2.6v0c0-1.3,1.1-2.7,2.4-2.6c0.1,0,0.7,0.1,0.9,0c0.3-0.3-0.1-0.5-0.1-1.1v0
					c0-1.5,1-2.4,2.2-2.5v0c0,0,0.3,0,0.4,0c0.2,0,0.4,0,0.4,0v0c1.2,0.1,2.2,1,2.2,2.5v0c0,0.6-0.4,0.9-0.1,1.1
					c0.2,0.2,0.9,0.1,0.9,0C27.1,27.1,28.2,28.6,28.2,29.9L28.2,29.9z"/>
				<path class="st2" d="M22.3,23.5C22.3,23.5,22.3,23.5,22.3,23.5c-0.1,0-0.4,0-0.4,0v0c-1.2,0.1-2.2,1-2.2,2.5v0
					c0,0.6,0.4,0.9,0.1,1.1c-0.2,0.2-0.8,0.1-0.9,0c-1.4-0.1-2.4,1.3-2.4,2.6v0c0,1.8,1.6,2.8,3.2,2.6c0.8-0.1,1.4-0.6,1.9-1.2
					c0.5-0.6,0.6-0.2,0.5,0.2c-0.3,1.7-1.1,2.7-2.6,3.2c-0.1,0-0.8,0.2-0.2,0.2h2.9V23.5z"/>
			</g>
			<g>
				<path class="st1" d="M52.5,29.9c0,1.8-1.6,2.8-3.2,2.6c-0.8-0.1-1.4-0.6-1.9-1.2c-0.5-0.6-0.6-0.2-0.5,0.2
					c0.3,1.7,1.1,2.7,2.6,3.2c0.1,0,0.8,0.2,0.2,0.2h-5.8c-0.6,0,0.1-0.1,0.2-0.2c1.5-0.5,2.3-1.4,2.6-3.2c0.1-0.4-0.1-0.7-0.5-0.2
					c-0.5,0.6-1.1,1.1-1.9,1.2c-1.6,0.2-3.2-0.8-3.2-2.6v0c0-1.3,1.1-2.7,2.4-2.6c0.1,0,0.7,0.1,0.9,0c0.3-0.3-0.1-0.5-0.1-1.1v0
					c0-1.5,1-2.4,2.2-2.5v0c0,0,0.3,0,0.4,0c0.2,0,0.4,0,0.4,0v0c1.2,0.1,2.2,1,2.2,2.5v0c0,0.6-0.4,0.9-0.1,1.1
					c0.2,0.2,0.9,0.1,0.9,0C51.5,27.1,52.5,28.6,52.5,29.9L52.5,29.9z"/>
				<path class="st2" d="M46.7,23.5C46.7,23.5,46.7,23.5,46.7,23.5c-0.1,0-0.4,0-0.4,0v0c-1.2,0.1-2.2,1-2.2,2.5v0
					c0,0.6,0.4,0.9,0.1,1.1c-0.2,0.2-0.9,0.1-0.9,0c-1.4-0.1-2.4,1.3-2.4,2.6v0c0,1.8,1.6,2.8,3.2,2.6c0.8-0.1,1.4-0.6,1.9-1.2
					c0.5-0.6,0.6-0.2,0.5,0.2c-0.3,1.7-1.1,2.7-2.6,3.2c-0.1,0-0.8,0.2-0.2,0.2h2.9V23.5z"/>
			</g>
		</g>
		<g>
			<path class="st1" d="M40.4,37.7c0,1.8-1.6,2.8-3.2,2.6c-0.8-0.1-1.4-0.6-1.9-1.2c-0.5-0.6-0.6-0.2-0.5,0.2
				c0.3,1.7,1.1,2.7,2.6,3.2c0.1,0,0.8,0.2,0.2,0.2h-5.8c-0.6,0,0.1-0.1,0.2-0.2c1.5-0.5,2.3-1.4,2.6-3.2c0.1-0.4,0-0.7-0.5-0.2
				c-0.5,0.6-1.1,1.1-1.9,1.2c-1.6,0.2-3.2-0.8-3.2-2.6v0c0-1.3,1.1-2.7,2.4-2.7c0.1,0,0.7,0.1,0.9,0c0.3-0.3-0.1-0.5-0.1-1.1v0
				c0-1.5,1-2.4,2.2-2.5v0c0,0,0.3,0,0.4,0c0.2,0,0.4,0,0.4,0v0c1.2,0.1,2.2,1,2.2,2.5v0c0,0.6-0.4,0.9-0.1,1.1
				c0.2,0.2,0.9,0.1,0.9,0C39.3,35,40.4,36.4,40.4,37.7L40.4,37.7z"/>
			<path class="st2" d="M34.5,31.3C34.5,31.3,34.5,31.3,34.5,31.3c-0.1,0-0.4,0-0.4,0v0c-1.2,0.1-2.2,1-2.2,2.5v0
				c0,0.6,0.4,0.9,0.1,1.1c-0.2,0.2-0.9,0.1-0.9,0c-1.4-0.1-2.4,1.3-2.4,2.7v0c0,1.8,1.6,2.8,3.2,2.6c0.8-0.1,1.4-0.6,1.9-1.2
				c0.5-0.6,0.6-0.2,0.5,0.2c-0.3,1.7-1.1,2.7-2.6,3.2c-0.1,0-0.8,0.2-0.2,0.2h2.9V31.3z"/>
		</g>
		<g>
			<g>
				<path class="st1" d="M28.2,44.7c0,1.8-1.6,2.8-3.2,2.6c-0.8-0.1-1.4-0.6-1.9-1.2c-0.5-0.6-0.6-0.2-0.5,0.2
					c0.3,1.7,1.1,2.7,2.6,3.2c0.1,0,0.8,0.2,0.2,0.2h-5.8c-0.6,0,0.1-0.1,0.2-0.2c1.5-0.5,2.3-1.4,2.6-3.2c0.1-0.4,0-0.7-0.5-0.2
					c-0.5,0.6-1.1,1.1-1.9,1.2c-1.6,0.2-3.2-0.8-3.2-2.6v0c0-1.3,1.1-2.8,2.4-2.7c0.1,0,0.7,0.1,0.9,0c0.3-0.3-0.1-0.5-0.1-1.1v0
					c0-1.5,1-2.4,2.2-2.5v0c0,0,0.3,0,0.4,0c0.2,0,0.4,0,0.4,0v0c1.2,0.1,2.2,1,2.2,2.5v0c0,0.6-0.4,0.9-0.1,1.1
					c0.2,0.2,0.9,0.1,0.9,0C27.1,42,28.2,43.4,28.2,44.7L28.2,44.7z"/>
				<path class="st2" d="M22.3,38.4C22.3,38.4,22.3,38.4,22.3,38.4c-0.1,0-0.4,0-0.4,0v0c-1.2,0.1-2.2,1-2.2,2.5v0
					c0,0.6,0.4,0.9,0.1,1.1c-0.2,0.2-0.8,0.1-0.9,0c-1.4-0.1-2.4,1.3-2.4,2.7v0c0,1.8,1.6,2.8,3.2,2.6c0.8-0.1,1.4-0.6,1.9-1.2
					c0.5-0.6,0.6-0.2,0.5,0.2c-0.3,1.7-1.1,2.7-2.6,3.2c-0.1,0-0.8,0.2-0.2,0.2h2.9V38.4z"/>
			</g>
			<g>
				<path class="st1" d="M52.5,44.7c0,1.8-1.6,2.8-3.2,2.6c-0.8-0.1-1.4-0.6-1.9-1.2c-0.5-0.6-0.6-0.2-0.5,0.2
					c0.3,1.7,1.1,2.7,2.6,3.2c0.1,0,0.8,0.2,0.2,0.2h-5.8c-0.6,0,0.1-0.1,0.2-0.2c1.5-0.5,2.3-1.4,2.6-3.2c0.1-0.4-0.1-0.7-0.5-0.2
					c-0.5,0.6-1.1,1.1-1.9,1.2c-1.6,0.2-3.2-0.8-3.2-2.6v0c0-1.3,1.1-2.8,2.4-2.7c0.1,0,0.7,0.1,0.9,0c0.3-0.3-0.1-0.5-0.1-1.1v0
					c0-1.5,1-2.4,2.2-2.5v0c0,0,0.3,0,0.4,0c0.2,0,0.4,0,0.4,0v0c1.2,0.1,2.2,1,2.2,2.5v0c0,0.6-0.4,0.9-0.1,1.1
					c0.2,0.2,0.9,0.1,0.9,0C51.5,42,52.5,43.4,52.5,44.7L52.5,44.7z"/>
				<path class="st2" d="M46.7,38.4C46.7,38.4,46.7,38.4,46.7,38.4c-0.1,0-0.4,0-0.4,0v0c-1.2,0.1-2.2,1-2.2,2.5v0
					c0,0.6,0.4,0.9,0.1,1.1c-0.2,0.2-0.9,0.1-0.9,0c-1.4-0.1-2.4,1.3-2.4,2.7v0c0,1.8,1.6,2.8,3.2,2.6c0.8-0.1,1.4-0.6,1.9-1.2
					c0.5-0.6,0.6-0.2,0.5,0.2C46.2,48,45.5,49,44,49.4c-0.1,0-0.8,0.2-0.2,0.2h2.9V38.4z"/>
			</g>
		</g>
		<g>
			<g>
				<path class="st1" d="M28.2,59.6c0,1.8-1.6,2.8-3.2,2.6c-0.8-0.1-1.4-0.6-1.9-1.2c-0.5-0.6-0.6-0.2-0.5,0.2
					c0.3,1.7,1.1,2.7,2.6,3.2c0.1,0,0.8,0.2,0.2,0.2h-5.8c-0.6,0,0.1-0.1,0.2-0.2c1.5-0.5,2.3-1.4,2.6-3.2c0.1-0.4,0-0.7-0.5-0.2
					c-0.5,0.6-1.1,1.1-1.9,1.2c-1.6,0.2-3.2-0.8-3.2-2.6v0c0-1.3,1.1-2.7,2.4-2.6c0.1,0,0.7,0.1,0.9,0c0.3-0.3-0.1-0.5-0.1-1.1v0
					c0-1.5,1-2.4,2.2-2.5v0c0,0,0.3,0,0.4,0c0.2,0,0.4,0,0.4,0v0c1.2,0.1,2.2,1,2.2,2.5v0c0,0.6-0.4,0.9-0.1,1.1
					c0.2,0.2,0.9,0.1,0.9,0C27.1,56.9,28.2,58.3,28.2,59.6L28.2,59.6z"/>
				<path class="st2" d="M22.3,53.2C22.3,53.2,22.3,53.2,22.3,53.2c-0.1,0-0.4,0-0.4,0v0c-1.2,0.1-2.2,1-2.2,2.5v0
					c0,0.6,0.4,0.9,0.1,1.1C19.7,57.1,19,57,19,57c-1.4-0.1-2.4,1.3-2.4,2.6v0c0,1.8,1.6,2.8,3.2,2.6c0.8-0.1,1.4-0.6,1.9-1.2
					c0.5-0.6,0.6-0.2,0.5,0.2c-0.3,1.7-1.1,2.7-2.6,3.2c-0.1,0-0.8,0.2-0.2,0.2h2.9V53.2z"/>
			</g>
			<g>
				<path class="st1" d="M52.5,59.6c0,1.8-1.6,2.8-3.2,2.6c-0.8-0.1-1.4-0.6-1.9-1.2c-0.5-0.6-0.6-0.2-0.5,0.2
					c0.3,1.7,1.1,2.7,2.6,3.2c0.1,0,0.8,0.2,0.2,0.2h-5.8c-0.6,0,0.1-0.1,0.2-0.2c1.5-0.5,2.3-1.4,2.6-3.2c0.1-0.4-0.1-0.7-0.5-0.2
					c-0.5,0.6-1.1,1.1-1.9,1.2c-1.6,0.2-3.2-0.8-3.2-2.6v0c0-1.3,1.1-2.7,2.4-2.6c0.1,0,0.7,0.1,0.9,0c0.3-0.3-0.1-0.5-0.1-1.1v0
					c0-1.5,1-2.4,2.2-2.5v0c0,0,0.3,0,0.4,0c0.2,0,0.4,0,0.4,0v0c1.2,0.1,2.2,1,2.2,2.5v0c0,0.6-0.4,0.9-0.1,1.1
					c0.2,0.2,0.9,0.1,0.9,0C51.5,56.9,52.5,58.3,52.5,59.6L52.5,59.6z"/>
				<path class="st2" d="M46.7,53.2C46.7,53.2,46.7,53.2,46.7,53.2c-0.1,0-0.4,0-0.4,0v0c-1.2,0.1-2.2,1-2.2,2.5v0
					c0,0.6,0.4,0.9,0.1,1.1c-0.2,0.2-0.9,0.1-0.9,0c-1.4-0.1-2.4,1.3-2.4,2.6v0c0,1.8,1.6,2.8,3.2,2.6c0.8-0.1,1.4-0.6,1.9-1.2
					c0.5-0.6,0.6-0.2,0.5,0.2c-0.3,1.7-1.1,2.7-2.6,3.2c-0.1,0-0.8,0.2-0.2,0.2h2.9V53.2z"/>
			</g>
		</g>
		<g>
			<g>
				<path class="st1" d="M28.2,74.5c0,1.8-1.6,2.8-3.2,2.6c-0.8-0.1-1.4-0.6-1.9-1.2c-0.5-0.6-0.6-0.2-0.5,0.2
					c0.3,1.7,1.1,2.7,2.6,3.2c0.1,0,0.8,0.2,0.2,0.2h-5.8c-0.6,0,0.1-0.1,0.2-0.2c1.5-0.5,2.3-1.4,2.6-3.2c0.1-0.4,0-0.7-0.5-0.2
					c-0.5,0.6-1.1,1.1-1.9,1.2c-1.6,0.2-3.2-0.8-3.2-2.6v0c0-1.3,1.1-2.8,2.4-2.7c0.1,0,0.7,0.1,0.9,0c0.3-0.3-0.1-0.5-0.1-1.1v0
					c0-1.5,1-2.4,2.2-2.5v0c0,0,0.3,0,0.4,0c0.2,0,0.4,0,0.4,0v0c1.2,0.1,2.2,1,2.2,2.5v0c0,0.6-0.4,0.9-0.1,1.1
					c0.2,0.2,0.9,0.1,0.9,0C27.1,71.7,28.2,73.2,28.2,74.5L28.2,74.5z"/>
				<path class="st2" d="M22.3,68.1C22.3,68.1,22.3,68.1,22.3,68.1c-0.1,0-0.4,0-0.4,0v0c-1.2,0.1-2.2,1-2.2,2.5v0
					c0,0.6,0.4,0.9,0.1,1.1c-0.2,0.2-0.8,0.1-0.9,0c-1.4-0.1-2.4,1.3-2.4,2.7v0c0,1.8,1.6,2.8,3.2,2.6c0.8-0.1,1.4-0.6,1.9-1.2
					c0.5-0.6,0.6-0.2,0.5,0.2c-0.3,1.7-1.1,2.7-2.6,3.2c-0.1,0-0.8,0.2-0.2,0.2h2.9V68.1z"/>
			</g>
			<g>
				<path class="st1" d="M52.5,74.5c0,1.8-1.6,2.8-3.2,2.6c-0.8-0.1-1.4-0.6-1.9-1.2c-0.5-0.6-0.6-0.2-0.5,0.2
					c0.3,1.7,1.1,2.7,2.6,3.2c0.1,0,0.8,0.2,0.2,0.2h-5.8c-0.6,0,0.1-0.1,0.2-0.2c1.5-0.5,2.3-1.4,2.6-3.2c0.1-0.4-0.1-0.7-0.5-0.2
					c-0.5,0.6-1.1,1.1-1.9,1.2c-1.6,0.2-3.2-0.8-3.2-2.6v0c0-1.3,1.1-2.8,2.4-2.7c0.1,0,0.7,0.1,0.9,0c0.3-0.3-0.1-0.5-0.1-1.1v0
					c0-1.5,1-2.4,2.2-2.5v0c0,0,0.3,0,0.4,0c0.2,0,0.4,0,0.4,0v0c1.2,0.1,2.2,1,2.2,2.5v0c0,0.6-0.4,0.9-0.1,1.1
					c0.2,0.2,0.9,0.1,0.9,0C51.5,71.7,52.5,73.2,52.5,74.5L52.5,74.5z"/>
				<path class="st2" d="M46.7,68.1C46.7,68.1,46.7,68.1,46.7,68.1c-0.1,0-0.4,0-0.4,0v0c-1.2,0.1-2.2,1-2.2,2.5v0
					c0,0.6,0.4,0.9,0.1,1.1c-0.2,0.2-0.9,0.1-0.9,0c-1.4-0.1-2.4,1.3-2.4,2.7v0c0,1.8,1.6,2.8,3.2,2.6c0.8-0.1,1.4-0.6,1.9-1.2
					c0.5-0.6,0.6-0.2,0.5,0.2c-0.3,1.7-1.1,2.7-2.6,3.2c-0.1,0-0.8,0.2-0.2,0.2h2.9V68.1z"/>
			</g>
		</g>
		<g>
			<path class="st1" d="M40.4,67.4c0,1.8-1.6,2.8-3.2,2.6c-0.8-0.1-1.4-0.6-1.9-1.2c-0.5-0.6-0.6-0.2-0.5,0.2
				c0.3,1.7,1.1,2.7,2.6,3.2c0.1,0,0.8,0.2,0.2,0.2h-5.8c-0.6,0,0.1-0.1,0.2-0.2c1.5-0.5,2.3-1.4,2.6-3.2c0.1-0.4,0-0.7-0.5-0.2
				c-0.5,0.6-1.1,1.1-1.9,1.2c-1.6,0.2-3.2-0.8-3.2-2.6v0c0-1.3,1.1-2.7,2.4-2.6c0.1,0,0.7,0.1,0.9,0c0.3-0.3-0.1-0.5-0.1-1.1v0
				c0-1.5,1-2.4,2.2-2.5v0c0,0,0.3,0,0.4,0c0.2,0,0.4,0,0.4,0v0c1.2,0.1,2.2,1,2.2,2.5v0c0,0.6-0.4,0.9-0.1,1.1
				c0.2,0.2,0.9,0.1,0.9,0C39.3,64.7,40.4,66.1,40.4,67.4L40.4,67.4z"/>
			<path class="st2" d="M34.5,61C34.5,61,34.5,61,34.5,61c-0.1,0-0.4,0-0.4,0v0c-1.2,0.1-2.2,1-2.2,2.5v0c0,0.6,0.4,0.9,0.1,1.1
				c-0.2,0.2-0.9,0.1-0.9,0c-1.4-0.1-2.4,1.3-2.4,2.6v0c0,1.8,1.6,2.8,3.2,2.6c0.8-0.1,1.4-0.6,1.9-1.2c0.5-0.6,0.6-0.2,0.5,0.2
				c-0.3,1.7-1.1,2.7-2.6,3.2c-0.1,0-0.8,0.2-0.2,0.2h2.9V61z"/>
		</g>
	</g>
</g>
</svg>
