<?xml version="1.0" encoding="utf-8"?>
<!-- Generator: Adobe Illustrator 26.5.0, SVG Export Plug-In . SVG Version: 6.00 Build 0)  -->
<svg version="1.1" id="Layer_1" xmlns="http://www.w3.org/2000/svg" xmlns:xlink="http://www.w3.org/1999/xlink" x="0px" y="0px"
	 viewBox="0 0 69.1 103.7" style="enable-background:new 0 0 69.1 103.7;" xml:space="preserve">
<style type="text/css">
	.st0{fill:#F2F2F2;}
	.st1{fill:#333333;}
	.st2{fill:#4D4D4D;}
</style>
<g>
	<path class="st0" d="M69.1,101c0,1.5-1.2,2.7-2.7,2.7H2.7c-1.5,0-2.7-1.2-2.7-2.7V2.7C0,1.2,1.2,0,2.7,0h63.7
		c1.5,0,2.7,1.2,2.7,2.7V101z"/>
	<g>
		<g>
			<path class="st1" d="M4,14.9v-0.8l1-1C7.5,10.7,8.6,9.5,8.7,8c0-1-0.5-1.9-1.9-1.9c-0.9,0-1.6,0.4-2.1,0.8L4.2,6
				C4.9,5.4,5.9,5,7,5c2.1,0,3,1.4,3,2.8c0,1.8-1.3,3.3-3.4,5.2l-0.8,0.7v0h4.4v1.1H4z"/>
		</g>
		<g>
			<path class="st1" d="M65.1,10.6c0,1.6-1.4,2.5-2.8,2.3c-0.7-0.1-1.3-0.6-1.7-1.1c-0.4-0.5-0.5-0.2-0.5,0.2c0.3,1.5,1,2.4,2.2,2.8
				c0.1,0,0.7,0.2,0.2,0.2h-5.1c-0.5,0,0-0.1,0.2-0.2c1.3-0.4,2-1.3,2.2-2.8c0.1-0.3,0-0.7-0.5-0.2c-0.4,0.5-1,1-1.7,1.1
				c-1.4,0.2-2.8-0.7-2.8-2.3v0c0-1.1,0.9-2.4,2.1-2.3c0.1,0,0.7,0.1,0.8,0c0.3-0.3-0.1-0.4-0.1-1v0c0-1.4,0.9-2.1,1.9-2.2v0
				c0,0,0.2,0,0.3,0c0.2,0,0.3,0,0.4,0v0c1,0.1,2,0.9,1.9,2.2v0c0,0.6-0.4,0.8-0.1,1c0.2,0.2,0.7,0,0.8,0
				C64.2,8.2,65.1,9.5,65.1,10.6L65.1,10.6z"/>
			<path class="st2" d="M60,5C60,5,60,5,60,5c-0.1,0-0.3,0-0.3,0v0c-1,0.1-2,0.9-1.9,2.2v0c0,0.6,0.4,0.8,0.1,1
				c-0.2,0.2-0.7,0.1-0.8,0c-1.2-0.1-2.1,1.2-2.1,2.3v0c0,1.6,1.4,2.5,2.8,2.3c0.7-0.1,1.3-0.6,1.7-1.1c0.4-0.5,0.5-0.2,0.5,0.2
				c-0.3,1.5-1,2.4-2.2,2.8c-0.1,0-0.7,0.2-0.2,0.2H60V5z"/>
		</g>
	</g>
	<g>
		<g>
			<path class="st1" d="M65.1,88.8v0.8l-1,1c-2.5,2.4-3.6,3.6-3.6,5.1c0,1,0.5,1.9,1.9,1.9c0.9,0,1.6-0.4,2.1-0.8l0.4,0.9
				c-0.7,0.6-1.6,1-2.8,1c-2.1,0-3-1.4-3-2.8c0-1.8,1.3-3.3,3.4-5.2l0.8-0.7v0h-4.4v-1.1H65.1z"/>
		</g>
		<g>
			<path class="st1" d="M4,93.1c0-1.6,1.4-2.5,2.8-2.3c0.7,0.1,1.3,0.6,1.7,1.1C8.9,92.4,9,92.1,9,91.7c-0.3-1.5-1-2.4-2.2-2.8
				c-0.1,0-0.7-0.2-0.2-0.2h5.1c0.5,0,0,0.1-0.2,0.2c-1.3,0.4-2,1.3-2.2,2.8c-0.1,0.3,0,0.7,0.5,0.2c0.4-0.5,1-1,1.7-1.1
				c1.4-0.2,2.8,0.7,2.8,2.3v0c0,1.1-0.9,2.4-2.1,2.3c-0.1,0-0.7-0.1-0.8,0c-0.3,0.3,0.1,0.4,0.1,1v0c0,1.4-0.9,2.1-1.9,2.2v0
				c0,0-0.2,0-0.3,0c-0.2,0-0.3,0-0.4,0v0c-1-0.1-2-0.9-1.9-2.2v0c0-0.6,0.4-0.8,0.1-1c-0.2-0.2-0.7,0-0.8,0C4.9,95.5,4,94.2,4,93.1
				L4,93.1z"/>
			<path class="st2" d="M9.1,98.7C9.1,98.7,9.1,98.7,9.1,98.7c0.1,0,0.3,0,0.3,0v0c1-0.1,2-0.9,1.9-2.2v0c0-0.6-0.4-0.8-0.1-1
				c0.2-0.2,0.7-0.1,0.8,0c1.2,0.1,2.1-1.2,2.1-2.3v0c0-1.6-1.4-2.5-2.8-2.3c-0.7,0.1-1.3,0.6-1.7,1.1c-0.4,0.5-0.5,0.2-0.5-0.2
				c0.3-1.5,1-2.4,2.2-2.8c0.1,0,0.7-0.2,0.2-0.2H9.1V98.7z"/>
		</g>
	</g>
	<g>
		<g>
			<path class="st1" d="M42.1,34.5c0,2.3-2.1,3.6-4.2,3.3c-1.1-0.2-1.8-0.8-2.5-1.6c-0.6-0.7-0.7-0.3-0.7,0.2
				c0.4,2.2,1.4,3.5,3.3,4.1c0.2,0.1,1,0.2,0.3,0.2h-7.5c-0.7,0,0.1-0.2,0.3-0.2c1.9-0.6,2.9-1.9,3.3-4.1c0.1-0.5-0.1-1-0.7-0.2
				c-0.6,0.8-1.4,1.4-2.5,1.6c-2,0.3-4.2-1-4.2-3.3v0c0-1.7,1.4-3.5,3.1-3.4c0.1,0,1,0.2,1.2-0.1c0.4-0.4-0.1-0.6-0.2-1.5v0
				c-0.1-2,1.3-3.1,2.8-3.2v0c0,0,0.3,0,0.5,0c0.3,0,0.5,0,0.6,0v0c1.5,0.2,2.9,1.3,2.8,3.2v0c0,0.8-0.6,1.1-0.2,1.5
				c0.3,0.3,1.1,0.1,1.2,0.1C40.7,30.9,42.1,32.8,42.1,34.5L42.1,34.5z"/>
			<path class="st2" d="M34.5,26.2C34.5,26.2,34.5,26.2,34.5,26.2c-0.2,0-0.5,0-0.5,0v0c-1.5,0.2-2.9,1.3-2.8,3.2v0
				c0,0.8,0.6,1.1,0.2,1.5c-0.3,0.3-1.1,0.1-1.2,0.1c-1.8-0.1-3.1,1.7-3.1,3.4v0c0,2.3,2.1,3.6,4.2,3.3c1.1-0.2,1.8-0.8,2.5-1.6
				c0.6-0.7,0.7-0.3,0.7,0.2c-0.4,2.2-1.4,3.5-3.3,4.1c-0.2,0.1-1,0.2-0.3,0.2h3.7V26.2z"/>
		</g>
		<g>
			<path class="st1" d="M42.1,71.2c0,2.3-2.1,3.6-4.2,3.3c-1.1-0.2-1.8-0.8-2.5-1.6c-0.6-0.7-0.7-0.3-0.7,0.2
				c0.4,2.2,1.4,3.5,3.3,4.1c0.2,0.1,1,0.2,0.3,0.2h-7.5c-0.7,0,0.1-0.2,0.3-0.2c1.9-0.6,2.9-1.9,3.3-4.1c0.1-0.5-0.1-1-0.7-0.2
				c-0.6,0.8-1.4,1.4-2.5,1.6c-2,0.3-4.2-1-4.2-3.3v0c0-1.7,1.4-3.5,3.1-3.4c0.1,0,1,0.2,1.2-0.1c0.4-0.4-0.1-0.6-0.2-1.5v0
				c-0.1-2,1.3-3.1,2.8-3.2v0c0,0,0.3,0,0.5,0c0.3,0,0.5,0,0.6,0v0c1.5,0.2,2.9,1.3,2.8,3.2v0c0,0.8-0.6,1.1-0.2,1.5
				c0.3,0.3,1.1,0.1,1.2,0.1C40.7,67.6,42.1,69.5,42.1,71.2L42.1,71.2z"/>
			<path class="st2" d="M34.5,62.9C34.5,62.9,34.5,62.9,34.5,62.9c-0.2,0-0.5,0-0.5,0v0c-1.5,0.2-2.9,1.3-2.8,3.2v0
				c0,0.8,0.6,1.1,0.2,1.5c-0.3,0.3-1.1,0.1-1.2,0.1c-1.8-0.1-3.1,1.7-3.1,3.4v0c0,2.3,2.1,3.6,4.2,3.3c1.1-0.2,1.8-0.8,2.5-1.6
				c0.6-0.7,0.7-0.3,0.7,0.2c-0.4,2.2-1.4,3.5-3.3,4.1c-0.2,0.1-1,0.2-0.3,0.2h3.7V62.9z"/>
		</g>
	</g>
</g>
</svg>
