<?xml version="1.0" encoding="utf-8"?>
<!-- Generator: Adobe Illustrator 26.5.0, SVG Export Plug-In . SVG Version: 6.00 Build 0)  -->
<svg version="1.1" id="Layer_1" xmlns="http://www.w3.org/2000/svg" xmlns:xlink="http://www.w3.org/1999/xlink" x="0px" y="0px"
	 viewBox="0 0 69.1 103.7" style="enable-background:new 0 0 69.1 103.7;" xml:space="preserve">
<style type="text/css">
	.st0{fill:#F2F2F2;}
	.st1{fill:#333333;}
	.st2{fill:#4D4D4D;}
</style>
<g>
	<path class="st0" d="M69.1,101c0,1.5-1.2,2.7-2.7,2.7H2.7c-1.5,0-2.7-1.2-2.7-2.7V2.7C0,1.2,1.2,0,2.7,0h63.7
		c1.5,0,2.7,1.2,2.7,2.7V101z"/>
	<g>
		<g>
			<path class="st1" d="M53.6,32.6c0,1.9-1.7,3-3.4,2.7c-0.9-0.1-1.5-0.7-2-1.3c-0.5-0.6-0.6-0.2-0.5,0.2c0.3,1.8,1.1,2.9,2.7,3.3
				c0.2,0.1,0.8,0.2,0.2,0.2h-6.2c-0.6,0,0.1-0.1,0.2-0.2c1.5-0.5,2.4-1.5,2.7-3.3c0.1-0.4-0.1-0.8-0.5-0.2c-0.5,0.6-1.2,1.2-2,1.3
				c-1.7,0.2-3.4-0.8-3.4-2.7v0c0-1.4,1.1-2.9,2.6-2.8c0.1,0,0.8,0.2,1-0.1c0.3-0.3-0.1-0.5-0.2-1.2v0c0-1.6,1.1-2.5,2.3-2.7v0
				c0,0,0.3,0,0.4,0c0.2,0,0.4,0,0.5,0v0c1.2,0.2,2.4,1,2.3,2.7v0c0,0.7-0.5,0.9-0.2,1.2c0.2,0.2,0.9,0.1,1,0.1
				C52.5,29.7,53.6,31.2,53.6,32.6L53.6,32.6z"/>
			<path class="st2" d="M47.4,25.9C47.4,25.9,47.4,25.9,47.4,25.9c-0.1,0-0.4,0-0.4,0v0c-1.3,0.2-2.4,1-2.3,2.7v0
				c0,0.7,0.5,0.9,0.2,1.2c-0.2,0.2-0.9,0.1-1,0.1c-1.4-0.1-2.6,1.4-2.6,2.8v0c0,1.9,1.7,3,3.4,2.7c0.9-0.1,1.5-0.7,2-1.3
				c0.5-0.6,0.6-0.2,0.5,0.2c-0.3,1.8-1.1,2.9-2.7,3.3c-0.2,0.1-0.8,0.2-0.2,0.2h3.1V25.9z"/>
		</g>
		<g>
			<path class="st1" d="M40.7,52.6c0,1.9-1.7,3-3.4,2.7c-0.9-0.1-1.5-0.7-2-1.3c-0.5-0.6-0.6-0.2-0.5,0.2c0.3,1.8,1.1,2.9,2.7,3.3
				c0.2,0.1,0.8,0.2,0.2,0.2h-6.2c-0.6,0,0.1-0.1,0.2-0.2c1.5-0.5,2.4-1.5,2.7-3.3c0.1-0.4-0.1-0.8-0.5-0.2c-0.5,0.6-1.2,1.2-2,1.3
				c-1.7,0.2-3.4-0.8-3.4-2.7v0c0-1.4,1.1-2.9,2.6-2.8c0.1,0,0.8,0.2,1-0.1c0.3-0.3-0.1-0.5-0.2-1.2v0c0-1.6,1.1-2.5,2.3-2.7v0
				c0,0,0.3,0,0.4,0c0.2,0,0.4,0,0.5,0v0c1.2,0.2,2.4,1,2.3,2.7v0c0,0.7-0.5,0.9-0.2,1.2c0.2,0.2,0.9,0.1,1,0.1
				C39.6,49.7,40.7,51.3,40.7,52.6L40.7,52.6z"/>
			<path class="st2" d="M34.6,45.9C34.6,45.9,34.6,45.9,34.6,45.9c-0.1,0-0.4,0-0.4,0v0c-1.2,0.2-2.4,1-2.3,2.7v0
				c0,0.7,0.5,0.9,0.2,1.2c-0.2,0.2-0.9,0.1-1,0.1c-1.4-0.1-2.6,1.4-2.6,2.8v0c0,1.9,1.7,3,3.4,2.7c0.9-0.1,1.5-0.7,2-1.3
				c0.5-0.6,0.6-0.2,0.5,0.2c-0.3,1.8-1.1,2.9-2.7,3.3c-0.2,0.1-0.8,0.2-0.2,0.2h3.1V45.9z"/>
		</g>
		<g>
			<path class="st1" d="M27.9,72.7c0,1.9-1.7,3-3.4,2.7c-0.9-0.1-1.5-0.7-2-1.3c-0.5-0.6-0.6-0.2-0.5,0.2c0.3,1.8,1.1,2.9,2.7,3.3
				c0.2,0.1,0.8,0.2,0.2,0.2h-6.2c-0.6,0,0.1-0.1,0.2-0.2c1.5-0.5,2.4-1.5,2.7-3.3c0.1-0.4-0.1-0.8-0.5-0.2c-0.5,0.6-1.2,1.2-2,1.3
				c-1.7,0.2-3.4-0.8-3.4-2.7v0c0-1.4,1.1-2.9,2.6-2.8c0.1,0,0.8,0.2,1-0.1c0.3-0.3-0.1-0.5-0.2-1.2v0c0-1.6,1.1-2.5,2.3-2.7v0
				c0,0,0.3,0,0.4,0c0.2,0,0.4,0,0.5,0v0c1.2,0.2,2.4,1,2.3,2.7v0c0,0.7-0.5,0.9-0.2,1.2c0.2,0.2,0.9,0.1,1,0.1
				C26.7,69.8,27.9,71.3,27.9,72.7L27.9,72.7z"/>
			<path class="st2" d="M21.7,65.9C21.7,65.9,21.7,65.9,21.7,65.9c-0.1,0-0.4,0-0.4,0v0c-1.2,0.2-2.4,1-2.3,2.7v0
				c0,0.7,0.5,0.9,0.2,1.2c-0.2,0.2-0.9,0.1-1,0.1c-1.4-0.1-2.6,1.4-2.6,2.8v0c0,1.9,1.7,3,3.4,2.7c0.9-0.1,1.5-0.7,2-1.3
				c0.5-0.6,0.6-0.2,0.5,0.2c-0.3,1.8-1.1,2.9-2.7,3.3c-0.2,0.1-0.8,0.2-0.2,0.2h3.1V65.9z"/>
		</g>
	</g>
	<g>
		<g>
			<path class="st1" d="M4.4,13.4C4.7,13.6,5.6,14,6.5,14c1.7,0,2.2-1.1,2.2-1.9c0-1.4-1.2-2-2.5-2H5.5v-1h0.7c1,0,2.2-0.5,2.2-1.7
				c0-0.8-0.5-1.5-1.7-1.5c-0.8,0-1.5,0.3-2,0.6l-0.3-1C4.9,5.4,5.9,5,6.9,5c1.9,0,2.8,1.1,2.8,2.3c0,1-0.6,1.9-1.8,2.3v0
				c1.2,0.2,2.2,1.1,2.2,2.5c0,1.6-1.2,2.9-3.6,2.9c-1.1,0-2.1-0.3-2.5-0.7L4.4,13.4z"/>
		</g>
		<g>
			<path class="st1" d="M65.1,10.6c0,1.6-1.4,2.5-2.8,2.3c-0.7-0.1-1.3-0.6-1.7-1.1c-0.4-0.5-0.5-0.2-0.5,0.2c0.3,1.5,1,2.4,2.2,2.8
				c0.1,0,0.7,0.2,0.2,0.2h-5.1c-0.5,0,0-0.1,0.2-0.2c1.3-0.4,2-1.3,2.2-2.8c0.1-0.3,0-0.7-0.5-0.2c-0.4,0.5-1,1-1.7,1.1
				c-1.4,0.2-2.8-0.7-2.8-2.3v0c0-1.1,0.9-2.4,2.1-2.3c0.1,0,0.7,0.1,0.8,0c0.3-0.3-0.1-0.4-0.1-1v0c0-1.4,0.9-2.1,1.9-2.2v0
				c0,0,0.2,0,0.3,0c0.2,0,0.3,0,0.4,0v0c1,0.1,2,0.9,1.9,2.2v0c0,0.6-0.4,0.8-0.1,1c0.2,0.2,0.7,0,0.8,0
				C64.2,8.2,65.1,9.5,65.1,10.6L65.1,10.6z"/>
			<path class="st2" d="M60,5C60,5,60,5,60,5c-0.1,0-0.3,0-0.3,0v0c-1,0.1-2,0.9-1.9,2.2v0c0,0.6,0.4,0.8,0.1,1
				c-0.2,0.2-0.7,0.1-0.8,0c-1.2-0.1-2.1,1.2-2.1,2.3v0c0,1.6,1.4,2.5,2.8,2.3c0.7-0.1,1.3-0.6,1.7-1.1c0.4-0.5,0.5-0.2,0.5,0.2
				c-0.3,1.5-1,2.4-2.2,2.8c-0.1,0-0.7,0.2-0.2,0.2H60V5z"/>
		</g>
	</g>
	<g>
		<g>
			<path class="st1" d="M64.8,90.3c-0.4-0.2-1.2-0.6-2.2-0.6c-1.7,0-2.2,1.1-2.2,1.9c0,1.4,1.2,2,2.5,2h0.7v1h-0.7
				c-1,0-2.2,0.5-2.2,1.7c0,0.8,0.5,1.5,1.7,1.5c0.8,0,1.5-0.3,2-0.6l0.3,1c-0.5,0.4-1.5,0.8-2.5,0.8c-1.9,0-2.8-1.1-2.8-2.3
				c0-1,0.6-1.9,1.8-2.3v0C60,93.8,59,92.9,59,91.5c0-1.6,1.2-2.9,3.6-2.9c1.1,0,2.1,0.3,2.5,0.7L64.8,90.3z"/>
		</g>
		<g>
			<path class="st1" d="M4,93.1c0-1.6,1.4-2.5,2.8-2.3c0.7,0.1,1.3,0.6,1.7,1.1C8.9,92.4,9,92,9,91.7c-0.3-1.5-1-2.4-2.2-2.8
				c-0.1,0-0.7-0.2-0.2-0.2h5.1c0.5,0,0,0.1-0.2,0.2c-1.3,0.4-2,1.3-2.2,2.8c-0.1,0.3,0,0.7,0.5,0.2c0.4-0.5,1-1,1.7-1.1
				c1.4-0.2,2.8,0.7,2.8,2.3v0c0,1.1-0.9,2.4-2.1,2.3c-0.1,0-0.7-0.1-0.8,0c-0.3,0.3,0.1,0.4,0.1,1v0c0,1.4-0.9,2.1-1.9,2.2v0
				c0,0-0.2,0-0.3,0c-0.2,0-0.3,0-0.4,0v0c-1-0.1-2-0.9-1.9-2.2v0c0-0.6,0.4-0.8,0.1-1c-0.2-0.2-0.7,0-0.8,0C4.9,95.5,4,94.2,4,93.1
				L4,93.1z"/>
			<path class="st2" d="M9.1,98.7C9.1,98.7,9.1,98.7,9.1,98.7c0.1,0,0.3,0,0.3,0v0c1-0.1,2-0.9,1.9-2.2v0c0-0.6-0.4-0.8-0.1-1
				c0.2-0.2,0.7-0.1,0.8,0c1.2,0.1,2.1-1.2,2.1-2.3v0c0-1.6-1.4-2.5-2.8-2.3c-0.7,0.1-1.3,0.6-1.7,1.1c-0.4,0.5-0.5,0.2-0.5-0.2
				c0.3-1.5,1-2.4,2.2-2.8c0.1,0,0.7-0.2,0.2-0.2H9.1V98.7z"/>
		</g>
	</g>
</g>
</svg>
