<?xml version="1.0" encoding="utf-8"?>
<!-- Generator: Adobe Illustrator 26.5.0, SVG Export Plug-In . SVG Version: 6.00 Build 0)  -->
<svg version="1.1" id="Layer_1" xmlns="http://www.w3.org/2000/svg" xmlns:xlink="http://www.w3.org/1999/xlink" x="0px" y="0px"
	 viewBox="0 0 69.1 103.7" style="enable-background:new 0 0 69.1 103.7;" xml:space="preserve">
<style type="text/css">
	.st0{fill:#F2F2F2;}
	.st1{fill:#333333;}
	.st2{fill:#4D4D4D;}
</style>
<g>
	<path class="st0" d="M69.1,101c0,1.5-1.2,2.7-2.7,2.7H2.7c-1.5,0-2.7-1.2-2.7-2.7V2.7C0,1.2,1.2,0,2.7,0h63.7
		c1.5,0,2.7,1.2,2.7,2.7V101z"/>
	<g>
		<g>
			<path class="st1" d="M27.8,32.6c0,1.9-1.7,3-3.4,2.7c-0.9-0.1-1.5-0.7-2-1.3c-0.5-0.6-0.6-0.2-0.5,0.2c0.3,1.8,1.1,2.9,2.7,3.3
				c0.2,0.1,0.8,0.2,0.2,0.2h-6.2c-0.6,0,0.1-0.1,0.2-0.2c1.5-0.5,2.4-1.5,2.7-3.3c0.1-0.4-0.1-0.8-0.5-0.2c-0.5,0.6-1.2,1.2-2,1.3
				c-1.7,0.2-3.4-0.8-3.4-2.7v0c0-1.4,1.1-2.9,2.6-2.8c0.1,0,0.8,0.2,1-0.1c0.3-0.3-0.1-0.5-0.2-1.2v0c0-1.6,1.1-2.5,2.3-2.7v0
				c0,0,0.3,0,0.4,0c0.2,0,0.4,0,0.5,0v0c1.2,0.2,2.4,1,2.3,2.7v0c0,0.7-0.5,0.9-0.2,1.2c0.2,0.2,0.9,0.1,1,0.1
				C26.7,29.7,27.8,31.2,27.8,32.6L27.8,32.6z"/>
			<path class="st2" d="M21.7,25.8C21.7,25.8,21.6,25.8,21.7,25.8c-0.1,0-0.4,0-0.4,0v0c-1.2,0.2-2.4,1-2.3,2.7v0
				c0,0.7,0.5,0.9,0.2,1.2c-0.2,0.2-0.9,0.1-1,0.1c-1.4-0.1-2.6,1.4-2.6,2.8v0c0,1.9,1.7,3,3.4,2.7c0.9-0.1,1.5-0.7,2-1.3
				c0.5-0.6,0.6-0.2,0.5,0.2c-0.3,1.8-1.1,2.9-2.7,3.3c-0.2,0.1-0.8,0.2-0.2,0.2h3.1V25.8z"/>
		</g>
		<g>
			<path class="st1" d="M53.5,32.6c0,1.9-1.7,3-3.4,2.7c-0.9-0.1-1.5-0.7-2-1.3c-0.5-0.6-0.6-0.2-0.5,0.2c0.3,1.8,1.1,2.9,2.7,3.3
				c0.2,0.1,0.8,0.2,0.2,0.2h-6.2c-0.6,0,0.1-0.1,0.2-0.2c1.5-0.5,2.4-1.5,2.7-3.3c0.1-0.4-0.1-0.8-0.5-0.2c-0.5,0.6-1.2,1.2-2,1.3
				c-1.7,0.2-3.4-0.8-3.4-2.7v0c0-1.4,1.1-2.9,2.6-2.8c0.1,0,0.8,0.2,1-0.1c0.3-0.3-0.1-0.5-0.2-1.2v0c0-1.6,1.1-2.5,2.3-2.7v0
				c0,0,0.3,0,0.4,0c0.2,0,0.4,0,0.5,0v0c1.2,0.2,2.4,1,2.3,2.7v0c0,0.7-0.5,0.9-0.2,1.2c0.2,0.2,0.9,0.1,1,0.1
				C52.4,29.7,53.5,31.2,53.5,32.6L53.5,32.6z"/>
			<path class="st2" d="M47.4,25.8C47.4,25.8,47.4,25.8,47.4,25.8c-0.1,0-0.4,0-0.4,0v0c-1.3,0.2-2.4,1-2.3,2.7v0
				c0,0.7,0.5,0.9,0.2,1.2c-0.2,0.2-0.9,0.1-1,0.1c-1.4-0.1-2.6,1.4-2.6,2.8v0c0,1.9,1.7,3,3.4,2.7c0.9-0.1,1.5-0.7,2-1.3
				c0.5-0.6,0.6-0.2,0.5,0.2c-0.3,1.8-1.1,2.9-2.7,3.3c-0.2,0.1-0.8,0.2-0.2,0.2h3.1V25.8z"/>
		</g>
		<g>
			<path class="st1" d="M27.8,72.7c0,1.9-1.7,3-3.4,2.7c-0.9-0.1-1.5-0.7-2-1.3c-0.5-0.6-0.6-0.2-0.5,0.2c0.3,1.8,1.1,2.9,2.7,3.3
				c0.2,0.1,0.8,0.2,0.2,0.2h-6.2c-0.6,0,0.1-0.1,0.2-0.2c1.5-0.5,2.4-1.5,2.7-3.3c0.1-0.4-0.1-0.8-0.5-0.2c-0.5,0.6-1.2,1.2-2,1.3
				c-1.7,0.2-3.4-0.8-3.4-2.7v0c0-1.4,1.1-2.9,2.6-2.8c0.1,0,0.8,0.2,1-0.1c0.3-0.3-0.1-0.5-0.2-1.2v0c0-1.6,1.1-2.5,2.3-2.7v0
				c0,0,0.3,0,0.4,0c0.2,0,0.4,0,0.5,0v0c1.2,0.2,2.4,1,2.3,2.7v0c0,0.7-0.5,0.9-0.2,1.2c0.2,0.2,0.9,0.1,1,0.1
				C26.7,69.8,27.8,71.3,27.8,72.7L27.8,72.7z"/>
			<path class="st2" d="M21.7,65.9C21.7,65.9,21.6,65.9,21.7,65.9c-0.1,0-0.4,0-0.4,0v0c-1.2,0.2-2.4,1-2.3,2.7v0
				c0,0.7,0.5,0.9,0.2,1.2c-0.2,0.2-0.9,0.1-1,0.1c-1.4-0.1-2.6,1.4-2.6,2.8v0c0,1.9,1.7,3,3.4,2.7c0.9-0.1,1.5-0.7,2-1.3
				c0.5-0.6,0.6-0.2,0.5,0.2c-0.3,1.8-1.1,2.9-2.7,3.3c-0.2,0.1-0.8,0.2-0.2,0.2h3.1V65.9z"/>
		</g>
		<g>
			<path class="st1" d="M53.5,72.7c0,1.9-1.7,3-3.4,2.7c-0.9-0.1-1.5-0.7-2-1.3c-0.5-0.6-0.6-0.2-0.5,0.2c0.3,1.8,1.1,2.9,2.7,3.3
				c0.2,0.1,0.8,0.2,0.2,0.2h-6.2c-0.6,0,0.1-0.1,0.2-0.2c1.5-0.5,2.4-1.5,2.7-3.3c0.1-0.4-0.1-0.8-0.5-0.2c-0.5,0.6-1.2,1.2-2,1.3
				c-1.7,0.2-3.4-0.8-3.4-2.7v0c0-1.4,1.1-2.9,2.6-2.8c0.1,0,0.8,0.2,1-0.1c0.3-0.3-0.1-0.5-0.2-1.2v0c0-1.6,1.1-2.5,2.3-2.7v0
				c0,0,0.3,0,0.4,0c0.2,0,0.4,0,0.5,0v0c1.2,0.2,2.4,1,2.3,2.7v0c0,0.7-0.5,0.9-0.2,1.2c0.2,0.2,0.9,0.1,1,0.1
				C52.4,69.8,53.5,71.3,53.5,72.7L53.5,72.7z"/>
			<path class="st2" d="M47.4,65.9C47.4,65.9,47.4,65.9,47.4,65.9c-0.1,0-0.4,0-0.4,0v0c-1.3,0.2-2.4,1-2.3,2.7v0
				c0,0.7,0.5,0.9,0.2,1.2c-0.2,0.2-0.9,0.1-1,0.1c-1.4-0.1-2.6,1.4-2.6,2.8v0c0,1.9,1.7,3,3.4,2.7c0.9-0.1,1.5-0.7,2-1.3
				c0.5-0.6,0.6-0.2,0.5,0.2c-0.3,1.8-1.1,2.9-2.7,3.3c-0.2,0.1-0.8,0.2-0.2,0.2h3.1V65.9z"/>
		</g>
	</g>
	<g>
		<g>
			<path class="st1" d="M65.1,10.5c0,1.6-1.4,2.4-2.8,2.2c-0.7-0.1-1.2-0.5-1.7-1.1c-0.4-0.5-0.5-0.2-0.4,0.1
				c0.3,1.5,0.9,2.3,2.2,2.7c0.1,0,0.7,0.2,0.2,0.2h-5.1c-0.5,0,0-0.1,0.2-0.2c1.3-0.4,1.9-1.2,2.2-2.7c0.1-0.3,0-0.6-0.4-0.1
				c-0.4,0.5-0.9,1-1.7,1.1c-1.4,0.2-2.8-0.7-2.8-2.2v0c0-1.1,0.9-2.4,2.1-2.3c0.1,0,0.6,0.1,0.8,0c0.3-0.2-0.1-0.4-0.1-1v0
				c0-1.3,0.9-2,1.9-2.2v0c0,0,0.2,0,0.3,0c0.2,0,0.3,0,0.4,0v0c1,0.1,1.9,0.8,1.9,2.2v0c0,0.6-0.4,0.7-0.1,1c0.2,0.2,0.7,0,0.8,0
				C64.2,8.1,65.1,9.4,65.1,10.5L65.1,10.5z"/>
			<path class="st2" d="M60.1,5C60.1,5,60.1,5,60.1,5c-0.1,0-0.3,0-0.3,0v0c-1,0.1-1.9,0.8-1.9,2.2v0c0,0.6,0.4,0.7,0.1,1
				c-0.2,0.2-0.7,0.1-0.8,0c-1.2-0.1-2.1,1.2-2.1,2.3v0c0,1.6,1.4,2.4,2.8,2.2c0.7-0.1,1.2-0.5,1.7-1.1c0.4-0.5,0.5-0.2,0.4,0.1
				c-0.3,1.5-0.9,2.3-2.2,2.7c-0.1,0-0.7,0.2-0.2,0.2h2.5V5z"/>
		</g>
		<g>
			<path class="st1" d="M8.5,14.8v-2.7H4v-0.9L8.3,5h1.4v6.1h1.4v1H9.8v2.7H8.5z M8.5,11.1V7.8c0-0.5,0-1,0-1.5h0
				C8.2,6.8,8,7.3,7.7,7.7L5.3,11v0H8.5z"/>
		</g>
	</g>
	<g>
		<g>
			<path class="st1" d="M4,93.2c0-1.6,1.4-2.4,2.8-2.2C7.5,91,8,91.5,8.4,92c0.4,0.5,0.5,0.2,0.4-0.1c-0.3-1.5-0.9-2.3-2.2-2.7
				c-0.1,0-0.7-0.2-0.2-0.2h5.1c0.5,0,0,0.1-0.2,0.2c-1.3,0.4-1.9,1.2-2.2,2.7c-0.1,0.3,0,0.6,0.4,0.1c0.4-0.5,0.9-1,1.7-1.1
				c1.4-0.2,2.8,0.7,2.8,2.2v0c0,1.1-0.9,2.4-2.1,2.3c-0.1,0-0.6-0.1-0.8,0c-0.3,0.2,0.1,0.4,0.1,1v0c0,1.3-0.9,2-1.9,2.2v0
				c0,0-0.2,0-0.3,0c-0.2,0-0.3,0-0.4,0v0c-1-0.1-1.9-0.8-1.9-2.2v0c0-0.6,0.4-0.7,0.1-1c-0.2-0.2-0.7,0-0.8,0
				C4.9,95.5,4,94.3,4,93.2L4,93.2z"/>
			<path class="st2" d="M9,98.7C9,98.7,9.1,98.7,9,98.7c0.1,0,0.3,0,0.3,0v0c1-0.1,1.9-0.8,1.9-2.2v0c0-0.6-0.4-0.7-0.1-1
				c0.2-0.2,0.7-0.1,0.8,0c1.2,0.1,2.1-1.2,2.1-2.3v0c0-1.6-1.4-2.4-2.8-2.2C10.6,91,10,91.5,9.6,92c-0.4,0.5-0.5,0.2-0.4-0.1
				c0.3-1.5,0.9-2.3,2.2-2.7c0.1,0,0.7-0.2,0.2-0.2H9V98.7z"/>
		</g>
		<g>
			<path class="st1" d="M60.6,88.9v2.7h4.5v0.9l-4.3,6.2h-1.4v-6.1H58v-1h1.4v-2.7H60.6z M60.6,92.6v3.3c0,0.5,0,1,0,1.5h0
				c0.3-0.6,0.5-1,0.8-1.4l2.4-3.3v0H60.6z"/>
		</g>
	</g>
</g>
</svg>
