<?xml version="1.0" encoding="utf-8"?>
<!-- Generator: Adobe Illustrator 26.5.0, SVG Export Plug-In . SVG Version: 6.00 Build 0)  -->
<svg version="1.1" id="Layer_1" xmlns="http://www.w3.org/2000/svg" xmlns:xlink="http://www.w3.org/1999/xlink" x="0px" y="0px"
	 viewBox="0 0 69.1 103.7" style="enable-background:new 0 0 69.1 103.7;" xml:space="preserve">
<style type="text/css">
	.st0{fill:#F2F2F2;}
	.st1{fill:#333333;}
	.st2{fill:#4D4D4D;}
</style>
<g>
	<path class="st0" d="M69.1,101c0,1.5-1.2,2.7-2.7,2.7H2.7c-1.5,0-2.7-1.2-2.7-2.7V2.7C0,1.2,1.2,0,2.7,0h63.7
		c1.5,0,2.7,1.2,2.7,2.7V101z"/>
	<g>
		<g>
			<path class="st1" d="M65.1,10.7c0,1.6-1.5,2.5-2.9,2.3c-0.7-0.1-1.3-0.6-1.7-1.1c-0.4-0.5-0.5-0.2-0.5,0.2c0.3,1.5,1,2.4,2.3,2.8
				c0.1,0,0.7,0.2,0.2,0.2h-5.2c-0.5,0,0-0.1,0.2-0.2c1.3-0.4,2-1.3,2.3-2.8c0.1-0.3,0-0.7-0.5-0.2c-0.4,0.5-1,1-1.7,1.1
				c-1.4,0.2-2.9-0.7-2.9-2.3v0c0-1.2,0.9-2.5,2.2-2.4c0.1,0,0.7,0.1,0.8,0c0.3-0.3-0.1-0.4-0.1-1v0c0-1.4,0.9-2.1,2-2.2v0
				c0,0,0.2,0,0.3,0c0.2,0,0.3,0,0.4,0v0c1.1,0.1,2,0.9,2,2.2v0c0,0.6-0.4,0.8-0.1,1c0.2,0.2,0.8,0,0.8,0
				C64.2,8.3,65.1,9.5,65.1,10.7L65.1,10.7z"/>
			<path class="st2" d="M59.9,5C59.9,5,59.9,5,59.9,5c-0.1,0-0.3,0-0.3,0v0c-1.1,0.1-2,0.9-2,2.2v0c0,0.6,0.4,0.8,0.1,1
				c-0.2,0.2-0.8,0.1-0.8,0c-1.2-0.1-2.2,1.2-2.2,2.4v0c0,1.6,1.5,2.5,2.9,2.3c0.7-0.1,1.3-0.6,1.7-1.1c0.4-0.5,0.5-0.2,0.5,0.2
				c-0.3,1.5-1,2.4-2.3,2.8c-0.1,0-0.7,0.2-0.2,0.2h2.6V5z"/>
		</g>
		<g>
			<path class="st1" d="M4,12.4c0-1.2,0.7-2.1,1.9-2.6l0,0C4.8,9.3,4.4,8.4,4.4,7.6c0-1.5,1.3-2.6,3-2.6c1.9,0,2.8,1.2,2.8,2.4
				c0,0.8-0.4,1.7-1.6,2.3v0c1.2,0.5,2,1.3,2,2.5c0,1.7-1.5,2.8-3.3,2.8C5.2,15.1,4,13.9,4,12.4z M9.2,12.4c0-1.2-0.8-1.8-2.1-2.1
				c-1.1,0.3-1.8,1.1-1.8,2c0,1,0.7,1.9,2,1.9C8.5,14.1,9.2,13.4,9.2,12.4z M5.6,7.5c0,1,0.7,1.5,1.9,1.8C8.3,9,9,8.4,9,7.5
				c0-0.8-0.5-1.6-1.6-1.6C6.2,5.9,5.6,6.7,5.6,7.5z"/>
		</g>
	</g>
	<g>
		<g>
			<path class="st1" d="M4,92c0-1.6,1.5-2.5,2.9-2.3c0.7,0.1,1.3,0.6,1.7,1.1C9,91.3,9.1,90.9,9,90.6c-0.3-1.5-1-2.4-2.3-2.8
				c-0.1,0-0.7-0.2-0.2-0.2h5.2c0.5,0,0,0.1-0.2,0.2c-1.3,0.4-2,1.3-2.3,2.8c-0.1,0.3,0,0.7,0.5,0.2c0.4-0.5,1-1,1.7-1.1
				c1.4-0.2,2.9,0.7,2.9,2.3v0c0,1.2-0.9,2.5-2.2,2.4c-0.1,0-0.7-0.1-0.8,0c-0.3,0.3,0.1,0.4,0.1,1v0c0,1.4-0.9,2.1-2,2.2v0
				c0,0-0.2,0-0.3,0c-0.2,0-0.3,0-0.4,0v0c-1.1-0.1-2-0.9-2-2.2v0c0-0.6,0.4-0.8,0.1-1c-0.2-0.2-0.8,0-0.8,0C4.9,94.4,4,93.1,4,92
				L4,92z"/>
			<path class="st2" d="M9.2,97.7C9.2,97.7,9.2,97.7,9.2,97.7c0.1,0,0.3,0,0.3,0v0c1.1-0.1,2-0.9,2-2.2v0c0-0.6-0.4-0.8-0.1-1
				c0.2-0.2,0.8-0.1,0.8,0c1.2,0.1,2.2-1.2,2.2-2.4v0c0-1.6-1.5-2.5-2.9-2.3c-0.7,0.1-1.3,0.6-1.7,1.1c-0.4,0.5-0.5,0.2-0.5-0.2
				c0.3-1.5,1-2.4,2.3-2.8c0.1,0,0.7-0.2,0.2-0.2H9.2V97.7z"/>
		</g>
		<g>
			<path class="st1" d="M65.1,90.2c0,1.2-0.7,2.1-1.9,2.6l0,0c1.1,0.5,1.5,1.3,1.5,2.2c0,1.5-1.3,2.6-3,2.6c-1.9,0-2.8-1.2-2.8-2.4
				c0-0.8,0.4-1.7,1.6-2.3v0c-1.2-0.5-2-1.3-2-2.5c0-1.7,1.5-2.8,3.3-2.8C63.9,87.6,65.1,88.8,65.1,90.2z M59.9,90.3
				c0,1.2,0.8,1.8,2.1,2.1c1.1-0.3,1.8-1.1,1.8-2c0-1-0.7-1.9-2-1.9C60.6,88.6,59.9,89.3,59.9,90.3z M63.5,95.2c0-1-0.7-1.5-1.9-1.8
				c-0.8,0.3-1.5,0.9-1.5,1.8c0,0.8,0.5,1.6,1.6,1.6C62.9,96.7,63.5,96,63.5,95.2z"/>
		</g>
	</g>
	<g>
		<g>
			<path class="st1" d="M27.8,32.6c0,1.9-1.7,3-3.4,2.7c-0.9-0.1-1.5-0.7-2-1.3c-0.5-0.6-0.6-0.2-0.5,0.2c0.3,1.8,1.1,2.9,2.7,3.3
				c0.2,0.1,0.8,0.2,0.2,0.2h-6.2c-0.6,0,0.1-0.1,0.2-0.2c1.5-0.5,2.4-1.5,2.7-3.3c0.1-0.4-0.1-0.8-0.5-0.2c-0.5,0.6-1.2,1.2-2,1.3
				c-1.7,0.2-3.4-0.8-3.4-2.7v0c0-1.4,1.1-2.9,2.6-2.8c0.1,0,0.8,0.2,1-0.1c0.3-0.3-0.1-0.5-0.2-1.2v0c0-1.6,1.1-2.5,2.3-2.7v0
				c0,0,0.3,0,0.4,0c0.2,0,0.4,0,0.5,0v0c1.2,0.2,2.4,1,2.3,2.7v0c0,0.7-0.5,0.9-0.2,1.2c0.2,0.2,0.9,0.1,1,0.1
				C26.7,29.7,27.8,31.2,27.8,32.6L27.8,32.6z"/>
			<path class="st2" d="M21.7,25.8C21.7,25.8,21.6,25.8,21.7,25.8c-0.1,0-0.4,0-0.4,0v0c-1.2,0.2-2.4,1-2.3,2.7v0
				c0,0.7,0.5,0.9,0.2,1.2c-0.2,0.2-0.9,0.1-1,0.1c-1.4-0.1-2.6,1.4-2.6,2.8v0c0,1.9,1.7,3,3.4,2.7c0.9-0.1,1.5-0.7,2-1.3
				c0.5-0.6,0.6-0.2,0.5,0.2c-0.3,1.8-1.1,2.9-2.7,3.3c-0.2,0.1-0.8,0.2-0.2,0.2h3.1V25.8z"/>
		</g>
		<g>
			<path class="st1" d="M53.5,32.6c0,1.9-1.7,3-3.4,2.7c-0.9-0.1-1.5-0.7-2-1.3c-0.5-0.6-0.6-0.2-0.5,0.2c0.3,1.8,1.1,2.9,2.7,3.3
				c0.2,0.1,0.8,0.2,0.2,0.2h-6.2c-0.6,0,0.1-0.1,0.2-0.2c1.5-0.5,2.4-1.5,2.7-3.3c0.1-0.4-0.1-0.8-0.5-0.2c-0.5,0.6-1.2,1.2-2,1.3
				c-1.7,0.2-3.4-0.8-3.4-2.7v0c0-1.4,1.1-2.9,2.6-2.8c0.1,0,0.8,0.2,1-0.1c0.3-0.3-0.1-0.5-0.2-1.2v0c0-1.6,1.1-2.5,2.3-2.7v0
				c0,0,0.3,0,0.4,0c0.2,0,0.4,0,0.5,0v0c1.2,0.2,2.4,1,2.3,2.7v0c0,0.7-0.5,0.9-0.2,1.2c0.2,0.2,0.9,0.1,1,0.1
				C52.4,29.7,53.5,31.2,53.5,32.6L53.5,32.6z"/>
			<path class="st2" d="M47.4,25.8C47.4,25.8,47.4,25.8,47.4,25.8c-0.1,0-0.4,0-0.4,0v0c-1.3,0.2-2.4,1-2.3,2.7v0
				c0,0.7,0.5,0.9,0.2,1.2c-0.2,0.2-0.9,0.1-1,0.1c-1.4-0.1-2.6,1.4-2.6,2.8v0c0,1.9,1.7,3,3.4,2.7c0.9-0.1,1.5-0.7,2-1.3
				c0.5-0.6,0.6-0.2,0.5,0.2c-0.3,1.8-1.1,2.9-2.7,3.3c-0.2,0.1-0.8,0.2-0.2,0.2h3.1V25.8z"/>
		</g>
		<g>
			<path class="st1" d="M27.8,52.6c0,1.9-1.7,3-3.4,2.7c-0.9-0.1-1.5-0.7-2-1.3c-0.5-0.6-0.6-0.2-0.5,0.2c0.3,1.8,1.1,2.9,2.7,3.3
				c0.2,0.1,0.8,0.2,0.2,0.2h-6.2c-0.6,0,0.1-0.1,0.2-0.2c1.5-0.5,2.4-1.5,2.7-3.3c0.1-0.4-0.1-0.8-0.5-0.2c-0.5,0.6-1.2,1.2-2,1.3
				c-1.7,0.2-3.4-0.8-3.4-2.7v0c0-1.4,1.1-2.9,2.6-2.8c0.1,0,0.8,0.2,1-0.1c0.3-0.3-0.1-0.5-0.2-1.2v0c0-1.6,1.1-2.5,2.3-2.7v0
				c0,0,0.3,0,0.4,0c0.2,0,0.4,0,0.5,0v0c1.2,0.2,2.4,1,2.3,2.7v0c0,0.7-0.5,0.9-0.2,1.2c0.2,0.2,0.9,0.1,1,0.1
				C26.7,49.7,27.8,51.3,27.8,52.6L27.8,52.6z"/>
			<path class="st2" d="M21.7,45.9C21.7,45.9,21.6,45.9,21.7,45.9c-0.1,0-0.4,0-0.4,0v0c-1.2,0.2-2.4,1-2.3,2.7v0
				c0,0.7,0.5,0.9,0.2,1.2c-0.2,0.2-0.9,0.1-1,0.1c-1.4-0.1-2.6,1.4-2.6,2.8v0c0,1.9,1.7,3,3.4,2.7c0.9-0.1,1.5-0.7,2-1.3
				c0.5-0.6,0.6-0.2,0.5,0.2c-0.3,1.8-1.1,2.9-2.7,3.3c-0.2,0.1-0.8,0.2-0.2,0.2h3.1V45.9z"/>
		</g>
		<g>
			<path class="st1" d="M53.5,52.6c0,1.9-1.7,3-3.4,2.7c-0.9-0.1-1.5-0.7-2-1.3c-0.5-0.6-0.6-0.2-0.5,0.2c0.3,1.8,1.1,2.9,2.7,3.3
				c0.2,0.1,0.8,0.2,0.2,0.2h-6.2c-0.6,0,0.1-0.1,0.2-0.2c1.5-0.5,2.4-1.5,2.7-3.3c0.1-0.4-0.1-0.8-0.5-0.2c-0.5,0.6-1.2,1.2-2,1.3
				c-1.7,0.2-3.4-0.8-3.4-2.7v0c0-1.4,1.1-2.9,2.6-2.8c0.1,0,0.8,0.2,1-0.1c0.3-0.3-0.1-0.5-0.2-1.2v0c0-1.6,1.1-2.5,2.3-2.7v0
				c0,0,0.3,0,0.4,0c0.2,0,0.4,0,0.5,0v0c1.2,0.2,2.4,1,2.3,2.7v0c0,0.7-0.5,0.9-0.2,1.2c0.2,0.2,0.9,0.1,1,0.1
				C52.4,49.7,53.5,51.3,53.5,52.6L53.5,52.6z"/>
			<path class="st2" d="M47.4,45.9C47.4,45.9,47.4,45.9,47.4,45.9c-0.1,0-0.4,0-0.4,0v0c-1.3,0.2-2.4,1-2.3,2.7v0
				c0,0.7,0.5,0.9,0.2,1.2c-0.2,0.2-0.9,0.1-1,0.1c-1.4-0.1-2.6,1.4-2.6,2.8v0c0,1.9,1.7,3,3.4,2.7c0.9-0.1,1.5-0.7,2-1.3
				c0.5-0.6,0.6-0.2,0.5,0.2c-0.3,1.8-1.1,2.9-2.7,3.3c-0.2,0.1-0.8,0.2-0.2,0.2h3.1V45.9z"/>
		</g>
		<g>
			<path class="st1" d="M27.8,72.7c0,1.9-1.7,3-3.4,2.7c-0.9-0.1-1.5-0.7-2-1.3c-0.5-0.6-0.6-0.2-0.5,0.2c0.3,1.8,1.1,2.9,2.7,3.3
				c0.2,0.1,0.8,0.2,0.2,0.2h-6.2c-0.6,0,0.1-0.1,0.2-0.2c1.5-0.5,2.4-1.5,2.7-3.3c0.1-0.4-0.1-0.8-0.5-0.2c-0.5,0.6-1.2,1.2-2,1.3
				c-1.7,0.2-3.4-0.8-3.4-2.7v0c0-1.4,1.1-2.9,2.6-2.8c0.1,0,0.8,0.2,1-0.1c0.3-0.3-0.1-0.5-0.2-1.2v0c0-1.6,1.1-2.5,2.3-2.7v0
				c0,0,0.3,0,0.4,0c0.2,0,0.4,0,0.5,0v0c1.2,0.2,2.4,1,2.3,2.7v0c0,0.7-0.5,0.9-0.2,1.2c0.2,0.2,0.9,0.1,1,0.1
				C26.7,69.8,27.8,71.3,27.8,72.7L27.8,72.7z"/>
			<path class="st2" d="M21.7,65.9C21.7,65.9,21.6,65.9,21.7,65.9c-0.1,0-0.4,0-0.4,0v0c-1.2,0.2-2.4,1-2.3,2.7v0
				c0,0.7,0.5,0.9,0.2,1.2c-0.2,0.2-0.9,0.1-1,0.1c-1.4-0.1-2.6,1.4-2.6,2.8v0c0,1.9,1.7,3,3.4,2.7c0.9-0.1,1.5-0.7,2-1.3
				c0.5-0.6,0.6-0.2,0.5,0.2c-0.3,1.8-1.1,2.9-2.7,3.3c-0.2,0.1-0.8,0.2-0.2,0.2h3.1V65.9z"/>
		</g>
		<g>
			<path class="st1" d="M53.5,72.7c0,1.9-1.7,3-3.4,2.7c-0.9-0.1-1.5-0.7-2-1.3c-0.5-0.6-0.6-0.2-0.5,0.2c0.3,1.8,1.1,2.9,2.7,3.3
				c0.2,0.1,0.8,0.2,0.2,0.2h-6.2c-0.6,0,0.1-0.1,0.2-0.2c1.5-0.5,2.4-1.5,2.7-3.3c0.1-0.4-0.1-0.8-0.5-0.2c-0.5,0.6-1.2,1.2-2,1.3
				c-1.7,0.2-3.4-0.8-3.4-2.7v0c0-1.4,1.1-2.9,2.6-2.8c0.1,0,0.8,0.2,1-0.1c0.3-0.3-0.1-0.5-0.2-1.2v0c0-1.6,1.1-2.5,2.3-2.7v0
				c0,0,0.3,0,0.4,0c0.2,0,0.4,0,0.5,0v0c1.2,0.2,2.4,1,2.3,2.7v0c0,0.7-0.5,0.9-0.2,1.2c0.2,0.2,0.9,0.1,1,0.1
				C52.4,69.8,53.5,71.3,53.5,72.7L53.5,72.7z"/>
			<path class="st2" d="M47.4,65.9C47.4,65.9,47.4,65.9,47.4,65.9c-0.1,0-0.4,0-0.4,0v0c-1.3,0.2-2.4,1-2.3,2.7v0
				c0,0.7,0.5,0.9,0.2,1.2c-0.2,0.2-0.9,0.1-1,0.1c-1.4-0.1-2.6,1.4-2.6,2.8v0c0,1.9,1.7,3,3.4,2.7c0.9-0.1,1.5-0.7,2-1.3
				c0.5-0.6,0.6-0.2,0.5,0.2c-0.3,1.8-1.1,2.9-2.7,3.3c-0.2,0.1-0.8,0.2-0.2,0.2h3.1V65.9z"/>
		</g>
		<g>
			<path class="st1" d="M40.7,41.7c0,1.9-1.7,3-3.4,2.7c-0.9-0.1-1.5-0.7-2-1.3c-0.5-0.6-0.6-0.2-0.5,0.2c0.3,1.8,1.1,2.9,2.7,3.3
				c0.2,0.1,0.8,0.2,0.2,0.2h-6.2c-0.6,0,0.1-0.1,0.2-0.2c1.5-0.5,2.4-1.5,2.7-3.3c0.1-0.4-0.1-0.8-0.5-0.2c-0.5,0.6-1.2,1.2-2,1.3
				c-1.7,0.2-3.4-0.8-3.4-2.7v0c0-1.4,1.1-2.9,2.6-2.8c0.1,0,0.8,0.2,1-0.1c0.3-0.3-0.1-0.5-0.2-1.2v0c0-1.6,1.1-2.5,2.3-2.7v0
				c0,0,0.3,0,0.4,0c0.2,0,0.4,0,0.5,0v0c1.2,0.2,2.4,1,2.3,2.7v0c0,0.7-0.5,0.9-0.2,1.2c0.2,0.2,0.9,0.1,1,0.1
				C39.6,38.8,40.7,40.3,40.7,41.7L40.7,41.7z"/>
			<path class="st2" d="M34.5,34.9C34.5,34.9,34.5,34.9,34.5,34.9c-0.1,0-0.4,0-0.4,0v0c-1.2,0.2-2.4,1-2.3,2.7v0
				c0,0.7,0.5,0.9,0.2,1.2c-0.2,0.2-0.9,0.1-1,0.1c-1.4-0.1-2.6,1.4-2.6,2.8v0c0,1.9,1.7,3,3.4,2.7c0.9-0.1,1.5-0.7,2-1.3
				c0.5-0.6,0.6-0.2,0.5,0.2c-0.3,1.8-1.1,2.9-2.7,3.3c-0.2,0.1-0.8,0.2-0.2,0.2h3.1V34.9z"/>
		</g>
		<g>
			<path class="st1" d="M40.7,62.9c0,1.9-1.7,3-3.4,2.7c-0.9-0.1-1.5-0.7-2-1.3c-0.5-0.6-0.6-0.2-0.5,0.2c0.3,1.8,1.1,2.9,2.7,3.3
				c0.2,0.1,0.8,0.2,0.2,0.2h-6.2c-0.6,0,0.1-0.1,0.2-0.2c1.5-0.5,2.4-1.5,2.7-3.3c0.1-0.4-0.1-0.8-0.5-0.2c-0.5,0.6-1.2,1.2-2,1.3
				c-1.7,0.2-3.4-0.8-3.4-2.7v0c0-1.4,1.1-2.9,2.6-2.8c0.1,0,0.8,0.2,1-0.1c0.3-0.3-0.1-0.5-0.2-1.2v0c0-1.6,1.1-2.5,2.3-2.7v0
				c0,0,0.3,0,0.4,0c0.2,0,0.4,0,0.5,0v0c1.2,0.2,2.4,1,2.3,2.7v0c0,0.7-0.5,0.9-0.2,1.2c0.2,0.2,0.9,0.1,1,0.1
				C39.6,60,40.7,61.6,40.7,62.9L40.7,62.9z"/>
			<path class="st2" d="M34.5,56.2C34.5,56.2,34.5,56.2,34.5,56.2c-0.1,0-0.4,0-0.4,0v0c-1.2,0.2-2.4,1-2.3,2.7v0
				c0,0.7,0.5,0.9,0.2,1.2c-0.2,0.2-0.9,0.1-1,0.1c-1.4-0.1-2.6,1.4-2.6,2.8v0c0,1.9,1.7,3,3.4,2.7c0.9-0.1,1.5-0.7,2-1.3
				c0.5-0.6,0.6-0.2,0.5,0.2c-0.3,1.8-1.1,2.9-2.7,3.3c-0.2,0.1-0.8,0.2-0.2,0.2h3.1V56.2z"/>
		</g>
	</g>
</g>
</svg>
