<?xml version="1.0" encoding="utf-8"?>
<!-- Generator: Adobe Illustrator 26.5.0, SVG Export Plug-In . SVG Version: 6.00 Build 0)  -->
<svg version="1.1" id="Layer_1" xmlns="http://www.w3.org/2000/svg" xmlns:xlink="http://www.w3.org/1999/xlink" x="0px" y="0px"
	 viewBox="0 0 69.1 103.7" style="enable-background:new 0 0 69.1 103.7;" xml:space="preserve">
<style type="text/css">
	.st0{fill:#F2F2F2;}
	.st1{fill:#333333;}
	.st2{fill:#4D4D4D;}
</style>
<g>
	<path class="st0" d="M69.1,101c0,1.5-1.2,2.7-2.7,2.7H2.7c-1.5,0-2.7-1.2-2.7-2.7V2.7C0,1.2,1.2,0,2.7,0h63.7
		c1.5,0,2.7,1.2,2.7,2.7V101z"/>
	<g>
		<g>
			<path class="st1" d="M65.1,10.7c0,1.6-1.5,2.5-2.9,2.3c-0.7-0.1-1.3-0.6-1.7-1.1c-0.4-0.5-0.5-0.2-0.5,0.2c0.3,1.5,1,2.4,2.3,2.8
				c0.1,0,0.7,0.2,0.2,0.2h-5.2c-0.5,0,0-0.1,0.2-0.2c1.3-0.4,2-1.3,2.3-2.8c0.1-0.3,0-0.7-0.5-0.2c-0.4,0.5-1,1-1.7,1.1
				c-1.4,0.2-2.9-0.7-2.9-2.3v0c0-1.2,0.9-2.5,2.2-2.4c0.1,0,0.7,0.1,0.8,0c0.3-0.3-0.1-0.4-0.1-1v0c0-1.4,0.9-2.1,2-2.2v0
				c0,0,0.2,0,0.3,0c0.2,0,0.3,0,0.4,0v0c1.1,0.1,2,0.9,2,2.2v0c0,0.6-0.4,0.8-0.1,1c0.2,0.2,0.8,0,0.8,0
				C64.2,8.3,65.1,9.5,65.1,10.7L65.1,10.7z"/>
			<path class="st2" d="M59.9,5C59.9,5,59.9,5,59.9,5c-0.1,0-0.3,0-0.3,0v0c-1.1,0.1-2,0.9-2,2.2v0c0,0.6,0.4,0.8,0.1,1
				c-0.2,0.2-0.8,0.1-0.8,0c-1.2-0.1-2.2,1.2-2.2,2.4v0c0,1.6,1.5,2.5,2.9,2.3c0.7-0.1,1.3-0.6,1.7-1.1c0.4-0.5,0.5-0.2,0.5,0.2
				c-0.3,1.5-1,2.4-2.3,2.8c-0.1,0-0.7,0.2-0.2,0.2h2.6V5z"/>
		</g>
		<g>
			<path class="st1" d="M4.8,14c0.3,0,0.6,0,1.1,0c0.8-0.1,1.5-0.4,2-0.9c0.6-0.6,1.1-1.4,1.3-2.6h0c-0.5,0.7-1.3,1-2.3,1
				c-1.8,0-2.9-1.3-2.9-3C4,6.6,5.3,5,7.3,5c2,0,3.2,1.6,3.2,4.1c0,2.1-0.7,3.6-1.7,4.6C8.1,14.4,7.1,14.9,6,15
				c-0.5,0.1-0.9,0.1-1.2,0.1V14z M5.3,8.4c0,1.2,0.7,2.1,1.9,2.1c0.9,0,1.6-0.4,1.9-1c0.1-0.1,0.1-0.3,0.1-0.5c0-1.7-0.6-2.9-2-2.9
				C6.1,6,5.3,7,5.3,8.4z"/>
		</g>
	</g>
	<g>
		<g>
			<path class="st1" d="M4,93c0-1.6,1.5-2.5,2.9-2.3c0.7,0.1,1.3,0.6,1.7,1.1C9,92.3,9.1,91.9,9,91.6c-0.3-1.5-1-2.4-2.3-2.8
				c-0.1,0-0.7-0.2-0.2-0.2h5.2c0.5,0,0,0.1-0.2,0.2c-1.3,0.4-2,1.3-2.3,2.8c-0.1,0.3,0,0.7,0.5,0.2c0.4-0.5,1-1,1.7-1.1
				c1.4-0.2,2.9,0.7,2.9,2.3v0c0,1.2-0.9,2.5-2.2,2.4c-0.1,0-0.7-0.1-0.8,0c-0.3,0.3,0.1,0.4,0.1,1v0c0,1.4-0.9,2.1-2,2.2v0
				c0,0-0.2,0-0.3,0c-0.2,0-0.3,0-0.4,0v0c-1.1-0.1-2-0.9-2-2.2v0c0-0.6,0.4-0.8,0.1-1c-0.2-0.2-0.8,0-0.8,0C4.9,95.4,4,94.1,4,93
				L4,93z"/>
			<path class="st2" d="M9.2,98.7C9.2,98.7,9.2,98.7,9.2,98.7c0.1,0,0.3,0,0.3,0v0c1.1-0.1,2-0.9,2-2.2v0c0-0.6-0.4-0.8-0.1-1
				c0.2-0.2,0.8-0.1,0.8,0c1.2,0.1,2.2-1.2,2.2-2.4v0c0-1.6-1.5-2.5-2.9-2.3c-0.7,0.1-1.3,0.6-1.7,1.1c-0.4,0.5-0.5,0.2-0.5-0.2
				c0.3-1.5,1-2.4,2.3-2.8c0.1,0,0.7-0.2,0.2-0.2H9.2V98.7z"/>
		</g>
		<g>
			<path class="st1" d="M64.3,89.7c-0.3,0-0.6,0-1.1,0c-0.8,0.1-1.5,0.4-2,0.9c-0.6,0.6-1.1,1.4-1.3,2.6h0c0.5-0.7,1.3-1,2.3-1
				c1.8,0,2.9,1.3,2.9,3c0,1.8-1.3,3.5-3.3,3.5c-2,0-3.2-1.6-3.2-4.1c0-2.1,0.7-3.6,1.7-4.6c0.8-0.7,1.8-1.2,2.8-1.3
				c0.5-0.1,0.9-0.1,1.2-0.1V89.7z M63.8,95.3c0-1.2-0.7-2.1-1.9-2.1c-0.9,0-1.6,0.4-1.9,1c-0.1,0.1-0.1,0.3-0.1,0.5
				c0,1.7,0.6,2.9,2,2.9C63,97.7,63.8,96.7,63.8,95.3z"/>
		</g>
	</g>
	<g>
		<g>
			<g>
				<path class="st1" d="M27.8,28.7c0,1.9-1.7,3-3.4,2.7c-0.9-0.1-1.5-0.7-2-1.3c-0.5-0.6-0.6-0.2-0.5,0.2c0.3,1.8,1.1,2.9,2.7,3.3
					c0.2,0.1,0.8,0.2,0.2,0.2h-6.2c-0.6,0,0.1-0.1,0.2-0.2c1.5-0.5,2.4-1.5,2.7-3.3c0.1-0.4-0.1-0.8-0.5-0.2c-0.5,0.6-1.2,1.2-2,1.3
					c-1.7,0.2-3.4-0.8-3.4-2.7v0c0-1.4,1.1-2.9,2.6-2.8c0.1,0,0.8,0.2,1-0.1c0.3-0.3-0.1-0.5-0.2-1.2v0c0-1.6,1.1-2.5,2.3-2.7v0
					c0,0,0.3,0,0.4,0c0.2,0,0.4,0,0.5,0v0c1.2,0.2,2.4,1,2.3,2.7v0c0,0.7-0.5,0.9-0.2,1.2c0.2,0.2,0.9,0.1,1,0.1
					C26.7,25.8,27.8,27.3,27.8,28.7L27.8,28.7z"/>
				<path class="st2" d="M21.7,21.9C21.7,21.9,21.6,21.9,21.7,21.9c-0.1,0-0.4,0-0.4,0v0c-1.3,0.2-2.4,1-2.3,2.7v0
					c0,0.7,0.5,0.9,0.2,1.2c-0.2,0.2-0.9,0.1-1,0.1c-1.4-0.1-2.6,1.4-2.6,2.8v0c0,1.9,1.7,3,3.4,2.7c0.9-0.1,1.5-0.7,2-1.3
					c0.5-0.6,0.6-0.2,0.5,0.2c-0.3,1.8-1.1,2.9-2.7,3.3c-0.2,0.1-0.8,0.2-0.2,0.2h3.1V21.9z"/>
			</g>
			<g>
				<path class="st1" d="M53.5,28.7c0,1.9-1.7,3-3.4,2.7c-0.9-0.1-1.5-0.7-2-1.3c-0.5-0.6-0.6-0.2-0.5,0.2c0.3,1.8,1.1,2.9,2.7,3.3
					c0.2,0.1,0.8,0.2,0.2,0.2h-6.2c-0.6,0,0.1-0.1,0.2-0.2c1.5-0.5,2.4-1.5,2.7-3.3c0.1-0.4-0.1-0.8-0.5-0.2c-0.5,0.6-1.2,1.2-2,1.3
					c-1.7,0.2-3.4-0.8-3.4-2.7v0c0-1.4,1.1-2.9,2.6-2.8c0.1,0,0.8,0.2,1-0.1c0.3-0.3-0.1-0.5-0.2-1.2v0c0-1.6,1.1-2.5,2.3-2.7v0
					c0,0,0.3,0,0.4,0c0.2,0,0.4,0,0.5,0v0c1.2,0.2,2.4,1,2.3,2.7v0c0,0.7-0.5,0.9-0.2,1.2c0.2,0.2,0.9,0.1,1,0.1
					C52.4,25.8,53.5,27.3,53.5,28.7L53.5,28.7z"/>
				<path class="st2" d="M47.4,21.9C47.4,21.9,47.4,21.9,47.4,21.9c-0.1,0-0.4,0-0.4,0v0c-1.2,0.2-2.4,1-2.3,2.7v0
					c0,0.7,0.5,0.9,0.2,1.2c-0.2,0.2-0.9,0.1-1,0.1c-1.4-0.1-2.6,1.4-2.6,2.8v0c0,1.9,1.7,3,3.4,2.7c0.9-0.1,1.5-0.7,2-1.3
					c0.5-0.6,0.6-0.2,0.5,0.2c-0.3,1.8-1.1,2.9-2.7,3.3c-0.2,0.1-0.8,0.2-0.2,0.2h3.1V21.9z"/>
			</g>
		</g>
		<g>
			<path class="st1" d="M40.7,52.6c0,1.9-1.7,3-3.4,2.7c-0.9-0.1-1.5-0.7-2-1.3c-0.5-0.6-0.6-0.2-0.5,0.2c0.3,1.8,1.1,2.9,2.7,3.3
				c0.2,0.1,0.8,0.2,0.2,0.2h-6.2c-0.6,0,0.1-0.1,0.2-0.2c1.5-0.5,2.4-1.5,2.7-3.3c0.1-0.4-0.1-0.8-0.5-0.2c-0.5,0.6-1.2,1.2-2,1.3
				c-1.7,0.2-3.4-0.8-3.4-2.7v0c0-1.4,1.1-2.9,2.6-2.8c0.1,0,0.8,0.2,1-0.1c0.3-0.3-0.1-0.5-0.2-1.2v0c0-1.6,1.1-2.5,2.3-2.7v0
				c0,0,0.3,0,0.4,0c0.2,0,0.4,0,0.5,0v0c1.2,0.2,2.4,1,2.3,2.7v0c0,0.7-0.5,0.9-0.2,1.2c0.2,0.2,0.9,0.1,1,0.1
				C39.6,49.7,40.7,51.2,40.7,52.6L40.7,52.6z"/>
			<path class="st2" d="M34.5,45.8C34.5,45.8,34.5,45.8,34.5,45.8c-0.1,0-0.4,0-0.4,0v0c-1.2,0.2-2.4,1-2.3,2.7v0
				c0,0.7,0.5,0.9,0.2,1.2c-0.2,0.2-0.9,0.1-1,0.1c-1.4-0.1-2.6,1.4-2.6,2.8v0c0,1.9,1.7,3,3.4,2.7c0.9-0.1,1.5-0.7,2-1.3
				c0.5-0.6,0.6-0.2,0.5,0.2c-0.3,1.8-1.1,2.9-2.7,3.3c-0.2,0.1-0.8,0.2-0.2,0.2h3.1V45.8z"/>
		</g>
		<g>
			<g>
				<path class="st1" d="M27.8,44.4c0,1.9-1.7,3-3.4,2.7c-0.9-0.1-1.5-0.7-2-1.3c-0.5-0.6-0.6-0.2-0.5,0.2c0.3,1.8,1.1,2.9,2.7,3.3
					c0.2,0.1,0.8,0.2,0.2,0.2h-6.2c-0.6,0,0.1-0.1,0.2-0.2c1.5-0.5,2.4-1.5,2.7-3.3c0.1-0.4-0.1-0.8-0.5-0.2c-0.5,0.6-1.2,1.2-2,1.3
					c-1.7,0.2-3.4-0.8-3.4-2.7v0c0-1.4,1.1-2.9,2.6-2.8c0.1,0,0.8,0.2,1-0.1c0.3-0.3-0.1-0.5-0.2-1.2v0c0-1.6,1.1-2.5,2.3-2.7v0
					c0,0,0.3,0,0.4,0c0.2,0,0.4,0,0.5,0v0c1.2,0.2,2.4,1,2.3,2.7v0c0,0.7-0.5,0.9-0.2,1.2c0.2,0.2,0.9,0.1,1,0.1
					C26.7,41.5,27.8,43,27.8,44.4L27.8,44.4z"/>
				<path class="st2" d="M21.7,37.6C21.7,37.6,21.6,37.6,21.7,37.6c-0.1,0-0.4,0-0.4,0v0c-1.3,0.2-2.4,1-2.3,2.7v0
					c0,0.7,0.5,0.9,0.2,1.2c-0.2,0.2-0.9,0.1-1,0.1c-1.4-0.1-2.6,1.4-2.6,2.8v0c0,1.9,1.7,3,3.4,2.7c0.9-0.1,1.5-0.7,2-1.3
					c0.5-0.6,0.6-0.2,0.5,0.2c-0.3,1.8-1.1,2.9-2.7,3.3c-0.2,0.1-0.8,0.2-0.2,0.2h3.1V37.6z"/>
			</g>
			<g>
				<path class="st1" d="M53.5,44.4c0,1.9-1.7,3-3.4,2.7c-0.9-0.1-1.5-0.7-2-1.3c-0.5-0.6-0.6-0.2-0.5,0.2c0.3,1.8,1.1,2.9,2.7,3.3
					c0.2,0.1,0.8,0.2,0.2,0.2h-6.2c-0.6,0,0.1-0.1,0.2-0.2c1.5-0.5,2.4-1.5,2.7-3.3c0.1-0.4-0.1-0.8-0.5-0.2c-0.5,0.6-1.2,1.2-2,1.3
					c-1.7,0.2-3.4-0.8-3.4-2.7v0c0-1.4,1.1-2.9,2.6-2.8c0.1,0,0.8,0.2,1-0.1c0.3-0.3-0.1-0.5-0.2-1.2v0c0-1.6,1.1-2.5,2.3-2.7v0
					c0,0,0.3,0,0.4,0c0.2,0,0.4,0,0.5,0v0c1.2,0.2,2.4,1,2.3,2.7v0c0,0.7-0.5,0.9-0.2,1.2c0.2,0.2,0.9,0.1,1,0.1
					C52.4,41.5,53.5,43,53.5,44.4L53.5,44.4z"/>
				<path class="st2" d="M47.4,37.6C47.4,37.6,47.4,37.6,47.4,37.6c-0.1,0-0.4,0-0.4,0v0c-1.2,0.2-2.4,1-2.3,2.7v0
					c0,0.7,0.5,0.9,0.2,1.2c-0.2,0.2-0.9,0.1-1,0.1c-1.4-0.1-2.6,1.4-2.6,2.8v0c0,1.9,1.7,3,3.4,2.7c0.9-0.1,1.5-0.7,2-1.3
					c0.5-0.6,0.6-0.2,0.5,0.2c-0.3,1.8-1.1,2.9-2.7,3.3c-0.2,0.1-0.8,0.2-0.2,0.2h3.1V37.6z"/>
			</g>
		</g>
		<g>
			<g>
				<path class="st1" d="M27.8,60.1c0,1.9-1.7,3-3.4,2.7c-0.9-0.1-1.5-0.7-2-1.3c-0.5-0.6-0.6-0.2-0.5,0.2c0.3,1.8,1.1,2.9,2.7,3.3
					c0.2,0.1,0.8,0.2,0.2,0.2h-6.2c-0.6,0,0.1-0.1,0.2-0.2c1.5-0.5,2.4-1.5,2.7-3.3c0.1-0.4-0.1-0.8-0.5-0.2c-0.5,0.6-1.2,1.2-2,1.3
					c-1.7,0.2-3.4-0.8-3.4-2.7v0c0-1.4,1.1-2.9,2.6-2.8c0.1,0,0.8,0.2,1-0.1c0.3-0.3-0.1-0.5-0.2-1.2v0c0-1.6,1.1-2.5,2.3-2.7v0
					c0,0,0.3,0,0.4,0c0.2,0,0.4,0,0.5,0v0c1.2,0.2,2.4,1,2.3,2.7v0c0,0.7-0.5,0.9-0.2,1.2c0.2,0.2,0.9,0.1,1,0.1
					C26.7,57.2,27.8,58.7,27.8,60.1L27.8,60.1z"/>
				<path class="st2" d="M21.7,53.3C21.7,53.3,21.6,53.3,21.7,53.3c-0.1,0-0.4,0-0.4,0v0c-1.3,0.2-2.4,1-2.3,2.7v0
					c0,0.7,0.5,0.9,0.2,1.2c-0.2,0.2-0.9,0.1-1,0.1c-1.4-0.1-2.6,1.4-2.6,2.8v0c0,1.9,1.7,3,3.4,2.7c0.9-0.1,1.5-0.7,2-1.3
					c0.5-0.6,0.6-0.2,0.5,0.2c-0.3,1.8-1.1,2.9-2.7,3.3c-0.2,0.1-0.8,0.2-0.2,0.2h3.1V53.3z"/>
			</g>
			<g>
				<path class="st1" d="M53.5,60.1c0,1.9-1.7,3-3.4,2.7c-0.9-0.1-1.5-0.7-2-1.3c-0.5-0.6-0.6-0.2-0.5,0.2c0.3,1.8,1.1,2.9,2.7,3.3
					c0.2,0.1,0.8,0.2,0.2,0.2h-6.2c-0.6,0,0.1-0.1,0.2-0.2c1.5-0.5,2.4-1.5,2.7-3.3c0.1-0.4-0.1-0.8-0.5-0.2c-0.5,0.6-1.2,1.2-2,1.3
					c-1.7,0.2-3.4-0.8-3.4-2.7v0c0-1.4,1.1-2.9,2.6-2.8c0.1,0,0.8,0.2,1-0.1c0.3-0.3-0.1-0.5-0.2-1.2v0c0-1.6,1.1-2.5,2.3-2.7v0
					c0,0,0.3,0,0.4,0c0.2,0,0.4,0,0.5,0v0c1.2,0.2,2.4,1,2.3,2.7v0c0,0.7-0.5,0.9-0.2,1.2c0.2,0.2,0.9,0.1,1,0.1
					C52.4,57.2,53.5,58.7,53.5,60.1L53.5,60.1z"/>
				<path class="st2" d="M47.4,53.3C47.4,53.3,47.4,53.3,47.4,53.3c-0.1,0-0.4,0-0.4,0v0c-1.2,0.2-2.4,1-2.3,2.7v0
					c0,0.7,0.5,0.9,0.2,1.2c-0.2,0.2-0.9,0.1-1,0.1c-1.4-0.1-2.6,1.4-2.6,2.8v0c0,1.9,1.7,3,3.4,2.7c0.9-0.1,1.5-0.7,2-1.3
					c0.5-0.6,0.6-0.2,0.5,0.2c-0.3,1.8-1.1,2.9-2.7,3.3c-0.2,0.1-0.8,0.2-0.2,0.2h3.1V53.3z"/>
			</g>
		</g>
		<g>
			<g>
				<path class="st1" d="M27.8,75.8c0,1.9-1.7,3-3.4,2.7c-0.9-0.1-1.5-0.7-2-1.3c-0.5-0.6-0.6-0.2-0.5,0.2c0.3,1.8,1.1,2.9,2.7,3.3
					c0.2,0.1,0.8,0.2,0.2,0.2h-6.2c-0.6,0,0.1-0.1,0.2-0.2c1.5-0.5,2.4-1.5,2.7-3.3c0.1-0.4-0.1-0.8-0.5-0.2c-0.5,0.6-1.2,1.2-2,1.3
					c-1.7,0.2-3.4-0.8-3.4-2.7v0c0-1.4,1.1-2.9,2.6-2.8c0.1,0,0.8,0.2,1-0.1c0.3-0.3-0.1-0.5-0.2-1.2v0c0-1.6,1.1-2.5,2.3-2.7v0
					c0,0,0.3,0,0.4,0c0.2,0,0.4,0,0.5,0v0c1.2,0.2,2.4,1,2.3,2.7v0c0,0.7-0.5,0.9-0.2,1.2c0.2,0.2,0.9,0.1,1,0.1
					C26.7,72.9,27.8,74.4,27.8,75.8L27.8,75.8z"/>
				<path class="st2" d="M21.7,69C21.7,69,21.6,69,21.7,69c-0.1,0-0.4,0-0.4,0v0c-1.3,0.2-2.4,1-2.3,2.7v0c0,0.7,0.5,0.9,0.2,1.2
					c-0.2,0.2-0.9,0.1-1,0.1c-1.4-0.1-2.6,1.4-2.6,2.8v0c0,1.9,1.7,3,3.4,2.7c0.9-0.1,1.5-0.7,2-1.3c0.5-0.6,0.6-0.2,0.5,0.2
					c-0.3,1.8-1.1,2.9-2.7,3.3c-0.2,0.1-0.8,0.2-0.2,0.2h3.1V69z"/>
			</g>
			<g>
				<path class="st1" d="M53.5,75.8c0,1.9-1.7,3-3.4,2.7c-0.9-0.1-1.5-0.7-2-1.3c-0.5-0.6-0.6-0.2-0.5,0.2c0.3,1.8,1.1,2.9,2.7,3.3
					c0.2,0.1,0.8,0.2,0.2,0.2h-6.2c-0.6,0,0.1-0.1,0.2-0.2c1.5-0.5,2.4-1.5,2.7-3.3c0.1-0.4-0.1-0.8-0.5-0.2c-0.5,0.6-1.2,1.2-2,1.3
					c-1.7,0.2-3.4-0.8-3.4-2.7v0c0-1.4,1.1-2.9,2.6-2.8c0.1,0,0.8,0.2,1-0.1c0.3-0.3-0.1-0.5-0.2-1.2v0c0-1.6,1.1-2.5,2.3-2.7v0
					c0,0,0.3,0,0.4,0c0.2,0,0.4,0,0.5,0v0c1.2,0.2,2.4,1,2.3,2.7v0c0,0.7-0.5,0.9-0.2,1.2c0.2,0.2,0.9,0.1,1,0.1
					C52.4,72.9,53.5,74.4,53.5,75.8L53.5,75.8z"/>
				<path class="st2" d="M47.4,69C47.4,69,47.4,69,47.4,69c-0.1,0-0.4,0-0.4,0v0c-1.2,0.2-2.4,1-2.3,2.7v0c0,0.7,0.5,0.9,0.2,1.2
					c-0.2,0.2-0.9,0.1-1,0.1c-1.4-0.1-2.6,1.4-2.6,2.8v0c0,1.9,1.7,3,3.4,2.7c0.9-0.1,1.5-0.7,2-1.3c0.5-0.6,0.6-0.2,0.5,0.2
					c-0.3,1.8-1.1,2.9-2.7,3.3c-0.2,0.1-0.8,0.2-0.2,0.2h3.1V69z"/>
			</g>
		</g>
	</g>
</g>
</svg>
