<?xml version="1.0" encoding="utf-8"?>
<!-- Generator: Adobe Illustrator 26.5.0, SVG Export Plug-In . SVG Version: 6.00 Build 0)  -->
<svg version="1.1" id="Layer_1" xmlns="http://www.w3.org/2000/svg" xmlns:xlink="http://www.w3.org/1999/xlink" x="0px" y="0px"
	 viewBox="0 0 69.1 103.7" style="enable-background:new 0 0 69.1 103.7;" xml:space="preserve">
<style type="text/css">
	.st0{fill:#F2F2F2;}
	.st1{fill:#333333;}
	.st2{fill:#4D4D4D;}
</style>
<g>
	<path class="st0" d="M69.1,101c0,1.5-1.2,2.7-2.7,2.7H2.7c-1.5,0-2.7-1.2-2.7-2.7V2.7C0,1.2,1.2,0,2.7,0h63.7
		c1.5,0,2.7,1.2,2.7,2.7V101z"/>
	<g>
		<path class="st1" d="M54.2,54.4c0,6.1-5.5,9.5-10.8,8.7c-2.8-0.4-4.8-2.1-6.4-4.2c-1.6-1.9-2-0.7-1.7,0.6c1,5.8,3.6,9.1,8.6,10.7
			c0.5,0.2,2.6,0.6,0.7,0.6H24.7c-1.9,0,0.2-0.5,0.7-0.6c4.9-1.5,7.6-4.9,8.6-10.7c0.2-1.3-0.2-2.5-1.7-0.6c-1.7,2-3.7,3.7-6.5,4.2
			C20.5,63.9,15,60.5,15,54.4v0c0-4.4,3.5-9.3,8.1-8.9c0.3,0,2.5,0.5,3.2-0.2c1-1-0.4-1.7-0.5-3.8v0c-0.1-5.2,3.4-8,7.4-8.5v0
			c0,0,0.9-0.1,1.3-0.1c0.7,0,1.3,0.1,1.5,0.1v0c4,0.5,7.6,3.3,7.4,8.5v0c-0.1,2.2-1.5,2.9-0.5,3.8c0.7,0.7,2.9,0.2,3.2,0.2
			C50.6,45.1,54.2,50,54.2,54.4L54.2,54.4z"/>
		<path class="st2" d="M34.5,32.9C34.5,32.9,34.5,32.9,34.5,32.9c-0.4,0-1.3,0.1-1.3,0.1v0c-4,0.5-7.6,3.3-7.4,8.5v0
			c0.1,2.2,1.5,2.9,0.5,3.8c-0.7,0.7-2.9,0.2-3.2,0.2C18.5,45.1,15,50,15,54.4v0c0,6.1,5.5,9.5,10.8,8.7c2.8-0.4,4.8-2.1,6.5-4.2
			c1.6-1.9,1.9-0.7,1.7,0.6c-1,5.8-3.6,9.1-8.6,10.7c-0.5,0.2-2.6,0.6-0.7,0.6h9.8V32.9z"/>
	</g>
	<g>
		<path class="st1" d="M6.4,11.9l-1,3.2H4L7.4,5H9l3.4,10.1h-1.4L10,11.9H6.4z M9.7,10.9L8.7,8C8.5,7.3,8.3,6.7,8.2,6.2h0
			C8,6.8,7.9,7.4,7.7,8l-1,2.9H9.7z"/>
	</g>
	<g>
		<path class="st1" d="M62.7,91.8l1-3.2h1.3l-3.4,10.1h-1.6l-3.5-10.1h1.4l1.1,3.2H62.7z M59.4,92.8l1,2.9c0.2,0.7,0.4,1.3,0.5,1.8
			h0c0.2-0.6,0.3-1.2,0.5-1.8l1-2.9H59.4z"/>
	</g>
	<g>
		<path class="st1" d="M4,93c0-1.6,1.5-2.5,2.9-2.3c0.7,0.1,1.3,0.6,1.7,1.1c0.4,0.5,0.5,0.2,0.5-0.2c-0.3-1.6-1-2.4-2.3-2.8
			c-0.1,0-0.7-0.2-0.2-0.2h5.2c0.5,0,0,0.1-0.2,0.2c-1.3,0.4-2,1.3-2.3,2.8c-0.1,0.3,0,0.7,0.5,0.2c0.4-0.5,1-1,1.7-1.1
			c1.4-0.2,2.9,0.7,2.9,2.3l0,0c0,1.2-0.9,2.5-2.2,2.4c-0.1,0-0.7-0.1-0.8,0c-0.3,0.3,0.1,0.4,0.1,1l0,0c0,1.4-0.9,2.1-2,2.3l0,0
			c0,0-0.2,0-0.3,0c-0.2,0-0.3,0-0.4,0l0,0c-1.1-0.1-2-0.9-2-2.3l0,0c0-0.6,0.4-0.8,0.1-1c-0.2-0.2-0.8,0-0.8,0
			C4.9,95.4,4,94.1,4,93L4,93z"/>
		<path class="st2" d="M9.2,98.7C9.2,98.7,9.2,98.7,9.2,98.7c0.1,0,0.4,0,0.4,0l0,0c1.1-0.1,2-0.9,2-2.3l0,0c0-0.6-0.4-0.8-0.1-1
			c0.2-0.2,0.8-0.1,0.8,0c1.2,0.1,2.2-1.2,2.2-2.4l0,0c0-1.6-1.5-2.5-2.9-2.3c-0.7,0.1-1.3,0.6-1.7,1.1c-0.4,0.5-0.5,0.2-0.5-0.2
			c0.3-1.6,1-2.4,2.3-2.8c0.1,0,0.7-0.2,0.2-0.2H9.2V98.7z"/>
	</g>
	<g>
		<path class="st1" d="M65.1,10.7c0,1.6-1.5,2.5-2.9,2.3c-0.7-0.1-1.3-0.6-1.7-1.1c-0.4-0.5-0.5-0.2-0.5,0.2c0.3,1.5,1,2.4,2.3,2.8
			c0.1,0,0.7,0.2,0.2,0.2h-5.2c-0.5,0,0-0.1,0.2-0.2c1.3-0.4,2-1.3,2.3-2.8c0.1-0.3,0-0.7-0.5-0.2c-0.4,0.5-1,1-1.7,1.1
			c-1.4,0.2-2.9-0.7-2.9-2.3v0c0-1.2,0.9-2.5,2.2-2.4c0.1,0,0.7,0.1,0.8,0c0.3-0.3-0.1-0.4-0.1-1v0c0-1.4,0.9-2.1,2-2.3v0
			c0,0,0.2,0,0.3,0c0.2,0,0.3,0,0.4,0v0c1.1,0.1,2,0.9,2,2.3v0c0,0.6-0.4,0.8-0.1,1c0.2,0.2,0.8,0.1,0.8,0
			C64.2,8.3,65.1,9.6,65.1,10.7L65.1,10.7z"/>
		<path class="st2" d="M59.9,5C59.9,5,59.9,5,59.9,5c-0.1,0-0.3,0-0.3,0v0c-1.1,0.1-2,0.9-2,2.3v0c0,0.6,0.4,0.8,0.1,1
			c-0.2,0.2-0.8,0.1-0.8,0c-1.2-0.1-2.2,1.2-2.2,2.4v0c0,1.6,1.5,2.5,2.9,2.3c0.7-0.1,1.3-0.6,1.7-1.1c0.4-0.5,0.5-0.2,0.5,0.2
			c-0.3,1.5-1,2.4-2.3,2.8c-0.1,0-0.7,0.2-0.2,0.2h2.6V5z"/>
	</g>
</g>
</svg>
