<?xml version="1.0" encoding="utf-8"?>
<!-- Generator: Adobe Illustrator 26.5.0, SVG Export Plug-In . SVG Version: 6.00 Build 0)  -->
<svg version="1.1" id="Layer_1" xmlns="http://www.w3.org/2000/svg" xmlns:xlink="http://www.w3.org/1999/xlink" x="0px" y="0px"
	 viewBox="0 0 69.1 103.7" style="enable-background:new 0 0 69.1 103.7;" xml:space="preserve">
<style type="text/css">
	.st0{fill:#F2F2F2;}
	.st1{fill:#333333;}
	.st2{fill:#4D4D4D;}
	.st3{fill:#1F2D6C;}
	.st4{fill:#AA292E;}
	.st5{fill:#0B050F;}
	.st6{fill:none;stroke:#AA7941;stroke-width:0.7677;stroke-miterlimit:10;}
	.st7{fill:#DCE3F2;}
	.st8{fill:#E8EFFF;}
	.st9{fill:#AA7941;}
	.st10{fill:#BF9B4D;}
	.st11{fill:#D28537;}
	.st12{fill:#BD7831;}
	.st13{fill:#2A3757;}
</style>
<g>
	<path class="st0" d="M69.1,101c0,1.5-1.2,2.7-2.7,2.7H2.7c-1.5,0-2.7-1.2-2.7-2.7V2.7C0,1.2,1.2,0,2.7,0h63.7
		c1.5,0,2.7,1.2,2.7,2.7V101z"/>
	<g>
		<g>
			<path class="st1" d="M12.9,16.8c-1.4-0.4-2.7-0.8-3.9-1.2c-0.2-0.1-0.4-0.2-0.6-0.2C6.1,15.3,4,13.6,4,10.3C4,7.1,6,5,8.7,5
				c2.7,0,4.5,2.1,4.5,5.1c0,2.6-1.2,4.3-2.9,4.8V15c1,0.3,2.1,0.5,3,0.6L12.9,16.8z M11.9,10.2c0-2-1.1-4.1-3.2-4.1
				c-2.2,0-3.3,2-3.3,4.2c0,2.1,1.2,4.1,3.2,4.1C10.7,14.4,11.9,12.5,11.9,10.2z"/>
		</g>
		<g>
			<path class="st1" d="M65.1,11.7c0,1.9-1.7,2.9-3.3,2.7c-0.9-0.1-1.5-0.7-2-1.3c-0.5-0.6-0.6-0.2-0.5,0.2c0.3,1.8,1.1,2.8,2.7,3.3
				c0.2,0,0.8,0.2,0.2,0.2H56c-0.6,0,0.1-0.1,0.2-0.2c1.5-0.5,2.3-1.5,2.7-3.3c0.1-0.4-0.1-0.8-0.5-0.2c-0.5,0.6-1.1,1.2-2,1.3
				c-1.7,0.2-3.3-0.8-3.3-2.7v0c0-1.4,1.1-2.9,2.5-2.8c0.1,0,0.8,0.2,1-0.1c0.3-0.3-0.1-0.5-0.2-1.2v0c0-1.6,1.1-2.5,2.3-2.6v0
				c0,0,0.3,0,0.4,0c0.2,0,0.4,0,0.5,0v0c1.2,0.2,2.3,1,2.3,2.6v0c0,0.7-0.5,0.9-0.2,1.2c0.2,0.2,0.9,0.1,1,0.1
				C64,8.8,65.1,10.3,65.1,11.7L65.1,11.7z"/>
			<path class="st2" d="M59.1,5C59,5,59,5,59.1,5c-0.1,0-0.4,0-0.4,0v0c-1.2,0.2-2.3,1-2.3,2.6v0c0,0.7,0.5,0.9,0.2,1.2
				c-0.2,0.2-0.9,0.1-1,0.1c-1.4-0.1-2.5,1.4-2.5,2.8v0c0,1.9,1.7,2.9,3.3,2.7c0.9-0.1,1.5-0.7,2-1.3c0.5-0.6,0.6-0.2,0.5,0.2
				c-0.3,1.8-1.1,2.8-2.7,3.3c-0.2,0-0.8,0.2-0.2,0.2h3V5z"/>
		</g>
	</g>
	<g>
		<g>
			<path class="st1" d="M56.2,87.2c1.4,0.4,2.7,0.8,3.9,1.2c0.2,0.1,0.4,0.2,0.6,0.2c2.4,0.1,4.5,1.9,4.5,5.1c0,3.2-2,5.3-4.7,5.3
				c-2.7,0-4.5-2.1-4.5-5.1c0-2.6,1.2-4.3,2.9-4.8v-0.1c-1-0.3-2.1-0.5-3-0.6L56.2,87.2z M57.3,93.8c0,2,1.1,4.1,3.2,4.1
				c2.2,0,3.3-2,3.3-4.2c0-2.1-1.2-4.1-3.2-4.1C58.4,89.6,57.3,91.5,57.3,93.8z"/>
		</g>
		<g>
			<path class="st1" d="M4,92.3c0-1.9,1.7-2.9,3.3-2.7c0.9,0.1,1.5,0.7,2,1.3c0.5,0.6,0.6,0.2,0.5-0.2c-0.3-1.8-1.1-2.8-2.7-3.3
				c-0.2,0-0.8-0.2-0.2-0.2h6.1c0.6,0-0.1,0.1-0.2,0.2c-1.5,0.5-2.3,1.5-2.7,3.3c-0.1,0.4,0.1,0.8,0.5,0.2c0.5-0.6,1.1-1.2,2-1.3
				c1.7-0.2,3.3,0.8,3.3,2.7v0c0,1.4-1.1,2.9-2.5,2.8c-0.1,0-0.8-0.2-1,0.1c-0.3,0.3,0.1,0.5,0.2,1.2v0c0,1.6-1.1,2.5-2.3,2.6v0
				c0,0-0.3,0-0.4,0c-0.2,0-0.4,0-0.5,0v0c-1.2-0.2-2.3-1-2.3-2.6v0c0-0.7,0.5-0.9,0.2-1.2c-0.2-0.2-0.9-0.1-1-0.1
				C5.1,95.2,4,93.7,4,92.3L4,92.3z"/>
			<path class="st2" d="M10.1,99C10.1,99,10.1,99,10.1,99c0.1,0,0.4,0,0.4,0v0c1.2-0.2,2.3-1,2.3-2.6v0c0-0.7-0.5-0.9-0.2-1.2
				c0.2-0.2,0.9-0.1,1-0.1c1.4,0.1,2.5-1.4,2.5-2.8v0c0-1.9-1.7-2.9-3.3-2.7c-0.9,0.1-1.5,0.7-2,1.3c-0.5,0.6-0.6,0.2-0.5-0.2
				c0.3-1.8,1.1-2.8,2.7-3.3c0.2,0,0.8-0.2,0.2-0.2h-3V99z"/>
		</g>
	</g>
	<g>
		<rect x="34.9" y="47.2" class="st3" width="2.6" height="0.9"/>
		<rect x="34.7" y="46.3" class="st4" width="2.6" height="0.9"/>
		<rect x="34.3" y="45.4" class="st3" width="2.6" height="0.9"/>
		<rect x="34.1" y="44.6" class="st4" width="2.6" height="0.9"/>
		<rect x="33.7" y="43.7" class="st3" width="2.6" height="0.9"/>
		<rect x="33.5" y="42.8" class="st4" width="2.6" height="0.9"/>
		<rect x="33.1" y="42" class="st3" width="2.6" height="0.9"/>
		<polygon class="st1" points="34.7,48.1 32.8,43.2 27.9,42.9 30.7,48.5 		"/>
		<polygon class="st1" points="40.8,47.8 41.5,42.4 36.5,42.6 36.4,44.6 38.1,48.1 		"/>
		<path class="st5" d="M35.1,42.3l2.2,5.7l1.6-0.2c0,0-2.3-3-1.9-4.1c0.4-1.1,3-0.4,3-0.4l1.1-2L35.1,42.3z"/>
		<path class="st5" d="M35.5,48.1l-2.2-5.8l-5.5-0.4l0.7,1.6c0,0,3-0.6,3.9,0.1c0.9,0.7,1.7,4.3,1.7,4.3L35.5,48.1z"/>
		<path class="st5" d="M30.2,50.2c4.5,0.2,11-0.4,11-0.4v-2c0,0-6.5,0.6-11,0.4"/>
		<path class="st6" d="M41.1,47.8c0,0-6.5,0.6-11,0.4"/>
		<path class="st6" d="M41.1,49.8c0,0-6.5,0.6-11,0.4"/>
		<path class="st7" d="M44.7,43.7l-3.1-2.8c0,0-2.4,1.3-2.2,3.8c0.3,2.5,1.6,3.4,1.6,3.4L44.7,43.7z"/>
		<path class="st5" d="M44.7,43.7l-2.8-2.5c0,0-2.2,1.1-1.9,3.4c0.3,2.2,1.5,3,1.5,3L44.7,43.7z"/>
		<path class="st3" d="M44.7,43.7l-2.3-2.1c0,0-1.8,0.9-1.6,2.8c0.2,1.9,1.2,2.5,1.2,2.5L44.7,43.7z"/>
		<g>
			<rect x="31.6" y="55.6" class="st3" width="2.6" height="0.9"/>
			<rect x="31.8" y="56.5" class="st4" width="2.6" height="0.9"/>
			<rect x="32.2" y="57.4" class="st3" width="2.6" height="0.9"/>
			<rect x="32.5" y="58.2" class="st4" width="2.6" height="0.9"/>
			<rect x="32.8" y="59.1" class="st3" width="2.6" height="0.9"/>
			<rect x="33.1" y="60" class="st4" width="2.6" height="0.9"/>
			<rect x="33.4" y="60.9" class="st3" width="2.6" height="0.9"/>
			<polygon class="st1" points="34.4,55.6 36.3,60.5 41.2,60.8 38.4,55.2 			"/>
			<polygon class="st1" points="28.3,55.9 27.7,61.3 32.6,61.1 32.7,59.1 31,55.6 			"/>
			<path class="st5" d="M34,61.4l-2.2-5.7l-1.6,0.2c0,0,2.3,3,1.9,4.1c-0.4,1.1-3,0.4-3,0.4l-1.1,2L34,61.4z"/>
			<path class="st5" d="M33.7,55.6l2.2,5.8l5.5,0.4l-0.7-1.6c0,0-3,0.6-3.9-0.1c-0.9-0.7-1.7-4.3-1.7-4.3L33.7,55.6z"/>
			<path class="st5" d="M39,53.5c-4.5-0.2-11,0.4-11,0.4v2c0,0,6.5-0.6,11-0.4"/>
			<path class="st6" d="M28,55.9c0,0,6.5-0.6,11-0.4"/>
			<path class="st6" d="M28,53.9c0,0,6.5-0.6,11-0.4"/>
			<path class="st8" d="M50.6,64.1c-0.9,0.3-1.8,0.4-2.8,0.4c-5.5,0-9.9-4.8-9.9-10.8c0-6,4.4-10.8,9.9-10.8c1,0,1.9,0.2,2.8,0.4
				V64.1z"/>
			<path class="st7" d="M50.6,63.6c-0.9,0.3-1.8,0.5-2.8,0.5c-5.2,0-9.5-4.6-9.5-10.4c0-5.7,4.2-10.4,9.5-10.4c1,0,1.9,0.2,2.8,0.5
				V63.6z"/>
			<path class="st9" d="M50.6,61.3c-0.9,0.4-1.8,0.6-2.8,0.6c-4.2,0-7.5-3.7-7.5-8.2c0-4.6,3.4-8.2,7.5-8.2c1,0,1.9,0.2,2.8,0.6
				V61.3z"/>
			<path class="st10" d="M50.6,60.5c-0.9,0.4-1.8,0.7-2.8,0.7c-3.8,0-6.8-3.3-6.8-7.4c0-4.1,3-7.4,6.8-7.4c1,0,1.9,0.2,2.8,0.7V60.5
				z"/>
			<path class="st8" d="M50.6,57.9c-0.8,0.6-1.8,1-2.8,1c-2.6,0-4.8-2.3-4.8-5.2c0-2.9,2.1-5.2,4.8-5.2c1,0,2,0.4,2.8,1V57.9z"/>
			<path class="st1" d="M50.6,57.6c-0.8,0.7-1.7,1.1-2.8,1.1c-2.5,0-4.6-2.2-4.6-5c0-2.8,2-5,4.6-5c1.1,0,2,0.4,2.8,1.1V57.6z"/>
			<path class="st9" d="M50.6,54.4c-0.2,0.1-0.3,0.2-0.5,0.3l0,0c-0.2,0.1-0.3,0.2-0.5,0.4l0,0c-0.1,0.1-0.3,0.2-0.4,0.4
				c0,0,0,0,0,0c-0.1,0.1-0.3,0.3-0.4,0.4c0,0,0,0,0,0c0-0.1,0-0.3-0.1-0.4c0,0,0,0,0-0.1c0-0.1,0-0.2-0.1-0.3c0,0,0,0,0,0
				c0,0,0-0.1,0-0.1c0-0.1,0-0.2-0.1-0.3c0,0,0,0,0-0.1c0,0,0-0.1,0-0.1c0-0.1,0-0.2-0.1-0.2c0,0,0,0,0,0c0,0,0-0.1,0-0.1
				c0-0.1-0.1-0.2-0.1-0.2c0-0.1,0-0.1-0.1-0.2c0-0.1-0.1-0.2-0.1-0.2c0-0.1,0-0.1-0.1-0.2c0-0.1-0.1-0.1-0.1-0.2
				c0-0.1-0.1-0.1-0.1-0.2c0-0.1-0.1-0.1-0.1-0.2c0-0.1-0.1-0.1-0.1-0.2c0-0.1-0.1-0.1-0.1-0.2c0,0,0,0,0,0c0-0.1-0.1-0.1-0.1-0.1
				c0-0.1-0.1-0.1-0.1-0.2c0,0,0-0.1-0.1-0.1c0,0,0-0.1-0.1-0.1c0-0.1-0.1-0.1-0.1-0.2c0,0-0.1-0.1-0.1-0.1c0,0,0,0,0-0.1
				c0-0.1-0.1-0.1-0.1-0.2c0-0.1-0.1-0.1-0.1-0.2c0-0.1-0.1-0.1-0.1-0.2c0,0,0,0-0.1-0.1c0,0-0.1-0.1-0.1-0.1c0,0-0.1-0.1-0.1-0.1
				c0,0-0.1-0.1-0.1-0.1c-0.1-0.1-0.1-0.1-0.2-0.2c0,0,0,0,0,0c0,0-0.1-0.1-0.1-0.1c-0.1-0.1-0.1-0.1-0.2-0.2c0,0-0.1-0.1-0.1-0.1
				c0,0-0.1,0-0.1-0.1c-0.1-0.1-0.1-0.1-0.2-0.2c0,0,0,0,0,0c0,0-0.1-0.1-0.1-0.1c-0.1-0.1-0.1-0.1-0.2-0.2c-0.1,0-0.1-0.1-0.2-0.1
				c0,0-0.1-0.1-0.1-0.1c-0.1,0-0.1-0.1-0.2-0.1c0,0-0.1-0.1-0.2-0.1c-0.1,0-0.1-0.1-0.2-0.1c-0.1,0-0.1-0.1-0.2-0.1
				c-0.1,0-0.1-0.1-0.2-0.1c-0.1,0-0.1-0.1-0.2-0.1c-0.1,0-0.1-0.1-0.2-0.1c-0.1,0-0.1-0.1-0.2-0.1c-0.1,0-0.1-0.1-0.2-0.1
				c-0.1,0-0.1,0-0.2-0.1c-0.1,0-0.2-0.1-0.2-0.1c0,0-0.1,0-0.1-0.1c-0.1,0-0.2-0.1-0.3-0.1c0,0-0.1,0-0.1,0c-0.1,0-0.2-0.1-0.3-0.1
				c0,0,0,0-0.1,0c-0.1,0-0.3-0.1-0.4-0.1c0,0,0,0-0.1,0c-0.1,0-0.2-0.1-0.3-0.1c0,0-0.1,0-0.1,0c-0.1,0-0.2,0-0.3-0.1
				c-0.1,0-0.1,0-0.2,0c-0.2,0-0.5-0.1-0.7-0.1c1.8-2.7,4.7-4.4,8-4.4c1,0,1.9,0.2,2.8,0.4V54.4z"/>
			<path class="st10" d="M50.6,53.7c-0.1,0.3-0.2,0.6-0.4,0.7c-0.4,0.4-0.8,0.7-1.2,1.1c-0.5-4.2-4.1-8.2-8.3-8.5
				c2.4-3.5,9.7-6.3,10-0.5V53.7z"/>
			<path class="st5" d="M32.4,73.5c0,0-3.3-7.2-2.8-9.6c0.5-2.3,5.2,4.3,5.2,4.3L32.4,73.5z"/>
			<path class="st1" d="M35.2,80.2c0,0-5.2-1.2-7.6-8.5c-2.4-7.2-1.3-10-1.3-10l3.6,2.5c0,0-0.3,3.4,2.2,9.3s3.1,5.4,3.1,5.4V80.2z"
				/>
			<path class="st10" d="M38.2,79.5c0,0-5.2-1.2-7.6-8.5c-2.4-7.2-1.2-8.5-1.2-8.5l1.1,0.2c0,0-1.3,2.3,1.2,8.2
				c2.5,5.9,6.6,7.3,6.6,7.3V79.5z"/>
			<polygon class="st3" points="50.6,54 50.6,61.1 46.9,64.4 43.2,62.3 			"/>
			<path class="st5" d="M42.4,62.2c0,0,7.9-9.1,8.1-9.2v1.4l-6.6,8L42.4,62.2z"/>
			<path class="st9" d="M30.2,64.9L27,62.4c0,0,9.4-3.4,20.4,0.8l-2.6,3.2L30.2,64.9z"/>
			<path class="st10" d="M30.9,65.4l-3.2-2.5c0,0,8.7-3.2,19.7,1l-2.6,3.2L30.9,65.4z"/>
			<path class="st7" d="M33.2,68.2c0-0.1-0.6-1.8-2.3-2.8c0,0,8.6-1.5,13.9,1.1c0,0-0.8,5.3-3.4,4.2S33.2,68.2,33.2,68.2z"/>
			<path class="st8" d="M32.2,74.9c0,0-0.2-1.9,0-2.2c0.2-0.3,0.3-0.5,0.2-1c-0.1-0.5-0.1-2.7,0.3-3.2c0.4-0.5,1.9-3.4,3-3.4
				c1.1,0,5.5,1.8,5.6,4.2c0,0,0.3-0.4,0.7-0.2c0.4,0.2,0.5,2,0.5,2s-3.6,7.9-7.2,7.6C35.2,78.7,32.2,76.5,32.2,74.9z"/>
			<path class="st5" d="M35.2,80.2c0,0,3.8,1,6.7-2.1c2.9-3.1,6.2-10.6,8.6-11.5v-3.1c0,0-6,3.1-7.4,7.8
				C41.7,76,35.2,80.2,35.2,80.2z"/>
			<path class="st11" d="M35.2,78.5c0,0,1-4.2,5.1-4.4c1.2,1.1-2.6,4.4-2.6,4.4s-0.8,0.6-2.5,0.4V78.5z"/>
			<path class="st1" d="M35.2,78.9c0,0,4-1,7.3-9.2c5.6-9.1,8-8.7,8-8.7v2.4c0,0-4.1,3.3-6.6,7.8c-2.5,4.5-4.2,8.9-8.7,8.9V78.9z"/>
			<path class="st10" d="M35.2,80.2c0,0-5.2-1.2-7.6-8.5c-2.4-7.2-1.3-10-1.3-10l1,0.6c0,0-1.2,3.5,1.3,9.4c2.5,5.9,6.6,7.3,6.6,7.3
				V80.2z"/>
			<path class="st12" d="M35.2,78.5c0,0-0.6-2.7-3.1-3.6c0,0-0.8,4.5,3.1,4.1V78.5z"/>
			<path class="st7" d="M24.4,60l3.1,2.8c0,0,2.4-1.3,2.1-3.8c-0.3-2.5-1.6-3.4-1.6-3.4L24.4,60z"/>
			<path class="st5" d="M24.4,60l2.8,2.5c0,0,2.2-1.1,1.9-3.4c-0.3-2.2-1.5-3-1.5-3L24.4,60z"/>
			<path class="st3" d="M24.4,59.9l2.3,2.1c0,0,1.8-0.9,1.6-2.8c-0.2-1.9-1.2-2.5-1.2-2.5L24.4,59.9z"/>
			<g>
				<path class="st11" d="M32.2,73c0.7,0.2,1.3-0.1,1.9,0.1c0,0,0,0,0,0c-0.3,0.3-0.6,0.3-1,0.2C32.9,73.3,32.3,73.2,32.2,73
					L32.2,73z"/>
			</g>
			<g>
				<path class="st11" d="M38.2,73.1c-0.7,0.3-2,0.7-2.6,0.1c0.4-0.1,0.8-0.1,1.3-0.1C37.3,73.2,37.9,73.1,38.2,73.1L38.2,73.1z"/>
			</g>
			<g>
				<path class="st13" d="M36,72.4c0.6-0.4,1.4-0.4,2,0C37.3,72.3,36.7,72.3,36,72.4L36,72.4z"/>
			</g>
			<g>
				<path class="st13" d="M34,72.4c-0.5-0.1-1-0.1-1.5,0C32.8,72,33.5,72,34,72.4C34,72.4,33.5,72,34,72.4z"/>
			</g>
			<g>
				<path class="st8" d="M35.1,67.6c0,0,0.4-0.3,1,0"/>
				<path class="st13" d="M35.1,67.6c0.3-0.3,0.8-0.3,1,0C35.7,67.6,35.5,67.6,35.1,67.6C35.1,67.6,35.5,67.6,35.1,67.6z"/>
			</g>
			<g>
				<path class="st13" d="M34.4,68.4c0.8-0.1,1.6-0.1,2.4,0C36,68.5,35.2,68.5,34.4,68.4C34.4,68.4,35.2,68.5,34.4,68.4z"/>
			</g>
			<g>
				<path class="st13" d="M34.7,69.7c0.1-0.5,0.9-0.6,1.3-0.4C35.5,69.5,35,69.4,34.7,69.7L34.7,69.7z"/>
			</g>
		</g>
		<path class="st8" d="M18.6,39.6c0.9-0.3,1.8-0.4,2.8-0.4c5.5,0,9.9,4.8,9.9,10.8c0,6-4.4,10.8-9.9,10.8c-1,0-1.9-0.2-2.8-0.4V39.6
			z"/>
		<path class="st7" d="M18.6,40.1c0.9-0.3,1.8-0.5,2.8-0.5c5.2,0,9.5,4.6,9.5,10.4c0,5.7-4.2,10.4-9.5,10.4c-1,0-1.9-0.2-2.8-0.5
			V40.1z"/>
		<path class="st9" d="M18.6,42.4c0.9-0.4,1.8-0.6,2.8-0.6c4.2,0,7.5,3.7,7.5,8.2c0,4.6-3.4,8.2-7.5,8.2c-1,0-1.9-0.2-2.8-0.6V42.4z
			"/>
		<path class="st10" d="M18.6,43.2c0.9-0.4,1.8-0.7,2.8-0.7c3.8,0,6.8,3.3,6.8,7.4c0,4.1-3,7.4-6.8,7.4c-1,0-1.9-0.2-2.8-0.7V43.2z"
			/>
		<path class="st8" d="M18.6,45.7c0.8-0.6,1.8-1,2.8-1c2.6,0,4.8,2.3,4.8,5.2c0,2.9-2.1,5.2-4.8,5.2c-1,0-2-0.4-2.8-1V45.7z"/>
		<path class="st1" d="M18.6,46.1c0.8-0.7,1.7-1.1,2.8-1.1c2.5,0,4.6,2.2,4.6,5c0,2.8-2,5-4.6,5c-1.1,0-2-0.4-2.8-1.1V46.1z"/>
		<path class="st9" d="M18.6,49.2c0.2-0.1,0.3-0.2,0.5-0.3l0,0c0.2-0.1,0.3-0.2,0.5-0.4l0,0c0.1-0.1,0.3-0.2,0.4-0.4c0,0,0,0,0,0
			c0.1-0.1,0.3-0.3,0.4-0.4c0,0,0,0,0,0c0,0.1,0,0.3,0.1,0.4c0,0,0,0,0,0.1c0,0.1,0,0.2,0.1,0.3c0,0,0,0,0,0c0,0,0,0.1,0,0.1
			c0,0.1,0,0.2,0.1,0.3c0,0,0,0,0,0.1c0,0,0,0.1,0,0.1c0,0.1,0,0.2,0.1,0.2c0,0,0,0,0,0c0,0,0,0.1,0,0.1c0,0.1,0.1,0.2,0.1,0.2
			c0,0.1,0,0.1,0.1,0.2c0,0.1,0.1,0.2,0.1,0.2c0,0.1,0,0.1,0.1,0.2c0,0.1,0.1,0.1,0.1,0.2c0,0.1,0.1,0.1,0.1,0.2
			c0,0.1,0.1,0.1,0.1,0.2c0,0.1,0.1,0.1,0.1,0.2c0,0.1,0.1,0.1,0.1,0.2c0,0,0,0,0,0c0,0,0.1,0.1,0.1,0.1c0,0.1,0.1,0.1,0.1,0.2
			c0,0,0,0.1,0.1,0.1c0,0,0,0.1,0.1,0.1c0,0.1,0.1,0.1,0.1,0.2c0,0,0.1,0.1,0.1,0.1c0,0,0,0,0,0.1c0,0.1,0.1,0.1,0.1,0.2
			c0,0.1,0.1,0.1,0.1,0.2c0,0.1,0.1,0.1,0.1,0.2c0,0,0,0,0.1,0.1c0,0,0.1,0.1,0.1,0.1c0,0,0.1,0.1,0.1,0.1c0,0,0.1,0.1,0.1,0.1
			c0.1,0.1,0.1,0.1,0.2,0.2c0,0,0,0,0,0c0,0,0.1,0.1,0.1,0.1c0.1,0.1,0.1,0.1,0.2,0.2c0,0,0.1,0.1,0.1,0.1c0,0,0.1,0,0.1,0.1
			c0.1,0.1,0.1,0.1,0.2,0.2c0,0,0,0,0,0c0,0,0.1,0.1,0.1,0.1c0.1,0.1,0.1,0.1,0.2,0.2c0.1,0,0.1,0.1,0.2,0.1c0,0,0.1,0.1,0.1,0.1
			c0.1,0,0.1,0.1,0.2,0.1c0.1,0,0.1,0.1,0.2,0.1c0.1,0,0.1,0.1,0.2,0.1c0.1,0,0.1,0.1,0.2,0.1c0.1,0,0.1,0.1,0.2,0.1
			c0.1,0,0.1,0.1,0.2,0.1c0.1,0,0.1,0.1,0.2,0.1c0.1,0,0.1,0.1,0.2,0.1c0.1,0,0.1,0.1,0.2,0.1c0.1,0,0.1,0.1,0.2,0.1
			c0.1,0,0.2,0.1,0.2,0.1c0,0,0.1,0,0.1,0.1c0.1,0,0.2,0.1,0.3,0.1c0,0,0.1,0,0.1,0c0.1,0,0.2,0.1,0.3,0.1c0,0,0,0,0.1,0
			c0.1,0,0.3,0.1,0.4,0.1c0,0,0,0,0.1,0c0.1,0,0.2,0.1,0.3,0.1c0,0,0.1,0,0.1,0c0.1,0,0.2,0,0.3,0.1c0.1,0,0.1,0,0.2,0
			c0.2,0,0.5,0.1,0.7,0.1c-1.8,2.7-4.7,4.4-8,4.4c-1,0-1.9-0.2-2.8-0.4V49.2z"/>
		<path class="st10" d="M18.6,50c0.1-0.3,0.2-0.6,0.4-0.7c0.4-0.4,0.8-0.7,1.2-1.1c0.5,4.2,4.1,8.2,8.3,8.5c-2.4,3.5-9.7,6.3-10,0.5
			V50z"/>
		<polygon class="st3" points="18.6,49.7 18.6,42.6 22.2,39.2 25.9,41.4 		"/>
		<path class="st5" d="M26.7,41.5c0,0-7.9,9.1-8.1,9.2v-1.4l6.6-8L26.7,41.5z"/>
		<path class="st5" d="M36.7,30.1c0,0,3.3,7.2,2.8,9.6c-0.5,2.3-5.2-4.3-5.2-4.3L36.7,30.1z"/>
		<path class="st1" d="M33.9,23.5c0,0,5.2,1.2,7.6,8.5c2.4,7.2,1.3,10,1.3,10l-3.6-2.5c0,0,0.3-3.4-2.2-9.3
			c-2.5-5.9-3.1-5.4-3.1-5.4V23.5z"/>
		<path class="st10" d="M30.9,24.1c0,0,5.2,1.2,7.6,8.5c2.4,7.2,1.2,8.5,1.2,8.5l-1.1-0.2c0,0,1.3-2.3-1.2-8.2
			c-2.5-5.9-6.6-7.3-6.6-7.3V24.1z"/>
		<path class="st9" d="M38.9,38.8l3.2,2.5c0,0-9.4,3.4-20.4-0.8l2.6-3.2L38.9,38.8z"/>
		<path class="st10" d="M38.2,38.3l3.2,2.5c0,0-8.7,3.2-19.7-1l2.6-3.2L38.2,38.3z"/>
		<path class="st7" d="M36,35.5c0,0.1,0.6,1.8,2.3,2.8c0,0-8.6,1.5-13.9-1.1c0,0,0.8-5.3,3.4-4.2C30.3,34.1,36,35.5,36,35.5z"/>
		<path class="st8" d="M36.9,28.8c0,0,0.2,1.9,0,2.2c-0.2,0.3-0.3,0.5-0.2,1c0.1,0.5,0.1,2.7-0.3,3.2c-0.4,0.5-1.9,3.4-3,3.4
			c-1.1,0-5.5-1.8-5.6-4.2c0,0-0.3,0.4-0.8,0.2c-0.4-0.2-0.5-2-0.5-2s3.6-7.9,7.2-7.6C33.9,25,36.9,27.2,36.9,28.8z"/>
		<path class="st5" d="M33.9,23.5c0,0-3.8-1-6.7,2.1c-2.9,3.1-6.2,10.6-8.6,11.5v3.1c0,0,6-3.1,7.4-7.8
			C27.4,27.7,33.9,23.5,33.9,23.5z"/>
		<path class="st11" d="M33.9,25.2c0,0-1,4.2-5.1,4.4c-1.2-1.1,2.6-4.4,2.6-4.4s0.8-0.6,2.5-0.4V25.2z"/>
		<path class="st1" d="M33.9,24.7c0,0-4,1-7.3,9.2c-5.6,9.1-8,8.7-8,8.7v-2.4c0,0,4.1-3.3,6.6-7.8c2.5-4.5,4.2-8.9,8.7-8.9V24.7z"/>
		<path class="st10" d="M33.9,23.5c0,0,5.2,1.2,7.6,8.5c2.4,7.2,1.3,10,1.3,10l-1-0.6c0,0,1.2-3.5-1.3-9.4c-2.5-5.9-6.6-7.3-6.6-7.3
			V23.5z"/>
		<path class="st12" d="M33.9,25.2c0,0,0.6,2.7,3.1,3.6c0,0,0.8-4.5-3.1-4.1V25.2z"/>
		<g>
			<path class="st11" d="M36.9,30.7c-0.7-0.2-1.3,0.1-1.9-0.1c0,0,0,0,0,0c0.3-0.3,0.6-0.3,1-0.2C36.2,30.4,36.8,30.5,36.9,30.7
				L36.9,30.7z"/>
		</g>
		<g>
			<path class="st11" d="M30.9,30.5c0.7-0.3,2-0.7,2.6-0.1c-0.4,0.1-0.8,0.1-1.3,0.1C31.8,30.5,31.3,30.6,30.9,30.5L30.9,30.5z"/>
		</g>
		<g>
			<path class="st13" d="M33.1,31.3c-0.6,0.4-1.4,0.4-2,0C31.8,31.3,32.4,31.4,33.1,31.3L33.1,31.3z"/>
		</g>
		<g>
			<path class="st13" d="M35.2,31.3c0.5,0.1,1,0.1,1.5,0C36.3,31.7,35.6,31.7,35.2,31.3C35.2,31.3,35.6,31.7,35.2,31.3z"/>
		</g>
		<g>
			<path class="st8" d="M34,36.1c0,0-0.4,0.3-1,0"/>
			<path class="st13" d="M34,36.1c-0.3,0.3-0.8,0.3-1,0C33.4,36.1,33.7,36.1,34,36.1C34,36.1,33.7,36.1,34,36.1z"/>
		</g>
		<g>
			<path class="st13" d="M34.7,35.3c-0.8,0.1-1.6,0.1-2.4,0C33.1,35.2,33.9,35.2,34.7,35.3C34.7,35.3,33.9,35.2,34.7,35.3z"/>
		</g>
		<g>
			<path class="st13" d="M34.5,33.9c-0.1,0.5-0.9,0.6-1.3,0.4C33.6,34.2,34.1,34.3,34.5,33.9L34.5,33.9z"/>
		</g>
	</g>
</g>
</svg>
