<?xml version="1.0" encoding="utf-8"?>
<!-- Generator: Adobe Illustrator 26.5.0, SVG Export Plug-In . SVG Version: 6.00 Build 0)  -->
<svg version="1.1" id="Layer_1" xmlns="http://www.w3.org/2000/svg" xmlns:xlink="http://www.w3.org/1999/xlink" x="0px" y="0px"
	 viewBox="0 0 69.1 103.7" style="enable-background:new 0 0 69.1 103.7;" xml:space="preserve">
<style type="text/css">
	.st0{fill:#F2F2F2;}
	.st1{fill:#7A2B2B;}
	.st2{fill:#943434;}
</style>
<g>
	<path class="st0" d="M69.1,101c0,1.5-1.2,2.7-2.7,2.7H2.7c-1.5,0-2.7-1.2-2.7-2.7V2.7C0,1.2,1.2,0,2.7,0h63.7
		c1.5,0,2.7,1.2,2.7,2.7V101z"/>
	<g>
		<g>
			<path class="st1" d="M6,6.4L6,6.4L4.3,7.3L4,6.3l2.1-1.1h1.1v9.8H6V6.4z"/>
			<path class="st1" d="M17.3,9.9c0,3.3-1.2,5.1-3.4,5.1c-1.9,0-3.2-1.8-3.2-5c0-3.3,1.4-5.1,3.4-5.1C16.1,5,17.3,6.8,17.3,9.9z
				 M12,10.1c0,2.5,0.8,4,2,4c1.4,0,2-1.6,2-4.1c0-2.4-0.6-4-2-4C12.8,6,12,7.4,12,10.1z"/>
		</g>
		<g>
			<polygon class="st1" points="61.4,15.1 57.7,10 61.4,5 65.1,10 			"/>
			<polygon class="st2" points="61.4,5 57.7,10 61.4,15.1 			"/>
		</g>
	</g>
	<g>
		<g>
			<path class="st1" d="M63.1,96.3L63.1,96.3l1.7-0.9l0.3,1L63,97.5h-1.1v-9.8h1.3V96.3z"/>
			<path class="st1" d="M51.8,92.8c0-3.3,1.2-5.1,3.4-5.1c1.9,0,3.2,1.8,3.2,5c0,3.3-1.4,5.1-3.4,5.1C53,97.7,51.8,95.9,51.8,92.8z
				 M57.1,92.6c0-2.5-0.8-4-2-4c-1.4,0-2,1.6-2,4.1c0,2.4,0.6,4,2,4C56.3,96.7,57.1,95.3,57.1,92.6z"/>
		</g>
		<g>
			<polygon class="st1" points="7.7,87.6 11.4,92.6 7.7,97.7 4,92.6 			"/>
			<polygon class="st2" points="7.7,97.7 11.4,92.6 7.7,87.6 			"/>
		</g>
	</g>
	<g>
		<g>
			<g>
				<polygon class="st1" points="21.1,32.8 16.5,26.7 21.1,20.5 25.6,26.7 				"/>
				<polygon class="st2" points="21,20.6 16.5,26.7 21,32.8 				"/>
			</g>
			<g>
				<polygon class="st1" points="48,32.8 43.5,26.7 48,20.5 52.5,26.7 				"/>
				<polygon class="st2" points="48,20.6 43.5,26.7 48,32.8 				"/>
			</g>
		</g>
		<g>
			<g>
				<polygon class="st1" points="21.1,49.6 16.5,43.4 21.1,37.3 25.6,43.4 				"/>
				<polygon class="st2" points="21,37.3 16.5,43.4 21,49.6 				"/>
			</g>
			<g>
				<polygon class="st1" points="48,49.6 43.5,43.4 48,37.3 52.5,43.4 				"/>
				<polygon class="st2" points="48,37.3 43.5,43.4 48,49.6 				"/>
			</g>
		</g>
		<g>
			<g>
				<polygon class="st1" points="21.1,66.3 16.5,60.2 21.1,54 25.6,60.2 				"/>
				<polygon class="st2" points="21,54 16.5,60.2 21,66.3 				"/>
			</g>
			<g>
				<polygon class="st1" points="48,66.3 43.5,60.2 48,54 52.5,60.2 				"/>
				<polygon class="st2" points="48,54 43.5,60.2 48,66.3 				"/>
			</g>
		</g>
		<g>
			<g>
				<polygon class="st1" points="21.1,83.1 16.5,76.9 21.1,70.8 25.6,76.9 				"/>
				<polygon class="st2" points="21,70.8 16.5,76.9 21,83 				"/>
			</g>
			<g>
				<polygon class="st1" points="48,83.1 43.5,76.9 48,70.8 52.5,76.9 				"/>
				<polygon class="st2" points="48,70.8 43.5,76.9 48,83 				"/>
			</g>
		</g>
		<g>
			<polygon class="st1" points="34.6,41.6 30,35.5 34.6,29.3 39.1,35.5 			"/>
			<polygon class="st2" points="34.5,29.3 30,35.5 34.5,41.6 			"/>
		</g>
		<g>
			<polygon class="st1" points="34.6,74.5 30,68.3 34.6,62.2 39.1,68.3 			"/>
			<polygon class="st2" points="34.5,62.2 30,68.3 34.5,74.5 			"/>
		</g>
	</g>
</g>
</svg>
