<?xml version="1.0" encoding="utf-8"?>
<!-- Generator: Adobe Illustrator 26.5.0, SVG Export Plug-In . SVG Version: 6.00 Build 0)  -->
<svg version="1.1" id="Layer_1" xmlns="http://www.w3.org/2000/svg" xmlns:xlink="http://www.w3.org/1999/xlink" x="0px" y="0px"
	 viewBox="0 0 69.1 103.7" style="enable-background:new 0 0 69.1 103.7;" xml:space="preserve">
<style type="text/css">
	.st0{fill:#F2F2F2;}
	.st1{fill:#7A2B2B;}
	.st2{fill:#943434;}
</style>
<g>
	<path class="st0" d="M69.1,101c0,1.5-1.2,2.7-2.7,2.7H2.7c-1.5,0-2.7-1.2-2.7-2.7V2.7C0,1.2,1.2,0,2.7,0h63.7
		c1.5,0,2.7,1.2,2.7,2.7V101z"/>
	<g>
		<g>
			<polygon class="st1" points="34.5,40.6 29.2,33.4 34.5,26.2 39.9,33.4 			"/>
			<polygon class="st2" points="34.5,26.2 29.2,33.4 34.5,40.6 			"/>
		</g>
		<g>
			<polygon class="st1" points="34.5,77.5 29.2,70.3 34.5,63 39.9,70.3 			"/>
			<polygon class="st2" points="34.5,63.1 29.2,70.3 34.5,77.4 			"/>
		</g>
	</g>
	<g>
		<g>
			<path class="st1" d="M4,14.9v-0.8l1-1C7.5,10.7,8.6,9.5,8.7,8c0-1-0.5-1.9-1.9-1.9c-0.9,0-1.6,0.4-2.1,0.8L4.2,6
				C4.9,5.4,5.9,5,7,5c2.1,0,3,1.4,3,2.8c0,1.8-1.3,3.3-3.4,5.2l-0.8,0.7v0h4.4v1.1H4z"/>
		</g>
		<g>
			<polygon class="st1" points="61.5,14.9 57.8,10 61.5,5 65.1,10 			"/>
			<polygon class="st2" points="61.5,5 57.8,10 61.5,14.9 			"/>
		</g>
	</g>
	<g>
		<g>
			<path class="st1" d="M65.1,88.8v0.8l-1,1c-2.5,2.4-3.6,3.6-3.6,5.1c0,1,0.5,1.9,1.9,1.9c0.9,0,1.6-0.4,2.1-0.8l0.4,0.9
				c-0.7,0.6-1.6,1-2.8,1c-2.1,0-3-1.4-3-2.8c0-1.8,1.3-3.3,3.4-5.2l0.8-0.7v0h-4.4v-1.1H65.1z"/>
		</g>
		<g>
			<polygon class="st1" points="7.6,88.8 11.3,93.7 7.6,98.7 4,93.7 			"/>
			<polygon class="st2" points="7.7,98.7 11.3,93.7 7.7,88.8 			"/>
		</g>
	</g>
</g>
</svg>
