<?xml version="1.0" encoding="utf-8"?>
<!-- Generator: Adobe Illustrator 26.5.0, SVG Export Plug-In . SVG Version: 6.00 Build 0)  -->
<svg version="1.1" id="Layer_1" xmlns="http://www.w3.org/2000/svg" xmlns:xlink="http://www.w3.org/1999/xlink" x="0px" y="0px"
	 viewBox="0 0 69.1 103.7" style="enable-background:new 0 0 69.1 103.7;" xml:space="preserve">
<style type="text/css">
	.st0{fill:#F2F2F2;}
	.st1{fill:#7A2B2B;}
	.st2{fill:#943434;}
</style>
<g>
	<path class="st0" d="M69.1,101c0,1.5-1.2,2.7-2.7,2.7H2.7c-1.5,0-2.7-1.2-2.7-2.7V2.7C0,1.2,1.2,0,2.7,0h63.7
		c1.5,0,2.7,1.2,2.7,2.7V101z"/>
	<g>
		<g>
			<polygon class="st1" points="34.6,58.3 29.8,51.8 34.6,45.4 39.3,51.8 			"/>
			<polygon class="st2" points="34.6,45.4 29.8,51.8 34.6,58.3 			"/>
		</g>
		<g>
			<polygon class="st1" points="48.8,36.1 44,29.7 48.8,23.2 53.6,29.7 			"/>
			<polygon class="st2" points="48.8,23.2 44,29.7 48.8,36.1 			"/>
		</g>
		<g>
			<polygon class="st1" points="20.3,80.5 15.6,74 20.3,67.5 25.1,74 			"/>
			<polygon class="st2" points="20.3,67.6 15.6,74 20.3,80.5 			"/>
		</g>
	</g>
	<g>
		<g>
			<path class="st1" d="M4.4,13.4C4.7,13.6,5.6,14,6.5,14c1.7,0,2.2-1.1,2.2-1.9c0-1.4-1.2-2-2.5-2H5.5v-1h0.7c1,0,2.2-0.5,2.2-1.7
				c0-0.8-0.5-1.5-1.7-1.5c-0.8,0-1.5,0.3-2,0.6l-0.3-1C4.9,5.4,5.9,5,6.9,5c1.9,0,2.8,1.1,2.8,2.3c0,1-0.6,1.9-1.8,2.3v0
				c1.2,0.2,2.2,1.1,2.2,2.5c0,1.6-1.2,2.9-3.6,2.9c-1.1,0-2.1-0.3-2.5-0.7L4.4,13.4z"/>
		</g>
		<g>
			<polygon class="st1" points="61.5,14.9 57.8,10 61.5,5 65.1,10 			"/>
			<polygon class="st2" points="61.5,5 57.8,10 61.5,14.9 			"/>
		</g>
	</g>
	<g>
		<g>
			<path class="st1" d="M64.8,90.3c-0.4-0.2-1.2-0.6-2.2-0.6c-1.7,0-2.2,1.1-2.2,1.9c0,1.4,1.2,2,2.5,2h0.7v1h-0.7
				c-1,0-2.2,0.5-2.2,1.7c0,0.8,0.5,1.5,1.7,1.5c0.8,0,1.5-0.3,2-0.6l0.3,1c-0.5,0.4-1.5,0.8-2.5,0.8c-1.9,0-2.8-1.1-2.8-2.3
				c0-1,0.6-1.9,1.8-2.3v0C60,93.8,59,92.9,59,91.5c0-1.6,1.2-2.9,3.6-2.9c1.1,0,2.1,0.3,2.5,0.7L64.8,90.3z"/>
		</g>
		<g>
			<polygon class="st1" points="7.6,88.8 11.3,93.7 7.6,98.7 4,93.7 			"/>
			<polygon class="st2" points="7.7,98.7 11.3,93.7 7.7,88.8 			"/>
		</g>
	</g>
</g>
</svg>
