<?xml version="1.0" encoding="utf-8"?>
<!-- Generator: Adobe Illustrator 26.5.0, SVG Export Plug-In . SVG Version: 6.00 Build 0)  -->
<svg version="1.1" id="Layer_1" xmlns="http://www.w3.org/2000/svg" xmlns:xlink="http://www.w3.org/1999/xlink" x="0px" y="0px"
	 viewBox="0 0 69.1 103.7" style="enable-background:new 0 0 69.1 103.7;" xml:space="preserve">
<style type="text/css">
	.st0{fill:#F2F2F2;}
	.st1{fill:#7A2B2B;}
	.st2{fill:#943434;}
</style>
<g>
	<path class="st0" d="M69.1,101c0,1.5-1.2,2.7-2.7,2.7H2.7c-1.5,0-2.7-1.2-2.7-2.7V2.7C0,1.2,1.2,0,2.7,0h63.7
		c1.5,0,2.7,1.2,2.7,2.7V101z"/>
	<g>
		<g>
			<polygon class="st1" points="20.3,36.1 15.5,29.7 20.3,23.2 25.1,29.7 			"/>
			<polygon class="st2" points="20.3,23.2 15.5,29.7 20.3,36.1 			"/>
		</g>
		<g>
			<polygon class="st1" points="48.8,36.1 44,29.7 48.8,23.2 53.5,29.7 			"/>
			<polygon class="st2" points="48.8,23.2 44,29.7 48.8,36.1 			"/>
		</g>
		<g>
			<polygon class="st1" points="20.3,80.5 15.5,74 20.3,67.5 25.1,74 			"/>
			<polygon class="st2" points="20.3,67.6 15.5,74 20.3,80.5 			"/>
		</g>
		<g>
			<polygon class="st1" points="48.8,80.5 44,74 48.8,67.5 53.5,74 			"/>
			<polygon class="st2" points="48.8,67.6 44,74 48.8,80.5 			"/>
		</g>
	</g>
	<g>
		<g>
			<path class="st1" d="M8.5,14.8v-2.7H4v-0.9L8.3,5h1.4v6.1h1.4v1H9.8v2.7H8.5z M8.5,11.1V7.8c0-0.5,0-1,0-1.5h0
				C8.2,6.8,8,7.3,7.7,7.7L5.3,11v0H8.5z"/>
		</g>
		<g>
			<polygon class="st1" points="61.5,14.8 58,9.9 61.5,5 65.1,9.9 			"/>
			<polygon class="st2" points="61.5,5 58,9.9 61.5,14.7 			"/>
		</g>
	</g>
	<g>
		<g>
			<path class="st1" d="M60.6,88.9v2.7h4.5v0.9l-4.3,6.2h-1.4v-6.1H58v-1h1.4v-2.7H60.6z M60.6,92.6v3.3c0,0.5,0,1,0,1.5h0
				c0.3-0.6,0.5-1,0.8-1.4l2.4-3.3v0H60.6z"/>
		</g>
		<g>
			<polygon class="st1" points="7.6,88.9 11.2,93.8 7.6,98.7 4,93.8 			"/>
			<polygon class="st2" points="7.6,98.7 11.2,93.8 7.6,88.9 			"/>
		</g>
	</g>
</g>
</svg>
