<?xml version="1.0" encoding="utf-8"?>
<!-- Generator: Adobe Illustrator 26.5.0, SVG Export Plug-In . SVG Version: 6.00 Build 0)  -->
<svg version="1.1" id="Layer_1" xmlns="http://www.w3.org/2000/svg" xmlns:xlink="http://www.w3.org/1999/xlink" x="0px" y="0px"
	 viewBox="0 0 69.1 103.7" style="enable-background:new 0 0 69.1 103.7;" xml:space="preserve">
<style type="text/css">
	.st0{fill:#F2F2F2;}
	.st1{fill:#7A2B2B;}
	.st2{fill:#943434;}
</style>
<g>
	<path class="st0" d="M69.1,101c0,1.5-1.2,2.7-2.7,2.7H2.7c-1.5,0-2.7-1.2-2.7-2.7V2.7C0,1.2,1.2,0,2.7,0h63.7
		c1.5,0,2.7,1.2,2.7,2.7V101z"/>
	<g>
		<path class="st1" d="M8.9,6.1H5.1L4.8,8.6c0.2,0,0.4-0.1,0.8-0.1c0.8,0,1.5,0.2,2.1,0.5c0.8,0.4,1.4,1.3,1.4,2.5
			c0,1.9-1.5,3.3-3.6,3.3c-1.1,0-2-0.3-2.4-0.6l0.3-1c0.4,0.2,1.2,0.5,2.1,0.5c1.2,0,2.3-0.8,2.3-2.1c0-1.3-0.9-2.2-2.8-2.2
			c-0.6,0-1,0.1-1.3,0.1L4.2,5h4.7V6.1z"/>
	</g>
	<g>
		<polygon class="st1" points="61.5,14.9 57.8,10 61.5,5 65.1,10 		"/>
		<polygon class="st2" points="61.5,5 57.8,10 61.5,14.9 		"/>
	</g>
	<g>
		<path class="st1" d="M59.3,97.6H63l0.4-2.5c-0.2,0-0.4,0.1-0.8,0.1c-0.8,0-1.5-0.2-2.1-0.5c-0.8-0.4-1.4-1.3-1.4-2.5
			c0-1.9,1.5-3.3,3.6-3.3c1.1,0,2,0.3,2.4,0.6l-0.3,1c-0.4-0.2-1.2-0.5-2.1-0.5c-1.2,0-2.3,0.8-2.3,2.1c0,1.3,0.9,2.2,2.8,2.2
			c0.6,0,1-0.1,1.3-0.1l-0.6,4.7h-4.7V97.6z"/>
	</g>
	<g>
		<polygon class="st1" points="6.6,88.8 10.3,93.7 6.6,98.7 3,93.7 		"/>
		<polygon class="st2" points="6.7,98.7 10.3,93.7 6.7,88.8 		"/>
	</g>
	<g>
		<g>
			<polygon class="st1" points="20.3,36.1 15.5,29.7 20.3,23.2 25.1,29.7 			"/>
			<polygon class="st2" points="20.3,23.2 15.5,29.7 20.3,36.1 			"/>
		</g>
		<g>
			<polygon class="st1" points="48.8,36.1 44,29.7 48.8,23.2 53.5,29.7 			"/>
			<polygon class="st2" points="48.8,23.2 44,29.7 48.8,36.1 			"/>
		</g>
		<g>
			<polygon class="st1" points="20.3,80.5 15.5,74 20.3,67.5 25.1,74 			"/>
			<polygon class="st2" points="20.3,67.6 15.5,74 20.3,80.5 			"/>
		</g>
		<g>
			<polygon class="st1" points="48.8,80.5 44,74 48.8,67.5 53.5,74 			"/>
			<polygon class="st2" points="48.8,67.6 44,74 48.8,80.5 			"/>
		</g>
		<polygon class="st1" points="34.6,58.3 29.8,51.8 34.6,45.4 39.3,51.8 		"/>
	</g>
</g>
</svg>
