<?xml version="1.0" encoding="utf-8"?>
<!-- Generator: Adobe Illustrator 26.5.0, SVG Export Plug-In . SVG Version: 6.00 Build 0)  -->
<svg version="1.1" id="Layer_1" xmlns="http://www.w3.org/2000/svg" xmlns:xlink="http://www.w3.org/1999/xlink" x="0px" y="0px"
	 viewBox="0 0 69.1 103.7" style="enable-background:new 0 0 69.1 103.7;" xml:space="preserve">
<style type="text/css">
	.st0{fill:#F2F2F2;}
	.st1{fill:#7A2B2B;}
	.st2{fill:#943434;}
</style>
<g>
	<path class="st0" d="M69.1,101c0,1.5-1.2,2.7-2.7,2.7H2.7c-1.5,0-2.7-1.2-2.7-2.7V2.7C0,1.2,1.2,0,2.7,0h63.7
		c1.5,0,2.7,1.2,2.7,2.7V101z"/>
	<g>
		<g>
			<path class="st1" d="M4,12.4c0-1.2,0.7-2.1,1.9-2.6l0,0C4.8,9.3,4.4,8.4,4.4,7.6c0-1.5,1.3-2.6,3-2.6c1.9,0,2.8,1.2,2.8,2.4
				c0,0.8-0.4,1.7-1.6,2.3v0c1.2,0.5,2,1.3,2,2.5c0,1.7-1.5,2.8-3.3,2.8C5.2,15.1,4,13.9,4,12.4z M9.2,12.4c0-1.2-0.8-1.8-2.1-2.1
				c-1.1,0.3-1.8,1.1-1.8,2c0,1,0.7,1.9,2,1.9C8.5,14.1,9.2,13.4,9.2,12.4z M5.6,7.5c0,1,0.7,1.5,1.9,1.8C8.3,9,9,8.4,9,7.5
				c0-0.8-0.5-1.6-1.6-1.6C6.2,5.9,5.6,6.7,5.6,7.5z"/>
		</g>
		<g>
			<polygon class="st1" points="61.4,15.1 57.7,10 61.4,5 65.1,10 			"/>
			<polygon class="st2" points="61.4,5 57.7,10 61.4,15.1 			"/>
		</g>
	</g>
	<g>
		<g>
			<path class="st1" d="M65.1,90.2c0,1.2-0.7,2.1-1.9,2.6l0,0c1.1,0.5,1.5,1.3,1.5,2.2c0,1.5-1.3,2.6-3,2.6c-1.9,0-2.8-1.2-2.8-2.4
				c0-0.8,0.4-1.7,1.6-2.3v0c-1.2-0.5-2-1.3-2-2.5c0-1.7,1.5-2.8,3.3-2.8C63.9,87.6,65.1,88.8,65.1,90.2z M59.9,90.3
				c0,1.2,0.8,1.8,2.1,2.1c1.1-0.3,1.8-1.1,1.8-2c0-1-0.7-1.9-2-1.9C60.6,88.6,59.9,89.3,59.9,90.3z M63.5,95.2c0-1-0.7-1.5-1.9-1.8
				c-0.8,0.3-1.5,0.9-1.5,1.8c0,0.8,0.5,1.6,1.6,1.6C62.9,96.7,63.5,96,63.5,95.2z"/>
		</g>
		<g>
			<polygon class="st1" points="7.7,87.6 11.4,92.6 7.7,97.7 4,92.6 			"/>
			<polygon class="st2" points="7.7,97.7 11.4,92.6 7.7,87.6 			"/>
		</g>
	</g>
	<g>
		<g>
			<polygon class="st1" points="20.3,36.1 15.5,29.7 20.3,23.2 25.1,29.7 			"/>
			<polygon class="st2" points="20.3,23.2 15.5,29.7 20.3,36.1 			"/>
		</g>
		<g>
			<polygon class="st1" points="48.8,36.1 44,29.7 48.8,23.2 53.5,29.7 			"/>
			<polygon class="st2" points="48.8,23.2 44,29.7 48.8,36.1 			"/>
		</g>
		<g>
			<polygon class="st1" points="20.3,58.3 15.5,51.8 20.3,45.4 25.1,51.8 			"/>
			<polygon class="st2" points="20.3,45.4 15.5,51.8 20.3,58.3 			"/>
		</g>
		<g>
			<polygon class="st1" points="48.8,58.3 44,51.8 48.8,45.4 53.5,51.8 			"/>
			<polygon class="st2" points="48.8,45.4 44,51.8 48.8,58.3 			"/>
		</g>
		<g>
			<polygon class="st1" points="20.3,80.5 15.5,74 20.3,67.5 25.1,74 			"/>
			<polygon class="st2" points="20.3,67.6 15.5,74 20.3,80.5 			"/>
		</g>
		<g>
			<polygon class="st1" points="48.8,80.5 44,74 48.8,67.5 53.5,74 			"/>
			<polygon class="st2" points="48.8,67.6 44,74 48.8,80.5 			"/>
		</g>
		<g>
			<polygon class="st1" points="34.6,46.2 29.8,39.7 34.6,33.2 39.3,39.7 			"/>
			<polygon class="st2" points="34.5,33.2 29.8,39.7 34.5,46.2 			"/>
		</g>
		<g>
			<polygon class="st1" points="34.6,69.7 29.8,63.2 34.6,56.8 39.3,63.2 			"/>
			<polygon class="st2" points="34.5,56.8 29.8,63.2 34.5,69.7 			"/>
		</g>
	</g>
</g>
</svg>
