<?xml version="1.0" encoding="utf-8"?>
<!-- Generator: Adobe Illustrator 26.5.0, SVG Export Plug-In . SVG Version: 6.00 Build 0)  -->
<svg version="1.1" id="Layer_1" xmlns="http://www.w3.org/2000/svg" xmlns:xlink="http://www.w3.org/1999/xlink" x="0px" y="0px"
	 viewBox="0 0 69.1 103.7" style="enable-background:new 0 0 69.1 103.7;" xml:space="preserve">
<style type="text/css">
	.st0{fill:#F2F2F2;}
	.st1{fill:#7A2B2B;}
	.st2{fill:#943434;}
</style>
<g>
	<path class="st0" d="M69.1,101c0,1.5-1.2,2.7-2.7,2.7H2.7c-1.5,0-2.7-1.2-2.7-2.7V2.7C0,1.2,1.2,0,2.7,0h63.7
		c1.5,0,2.7,1.2,2.7,2.7V101z"/>
	<g>
		<g>
			<path class="st1" d="M4.8,14c0.3,0,0.6,0,1.1,0c0.8-0.1,1.5-0.4,2-0.9c0.6-0.6,1.1-1.4,1.3-2.6h0c-0.5,0.7-1.3,1-2.3,1
				c-1.8,0-2.9-1.3-2.9-3C4,6.6,5.3,5,7.3,5c2,0,3.2,1.6,3.2,4.1c0,2.1-0.7,3.6-1.7,4.6C8.1,14.4,7.1,14.9,6,15
				c-0.5,0.1-0.9,0.1-1.2,0.1V14z M5.3,8.4c0,1.2,0.7,2.1,1.9,2.1c0.9,0,1.6-0.4,1.9-1c0.1-0.1,0.1-0.3,0.1-0.5c0-1.7-0.6-2.9-2-2.9
				C6.1,6,5.3,7,5.3,8.4z"/>
		</g>
		<g>
			<polygon class="st1" points="61.5,15 57.8,10 61.5,5 65.1,10 			"/>
			<polygon class="st2" points="61.4,5 57.8,10 61.4,15 			"/>
		</g>
	</g>
	<g>
		<g>
			<path class="st1" d="M64.3,89.7c-0.3,0-0.6,0-1.1,0c-0.8,0.1-1.5,0.4-2,0.9c-0.6,0.6-1.1,1.4-1.3,2.6h0c0.5-0.7,1.3-1,2.3-1
				c1.8,0,2.9,1.3,2.9,3c0,1.8-1.3,3.5-3.3,3.5c-2,0-3.2-1.6-3.2-4.1c0-2.1,0.7-3.6,1.7-4.6c0.8-0.7,1.8-1.2,2.8-1.3
				c0.5-0.1,0.9-0.1,1.2-0.1V89.7z M63.8,95.3c0-1.2-0.7-2.1-1.9-2.1c-0.9,0-1.6,0.4-1.9,1c-0.1,0.1-0.1,0.3-0.1,0.5
				c0,1.7,0.6,2.9,2,2.9C63,97.7,63.8,96.7,63.8,95.3z"/>
		</g>
		<g>
			<polygon class="st1" points="7.7,88.7 11.3,93.7 7.7,98.7 4,93.7 			"/>
			<polygon class="st2" points="7.7,98.7 11.3,93.7 7.7,88.7 			"/>
		</g>
	</g>
	<g>
		<g>
			<g>
				<polygon class="st1" points="20.3,31.8 15.5,25.3 20.3,18.8 25.1,25.3 				"/>
				<polygon class="st2" points="20.3,18.8 15.5,25.3 20.3,31.8 				"/>
			</g>
			<g>
				<polygon class="st1" points="48.8,31.8 44,25.3 48.8,18.8 53.5,25.3 				"/>
				<polygon class="st2" points="48.8,18.8 44,25.3 48.8,31.8 				"/>
			</g>
		</g>
		<g>
			<g>
				<polygon class="st1" points="20.3,49.4 15.5,43 20.3,36.5 25.1,43 				"/>
				<polygon class="st2" points="20.3,36.5 15.5,43 20.3,49.4 				"/>
			</g>
			<g>
				<polygon class="st1" points="48.8,49.4 44,43 48.8,36.5 53.5,43 				"/>
				<polygon class="st2" points="48.8,36.5 44,43 48.8,49.4 				"/>
			</g>
		</g>
		<g>
			<g>
				<polygon class="st1" points="20.3,67.1 15.5,60.6 20.3,54.1 25.1,60.6 				"/>
				<polygon class="st2" points="20.3,54.2 15.5,60.6 20.3,67.1 				"/>
			</g>
			<g>
				<polygon class="st1" points="48.8,67.1 44,60.6 48.8,54.1 53.5,60.6 				"/>
				<polygon class="st2" points="48.8,54.2 44,60.6 48.8,67.1 				"/>
			</g>
		</g>
		<g>
			<g>
				<polygon class="st1" points="20.3,84.8 15.5,78.3 20.3,71.8 25.1,78.3 				"/>
				<polygon class="st2" points="20.3,71.8 15.5,78.3 20.3,84.8 				"/>
			</g>
			<g>
				<polygon class="st1" points="48.8,84.8 44,78.3 48.8,71.8 53.5,78.3 				"/>
				<polygon class="st2" points="48.8,71.8 44,78.3 48.8,84.8 				"/>
			</g>
		</g>
		<g>
			<polygon class="st1" points="34.6,58.3 29.8,51.8 34.6,45.4 39.3,51.8 			"/>
			<polygon class="st2" points="34.5,45.4 29.8,51.8 34.5,58.3 			"/>
		</g>
	</g>
</g>
</svg>
