<?xml version="1.0" encoding="utf-8"?>
<!-- Generator: Adobe Illustrator 26.5.0, SVG Export Plug-In . SVG Version: 6.00 Build 0)  -->
<svg version="1.1" id="Layer_1" xmlns="http://www.w3.org/2000/svg" xmlns:xlink="http://www.w3.org/1999/xlink" x="0px" y="0px"
	 viewBox="0 0 69.1 103.7" style="enable-background:new 0 0 69.1 103.7;" xml:space="preserve">
<style type="text/css">
	.st0{fill:#F2F2F2;}
	.st1{fill:#7A2B2B;}
	.st2{fill:#943434;}
</style>
<g>
	<path class="st0" d="M69.1,101c0,1.5-1.2,2.7-2.7,2.7H2.7c-1.5,0-2.7-1.2-2.7-2.7V2.7C0,1.2,1.2,0,2.7,0h63.7
		c1.5,0,2.7,1.2,2.7,2.7V101z"/>
	<g>
		<polygon class="st1" points="34.6,71.1 20.4,51.8 34.6,32.6 48.7,51.8 		"/>
		<polygon class="st2" points="34.5,32.6 20.4,51.8 34.5,71 		"/>
	</g>
	<g>
		<polygon class="st1" points="9,89.2 12.7,94.2 9,99.3 5.3,94.2 		"/>
		<polygon class="st2" points="9,99.3 12.7,94.2 9,89.2 		"/>
	</g>
	<g>
		<polygon class="st1" points="61.4,15 57.7,10 61.4,4.9 65.1,10 		"/>
		<polygon class="st2" points="61.4,5 57.7,10 61.4,15 		"/>
	</g>
	<g>
		<path class="st1" d="M6.4,11.9l-1,3.2H4L7.4,4.9H9L12.5,15h-1.4L10,11.9H6.4z M9.7,10.8l-1-2.9C8.5,7.3,8.3,6.7,8.2,6.1h0
			C8,6.7,7.9,7.3,7.7,7.9l-1,2.9H9.7z"/>
	</g>
	<g>
		<path class="st1" d="M62.7,92.4l1-3.2h1.4l-3.4,10.1h-1.6l-3.4-10.1h1.4l1.1,3.2H62.7z M59.4,93.4l1,2.9c0.2,0.7,0.4,1.3,0.5,1.8
			h0c0.1-0.6,0.3-1.2,0.5-1.8l1-2.9H59.4z"/>
	</g>
</g>
</svg>
