<?xml version="1.0" encoding="utf-8"?>
<!-- Generator: Adobe Illustrator 26.5.0, SVG Export Plug-In . SVG Version: 6.00 Build 0)  -->
<svg version="1.1" id="Layer_1" xmlns="http://www.w3.org/2000/svg" xmlns:xlink="http://www.w3.org/1999/xlink" x="0px" y="0px"
	 viewBox="0 0 69.1 103.7" style="enable-background:new 0 0 69.1 103.7;" xml:space="preserve">
<style type="text/css">
	.st0{fill:#F2F2F2;}
	.st1{fill:#7A2B2B;}
	.st2{fill:#943434;}
	.st3{fill:#AA292E;}
	.st4{fill:#1F2D6C;}
	.st5{fill:#0B050F;}
	.st6{fill:#AD6E2D;}
	.st7{fill:#3856C8;}
	.st8{fill:#BF9B4D;}
	.st9{fill:#E8EFFF;}
	.st10{fill:#C9D8F7;}
	.st11{fill:#715C57;}
	.st12{fill:#AA7941;}
	.st13{fill:#DCE3F2;}
	.st14{fill:#D28537;}
	.st15{fill:#A86B2C;}
	.st16{fill:#B3712E;}
	.st17{fill:#B87530;}
	.st18{fill:#BD7831;}
	.st19{fill:#333333;}
	.st20{fill:#2A3757;}
</style>
<g>
	<path class="st0" d="M69.1,101c0,1.5-1.2,2.7-2.7,2.7H2.7c-1.5,0-2.7-1.2-2.7-2.7V2.7C0,1.2,1.2,0,2.7,0h63.7
		c1.5,0,2.7,1.2,2.7,2.7V101z"/>
	<g>
		<g>
			<path class="st1" d="M7.2,5h1.3v6.8c0,2.7-1.3,3.5-3.1,3.5c-0.5,0-1.1-0.1-1.4-0.2L4.2,14c0.3,0.1,0.7,0.2,1.1,0.2
				c1.2,0,1.9-0.5,1.9-2.5V5z"/>
		</g>
		<g>
			<polygon class="st1" points="61.3,15.3 57.6,10.1 61.3,5 65.1,10.1 			"/>
			<polygon class="st2" points="61.3,5 57.6,10.1 61.3,15.3 			"/>
		</g>
	</g>
	<g>
		<g>
			<path class="st1" d="M62,99h-1.3v-6.8c0-2.7,1.3-3.5,3.1-3.5c0.5,0,1.1,0.1,1.4,0.2L64.9,90c-0.3-0.1-0.7-0.2-1.1-0.2
				c-1.2,0-1.9,0.5-1.9,2.5V99z"/>
		</g>
		<g>
			<polygon class="st1" points="7.8,88.7 11.6,93.8 7.8,99 4,93.8 			"/>
			<polygon class="st2" points="7.8,98.9 11.6,93.8 7.8,88.7 			"/>
		</g>
	</g>
	<g>
		<path class="st3" d="M23.6,67.1c0,0-2.6-0.9-5.1-3.6v-3.2h5.1V67.1z"/>
		<g>
			<path class="st3" d="M25.7,27.1L23,23.6c0,0,5.3-3.5,6.4-3.6c1.1-0.1,13.1,3.7,13.1,3.7L39.8,28L25.7,27.1z"/>
			<path class="st4" d="M39.8,22.8c0,0-1.5,4.8-1.9,5.1c-0.4,0.3-2.4-0.6-2.4-0.6s1.5-1.5,2.3-5.1L39.8,22.8z"/>
			<path class="st3" d="M18.6,58.6V40.4c0,0,2.3-2.9,6.9-3.3C25.4,37.1,25.5,55.5,18.6,58.6z"/>
			<g>
				<rect x="32" y="38.1" class="st5" width="2.3" height="4.3"/>
				<rect x="27.3" y="36.6" class="st5" width="2.3" height="4.3"/>
				<rect x="34.4" y="36.4" class="st3" width="2.3" height="4.3"/>
				<rect x="29.7" y="37.8" class="st3" width="2.3" height="4.3"/>
				<rect x="36.6" y="35.1" class="st5" width="2.3" height="4.3"/>
				<rect x="39" y="35" class="st3" width="2.3" height="2.7"/>
			</g>
			<polygon class="st6" points="27.3,35.1 27.9,37 26.1,37.1 			"/>
			<path class="st5" d="M24.8,37.2c0,0,0.8,12-6.3,21.5c0,0.8,0,1.3,0,1.3s4.2-2,6.5-10.2c2.4-8.3,1.3-12.5,1.3-12.5H24.8z"/>
			<path class="st4" d="M25.9,37.4c0,0,0.2,7.9-1.7,12.7c-2,4.7-3.3,8-5.6,9.8v3.6c0,0,6.4-6.2,8.5-13.2c2.1-7,1.7-13.1,1.7-13.1
				L25.9,37.4z"/>
			<g>
				<path class="st3" d="M25.8,37.2c0,0.3,0.6,0.5,1.3,0.5c0.7,0,1.3-0.2,1.3-0.5s-0.6-0.5-1.3-0.5C26.4,36.7,25.8,36.9,25.8,37.2z"
					/>
				<path class="st3" d="M25.9,38.4c0,0.3,0.6,0.6,1.3,0.6c0.7,0,1.3-0.2,1.3-0.5c0-0.3-0.6-0.6-1.3-0.6
					C26.5,37.9,25.9,38.1,25.9,38.4z"/>
				<path class="st3" d="M25.9,39.8c0,0.3,0.5,0.6,1.2,0.7c0.7,0.1,1.3-0.1,1.3-0.4c0-0.3-0.5-0.6-1.2-0.7
					C26.5,39.3,25.9,39.5,25.9,39.8z"/>
				<path class="st3" d="M25.8,41.3c0,0.3,0.5,0.6,1.2,0.7c0.7,0.1,1.3,0,1.3-0.3c0-0.3-0.5-0.6-1.2-0.7
					C26.5,40.9,25.9,41,25.8,41.3z"/>
				<path class="st3" d="M25.7,42.9c-0.1,0.3,0.4,0.6,1.1,0.8c0.7,0.2,1.3,0.1,1.3-0.2c0.1-0.3-0.4-0.6-1.1-0.8
					C26.3,42.5,25.7,42.6,25.7,42.9z"/>
				<path class="st3" d="M25.5,44.6c-0.1,0.3,0.4,0.6,1.1,0.8c0.7,0.2,1.3,0.1,1.3-0.1c0.1-0.3-0.4-0.6-1.1-0.8
					C26.1,44.3,25.5,44.4,25.5,44.6z"/>
				<path class="st3" d="M25.1,46.4c-0.1,0.3,0.4,0.7,1,0.9c0.6,0.2,1.2,0.2,1.3-0.1c0.1-0.3-0.4-0.7-1-0.9
					C25.8,46.1,25.2,46.2,25.1,46.4z"/>
				<path class="st3" d="M24.7,48.3c-0.1,0.3,0.3,0.7,0.9,0.9c0.6,0.3,1.2,0.3,1.3,0c0.1-0.3-0.3-0.7-0.9-0.9
					C25.4,48,24.8,48,24.7,48.3z"/>
				<path class="st3" d="M24.2,50.1c-0.1,0.2,0.3,0.7,0.9,1c0.6,0.3,1.2,0.4,1.3,0.1c0.1-0.2-0.3-0.7-0.9-1
					C24.9,49.9,24.3,49.9,24.2,50.1z"/>
				<path class="st3" d="M23.5,51.9c-0.1,0.2,0.2,0.7,0.8,1.1c0.6,0.3,1.2,0.4,1.3,0.2c0.1-0.2-0.2-0.7-0.8-1.1
					C24.3,51.8,23.7,51.7,23.5,51.9z"/>
				<path class="st3" d="M22.8,53.7c-0.2,0.2,0.2,0.7,0.8,1.1c0.6,0.4,1.2,0.5,1.3,0.3c0.2-0.2-0.2-0.7-0.8-1.1
					C23.5,53.6,22.9,53.5,22.8,53.7z"/>
				<path class="st3" d="M21.9,55.4c-0.2,0.2,0.2,0.8,0.7,1.2c0.6,0.4,1.2,0.6,1.3,0.4c0.2-0.2-0.2-0.8-0.7-1.2
					C22.7,55.3,22.1,55.2,21.9,55.4z"/>
				<path class="st3" d="M20.9,57c-0.2,0.2,0.1,0.8,0.7,1.2c0.5,0.5,1.1,0.7,1.3,0.4c0.2-0.2-0.1-0.8-0.7-1.2
					C21.7,57,21.1,56.8,20.9,57z"/>
				<path class="st3" d="M19.9,58.5c-0.2,0.2,0.1,0.8,0.6,1.3c0.5,0.5,1.1,0.7,1.3,0.5c0.2-0.2-0.1-0.8-0.6-1.3
					C20.6,58.5,20.1,58.2,19.9,58.5z"/>
				<path class="st3" d="M18.6,59.8c-0.2,0.2,0,0.8,0.5,1.3c0.5,0.5,1.1,0.8,1.3,0.6c0.2-0.2,0-0.8-0.5-1.3
					C19.4,59.8,18.9,59.6,18.6,59.8z"/>
			</g>
			<rect x="32.2" y="43.6" class="st7" width="3.7" height="4.1"/>
			<polygon class="st8" points="35.7,47.5 32.2,47.5 32.2,51.3 			"/>
			<rect x="32.1" y="44.1" class="st8" width="3.8" height="3.1"/>
			<polygon class="st8" points="35.8,43.9 32.2,43.9 32.2,42.9 35.8,40.6 			"/>
			<path class="st3" d="M31.4,51.6l0.1-8.7l-3.1-1.7c0,0-0.6,7.2-1.3,8.5C26.5,51,31.4,51.6,31.4,51.6z"/>
			<polygon class="st9" points="31.4,51.6 32.3,51.2 32.3,42.3 31.4,42.3 			"/>
			<polygon class="st5" points="31.1,52 32,51.5 32,42.7 31.1,42.7 			"/>
			<g>
				<path class="st5" d="M25.2,55c0.3-0.8,0.8-1.5,1.2-2.2c0.6-1.2,1.1-2.5,1.3-3.8c0,0,0,0,0.1,0c1.9,0,3.5,1.2,4.1,2.8
					c-0.1,0.2-0.3,0.3-0.4,0.5c-0.3,0.3-0.7,0.5-1,0.7c-0.8,0.6-1.4,1.4-2.3,1.9c-0.7,0.4-1.4,0.6-2.1,0.9c-0.3,0.1-0.6,0.2-0.9,0.3
					c-0.1,0-0.2,0-0.3,0C24.9,55.6,25,55.3,25.2,55z"/>
				<path class="st8" d="M25.2,55c0.3-0.8,0.8-1.5,1.2-2.2c0.6-1.1,1-2.3,1.2-3.5c0,0,0.1,0,0.1,0c1.8,0,3.3,1.1,3.9,2.7
					c-0.1,0.1-0.1,0.1-0.2,0.2c-0.3,0.3-0.7,0.5-1,0.7c-0.8,0.6-1.4,1.4-2.3,1.9c-0.7,0.4-1.4,0.6-2.1,0.9c-0.3,0.1-0.6,0.2-0.9,0.3
					c-0.1,0-0.2,0-0.3,0C24.9,55.6,25,55.3,25.2,55z"/>
				<path class="st7" d="M26.4,52.7c0.3-0.5,0.5-1,0.7-1.5c0.2-0.1,0.4-0.1,0.7-0.1c1.2,0,2.2,1,2.2,2.2c-0.6,0.5-1.1,1.1-1.8,1.5
					c-0.4,0.2-0.9,0.4-1.3,0.6c-0.6-0.3-1-0.7-1.2-1.3C25.9,53.6,26.1,53.2,26.4,52.7z"/>
			</g>
			<polygon class="st3" points="40.3,44.6 36.6,46.7 36.4,39.9 40.3,37.8 			"/>
			<rect x="35.7" y="40.2" class="st9" width="0.9" height="6.9"/>
			<path class="st10" d="M43.7,35.8c0,0-1.6-0.9-3.2-1.1l-0.2,9.8c0,0,2.5-0.9,3.6-0.9L43.7,35.8z"/>
			<polygon class="st11" points="43.7,35.8 44.3,36 44.3,43.5 43.7,43.5 			"/>
			<path class="st5" d="M44.3,36c0,0,0.8,0.3,1.2,0.6v6.8h-1.2V36z"/>
			<path class="st3" d="M45.5,36.6c0,0,2.6,0.9,5.1,3.6v3.2h-5.1V36.6z"/>
			<rect x="36.1" y="39.9" class="st5" width="0.9" height="6.9"/>
			<rect x="40" y="34.6" class="st11" width="0.6" height="9.7"/>
			<g>
				<path class="st12" d="M25.6,56.1c0.3,0,0.8-0.1,1.3-0.3c1.8-0.7,4.1-2.6,6.7-5.7c3.1-3.7,6.2-5.2,8.3-5.8
					c2.2-0.6,4.7-0.5,4.7-0.5l0.1-0.6c-0.1,0-2.6-0.1-5,0.5c-2.1,0.6-5.3,2.1-8.6,6c-5.9,7-8.1,5.7-8.1,5.7l-0.3,0.5
					C24.7,55.9,25,56.1,25.6,56.1z"/>
			</g>
			<path class="st9" d="M40,37.4c0,0-7.5,4.9-8.3,4.9c-0.7,0-2.8-1.5-2.8-1.5v0.9c0,0,2.6,1.7,2.9,1.7c0.3,0,8.2-5.1,8.2-5.1V37.4z"
				/>
			<path class="st8" d="M39.1,35.1c0,0-6.4,4.7-7.3,4.7c-0.9,0-3.5-2.3-3.5-2.3L39.1,35.1z"/>
			<path class="st8" d="M40,36.8c0,0-7.5,5-8.3,5c-0.7,0-2.8-1.7-2.8-1.7V41c0,0,2.6,1.7,2.9,1.7c0.3,0,8.2-4.9,8.2-4.9V36.8z"/>
			<path class="st12" d="M29.1,37.8c0,0,0,8-1.8,13.2c-1.9,5.2-6.5,12.6-7.9,13.3l-0.8-0.8c0,0,3.3-2.7,8-12.9
				c1.2-5,1.3-2.9,1.9-13.2C29,27.1,29.1,37.8,29.1,37.8z"/>
			<path class="st13" d="M35,36.8c0,0-2.6,1.9-3.2,1.9c-0.6,0-1.7-1.1-1.7-1.1s3.6-2.4,4.6-2.1C35.6,35.9,35,36.8,35,36.8z"/>
			<path class="st14" d="M27.7,27.4c0,0-1.2,1.2-0.9,4.4c0.3,3.2,0.6,6.4-1.8,5.4c-2.3-1-0.3-3.5,1.1-2.1c0,0,0-1.6-0.2-3.6
				C25.7,29.4,25.8,27.4,27.7,27.4z"/>
			<path class="st9" d="M26.5,27.9c0,0-0.3,1.9,0,2.3c0.3,0.4,0,1,0,1.5c0,0.5-0.5,4.4,2.2,5.8c2.7,1.4,2.5-0.5,5.8-1.8
				c0,0,0.5-7.7-1.7-8.3C32.7,27.4,28.2,27.1,26.5,27.9z"/>
			<path class="st15" d="M37.4,28.4c0,0,0.9,0.7,0.9,2.8c0,2.1,1.1,4.3,2.5,3.5c1.4-0.8,0-2.3-0.8-1.3c0,0-0.1-1-0.1-2.4
				C39.9,29.7,39.2,28.1,37.4,28.4z"/>
			<path class="st6" d="M36.6,28c0,0,1,0.8,1,3.2s0.5,4.9,2.2,4c1.7-0.9,0-2.6-1-1.5c0,0-0.1-1.2-0.1-2.7C38.8,29.4,38,27.8,36.6,28
				z"/>
			<path class="st16" d="M35.5,27.7c0,0,1,1.7,1,4.3c0,2.6,0.7,4.5,2.5,3.5c1.8-1,0-2.8-1-1.6c0,0-0.1-1.3-0.1-2.9
				C37.8,29.2,37,27.5,35.5,27.7z"/>
			<path class="st17" d="M34.7,27.6c0,0,0.7,1.1,0.7,4s0.6,5.6,2.6,4.5c2-1.1,0-3.1-1.2-1.8c0,0-0.1-1.4-0.1-3.3
				C36.6,29.1,36.3,27.4,34.7,27.6z"/>
			<path class="st18" d="M33.5,27.4c0,0,1.3,1.1,1.3,4.1c0,3.1,0,6.2,2.2,5c2.1-1.2,0-3.3-1.2-2c0,0-0.1-1.5-0.1-3.5
				C35.6,29.1,35.3,27.2,33.5,27.4z"/>
			<path class="st14" d="M32.7,27.4c0,0,1.3,1.1,1.3,4.3c0,3.2,0,6.4,2.3,5.2c2.2-1.2,0-3.5-1.3-2c0,0-0.1-1.6-0.1-3.6
				S34.5,27.2,32.7,27.4z"/>
			<path class="st19" d="M39.5,29.3c0,0-5.1-2.8-13.3-1l-0.5-1.2c0,0,6.4-2.5,14.1,0.9L39.5,29.3z"/>
			<g>
				<path class="st14" d="M28.5,30c-0.7-0.1-1.4,0-2,0.3c-0.1-0.2,0.2-0.4,0.4-0.5C27.3,29.6,28.2,29.7,28.5,30L28.5,30z"/>
			</g>
			<g>
				<path class="st14" d="M30.8,30c0.6-0.2,1.9-0.6,2,0.3C32,30,31.5,30,30.8,30L30.8,30z"/>
			</g>
			<g>
				<path class="st20" d="M30.1,30.9c0.8,0.6,1.7,0.3,2.6,0.2C32.2,31.9,30.4,31.6,30.1,30.9L30.1,30.9z"/>
			</g>
			<g>
				<path class="st20" d="M28.5,30.9c-0.4,0.5-1.5,0.8-1.9,0.2c0.4,0,0.6,0,1,0.1C28,31.2,28.3,30.9,28.5,30.9L28.5,30.9z"/>
			</g>
			<g>
				<path class="st20" d="M28.9,30.5c0.1,0.9,0.1,2-0.4,2.9c-0.2,0.4,0.3,0.5,0.8,0.5c0.4,0,0.9-0.2,1-0.7c0.2,0.1,0,0.6-0.2,0.7
					c-0.5,0.4-1.5,0.5-1.8-0.2c-0.1-0.2,0-0.3,0.1-0.5C28.8,32.5,28.8,31.4,28.9,30.5L28.9,30.5z"/>
			</g>
			<g>
				<path class="st20" d="M31,35.1c-1,0-2.1,0.4-2.9,0C29,34.7,30.1,35,31,35.1L31,35.1z"/>
			</g>
			<g>
				<path class="st20" d="M29.9,35.8c-0.3,0-0.8,0.4-1.1,0c0.2-0.2,0.4-0.2,0.5-0.1C29.5,35.7,29.8,35.7,29.9,35.8L29.9,35.8z"/>
			</g>
		</g>
		<path class="st3" d="M43.4,76.6l2.7,3.5c0,0-5.3,3.5-6.4,3.6C38.7,83.8,26.6,80,26.6,80l2.7-4.4L43.4,76.6z"/>
		<path class="st4" d="M29.4,80.8c0,0,1.5-4.8,1.9-5.1c0.4-0.3,2.4,0.6,2.4,0.6s-1.5,1.5-2.3,5.1L29.4,80.8z"/>
		<path class="st3" d="M50.6,45v18.2c0,0-2.3,2.9-6.9,3.3C43.7,66.6,43.6,48.2,50.6,45z"/>
		<g>
			<rect x="34.8" y="61.3" class="st5" width="2.3" height="4.3"/>
			<rect x="39.5" y="62.8" class="st5" width="2.3" height="4.3"/>
			<rect x="32.4" y="63" class="st3" width="2.3" height="4.3"/>
			<rect x="37.1" y="61.6" class="st3" width="2.3" height="4.3"/>
			<rect x="30.2" y="64.3" class="st5" width="2.3" height="4.3"/>
			<rect x="27.8" y="66" class="st3" width="2.3" height="2.7"/>
		</g>
		<polygon class="st6" points="41.8,68.6 41.3,66.7 43.1,66.6 		"/>
		<path class="st5" d="M44.3,66.5c0,0-0.8-12,6.3-21.5c0-0.8,0-1.3,0-1.3s-4.2,2-6.5,10.2c-2.4,8.3-1.3,12.5-1.3,12.5H44.3z"/>
		<path class="st4" d="M43.2,66.3c0,0-0.2-7.9,1.7-12.7c2-4.7,3.3-8,5.6-9.8v-3.6c0,0-3.5,0.7-8.5,13.2c-2.1,7-1.7,13.1-1.7,13.1
			L43.2,66.3z"/>
		<g>
			<path class="st3" d="M43.3,66.5c0-0.3-0.6-0.5-1.3-0.5c-0.7,0-1.3,0.2-1.3,0.5S41.3,67,42,67C42.7,67,43.3,66.8,43.3,66.5z"/>
			<path class="st3" d="M43.2,65.3c0-0.3-0.6-0.6-1.3-0.6c-0.7,0-1.3,0.2-1.3,0.5c0,0.3,0.6,0.6,1.3,0.6
				C42.6,65.8,43.2,65.6,43.2,65.3z"/>
			<path class="st3" d="M43.2,63.9c0-0.3-0.5-0.6-1.2-0.7c-0.7-0.1-1.3,0.1-1.3,0.4c0,0.3,0.5,0.6,1.2,0.7
				C42.6,64.4,43.2,64.2,43.2,63.9z"/>
			<path class="st3" d="M43.3,62.4c0-0.3-0.5-0.6-1.2-0.7c-0.7-0.1-1.3,0-1.3,0.3c0,0.3,0.5,0.6,1.2,0.7
				C42.6,62.8,43.2,62.7,43.3,62.4z"/>
			<path class="st3" d="M43.4,60.8c0.1-0.3-0.4-0.6-1.1-0.8C41.6,59.9,41,60,41,60.2c-0.1,0.3,0.4,0.6,1.1,0.8
				C42.8,61.2,43.4,61.1,43.4,60.8z"/>
			<path class="st3" d="M43.7,59.1c0.1-0.3-0.4-0.6-1.1-0.8c-0.7-0.2-1.3-0.1-1.3,0.1c-0.1,0.3,0.4,0.6,1.1,0.8
				C43,59.4,43.6,59.3,43.7,59.1z"/>
			<path class="st3" d="M44,57.3c0.1-0.3-0.4-0.7-1-0.9c-0.6-0.2-1.2-0.2-1.3,0.1c-0.1,0.3,0.4,0.7,1,0.9
				C43.3,57.5,43.9,57.5,44,57.3z"/>
			<path class="st3" d="M44.4,55.4c0.1-0.3-0.3-0.7-0.9-0.9c-0.6-0.3-1.2-0.3-1.3,0c-0.1,0.3,0.3,0.7,0.9,0.9
				C43.7,55.7,44.3,55.7,44.4,55.4z"/>
			<path class="st3" d="M45,53.6c0.1-0.2-0.3-0.7-0.9-1c-0.6-0.3-1.2-0.4-1.3-0.1c-0.1,0.2,0.3,0.7,0.9,1
				C44.2,53.8,44.8,53.8,45,53.6z"/>
			<path class="st3" d="M45.6,51.8c0.1-0.2-0.2-0.7-0.8-1.1c-0.6-0.3-1.2-0.4-1.3-0.2c-0.1,0.2,0.2,0.7,0.8,1.1
				C44.9,51.9,45.5,52,45.6,51.8z"/>
			<path class="st3" d="M46.3,50c0.2-0.2-0.2-0.7-0.8-1.1c-0.6-0.4-1.2-0.5-1.3-0.3c-0.2,0.2,0.2,0.7,0.8,1.1
				C45.6,50.1,46.2,50.2,46.3,50z"/>
			<path class="st3" d="M47.2,48.3c0.2-0.2-0.2-0.8-0.7-1.2c-0.6-0.4-1.2-0.6-1.3-0.4c-0.2,0.2,0.2,0.8,0.7,1.2
				C46.4,48.4,47,48.5,47.2,48.3z"/>
			<path class="st3" d="M48.2,46.7c0.2-0.2-0.1-0.8-0.7-1.2C47,45,46.4,44.8,46.2,45c-0.2,0.2,0.1,0.8,0.7,1.2
				C47.4,46.7,48,46.9,48.2,46.7z"/>
			<path class="st3" d="M49.3,45.2c0.2-0.2-0.1-0.8-0.6-1.3c-0.5-0.5-1.1-0.7-1.3-0.5c-0.2,0.2,0.1,0.8,0.6,1.3
				C48.5,45.2,49.1,45.4,49.3,45.2z"/>
			<path class="st3" d="M50.5,43.9c0.2-0.2,0-0.8-0.5-1.3c-0.5-0.5-1.1-0.8-1.3-0.6c-0.2,0.2,0,0.8,0.5,1.3
				C49.7,43.9,50.3,44.1,50.5,43.9z"/>
		</g>
		<rect x="33.2" y="56" class="st7" width="3.7" height="4.1"/>
		<polygon class="st8" points="33.4,56.2 37,56.2 37,52.4 		"/>
		<rect x="33.3" y="56.5" class="st8" width="3.8" height="3.1"/>
		<polygon class="st8" points="33.3,59.8 37,59.8 37,60.8 33.3,63 		"/>
		<path class="st3" d="M37.7,52.1l-0.1,8.7l3.1,1.7c0,0,0.6-7.2,1.3-8.5C42.6,52.7,37.7,52.1,37.7,52.1z"/>
		<polygon class="st9" points="37.7,52.1 36.8,52.5 36.8,61.4 37.7,61.4 		"/>
		<polygon class="st5" points="38,51.7 37.1,52.2 37.1,61 38,61 		"/>
		<g>
			<path class="st5" d="M44,48.7c-0.3,0.8-0.8,1.5-1.2,2.2c-0.6,1.2-1.1,2.5-1.3,3.8c0,0,0,0-0.1,0c-1.9,0-3.5-1.2-4.1-2.8
				c0.1-0.2,0.3-0.3,0.4-0.5c0.3-0.3,0.7-0.5,1-0.7c0.8-0.6,1.4-1.4,2.3-1.9c0.7-0.4,1.4-0.6,2.1-0.9c0.3-0.1,0.6-0.2,0.9-0.3
				c0.1,0,0.2,0,0.3,0C44.2,48.1,44.1,48.4,44,48.7z"/>
			<path class="st8" d="M44,48.7c-0.3,0.8-0.8,1.5-1.2,2.2c-0.6,1.1-1,2.3-1.2,3.5c0,0-0.1,0-0.1,0c-1.8,0-3.3-1.1-3.9-2.7
				c0.1-0.1,0.1-0.1,0.2-0.2c0.3-0.3,0.7-0.5,1-0.7c0.8-0.6,1.4-1.4,2.3-1.9c0.7-0.4,1.4-0.6,2.1-0.9c0.3-0.1,0.6-0.2,0.9-0.3
				c0.1,0,0.2,0,0.3,0C44.2,48.1,44.1,48.4,44,48.7z"/>
			<path class="st7" d="M42.8,50.9c-0.3,0.5-0.5,1-0.7,1.5c-0.2,0.1-0.4,0.1-0.7,0.1c-1.2,0-2.2-1-2.2-2.2c0.6-0.5,1.1-1.1,1.8-1.5
				c0.4-0.2,0.9-0.4,1.3-0.6c0.6,0.3,1,0.7,1.2,1.3C43.3,50.1,43,50.5,42.8,50.9z"/>
		</g>
		<polygon class="st3" points="28.9,59.1 32.5,57 32.7,63.8 28.9,65.9 		"/>
		<rect x="32.5" y="56.6" class="st9" width="0.9" height="6.9"/>
		<path class="st10" d="M25.4,67.9c0,0,1.6,0.9,3.2,1.1l0.2-9.8c0,0-2.5,0.9-3.6,0.9L25.4,67.9z"/>
		<polygon class="st11" points="25.4,67.9 24.8,67.7 24.8,60.1 25.4,60.1 		"/>
		<path class="st5" d="M24.8,67.7c0,0-0.8-0.3-1.2-0.6v-6.8h1.2V67.7z"/>
		<rect x="32.2" y="56.9" class="st5" width="0.9" height="6.9"/>
		<rect x="28.6" y="59.4" class="st11" width="0.6" height="9.7"/>
		<g>
			<path class="st12" d="M43.6,47.6c-0.3,0-0.8,0.1-1.3,0.3c-1.8,0.7-4.1,2.6-6.7,5.7c-3.1,3.7-6.2,5.2-8.3,5.8
				c-2.2,0.6-4.6,0.3-4.6,0.3l-0.1,0.6c0.1,0,2.5,0.3,4.8-0.3c2.1-0.6,5.3-2.1,8.6-6c5.9-7,8.1-5.7,8.1-5.7l0.3-0.5
				C44.4,47.8,44.1,47.6,43.6,47.6z"/>
		</g>
		<path class="st9" d="M29.1,66.3c0,0,7.5-4.9,8.3-4.9c0.7,0,2.8,1.5,2.8,1.5V62c0,0-2.6-1.7-2.9-1.7c-0.3,0-8.2,5.1-8.2,5.1V66.3z"
			/>
		<path class="st8" d="M30,68.6c0,0,6.4-4.7,7.3-4.7c0.9,0,3.5,2.3,3.5,2.3L30,68.6z"/>
		<path class="st8" d="M29.1,66.9c0,0,7.5-5,8.3-5c0.7,0,2.8,1.7,2.8,1.7v-0.8c0,0-2.6-1.7-2.9-1.7C37,61,29.1,66,29.1,66V66.9z"/>
		<path class="st12" d="M40,65.9c0,0,0-8,1.8-13.2c1.9-5.2,6.1-12.5,8-13.2l0.7,0.7c-1.6,0.8-7,8.9-8,12.9c-1.2,5-1.3,2.9-1.9,13.2
			C40.1,76.5,40,65.9,40,65.9z"/>
		<path class="st13" d="M34.2,66.9c0,0,2.6-1.9,3.2-1.9c0.6,0,1.7,1.1,1.7,1.1s-3.6,2.4-4.6,2.1C33.5,67.7,34.2,66.9,34.2,66.9z"/>
		<path class="st14" d="M41.4,76.3c0,0,1.2-1.2,0.9-4.4c-0.3-3.2-0.6-6.4,1.8-5.4c2.3,1,0.3,3.5-1.1,2.1c0,0,0,1.6,0.2,3.6
			C43.4,74.3,43.3,76.3,41.4,76.3z"/>
		<path class="st9" d="M42.7,75.7c0,0,0.3-1.9,0-2.3c-0.3-0.4,0-1,0-1.5c0-0.5,0.5-4.4-2.2-5.8c-2.7-1.4-2.5,0.5-5.8,1.8
			c0,0-0.5,7.7,1.7,8.3C36.4,76.2,40.9,76.6,42.7,75.7z"/>
		<path class="st15" d="M31.7,75.2c0,0-0.9-0.7-0.9-2.8c0-2.1-1.1-4.3-2.5-3.5c-1.4,0.8,0,2.3,0.8,1.3c0,0,0.1,1,0.1,2.4
			C29.2,74,30,75.6,31.7,75.2z"/>
		<path class="st6" d="M32.5,75.7c0,0-1-0.8-1-3.2s-0.5-4.9-2.2-4c-1.7,0.9,0,2.6,1,1.5c0,0,0.1,1.2,0.1,2.7
			C30.4,74.3,31.1,75.9,32.5,75.7z"/>
		<path class="st16" d="M33.6,76c0,0-1-1.7-1-4.3c0-2.6-0.7-4.5-2.5-3.5c-1.8,1,0,2.8,1,1.6c0,0,0.1,1.3,0.1,2.9
			C31.3,74.5,32.1,76.2,33.6,76z"/>
		<path class="st17" d="M34.5,76.1c0,0-0.7-1.1-0.7-4s-0.6-5.6-2.6-4.5c-2,1.1,0,3.1,1.2,1.8c0,0,0.1,1.4,0.1,3.3
			C32.5,74.5,32.8,76.3,34.5,76.1z"/>
		<path class="st18" d="M35.6,76.2c0,0-1.3-1.1-1.3-4.1c0-3.1,0-6.2-2.2-5c-2.1,1.2,0,3.3,1.2,2c0,0,0.1,1.5,0.1,3.5
			C33.5,74.6,33.9,76.4,35.6,76.2z"/>
		<path class="st14" d="M36.4,76.2c0,0-1.3-1.1-1.3-4.3c0-3.2,0-6.4-2.3-5.2c-2.2,1.2,0,3.5,1.3,2c0,0,0.1,1.6,0.1,3.6
			C34.3,74.5,34.6,76.4,36.4,76.2z"/>
		<path class="st19" d="M29.7,74.4c0,0,5.1,2.8,13.3,1l0.5,1.2c0,0-6.4,2.5-14.1-0.9L29.7,74.4z"/>
		<g>
			<path class="st14" d="M40.6,73.7c0.7,0.1,1.4,0,2-0.3c0.1,0.2-0.2,0.4-0.4,0.5C41.8,74.1,40.9,73.9,40.6,73.7L40.6,73.7z"/>
		</g>
		<g>
			<path class="st14" d="M38.4,73.7c-0.6,0.2-1.9,0.6-2-0.3C37.1,73.7,37.6,73.7,38.4,73.7L38.4,73.7z"/>
		</g>
		<g>
			<path class="st20" d="M39.1,72.8c-0.8-0.6-1.7-0.3-2.6-0.2C36.9,71.8,38.7,72.1,39.1,72.8L39.1,72.8z"/>
		</g>
		<g>
			<path class="st20" d="M40.7,72.8c0.4-0.5,1.5-0.8,1.9-0.2c-0.4,0-0.6,0-1-0.1C41.2,72.5,40.8,72.8,40.7,72.8L40.7,72.8z"/>
		</g>
		<g>
			<path class="st20" d="M40.2,73.2c-0.1-0.9-0.1-2,0.4-2.9c0.2-0.4-0.3-0.5-0.8-0.5c-0.4,0-0.9,0.2-1,0.7c-0.2-0.1,0-0.6,0.2-0.7
				c0.5-0.4,1.5-0.5,1.8,0.2c0.1,0.2,0,0.3-0.1,0.5C40.3,71.2,40.3,72.3,40.2,73.2L40.2,73.2z"/>
		</g>
		<g>
			<path class="st20" d="M38.2,68.6c1,0,2.1-0.4,2.9,0C40.2,68.9,39.1,68.7,38.2,68.6L38.2,68.6z"/>
		</g>
		<g>
			<path class="st20" d="M39.3,67.9c0.3,0,0.8-0.4,1.1,0c-0.2,0.2-0.4,0.2-0.5,0.1C39.6,68,39.3,68,39.3,67.9L39.3,67.9z"/>
		</g>
	</g>
</g>
</svg>
