<?xml version="1.0" encoding="utf-8"?>
<!-- Generator: Adobe Illustrator 26.5.0, SVG Export Plug-In . SVG Version: 6.00 Build 0)  -->
<svg version="1.1" id="Layer_1" xmlns="http://www.w3.org/2000/svg" xmlns:xlink="http://www.w3.org/1999/xlink" x="0px" y="0px"
	 viewBox="0 0 69.1 103.7" style="enable-background:new 0 0 69.1 103.7;" xml:space="preserve">
<style type="text/css">
	.st0{fill:#F2F2F2;}
	.st1{fill:#7A2B2B;}
	.st2{fill:#943434;}
	.st3{fill:#AA292E;}
	.st4{fill:#0B050F;}
	.st5{fill:#3856C8;}
	.st6{fill:#BF9B4D;}
	.st7{fill:#E8EFFF;}
	.st8{fill:#C9D8F7;}
	.st9{fill:#715C57;}
	.st10{fill:#AA7941;}
	.st11{fill:#E6E6E6;}
	.st12{fill:#666666;}
	.st13{fill:#808080;}
	.st14{fill:#999999;}
	.st15{fill:#B3B3B3;}
	.st16{fill:#CCCCCC;}
	.st17{fill:#2A3757;}
</style>
<g>
	<path class="st0" d="M69.1,101c0,1.5-1.2,2.7-2.7,2.7H2.7c-1.5,0-2.7-1.2-2.7-2.7V2.7C0,1.2,1.2,0,2.7,0h63.7
		c1.5,0,2.7,1.2,2.7,2.7V101z"/>
	<g>
		<g>
			<path class="st1" d="M4,5h1.3v4.9h0c0.3-0.4,0.5-0.8,0.8-1.1L9.2,5h1.6L7.2,9.3l3.9,5.8H9.6l-3.3-5l-1,1.1v3.9H4V5z"/>
		</g>
		<g>
			<polygon class="st1" points="61.4,15.1 57.7,10 61.4,5 65.1,10 			"/>
			<polygon class="st2" points="61.4,5 57.7,10 61.4,15.1 			"/>
		</g>
	</g>
	<g>
		<g>
			<path class="st1" d="M65.1,98.7h-1.3v-4.9h0c-0.3,0.4-0.5,0.8-0.8,1.1l-3.1,3.8h-1.6l3.7-4.3L58,88.6h1.5l3.3,5l1-1.1v-3.9h1.3
				V98.7z"/>
		</g>
		<g>
			<polygon class="st1" points="7.7,88.6 11.4,93.6 7.7,98.7 4,93.6 			"/>
			<polygon class="st2" points="7.7,98.7 11.4,93.6 7.7,88.6 			"/>
		</g>
	</g>
	<g>
		<g>
			<path class="st3" d="M45.5,67.1c0,0,2.6-0.9,5.1-3.6v-3.2h-5.1V67.1z"/>
			<path class="st3" d="M50.6,58.6V40.4c0,0-2.3-2.9-6.9-3.3C43.7,37.1,43.6,55.5,50.6,58.6z"/>
			<g>
				<rect x="34.8" y="38.1" class="st4" width="2.3" height="4.3"/>
				<rect x="39.5" y="36.6" class="st4" width="2.3" height="4.3"/>
				<rect x="32.4" y="36.4" class="st3" width="2.3" height="4.3"/>
				<rect x="37.1" y="37.8" class="st3" width="2.3" height="4.3"/>
				<rect x="30.2" y="35.1" class="st4" width="2.3" height="4.3"/>
				<rect x="27.8" y="35" class="st3" width="2.3" height="2.7"/>
			</g>
			<path class="st4" d="M44.3,37.1c0,0-0.8,12,6.3,21.5c0,0.8,0,1.3,0,1.3s-4.2-2-6.5-10.2c-2.4-8.3-1.3-12.5-1.3-12.5H44.3z"/>
			<path class="st0" d="M43.2,37.4c0,0-0.2,7.9,1.7,12.7c2,4.7,3.3,8,5.6,9.8v3.6c0,0-6.4-6.2-8.5-13.2c-2.1-7-1.7-13.1-1.7-13.1
				L43.2,37.4z"/>
			<g>
				<path class="st3" d="M43.3,37.2c0,0.3-0.6,0.5-1.3,0.5c-0.7,0-1.3-0.2-1.3-0.5c0-0.3,0.6-0.5,1.3-0.5
					C42.7,36.7,43.3,36.9,43.3,37.2z"/>
				<path class="st3" d="M43.2,38.4c0,0.3-0.6,0.6-1.3,0.6c-0.7,0-1.3-0.2-1.3-0.5c0-0.3,0.6-0.6,1.3-0.6
					C42.6,37.9,43.2,38.1,43.2,38.4z"/>
				<path class="st3" d="M43.2,39.7c0,0.3-0.5,0.6-1.2,0.7c-0.7,0.1-1.3-0.1-1.3-0.4c0-0.3,0.5-0.6,1.2-0.7
					C42.6,39.3,43.2,39.5,43.2,39.7z"/>
				<path class="st3" d="M43.3,41.3c0,0.3-0.5,0.6-1.2,0.7c-0.7,0.1-1.3,0-1.3-0.3c0-0.3,0.5-0.6,1.2-0.7
					C42.6,40.8,43.2,41,43.3,41.3z"/>
				<path class="st3" d="M43.4,42.9c0.1,0.3-0.4,0.6-1.1,0.8c-0.7,0.2-1.3,0.1-1.3-0.2c-0.1-0.3,0.4-0.6,1.1-0.8
					C42.8,42.5,43.4,42.6,43.4,42.9z"/>
				<path class="st3" d="M43.7,44.6c0.1,0.3-0.4,0.6-1.1,0.8c-0.7,0.2-1.3,0.1-1.3-0.1c-0.1-0.3,0.4-0.6,1.1-0.8
					C43,44.3,43.6,44.4,43.7,44.6z"/>
				<path class="st3" d="M44,46.4c0.1,0.3-0.4,0.7-1,0.9c-0.6,0.2-1.2,0.2-1.3-0.1c-0.1-0.3,0.4-0.7,1-0.9
					C43.3,46.1,43.9,46.2,44,46.4z"/>
				<path class="st3" d="M44.4,48.2c0.1,0.3-0.3,0.7-0.9,0.9c-0.6,0.3-1.2,0.3-1.3,0c-0.1-0.3,0.3-0.7,0.9-0.9
					C43.7,48,44.3,48,44.4,48.2z"/>
				<path class="st3" d="M45,50.1c0.1,0.2-0.3,0.7-0.9,1c-0.6,0.3-1.2,0.4-1.3,0.1c-0.1-0.2,0.3-0.7,0.9-1
					C44.2,49.9,44.8,49.8,45,50.1z"/>
				<path class="st3" d="M45.6,51.9c0.1,0.2-0.2,0.7-0.8,1.1c-0.6,0.3-1.2,0.4-1.3,0.2c-0.1-0.2,0.2-0.7,0.8-1.1
					C44.9,51.8,45.5,51.7,45.6,51.9z"/>
				<path class="st3" d="M46.3,53.7c0.2,0.2-0.2,0.7-0.8,1.1c-0.6,0.4-1.2,0.5-1.3,0.3c-0.2-0.2,0.2-0.7,0.8-1.1
					C45.6,53.6,46.2,53.5,46.3,53.7z"/>
				<path class="st3" d="M47.2,55.4c0.2,0.2-0.2,0.8-0.7,1.2c-0.6,0.4-1.2,0.6-1.3,0.4c-0.2-0.2,0.2-0.8,0.7-1.2
					C46.4,55.3,47,55.2,47.2,55.4z"/>
				<path class="st3" d="M48.2,57c0.2,0.2-0.1,0.8-0.7,1.2c-0.5,0.5-1.1,0.7-1.3,0.4c-0.2-0.2,0.1-0.8,0.7-1.2
					C47.4,57,48,56.8,48.2,57z"/>
				<path class="st3" d="M49.3,58.5c0.2,0.2-0.1,0.8-0.6,1.3c-0.5,0.5-1.1,0.7-1.3,0.5c-0.2-0.2,0.1-0.8,0.6-1.3
					C48.5,58.5,49.1,58.2,49.3,58.5z"/>
				<path class="st3" d="M50.5,59.8c0.2,0.2,0,0.8-0.5,1.3c-0.5,0.5-1.1,0.8-1.3,0.6c-0.2-0.2,0-0.8,0.5-1.3
					C49.7,59.8,50.3,59.6,50.5,59.8z"/>
			</g>
			<rect x="33.2" y="43.6" class="st5" width="3.7" height="4.1"/>
			<polygon class="st6" points="33.4,47.5 37,47.5 37,51.2 			"/>
			<rect x="33.3" y="44.1" class="st6" width="3.8" height="3.1"/>
			<polygon class="st6" points="33.3,43.9 37,43.9 37,42.9 33.3,40.6 			"/>
			<path class="st3" d="M37.7,51.6l-0.1-8.7l3.1-1.7c0,0,0.6,7.2,1.3,8.5C42.7,51,37.7,51.6,37.7,51.6z"/>
			<polygon class="st7" points="37.7,51.6 36.8,51.2 36.8,42.3 37.7,42.3 			"/>
			<polygon class="st4" points="38,52 37.1,51.5 37.1,42.6 38,42.6 			"/>
			<g>
				<path class="st4" d="M44,55c-0.3-0.8-0.8-1.5-1.2-2.2c-0.6-1.2-1.1-2.5-1.3-3.8c0,0,0,0-0.1,0c-1.9,0-3.5,1.2-4.1,2.8
					c0.1,0.2,0.3,0.3,0.4,0.5c0.3,0.3,0.7,0.5,1,0.7c0.8,0.6,1.4,1.4,2.3,1.9c0.7,0.4,1.4,0.6,2.1,0.9c0.3,0.1,0.6,0.2,0.9,0.3
					c0.1,0,0.2,0,0.3,0C44.2,55.6,44.1,55.3,44,55z"/>
				<path class="st6" d="M44,55c-0.3-0.8-0.8-1.5-1.2-2.2c-0.6-1.1-1-2.3-1.2-3.5c0,0-0.1,0-0.1,0c-1.8,0-3.3,1.1-3.9,2.7
					c0.1,0.1,0.1,0.1,0.2,0.2c0.3,0.3,0.7,0.5,1,0.7c0.8,0.6,1.4,1.4,2.3,1.9c0.7,0.4,1.4,0.6,2.1,0.9c0.3,0.1,0.6,0.2,0.9,0.3
					c0.1,0,0.2,0,0.3,0C44.2,55.6,44.1,55.3,44,55z"/>
				<path class="st5" d="M42.8,52.7c-0.3-0.5-0.5-1-0.7-1.5c-0.2-0.1-0.4-0.1-0.7-0.1c-1.2,0-2.2,1-2.2,2.2c0.6,0.5,1.1,1.1,1.8,1.5
					c0.4,0.2,0.9,0.4,1.3,0.6c0.6-0.3,1-0.7,1.2-1.3C43.3,53.6,43,53.2,42.8,52.7z"/>
			</g>
			<polygon class="st3" points="28.9,44.6 32.5,46.7 32.7,39.9 28.9,37.8 			"/>
			<rect x="32.5" y="40.2" class="st7" width="0.9" height="6.9"/>
			<path class="st8" d="M25.4,35.7c0,0,1.6-0.9,3.2-1.1l0.2,9.8c0,0-2.5-0.9-3.6-0.9L25.4,35.7z"/>
			<polygon class="st9" points="25.4,35.7 24.8,36 24.8,43.5 25.4,43.5 			"/>
			<path class="st4" d="M24.8,36c0,0-0.8,0.3-1.2,0.6v6.8h1.2V36z"/>
			<path class="st3" d="M23.6,36.6c0,0-2.6,0.9-5.1,3.6v3.2h5.1V36.6z"/>
			<rect x="32.2" y="39.9" class="st4" width="0.9" height="6.9"/>
			<rect x="28.6" y="34.6" class="st9" width="0.6" height="9.7"/>
			<g>
				<path class="st10" d="M43.6,56.1c-0.3,0-0.8-0.1-1.3-0.3c-1.8-0.7-4.1-2.6-6.7-5.7c-3.1-3.7-6.2-5.2-8.3-5.8
					c-2.2-0.6-4.7-0.5-4.7-0.5l-0.1-0.6c0.1,0,2.6-0.1,5,0.5c2.1,0.6,5.3,2.1,8.6,6c5.9,7,8.1,5.7,8.1,5.7l0.3,0.5
					C44.4,55.9,44.1,56.1,43.6,56.1z"/>
			</g>
			<path class="st7" d="M29.1,37.4c0,0,7.5,4.9,8.3,4.9c0.7,0,2.8-1.5,2.8-1.5v0.9c0,0-2.6,1.7-2.9,1.7c-0.3,0-8.2-5.1-8.2-5.1V37.4
				z"/>
			<path class="st6" d="M30,35.1c0,0,6.4,4.7,7.3,4.7c0.9,0,3.5-2.3,3.5-2.3L30,35.1z"/>
			<path class="st6" d="M29.1,36.8c0,0,7.5,5,8.3,5c0.7,0,2.8-1.7,2.8-1.7V41c0,0-2.6,1.7-2.9,1.7c-0.3,0-8.2-4.9-8.2-4.9V36.8z"/>
			<path class="st10" d="M40,37.7c0,0,0,8,1.8,13.2c1.9,5.2,6.5,12.6,7.9,13.3l0.8-0.8c0,0-3.3-2.7-8-12.9c-1.2-5-1.3-2.9-1.9-13.2
				C40.1,27.1,40,37.7,40,37.7z"/>
			<path class="st3" d="M18.6,45v18.2c0,0,2.3,2.9,6.9,3.3C25.4,66.6,25.5,48.2,18.6,45z"/>
			<g>
				<rect x="32" y="61.3" class="st4" width="2.3" height="4.3"/>
				<rect x="27.3" y="62.8" class="st4" width="2.3" height="4.3"/>
				<rect x="34.4" y="63" class="st3" width="2.3" height="4.3"/>
				<rect x="29.7" y="61.6" class="st3" width="2.3" height="4.3"/>
				<rect x="36.6" y="64.3" class="st4" width="2.3" height="4.3"/>
				<rect x="39" y="66" class="st3" width="2.3" height="2.7"/>
			</g>
			<path class="st4" d="M24.8,66.5c0,0,0.8-12-6.3-21.5c0-0.8,0-1.3,0-1.3s4.2,2,6.5,10.2c2.4,8.3,1.3,12.5,1.3,12.5H24.8z"/>
			<path class="st0" d="M25.9,66.3c0,0,0.2-7.9-1.7-12.7c-2-4.8-3.3-8-5.6-9.8v-3.6c0,0,3.5,0.7,8.5,13.2c2.1,7,1.7,13.1,1.7,13.1
				L25.9,66.3z"/>
			<g>
				<path class="st3" d="M25.8,66.5c0-0.3,0.6-0.5,1.3-0.5c0.7,0,1.3,0.2,1.3,0.5c0,0.3-0.6,0.5-1.3,0.5
					C26.4,67,25.8,66.8,25.8,66.5z"/>
				<path class="st3" d="M25.9,65.3c0-0.3,0.6-0.6,1.3-0.6c0.7,0,1.3,0.2,1.3,0.5c0,0.3-0.6,0.6-1.3,0.6
					C26.5,65.8,25.9,65.6,25.9,65.3z"/>
				<path class="st3" d="M25.9,63.9c0-0.3,0.5-0.6,1.2-0.7c0.7-0.1,1.3,0.1,1.3,0.4c0,0.3-0.5,0.6-1.2,0.7
					C26.5,64.4,25.9,64.2,25.9,63.9z"/>
				<path class="st3" d="M25.8,62.4c0-0.3,0.5-0.6,1.2-0.7c0.7-0.1,1.3,0,1.3,0.3c0,0.3-0.5,0.6-1.2,0.7
					C26.5,62.8,25.9,62.7,25.8,62.4z"/>
				<path class="st3" d="M25.7,60.8c-0.1-0.3,0.4-0.6,1.1-0.8c0.7-0.2,1.3-0.1,1.3,0.2c0.1,0.3-0.4,0.6-1.1,0.8
					C26.4,61.1,25.8,61,25.7,60.8z"/>
				<path class="st3" d="M25.5,59c-0.1-0.3,0.4-0.6,1.1-0.8c0.7-0.2,1.3-0.1,1.3,0.1c0.1,0.3-0.4,0.6-1.1,0.8
					C26.1,59.4,25.5,59.3,25.5,59z"/>
				<path class="st3" d="M25.1,57.3c-0.1-0.3,0.4-0.7,1-0.9c0.6-0.2,1.2-0.2,1.3,0.1c0.1,0.3-0.4,0.7-1,0.9
					C25.8,57.5,25.2,57.5,25.1,57.3z"/>
				<path class="st3" d="M24.7,55.4c-0.1-0.3,0.3-0.7,0.9-0.9c0.6-0.3,1.2-0.3,1.3,0c0.1,0.3-0.3,0.7-0.9,0.9
					C25.4,55.7,24.8,55.7,24.7,55.4z"/>
				<path class="st3" d="M24.2,53.6c-0.1-0.2,0.3-0.7,0.9-1c0.6-0.3,1.2-0.4,1.3-0.1c0.1,0.2-0.3,0.7-0.9,1
					C24.9,53.8,24.3,53.8,24.2,53.6z"/>
				<path class="st3" d="M23.5,51.8c-0.1-0.2,0.2-0.7,0.8-1.1c0.6-0.3,1.2-0.4,1.3-0.2c0.1,0.2-0.2,0.7-0.8,1.1
					C24.3,51.9,23.7,52,23.5,51.8z"/>
				<path class="st3" d="M22.8,50c-0.2-0.2,0.2-0.7,0.8-1.1c0.6-0.4,1.2-0.5,1.3-0.3c0.2,0.2-0.2,0.7-0.8,1.1
					C23.5,50.1,22.9,50.2,22.8,50z"/>
				<path class="st3" d="M21.9,48.3c-0.2-0.2,0.2-0.8,0.7-1.2c0.6-0.4,1.2-0.6,1.3-0.4c0.2,0.2-0.2,0.7-0.7,1.2
					C22.7,48.3,22.1,48.5,21.9,48.3z"/>
				<path class="st3" d="M20.9,46.7c-0.2-0.2,0.1-0.8,0.7-1.2c0.5-0.5,1.1-0.7,1.3-0.4c0.2,0.2-0.1,0.8-0.7,1.2
					C21.7,46.7,21.1,46.9,20.9,46.7z"/>
				<path class="st3" d="M19.9,45.2c-0.2-0.2,0.1-0.8,0.6-1.3c0.5-0.5,1.1-0.7,1.3-0.5c0.2,0.2-0.1,0.8-0.6,1.3
					C20.6,45.2,20.1,45.4,19.9,45.2z"/>
				<path class="st3" d="M18.6,43.9c-0.2-0.2,0-0.8,0.5-1.3c0.5-0.5,1.1-0.8,1.3-0.6c0.2,0.2,0,0.8-0.5,1.3
					C19.4,43.8,18.9,44.1,18.6,43.9z"/>
			</g>
			<rect x="32.2" y="56" class="st5" width="3.7" height="4.1"/>
			<polygon class="st6" points="35.7,56.2 32.2,56.2 32.2,52.4 			"/>
			<rect x="32.1" y="56.5" class="st6" width="3.8" height="3.1"/>
			<polygon class="st6" points="35.8,59.8 32.2,59.8 32.2,60.8 35.8,63 			"/>
			<path class="st3" d="M31.4,52.1l0.1,8.7l-3.1,1.7c0,0-0.6-7.2-1.3-8.5C26.5,52.7,31.4,52.1,31.4,52.1z"/>
			<polygon class="st7" points="31.4,52 32.3,52.5 32.3,61.4 31.4,61.4 			"/>
			<polygon class="st4" points="31.1,51.7 32,52.2 32,61 31.1,61 			"/>
			<g>
				<path class="st4" d="M25.2,48.7c0.3,0.8,0.8,1.5,1.2,2.2c0.6,1.2,1.1,2.5,1.3,3.8c0,0,0,0,0.1,0c1.9,0,3.5-1.2,4.1-2.8
					c-0.1-0.2-0.3-0.3-0.4-0.5c-0.3-0.3-0.7-0.5-1-0.7c-0.8-0.6-1.4-1.4-2.3-1.9c-0.7-0.4-1.4-0.6-2.1-0.9c-0.3-0.1-0.6-0.2-0.9-0.3
					c-0.1,0-0.2,0-0.3,0C24.9,48.1,25,48.4,25.2,48.7z"/>
				<path class="st6" d="M25.2,48.7c0.3,0.8,0.8,1.5,1.2,2.2c0.6,1.1,1,2.3,1.2,3.5c0,0,0.1,0,0.1,0c1.8,0,3.3-1.1,3.9-2.7
					c-0.1-0.1-0.1-0.1-0.2-0.2c-0.3-0.3-0.7-0.5-1-0.7c-0.8-0.6-1.4-1.4-2.3-1.9c-0.7-0.4-1.4-0.6-2.1-0.9c-0.3-0.1-0.6-0.2-0.9-0.3
					c-0.1,0-0.2,0-0.3,0C24.9,48.1,25,48.4,25.2,48.7z"/>
				<path class="st5" d="M26.4,50.9c0.3,0.5,0.5,1,0.7,1.5c0.2,0.1,0.4,0.1,0.7,0.1c1.2,0,2.2-1,2.2-2.2c-0.6-0.5-1.1-1.1-1.8-1.5
					c-0.4-0.2-0.9-0.4-1.3-0.6c-0.6,0.3-1,0.7-1.2,1.3C25.9,50,26.1,50.5,26.4,50.9z"/>
			</g>
			<polygon class="st3" points="40.3,59.1 36.6,57 36.4,63.7 40.3,65.9 			"/>
			<rect x="35.7" y="56.6" class="st7" width="0.9" height="6.9"/>
			<path class="st8" d="M43.7,67.9c0,0-1.6,0.9-3.2,1.1l-0.2-9.8c0,0,2.5,0.9,3.6,0.9L43.7,67.9z"/>
			<polygon class="st9" points="43.7,67.9 44.3,67.7 44.3,60.1 43.7,60.1 			"/>
			<path class="st4" d="M44.3,67.7c0,0,0.8-0.3,1.2-0.6v-6.8h-1.2V67.7z"/>
			<rect x="36.1" y="56.9" class="st4" width="0.9" height="6.9"/>
			<rect x="40" y="59.4" class="st9" width="0.6" height="9.7"/>
			<g>
				<path class="st10" d="M25.6,47.6c0.3,0,0.8,0.1,1.3,0.3c1.8,0.7,4.1,2.6,6.7,5.7c3.1,3.7,6.2,5.2,8.3,5.8
					c2.2,0.6,4.6,0.3,4.6,0.3l0.1,0.6c-0.1,0-2.5,0.3-4.8-0.3c-2.1-0.6-5.3-2.1-8.6-6c-5.9-7-8.1-5.7-8.1-5.7l-0.3-0.5
					C24.7,47.7,25,47.6,25.6,47.6z"/>
			</g>
			<path class="st7" d="M40,66.2c0,0-7.5-4.9-8.3-4.9c-0.7,0-2.8,1.5-2.8,1.5V62c0,0,2.6-1.7,2.9-1.7c0.3,0,8.2,5.1,8.2,5.1V66.2z"
				/>
			<path class="st6" d="M39.1,68.6c0,0-6.4-4.7-7.3-4.7c-0.9,0-3.5,2.3-3.5,2.3L39.1,68.6z"/>
			<path class="st6" d="M40,66.8c0,0-7.5-5-8.3-5c-0.7,0-2.8,1.7-2.8,1.7v-0.8c0,0,2.6-1.7,2.9-1.7C32.1,61,40,66,40,66V66.8z"/>
			<path class="st10" d="M29.1,65.9c0,0,0-8-1.8-13.2c-1.9-5.2-6.1-12.6-8-13.2l-0.7,0.7c1.7,0.8,7,8.9,8,12.9
				c1.2,5,1.3,2.9,1.9,13.2C29,76.5,29.1,65.9,29.1,65.9z"/>
		</g>
		<g>
			<path class="st11" d="M41,26.7c0,0-0.4,3.8,0,4.5c0.4,0.8,1.2,2.5,1.2,2.5s-1.7-0.6-1.7,1.1c0,1.7,1.4,1.6,1.9,1.6
				c0.5,0,2-0.6,1-3c-1-2.4-1.1-1.4-1.3-3.2c-0.2-1.7,0-3.5,0-3.5L41,26.7z"/>
			<path class="st0" d="M41.5,25.6c0,0-0.4,3.8,0,4.5c0.4,0.8,1.2,2.5,1.2,2.5S41,32,41,33.8c0,1.7,1.4,1.6,1.9,1.6c0.5,0,2-0.6,1-3
				c-1-2.4-1.1-1.4-1.3-3.2c-0.2-1.7,0-3.5,0-3.5L41.5,25.6z"/>
			<path class="st11" d="M42.2,31c0,0,2.9,11-3.7,11c-6.6,0-5.8-8.4-3.7-11.4C36.8,27.7,42.2,31,42.2,31z"/>
			<path class="st7" d="M42.1,26.4c0,0,0.5,1.8,0.2,2.4c-0.3,0.6,0,1.6,0,2.2c-0.1,0.6-0.8,1.6-2.6,0.4c0,0-4.4,2.4-4.5-0.7
				c0-3.1,0.2-4.7,0.2-4.7S40.7,25.5,42.1,26.4z"/>
			<path class="st12" d="M30,25.1c0,0,0.4,3.8,0,4.5c-0.4,0.8-1.2,2.5-1.2,2.5s1.7-0.6,1.7,1.1c0,1.7-1.4,1.6-1.9,1.6
				c-0.5,0-2-0.6-1-3c1-2.4,1.1-1.4,1.3-3.2c0.2-1.7,0-3.5,0-3.5L30,25.1z"/>
			<path class="st13" d="M30.6,25.6c0,0,0.4,3.8,0,4.5c-0.4,0.8-1.2,2.5-1.2,2.5s1.7-0.6,1.7,1.1c0,1.7-1.4,1.6-1.9,1.6
				c-0.5,0-2-0.6-1-3s1.1-1.4,1.3-3.2c0.2-1.7,0-3.5,0-3.5L30.6,25.6z"/>
			<path class="st14" d="M31.3,26.1c0,0,0.4,3.8,0,4.5c-0.4,0.8-1.2,2.5-1.2,2.5s1.7-0.6,1.7,1.1c0,1.7-1.4,1.6-1.9,1.6
				c-0.5,0-2-0.6-1-3s1.1-1.4,1.3-3.2c0.2-1.7,0-3.5,0-3.5L31.3,26.1z"/>
			<path class="st15" d="M32.4,26.3c0,0,0.4,3.8,0,4.5c-0.4,0.8-1.2,2.5-1.2,2.5s1.7-0.6,1.7,1.1c0,1.7-1.4,1.6-1.9,1.6
				c-0.5,0-2-0.6-1-3c1-2.4,1.1-1.4,1.3-3.2c0.2-1.7,0-3.5,0-3.5L32.4,26.3z"/>
			<path class="st16" d="M33.5,26.1c0,0,0.4,3.8,0,4.5c-0.4,0.8-1.2,2.5-1.2,2.5s1.7-0.6,1.7,1.1c0,1.7-1.4,1.6-1.9,1.6
				c-0.5,0-2-0.6-1-3c1-2.4,1.1-1.4,1.3-3.2c0.2-1.7,0-3.5,0-3.5L33.5,26.1z"/>
			<path class="st11" d="M34.6,26c0,0,0.4,3.8,0,4.5c-0.4,0.8-1.2,2.5-1.2,2.5s1.7-0.6,1.7,1.1c0,1.7-1.4,1.6-1.9,1.6
				c-0.5,0-2-0.6-1-3c1-2.4,1.1-1.4,1.3-3.2c0.2-1.7,0-3.5,0-3.5L34.6,26z"/>
			<path class="st0" d="M35.5,25.8c0,0,0.4,3.8,0,4.5c-0.4,0.8-1.2,2.5-1.2,2.5s1.7-0.6,1.7,1.1c0,1.7-1.4,1.6-1.9,1.6
				c-0.5,0-2-0.6-1-3c1-2.4,1.1-1.4,1.3-3.2c0.2-1.7,0-3.5,0-3.5L35.5,25.8z"/>
			<path class="st0" d="M39.6,31.4c0,0,1.8,0.2,2.4,1.2c0,0-0.9,0.9-2.3,0.2c0,0-1.6,0.6-3,0.2C36.8,33.1,37.7,31.6,39.6,31.4z"/>
			<path class="st6" d="M28,21.3l2.2-0.4l0.4,2.1c0.5-0.1,1.1-0.2,1.7-0.3l-0.2-2l2.3-0.3l0.3,2c0.7,0,1.3-0.1,1.9-0.1v-2.1h2.3v2.1
				c0.7,0,1.3,0,1.9,0.1l0.4-2.1l2.5,0.4l-0.8,5.1l-0.5-0.1l0,0.2l-12.6,0.5l0-0.2L29,26.3L28,21.3z"/>
			<path class="st4" d="M42.6,26.6c0,0-6.5-1-13.6,0.7l-0.1-1.1c0,0,8.9-2.1,13.8-0.5L42.6,26.6z"/>
			<g>
				<path class="st13" d="M40.3,28.2c0.5-0.2,1.6-0.5,1.7,0.3C41.4,28.2,40.9,28.2,40.3,28.2L40.3,28.2z"/>
			</g>
			<g>
				<path class="st13" d="M38.5,28.2c-0.6-0.1-1.1,0-1.7,0.2c-0.1-0.2,0.2-0.3,0.3-0.4C37.5,27.9,38.1,28,38.5,28.2L38.5,28.2z"/>
			</g>
			<g>
				<path class="st17" d="M39.1,29c-0.5,0.6-1.7,0.8-2.2,0.1C37.7,29.2,38.3,29.4,39.1,29L39.1,29z"/>
			</g>
			<g>
				<path class="st17" d="M40.4,28.9c0.5,0.3,1,0.1,1.6,0.2c-0.1,0.3-0.5,0.4-0.8,0.3C40.9,29.3,40.5,29.2,40.4,28.9L40.4,28.9z"/>
			</g>
			<g>
				<path class="st17" d="M40,28.6c0,0.8,0.1,1.6,0.5,2.3c0.4,0.8-1,1.1-1.5,0.6c-0.2-0.1-0.3-0.5-0.2-0.6c0.1,0.4,0.4,0.6,0.8,0.6
					c0.3,0,0.8-0.2,0.6-0.4C40,30.3,39.8,29.3,40,28.6L40,28.6z"/>
			</g>
		</g>
		<g>
			<path class="st11" d="M28.2,77c0,0,0.4-3.8,0-4.5c-0.4-0.8-1.2-2.5-1.2-2.5s1.7,0.6,1.7-1.1c0-1.7-1.4-1.6-1.9-1.6
				c-0.5,0-2,0.6-1,3c1,2.4,1.1,1.4,1.3,3.2c0.2,1.7,0,3.5,0,3.5L28.2,77z"/>
			<path class="st0" d="M27.6,78.1c0,0,0.4-3.8,0-4.5c-0.4-0.8-1.2-2.5-1.2-2.5s1.7,0.6,1.7-1.1c0-1.7-1.4-1.6-1.9-1.6
				c-0.5,0-2,0.6-1,3s1.1,1.4,1.3,3.2c0.2,1.7,0,3.5,0,3.5L27.6,78.1z"/>
			<path class="st11" d="M26.9,72.6c0,0-2.9-11,3.7-11S36.4,70,34.3,73C32.3,76,26.9,72.6,26.9,72.6z"/>
			<path class="st7" d="M27.1,77.2c0,0-0.5-1.8-0.2-2.4c0.3-0.6,0-1.6,0-2.2c0.1-0.6,0.8-1.6,2.6-0.4c0,0,4.4-2.4,4.5,0.7
				c0,3.1-0.2,4.7-0.2,4.7S28.4,78.2,27.1,77.2z"/>
			<path class="st12" d="M39.1,78.6c0,0-0.4-3.8,0-4.5c0.4-0.8,1.2-2.5,1.2-2.5s-1.7,0.6-1.7-1.1c0-1.7,1.4-1.6,1.9-1.6
				c0.5,0,2,0.6,1,3c-1,2.4-1.1,1.4-1.3,3.2c-0.2,1.7,0,3.5,0,3.5L39.1,78.6z"/>
			<path class="st13" d="M38.6,78.1c0,0-0.4-3.8,0-4.5c0.4-0.8,1.2-2.5,1.2-2.5s-1.7,0.6-1.7-1.1c0-1.7,1.4-1.6,1.9-1.6
				c0.5,0,2,0.6,1,3c-1,2.4-1.2,1.4-1.3,3.2c-0.2,1.7,0,3.5,0,3.5L38.6,78.1z"/>
			<path class="st14" d="M37.8,77.5c0,0-0.4-3.8,0-4.5s1.2-2.5,1.2-2.5s-1.7,0.6-1.7-1.1c0-1.7,1.4-1.6,1.9-1.6c0.5,0,2,0.6,1,3
				c-1,2.4-1.1,1.4-1.3,3.2c-0.2,1.7,0,3.5,0,3.5L37.8,77.5z"/>
			<path class="st15" d="M36.7,77.4c0,0-0.4-3.8,0-4.5c0.4-0.8,1.2-2.5,1.2-2.5s-1.7,0.6-1.7-1.1c0-1.7,1.4-1.6,1.9-1.6
				c0.5,0,2,0.6,1,3c-1,2.4-1.1,1.4-1.3,3.2c-0.2,1.7,0,3.5,0,3.5L36.7,77.4z"/>
			<path class="st16" d="M35.7,77.5c0,0-0.4-3.8,0-4.5c0.4-0.8,1.2-2.5,1.2-2.5s-1.7,0.6-1.7-1.1c0-1.7,1.4-1.6,1.9-1.6
				c0.5,0,2,0.6,1,3c-1,2.4-1.1,1.4-1.3,3.2c-0.2,1.7,0,3.5,0,3.5L35.7,77.5z"/>
			<path class="st11" d="M34.6,77.7c0,0-0.4-3.8,0-4.5c0.4-0.8,1.2-2.5,1.2-2.5s-1.7,0.6-1.7-1.1c0-1.7,1.4-1.6,1.9-1.6
				c0.5,0,2,0.6,1,3c-1,2.4-1.1,1.4-1.3,3.2c-0.2,1.7,0,3.5,0,3.5L34.6,77.7z"/>
			<path class="st0" d="M33.6,77.9c0,0-0.4-3.8,0-4.5c0.4-0.8,1.2-2.5,1.2-2.5s-1.7,0.6-1.7-1.1c0-1.7,1.4-1.6,1.9-1.6
				c0.5,0,2,0.6,1,3c-1,2.4-1.2,1.4-1.3,3.2c-0.2,1.7,0,3.5,0,3.5L33.6,77.9z"/>
			<path class="st0" d="M29.5,72.2c0,0-1.8-0.2-2.4-1.2c0,0,0.9-0.9,2.3-0.2c0,0,1.6-0.6,3-0.2C32.4,70.6,31.4,72.1,29.5,72.2z"/>
			<path class="st6" d="M41.2,82.4L39,82.8l-0.4-2.1c-0.5,0.1-1.1,0.2-1.7,0.3l0.2,2l-2.3,0.3l-0.3-2c-0.7,0-1.3,0.1-1.9,0.1v2.1
				h-2.3v-2.1c-0.7,0-1.3,0-1.9-0.1l-0.4,2.1L25.5,83l0.8-5.1l0.5,0.1l0-0.2l12.6-0.5l0,0.2l0.7-0.1L41.2,82.4z"/>
			<path class="st4" d="M26.5,77.1c0,0,6.5,1,13.6-0.7l0.1,1.1c0,0-8.9,2.1-13.8,0.5L26.5,77.1z"/>
			<g>
				<path class="st13" d="M28.8,75.5c-0.5,0.2-1.6,0.5-1.7-0.3C27.7,75.5,28.2,75.5,28.8,75.5L28.8,75.5z"/>
			</g>
			<g>
				<path class="st13" d="M30.7,75.5c0.6,0.1,1.1,0,1.7-0.2c0.1,0.2-0.2,0.3-0.3,0.4C31.6,75.8,31,75.7,30.7,75.5L30.7,75.5z"/>
			</g>
			<g>
				<path class="st17" d="M30.1,74.7c0.5-0.6,1.7-0.8,2.2-0.1C31.4,74.5,30.8,74.3,30.1,74.7L30.1,74.7z"/>
			</g>
			<g>
				<path class="st17" d="M28.7,74.7c-0.5-0.3-1-0.1-1.6-0.2c0.1-0.3,0.5-0.4,0.8-0.3C28.2,74.3,28.7,74.5,28.7,74.7L28.7,74.7z"/>
			</g>
			<g>
				<path class="st17" d="M29.1,75.1c0-0.8-0.1-1.6-0.5-2.3c-0.4-0.8,1-1.1,1.5-0.6c0.2,0.1,0.3,0.5,0.2,0.6
					c-0.1-0.4-0.4-0.6-0.8-0.6c-0.3,0-0.8,0.1-0.6,0.4C29.2,73.4,29.3,74.4,29.1,75.1L29.1,75.1z"/>
			</g>
		</g>
	</g>
</g>
</svg>
