<?xml version="1.0" encoding="utf-8"?>
<!-- Generator: Adobe Illustrator 26.5.0, SVG Export Plug-In . SVG Version: 6.00 Build 0)  -->
<svg version="1.1" id="Layer_1" xmlns="http://www.w3.org/2000/svg" xmlns:xlink="http://www.w3.org/1999/xlink" x="0px" y="0px"
	 viewBox="0 0 70.1 104.7" style="enable-background:new 0 0 70.1 104.7;" xml:space="preserve">
<style type="text/css">
	.st0{fill:#BFBFB7;}
	.st1{fill:#A4A69B;}
</style>
<path class="st0" d="M69.8,101.9c0,1.5-1.2,2.7-2.7,2.7H2.7c-1.5,0-2.7-1.2-2.7-2.7V2.7C0,1.2,1.2,0,2.7,0H67c1.5,0,2.7,1.2,2.7,2.7
	v99.2H69.8z"/>
<path class="st1" d="M65.7,98.1c0,1.4-1.1,2.5-2.4,2.5H6.5c-1.3,0-2.4-1.1-2.4-2.5V6.5C4.1,5.1,5.2,4,6.5,4h56.7
	c1.3,0,2.4,1.1,2.4,2.5L65.7,98.1L65.7,98.1z"/>
<path class="st0" d="M42.6,39.8c-2.3-1.9-4.6-3.8-6.4-5.9c-0.3-0.4-0.8-0.6-1.2-0.6h-0.1h0c-0.5,0-0.9,0.2-1.2,0.6
	c-1.8,2.1-4.2,4.1-6.4,5.9c-4.8,3.9-9.8,8-9.8,14.4c0,5.7,4,9.7,9.8,9.7c2.8,0,5.2-1.6,6.8-3.1c-0.8,3.4-2.3,7.4-5.1,10.5h5.9h6
	c-2.8-3.1-4.3-7.1-5.1-10.5c1.6,1.5,4.1,3.1,6.9,3.1c5.7,0,9.8-4,9.8-9.7C52.4,47.9,47.4,43.8,42.6,39.8z"/>
</svg>
