<?xml version="1.0" encoding="utf-8"?>
<!-- Generator: Adobe Illustrator 26.5.0, SVG Export Plug-In . SVG Version: 6.00 Build 0)  -->
<svg version="1.1" id="Layer_1" xmlns="http://www.w3.org/2000/svg" xmlns:xlink="http://www.w3.org/1999/xlink" x="0px" y="0px"
	 viewBox="0 0 70.1 104.7" style="enable-background:new 0 0 70.1 104.7;" xml:space="preserve">
<style type="text/css">
	.st0{fill:#BFBFB7;}
	.st1{fill:#A4A69B;}
</style>
<path class="st0" d="M69.8,101.9c0,1.5-1.2,2.7-2.7,2.7H2.7c-1.5,0-2.7-1.2-2.7-2.7V2.7C0,1.2,1.2,0,2.7,0H67c1.5,0,2.7,1.2,2.7,2.7
	v99.2C69.7,101.9,69.8,101.9,69.8,101.9z"/>
<path class="st1" d="M65.7,98.1c0,1.4-1.1,2.5-2.4,2.5H6.5c-1.3,0-2.4-1.1-2.4-2.5V6.5C4.1,5.1,5.2,4,6.5,4h56.7
	c1.3,0,2.4,1.1,2.4,2.5L65.7,98.1L65.7,98.1z"/>
<path class="st0" d="M25.1,48.8c0.5-1.4,1.3-2.8,2.5-3.9c4.1-4.1,10.8-4.1,14.9,0l1.1,1.1h-3.3c-1.2,0-2.1,0.9-2.1,2.1
	c0,1.2,0.9,2.1,2.1,2.1h8.4l0,0h0c1.2,0,2.1-0.9,2.1-2.1v-8.4c0-1.2-0.9-2.1-2.1-2.1c-1.2,0-2.1,0.9-2.1,2.1v3.4l-1.2-1.2
	c-5.8-5.8-15.1-5.8-20.8,0c-1.6,1.6-2.8,3.5-3.5,5.5c-0.4,1.1,0.2,2.3,1.3,2.7C23.5,50.5,24.7,49.9,25.1,48.8L25.1,48.8z M20.8,54.5
	c-0.3,0.1-0.6,0.3-0.9,0.5c-0.3,0.3-0.4,0.6-0.5,0.9c0,0.1,0,0.2-0.1,0.3c0,0.1,0,0.2,0,0.3V65c0,1.2,0.9,2.1,2.1,2.1
	c1.2,0,2.1-0.9,2.1-2.1v-3.4l1.2,1.2l0,0c5.8,5.8,15.1,5.8,20.8,0c1.6-1.6,2.8-3.5,3.5-5.5c0.4-1.1-0.2-2.3-1.3-2.7
	c-1.1-0.4-2.3,0.2-2.7,1.3c-0.5,1.4-1.3,2.8-2.5,3.9c-4.1,4.1-10.8,4.1-14.9,0l0,0l-1.1-1.1h3.3c1.2,0,2.1-0.9,2.1-2.1
	c0-1.2-0.9-2.1-2.1-2.1h-8.4c-0.1,0-0.2,0-0.3,0S20.9,54.5,20.8,54.5z"/>
</svg>
