<?xml version="1.0" encoding="utf-8"?>
<!-- Generator: Adobe Illustrator 26.5.0, SVG Export Plug-In . SVG Version: 6.00 Build 0)  -->
<svg version="1.1" id="Layer_1" xmlns="http://www.w3.org/2000/svg" xmlns:xlink="http://www.w3.org/1999/xlink" x="0px" y="0px"
	 viewBox="0 0 69.1 103.7" style="enable-background:new 0 0 69.1 103.7;" xml:space="preserve">
<style type="text/css">
	.st0{fill:#F2F2F2;}
	.st1{fill:#7A2B2B;}
	.st2{fill:#943434;}
</style>
<g>
	<path class="st0" d="M69.1,101c0,1.5-1.2,2.7-2.7,2.7H2.7c-1.5,0-2.7-1.2-2.7-2.7V2.7C0,1.2,1.2,0,2.7,0h63.7
		c1.5,0,2.7,1.2,2.7,2.7V101z"/>
	<g>
		<g>
			<path class="st1" d="M6,6.4L6,6.4L4.3,7.3L4,6.3l2.1-1.1h1.1v9.8H6V6.4z"/>
			<path class="st1" d="M17.3,9.9c0,3.3-1.2,5.1-3.4,5.1c-1.9,0-3.2-1.8-3.2-5c0-3.3,1.4-5.1,3.4-5.1C16.1,5,17.3,6.8,17.3,9.9z
				 M12,10.1c0,2.5,0.8,4,2,4c1.4,0,2-1.6,2-4.1c0-2.4-0.6-4-2-4C12.8,6,12,7.4,12,10.1z"/>
		</g>
		<g>
			<path class="st1" d="M59.6,15.1l-0.8-0.8c-2.8-2.5-4.7-4.2-4.7-6.3c0-1.7,1.3-3,3-3c0.9,0,1.9,1,2.5,1.7C60.2,6,61.2,5,62.1,5
				c1.7,0,3,1.3,3,3c0,2.1-1.9,3.8-4.7,6.3L59.6,15.1z M59.6,15.1"/>
			<path class="st2" d="M59.6,6.7C59,6,58.1,5,57.2,5c-1.7,0-3,1.3-3,3c0,2.1,1.9,3.8,4.7,6.3l0.8,0.8V6.7z"/>
		</g>
	</g>
	<g>
		<g>
			<path class="st1" d="M63.1,96.3L63.1,96.3l1.7-0.9l0.3,1L63,97.5h-1.1v-9.8h1.3V96.3z"/>
			<path class="st1" d="M51.8,92.8c0-3.3,1.2-5.1,3.4-5.1c1.9,0,3.2,1.8,3.2,5c0,3.3-1.4,5.1-3.4,5.1C53,97.7,51.8,95.9,51.8,92.8z
				 M57.1,92.6c0-2.5-0.8-4-2-4c-1.4,0-2,1.6-2,4.1c0,2.4,0.6,4,2,4C56.3,96.7,57.1,95.3,57.1,92.6z"/>
		</g>
		<g>
			<path class="st1" d="M9.5,87.6l0.8,0.8c2.8,2.5,4.7,4.2,4.7,6.3c0,1.7-1.3,3-3,3c-0.9,0-1.9-1-2.5-1.7c-0.6,0.7-1.5,1.7-2.5,1.7
				c-1.7,0-3-1.3-3-3c0-2.1,1.9-3.8,4.7-6.3L9.5,87.6z M9.5,87.6"/>
			<path class="st2" d="M9.5,96c0.6,0.7,1.5,1.7,2.5,1.7c1.7,0,3-1.3,3-3c0-2.1-1.9-3.8-4.7-6.3l-0.8-0.8V96z"/>
		</g>
	</g>
	<g>
		<g>
			<g>
				<g>
					<g>
						<path class="st1" d="M46.6,34.7l-0.8-0.8c-3.1-2.7-5.1-4.6-5.1-6.8c0-1.8,1.4-3.3,3.3-3.3c1,0,2,1.1,2.7,1.8
							c0.7-0.8,1.7-1.8,2.7-1.8c1.8,0,3.3,1.4,3.3,3.3c0,2.3-2,4.1-5.1,6.8L46.6,34.7z M46.6,34.7"/>
						<path class="st2" d="M46.6,25.6C46,24.9,45,23.8,44,23.8c-1.8,0-3.3,1.4-3.3,3.3c0,2.3,2,4.1,5.1,6.8l0.8,0.8V25.6z"/>
					</g>
				</g>
				<g>
					<g>
						<path class="st1" d="M22.5,34.7l-0.8-0.8c-3.1-2.7-5.1-4.6-5.1-6.8c0-1.8,1.4-3.3,3.3-3.3c1,0,2,1.1,2.7,1.8
							c0.7-0.8,1.7-1.8,2.7-1.8c1.8,0,3.3,1.4,3.3,3.3c0,2.3-2,4.1-5.1,6.8L22.5,34.7z M22.5,34.7"/>
						<path class="st2" d="M22.5,25.6c-0.7-0.8-1.6-1.8-2.7-1.8c-1.8,0-3.3,1.4-3.3,3.3c0,2.3,2,4.1,5.1,6.8l0.8,0.8V25.6z"/>
					</g>
				</g>
			</g>
			<g>
				<g>
					<g>
						<path class="st1" d="M46.6,49.8l-0.8-0.8c-3.1-2.7-5.1-4.6-5.1-6.8c0-1.8,1.4-3.3,3.3-3.3c1,0,2,1.1,2.7,1.8
							c0.7-0.8,1.7-1.8,2.7-1.8c1.8,0,3.3,1.4,3.3,3.3c0,2.3-2,4.1-5.1,6.8L46.6,49.8z M46.6,49.8"/>
						<path class="st2" d="M46.6,40.7C46,39.9,45,38.9,44,38.9c-1.8,0-3.3,1.4-3.3,3.3c0,2.3,2,4.1,5.1,6.8l0.8,0.8V40.7z"/>
					</g>
				</g>
				<g>
					<g>
						<path class="st1" d="M22.5,49.8l-0.8-0.8c-3.1-2.7-5.1-4.6-5.1-6.8c0-1.8,1.4-3.3,3.3-3.3c1,0,2,1.1,2.7,1.8
							c0.7-0.8,1.7-1.8,2.7-1.8c1.8,0,3.3,1.4,3.3,3.3c0,2.3-2,4.1-5.1,6.8L22.5,49.8z M22.5,49.8"/>
						<path class="st2" d="M22.5,40.7c-0.7-0.8-1.6-1.8-2.7-1.8c-1.8,0-3.3,1.4-3.3,3.3c0,2.3,2,4.1,5.1,6.8l0.8,0.8V40.7z"/>
					</g>
				</g>
			</g>
			<g>
				<g>
					<g>
						<path class="st1" d="M22.5,64.8L21.7,64c-3.1-2.7-5.1-4.6-5.1-6.8c0-1.8,1.4-3.3,3.3-3.3c1,0,2,1.1,2.7,1.8
							c0.7-0.8,1.7-1.8,2.7-1.8c1.8,0,3.3,1.4,3.3,3.3c0,2.3-2,4.1-5.1,6.8L22.5,64.8z M22.5,64.8"/>
						<path class="st2" d="M22.5,55.8c-0.7-0.8-1.6-1.8-2.7-1.8c-1.8,0-3.3,1.4-3.3,3.3c0,2.3,2,4.1,5.1,6.8l0.8,0.8V55.8z"/>
					</g>
				</g>
				<g>
					<g>
						<path class="st1" d="M46.6,64.8L45.8,64c-3.1-2.7-5.1-4.6-5.1-6.8c0-1.8,1.4-3.3,3.3-3.3c1,0,2,1.1,2.7,1.8
							c0.7-0.8,1.7-1.8,2.7-1.8c1.8,0,3.3,1.4,3.3,3.3c0,2.3-2,4.1-5.1,6.8L46.6,64.8z M46.6,64.8"/>
						<path class="st2" d="M46.6,55.8C46,55,45,53.9,44,53.9c-1.8,0-3.3,1.4-3.3,3.3c0,2.3,2,4.1,5.1,6.8l0.8,0.8V55.8z"/>
					</g>
				</g>
			</g>
			<g>
				<g>
					<g>
						<path class="st1" d="M22.5,79.9l-0.8-0.8c-3.1-2.7-5.1-4.6-5.1-6.8c0-1.8,1.4-3.3,3.3-3.3c1,0,2,1.1,2.7,1.8
							c0.7-0.8,1.7-1.8,2.7-1.8c1.8,0,3.3,1.4,3.3,3.3c0,2.3-2,4.1-5.1,6.8L22.5,79.9z M22.5,79.9"/>
						<path class="st2" d="M22.5,70.8c-0.7-0.8-1.6-1.8-2.7-1.8c-1.8,0-3.3,1.4-3.3,3.3c0,2.3,2,4.1,5.1,6.8l0.8,0.8V70.8z"/>
					</g>
				</g>
				<g>
					<g>
						<path class="st1" d="M46.6,79.9l-0.8-0.8c-3.1-2.7-5.1-4.6-5.1-6.8c0-1.8,1.4-3.3,3.3-3.3c1,0,2,1.1,2.7,1.8
							c0.7-0.8,1.7-1.8,2.7-1.8c1.8,0,3.3,1.4,3.3,3.3c0,2.3-2,4.1-5.1,6.8L46.6,79.9z M46.6,79.9"/>
						<path class="st2" d="M46.6,70.8C46,70.1,45,69,44,69c-1.8,0-3.3,1.4-3.3,3.3c0,2.3,2,4.1,5.1,6.8l0.8,0.8V70.8z"/>
					</g>
				</g>
			</g>
		</g>
		<g>
			<g>
				<path class="st1" d="M34.6,42.6l-0.8-0.8c-3.1-2.7-5.1-4.6-5.1-6.8c0-1.8,1.4-3.3,3.3-3.3c1,0,2,1.1,2.7,1.8
					c0.7-0.8,1.7-1.8,2.7-1.8c1.8,0,3.3,1.4,3.3,3.3c0,2.3-2,4.1-5.1,6.8L34.6,42.6z M34.6,42.6"/>
				<path class="st2" d="M34.5,33.6c-0.7-0.8-1.6-1.8-2.7-1.8c-1.8,0-3.3,1.4-3.3,3.3c0,2.3,2,4.1,5.1,6.8l0.8,0.8V33.6z"/>
			</g>
		</g>
		<g>
			<g>
				<path class="st1" d="M34.6,72.1l-0.8-0.8c-3.1-2.7-5.1-4.6-5.1-6.8c0-1.8,1.4-3.3,3.3-3.3c1,0,2,1.1,2.7,1.8
					c0.7-0.8,1.7-1.8,2.7-1.8c1.8,0,3.3,1.4,3.3,3.3c0,2.3-2,4.1-5.1,6.8L34.6,72.1z M34.6,72.1"/>
				<path class="st2" d="M34.5,63c-0.7-0.8-1.6-1.8-2.7-1.8c-1.8,0-3.3,1.4-3.3,3.3c0,2.3,2,4.1,5.1,6.8l0.8,0.8V63z"/>
			</g>
		</g>
	</g>
</g>
</svg>
