<?xml version="1.0" encoding="utf-8"?>
<!-- Generator: Adobe Illustrator 26.5.0, SVG Export Plug-In . SVG Version: 6.00 Build 0)  -->
<svg version="1.1" id="Layer_1" xmlns="http://www.w3.org/2000/svg" xmlns:xlink="http://www.w3.org/1999/xlink" x="0px" y="0px"
	 viewBox="0 0 69.1 103.7" style="enable-background:new 0 0 69.1 103.7;" xml:space="preserve">
<style type="text/css">
	.st0{fill:#F2F2F2;}
	.st1{fill:#7A2B2B;}
	.st2{fill:#943434;}
</style>
<g>
	<path class="st0" d="M69.1,101c0,1.5-1.2,2.7-2.7,2.7H2.7c-1.5,0-2.7-1.2-2.7-2.7V2.7C0,1.2,1.2,0,2.7,0h63.7
		c1.5,0,2.7,1.2,2.7,2.7V101z"/>
	<g>
		<g>
			<path class="st1" d="M34.6,40.5l-1.1-1.1c-4-3.6-6.7-6-6.7-9c0-2.4,1.9-4.3,4.3-4.3c1.3,0,2.6,1.4,3.5,2.4c0.9-1,2.2-2.4,3.5-2.4
				c2.4,0,4.3,1.9,4.3,4.3c0,3-2.6,5.4-6.7,9L34.6,40.5z M34.6,40.5"/>
			<path class="st2" d="M34.5,28.6c-0.9-1-2.2-2.4-3.5-2.4c-2.4,0-4.3,1.9-4.3,4.3c0,3,2.6,5.4,6.7,9l1.1,1.1V28.6z"/>
		</g>
		<g>
			<path class="st1" d="M34.6,77.5l-1.1-1.1c-4-3.6-6.7-6-6.7-9c0-2.4,1.9-4.3,4.3-4.3c1.3,0,2.6,1.4,3.5,2.4c0.9-1,2.2-2.4,3.5-2.4
				c2.4,0,4.3,1.9,4.3,4.3c0,3-2.6,5.4-6.7,9L34.6,77.5z M34.6,77.5"/>
			<path class="st2" d="M34.5,65.6c-0.9-1-2.2-2.4-3.5-2.4c-2.4,0-4.3,1.9-4.3,4.3c0,3,2.6,5.4,6.7,9l1.1,1.1V65.6z"/>
		</g>
	</g>
	<g>
		<g>
			<path class="st1" d="M59.7,14.9L59,14.2c-2.8-2.5-4.6-4.1-4.6-6.2c0-1.7,1.3-3,3-3c0.9,0,1.8,1,2.4,1.7C60.3,6,61.2,5,62.2,5
				c1.7,0,3,1.3,3,3c0,2.1-1.8,3.7-4.6,6.2L59.7,14.9z M59.7,14.9"/>
			<path class="st2" d="M59.7,6.7C59.1,6,58.2,5,57.3,5c-1.7,0-3,1.3-3,3c0,2.1,1.8,3.7,4.6,6.2l0.7,0.7V6.7z"/>
		</g>
		<g>
			<path class="st1" d="M4,14.9v-0.8l1-1C7.5,10.7,8.6,9.5,8.7,8c0-1-0.5-1.9-1.9-1.9c-0.9,0-1.6,0.4-2.1,0.8L4.2,6
				C4.9,5.4,5.9,5,7,5c2.1,0,3,1.4,3,2.8c0,1.8-1.3,3.3-3.4,5.2l-0.8,0.7v0h4.4v1.1H4z"/>
		</g>
	</g>
	<g>
		<g>
			<path class="st1" d="M9.4,88.8l0.8,0.8c2.8,2.5,4.6,4.1,4.6,6.2c0,1.7-1.3,3-3,3c-0.9,0-1.8-1-2.4-1.7c-0.6,0.7-1.5,1.7-2.4,1.7
				c-1.7,0-3-1.3-3-3c0-2.1,1.8-3.7,4.6-6.2L9.4,88.8z M9.4,88.8"/>
			<path class="st2" d="M9.4,97c0.6,0.7,1.5,1.7,2.4,1.7c1.7,0,3-1.3,3-3c0-2.1-1.8-3.7-4.6-6.2l-0.7-0.7V97z"/>
		</g>
		<g>
			<path class="st1" d="M65.1,88.8v0.8l-1,1c-2.5,2.4-3.6,3.6-3.6,5.1c0,1,0.5,1.9,1.9,1.9c0.9,0,1.6-0.4,2.1-0.8l0.4,0.9
				c-0.7,0.6-1.6,1-2.8,1c-2.1,0-3-1.4-3-2.8c0-1.8,1.3-3.3,3.4-5.2l0.8-0.7v0h-4.4v-1.1H65.1z"/>
		</g>
	</g>
</g>
</svg>
