<?xml version="1.0" encoding="utf-8"?>
<!-- Generator: Adobe Illustrator 26.5.0, SVG Export Plug-In . SVG Version: 6.00 Build 0)  -->
<svg version="1.1" id="Layer_1" xmlns="http://www.w3.org/2000/svg" xmlns:xlink="http://www.w3.org/1999/xlink" x="0px" y="0px"
	 viewBox="0 0 69.1 103.7" style="enable-background:new 0 0 69.1 103.7;" xml:space="preserve">
<style type="text/css">
	.st0{fill:#F2F2F2;}
	.st1{fill:#7A2B2B;}
	.st2{fill:#943434;}
</style>
<g>
	<path class="st0" d="M69.1,101c0,1.5-1.2,2.7-2.7,2.7H2.7c-1.5,0-2.7-1.2-2.7-2.7V2.7C0,1.2,1.2,0,2.7,0h63.7
		c1.5,0,2.7,1.2,2.7,2.7V101z"/>
	<g>
		<g>
			<g>
				<path class="st1" d="M34.6,57.6l-0.9-0.9c-3.2-2.9-5.4-4.8-5.4-7.2c0-1.9,1.5-3.4,3.4-3.4c1.1,0,2.1,1.1,2.8,1.9
					c0.7-0.8,1.7-1.9,2.8-1.9c1.9,0,3.4,1.5,3.4,3.4c0,2.4-2.1,4.3-5.4,7.2L34.6,57.6z M34.6,57.6"/>
				<path class="st2" d="M34.5,48c-0.7-0.8-1.7-1.9-2.8-1.9c-1.9,0-3.4,1.5-3.4,3.4c0,2.4,2.1,4.3,5.4,7.2l0.9,0.9V48z"/>
			</g>
		</g>
		<g>
			<g>
				<path class="st1" d="M47.3,37.7l-0.9-0.9c-3.2-2.9-5.4-4.8-5.4-7.2c0-1.9,1.5-3.4,3.4-3.4c1.1,0,2.1,1.1,2.8,1.9
					c0.7-0.8,1.7-1.9,2.8-1.9c1.9,0,3.4,1.5,3.4,3.4c0,2.4-2.1,4.3-5.4,7.2L47.3,37.7z M47.3,37.7"/>
				<path class="st2" d="M47.3,28.1c-0.7-0.8-1.7-1.9-2.8-1.9c-1.9,0-3.4,1.5-3.4,3.4c0,2.4,2.1,4.3,5.4,7.2l0.9,0.9V28.1z"/>
			</g>
		</g>
		<g>
			<g>
				<path class="st1" d="M21.8,77.5l-0.9-0.9c-3.2-2.9-5.4-4.8-5.4-7.2c0-1.9,1.5-3.4,3.4-3.4c1.1,0,2.1,1.1,2.8,1.9
					c0.7-0.8,1.7-1.9,2.8-1.9c1.9,0,3.4,1.5,3.4,3.4c0,2.4-2.1,4.3-5.4,7.2L21.8,77.5z M21.8,77.5"/>
				<path class="st2" d="M21.8,67.9C21.1,67.1,20,66,19,66c-1.9,0-3.4,1.5-3.4,3.4c0,2.4,2.1,4.3,5.4,7.2l0.9,0.9V67.9z"/>
			</g>
		</g>
	</g>
	<g>
		<g>
			<path class="st1" d="M4.4,13.4C4.7,13.6,5.6,14,6.5,14c1.7,0,2.2-1.1,2.2-1.9c0-1.4-1.2-2-2.5-2H5.5v-1h0.7c1,0,2.2-0.5,2.2-1.7
				c0-0.8-0.5-1.5-1.7-1.5c-0.8,0-1.5,0.3-2,0.6l-0.3-1C4.9,5.4,5.9,5,6.9,5c1.9,0,2.8,1.1,2.8,2.3c0,1-0.6,1.9-1.8,2.3v0
				c1.2,0.2,2.2,1.1,2.2,2.5c0,1.6-1.2,2.9-3.6,2.9c-1.1,0-2.1-0.3-2.5-0.7L4.4,13.4z"/>
		</g>
		<g>
			<path class="st1" d="M59.7,14.9L59,14.2c-2.8-2.5-4.6-4.1-4.6-6.2c0-1.7,1.3-3,3-3c0.9,0,1.8,1,2.4,1.7C60.3,6,61.2,5,62.2,5
				c1.7,0,3,1.3,3,3c0,2-1.8,3.7-4.6,6.2L59.7,14.9z M59.7,14.9"/>
			<path class="st2" d="M59.7,6.7C59.1,6,58.2,5,57.3,5c-1.7,0-3,1.3-3,3c0,2.1,1.8,3.7,4.6,6.2l0.7,0.7V6.7z"/>
		</g>
	</g>
	<g>
		<g>
			<path class="st1" d="M64.8,90.3c-0.4-0.2-1.2-0.6-2.2-0.6c-1.7,0-2.2,1.1-2.2,1.9c0,1.4,1.2,2,2.5,2h0.7v1h-0.7
				c-1,0-2.2,0.5-2.2,1.7c0,0.8,0.5,1.5,1.7,1.5c0.8,0,1.5-0.3,2-0.6l0.3,1c-0.5,0.4-1.5,0.8-2.5,0.8c-1.9,0-2.8-1.1-2.8-2.3
				c0-1,0.6-1.9,1.8-2.3v0C60,93.8,59,92.9,59,91.5c0-1.6,1.2-2.9,3.6-2.9c1.1,0,2.1,0.3,2.5,0.7L64.8,90.3z"/>
		</g>
		<g>
			<path class="st1" d="M9.4,88.8l0.8,0.8c2.8,2.5,4.6,4.1,4.6,6.2c0,1.7-1.3,3-3,3c-0.9,0-1.8-1-2.4-1.7c-0.6,0.7-1.5,1.7-2.4,1.7
				c-1.7,0-3-1.3-3-3c0-2,1.8-3.7,4.6-6.2L9.4,88.8z M9.4,88.8"/>
			<path class="st2" d="M9.4,97c0.6,0.7,1.5,1.7,2.4,1.7c1.7,0,3-1.3,3-3c0-2.1-1.8-3.7-4.6-6.2l-0.7-0.7V97z"/>
		</g>
	</g>
</g>
</svg>
