<?xml version="1.0" encoding="utf-8"?>
<!-- Generator: Adobe Illustrator 26.5.0, SVG Export Plug-In . SVG Version: 6.00 Build 0)  -->
<svg version="1.1" id="Layer_1" xmlns="http://www.w3.org/2000/svg" xmlns:xlink="http://www.w3.org/1999/xlink" x="0px" y="0px"
	 viewBox="0 0 69.1 103.7" style="enable-background:new 0 0 69.1 103.7;" xml:space="preserve">
<style type="text/css">
	.st0{fill:#F2F2F2;}
	.st1{fill:#7A2B2B;}
	.st2{fill:#943434;}
</style>
<g>
	<path class="st0" d="M69.1,101c0,1.5-1.2,2.7-2.7,2.7H2.7c-1.5,0-2.7-1.2-2.7-2.7V2.7C0,1.2,1.2,0,2.7,0h63.7
		c1.5,0,2.7,1.2,2.7,2.7V101z"/>
	<g>
		<g>
			<g>
				<path class="st1" d="M47.3,37.7l-0.9-0.9c-3.2-2.9-5.4-4.8-5.4-7.2c0-1.9,1.5-3.4,3.4-3.4c1.1,0,2.1,1.1,2.8,1.9
					c0.7-0.8,1.7-1.9,2.8-1.9c1.9,0,3.4,1.5,3.4,3.4c0,2.4-2.1,4.3-5.4,7.2L47.3,37.7z M47.3,37.7"/>
				<path class="st2" d="M47.3,28.1c-0.7-0.8-1.7-1.9-2.8-1.9c-1.9,0-3.4,1.5-3.4,3.4c0,2.4,2.1,4.3,5.4,7.2l0.9,0.9V28.1z"/>
			</g>
		</g>
		<g>
			<g>
				<path class="st1" d="M21.8,77.5l-0.9-0.9c-3.2-2.9-5.4-4.8-5.4-7.2c0-1.9,1.5-3.4,3.4-3.4c1.1,0,2.1,1.1,2.8,1.9
					c0.7-0.8,1.7-1.9,2.8-1.9c1.9,0,3.4,1.5,3.4,3.4c0,2.4-2.1,4.3-5.4,7.2L21.8,77.5z M21.8,77.5"/>
				<path class="st2" d="M21.8,67.9C21.1,67.1,20,66,19,66c-1.9,0-3.4,1.5-3.4,3.4c0,2.4,2.1,4.3,5.4,7.2l0.9,0.9V67.9z"/>
			</g>
		</g>
		<g>
			<g>
				<path class="st1" d="M21.8,37.7l-0.9-0.9c-3.2-2.9-5.4-4.8-5.4-7.2c0-1.9,1.5-3.4,3.4-3.4c1.1,0,2.1,1.1,2.8,1.9
					c0.7-0.8,1.7-1.9,2.8-1.9c1.9,0,3.4,1.5,3.4,3.4c0,2.4-2.1,4.3-5.4,7.2L21.8,37.7z M21.8,37.7"/>
				<path class="st2" d="M21.8,28.1c-0.7-0.8-1.7-1.9-2.8-1.9c-1.9,0-3.4,1.5-3.4,3.4c0,2.4,2.1,4.3,5.4,7.2l0.9,0.9V28.1z"/>
			</g>
		</g>
		<g>
			<g>
				<path class="st1" d="M47.3,57.6l-0.9-0.9c-3.2-2.9-5.4-4.8-5.4-7.2c0-1.9,1.5-3.4,3.4-3.4c1.1,0,2.1,1.1,2.8,1.9
					c0.7-0.8,1.7-1.9,2.8-1.9c1.9,0,3.4,1.5,3.4,3.4c0,2.4-2.1,4.3-5.4,7.2L47.3,57.6z M47.3,57.6"/>
				<path class="st2" d="M47.3,48c-0.7-0.8-1.7-1.9-2.8-1.9c-1.9,0-3.4,1.5-3.4,3.4c0,2.4,2.1,4.3,5.4,7.2l0.9,0.9V48z"/>
			</g>
		</g>
		<g>
			<g>
				<path class="st1" d="M21.8,57.6l-0.9-0.9c-3.2-2.9-5.4-4.8-5.4-7.2c0-1.9,1.5-3.4,3.4-3.4c1.1,0,2.1,1.1,2.8,1.9
					c0.7-0.8,1.7-1.9,2.8-1.9c1.9,0,3.4,1.5,3.4,3.4c0,2.4-2.1,4.3-5.4,7.2L21.8,57.6z M21.8,57.6"/>
				<path class="st2" d="M21.8,48c-0.7-0.8-1.7-1.9-2.8-1.9c-1.9,0-3.4,1.5-3.4,3.4c0,2.4,2.1,4.3,5.4,7.2l0.9,0.9V48z"/>
			</g>
		</g>
		<g>
			<g>
				<path class="st1" d="M47.3,77.5l-0.9-0.9c-3.2-2.9-5.4-4.8-5.4-7.2c0-1.9,1.5-3.4,3.4-3.4c1.1,0,2.1,1.1,2.8,1.9
					C48,67.1,49,66,50.1,66c1.9,0,3.4,1.5,3.4,3.4c0,2.4-2.1,4.3-5.4,7.2L47.3,77.5z M47.3,77.5"/>
				<path class="st2" d="M47.3,67.9c-0.7-0.8-1.7-1.9-2.8-1.9c-1.9,0-3.4,1.5-3.4,3.4c0,2.4,2.1,4.3,5.4,7.2l0.9,0.9V67.9z"/>
			</g>
		</g>
	</g>
	<g>
		<g>
			<path class="st1" d="M9.7,6.1c-0.3,0-0.6,0-1,0.1C6.7,6.5,5.6,8,5.4,9.6h0C5.9,9,6.7,8.5,7.7,8.5c1.7,0,2.9,1.2,2.9,3.2
				c0,1.8-1.2,3.4-3.2,3.4c-2.1,0-3.5-1.6-3.5-4.2C4,9,4.7,7.5,5.6,6.5c0.8-0.8,1.9-1.3,3.1-1.4C9.2,5,9.5,5,9.7,5V6.1z M9.4,11.7
				c0-1.4-0.8-2.2-2-2.2c-0.8,0-1.5,0.5-1.9,1.2c-0.1,0.1-0.1,0.3-0.1,0.6c0,1.6,0.8,2.8,2.1,2.8C8.6,14,9.4,13.1,9.4,11.7z"/>
		</g>
		<g>
			<path class="st1" d="M59.7,15.1l-0.8-0.8c-2.8-2.5-4.7-4.2-4.7-6.3c0-1.7,1.3-3,3-3c0.9,0,1.9,1,2.5,1.7C60.3,6,61.2,5,62.1,5
				c1.7,0,3,1.3,3,3c0,2.1-1.9,3.8-4.7,6.3L59.7,15.1z M59.7,15.1"/>
			<path class="st2" d="M59.6,6.7C59,6,58.1,5,57.2,5c-1.7,0-3,1.3-3,3c0,2.1,1.9,3.8,4.7,6.3l0.8,0.8V6.7z"/>
		</g>
	</g>
	<g>
		<g>
			<path class="st1" d="M59.4,97.6c0.3,0,0.6,0,1-0.1c2.1-0.3,3.2-1.9,3.4-3.5h0c-0.5,0.6-1.3,1.1-2.4,1.1c-1.7,0-2.9-1.2-2.9-3.2
				c0-1.8,1.2-3.4,3.2-3.4c2.1,0,3.5,1.6,3.5,4.2c0,1.9-0.7,3.4-1.6,4.4c-0.8,0.8-1.9,1.3-3.1,1.4c-0.4,0.1-0.7,0.1-1,0.1V97.6z
				 M59.8,92c0,1.4,0.8,2.2,2,2.2c0.8,0,1.5-0.5,1.9-1.2c0.1-0.1,0.1-0.3,0.1-0.6c0-1.6-0.8-2.8-2.1-2.8
				C60.5,89.6,59.8,90.6,59.8,92z"/>
		</g>
		<g>
			<path class="st1" d="M9.5,88.6l0.8,0.8c2.8,2.5,4.7,4.2,4.7,6.3c0,1.7-1.3,3-3,3c-0.9,0-1.9-1-2.5-1.7c-0.6,0.7-1.5,1.7-2.5,1.7
				c-1.7,0-3-1.3-3-3c0-2.1,1.9-3.8,4.7-6.3L9.5,88.6z M9.5,88.6"/>
			<path class="st2" d="M9.5,97c0.6,0.7,1.5,1.7,2.5,1.7c1.7,0,3-1.3,3-3c0-2.1-1.9-3.8-4.7-6.3l-0.8-0.8V97z"/>
		</g>
	</g>
</g>
</svg>
