<?xml version="1.0" encoding="utf-8"?>
<!-- Generator: Adobe Illustrator 26.5.0, SVG Export Plug-In . SVG Version: 6.00 Build 0)  -->
<svg version="1.1" id="Layer_1" xmlns="http://www.w3.org/2000/svg" xmlns:xlink="http://www.w3.org/1999/xlink" x="0px" y="0px"
	 viewBox="0 0 69.1 103.7" style="enable-background:new 0 0 69.1 103.7;" xml:space="preserve">
<style type="text/css">
	.st0{fill:#F2F2F2;}
	.st1{fill:#7A2B2B;}
	.st2{fill:#943434;}
</style>
<g>
	<path class="st0" d="M69.1,101c0,1.5-1.2,2.7-2.7,2.7H2.7c-1.5,0-2.7-1.2-2.7-2.7V2.7C0,1.2,1.2,0,2.7,0h63.7
		c1.5,0,2.7,1.2,2.7,2.7V101z"/>
	<g>
		<g>
			<path class="st1" d="M10.2,5v0.9l-4.2,8.9H4.5l4.2-8.6v0H4V5H10.2z"/>
		</g>
		<g>
			<path class="st1" d="M59.8,14.8L59.1,14c-2.8-2.4-4.6-4.1-4.6-6.1c0-1.6,1.3-2.9,2.9-2.9c0.9,0,1.8,1,2.4,1.7
				C60.4,6,61.3,5,62.2,5c1.6,0,2.9,1.3,2.9,2.9c0,2-1.8,3.7-4.6,6.1L59.8,14.8z M59.8,14.8"/>
			<path class="st2" d="M59.8,6.6C59.2,6,58.3,5,57.4,5c-1.6,0-2.9,1.3-2.9,2.9c0,2,1.8,3.7,4.6,6.1l0.7,0.7V6.6z"/>
		</g>
	</g>
	<g>
		<g>
			<path class="st1" d="M59,98.7v-0.9l4.2-8.9h1.4l-4.2,8.6v0h4.8v1.1H59z"/>
		</g>
		<g>
			<path class="st1" d="M9.3,88.9l0.7,0.7c2.8,2.4,4.6,4.1,4.6,6.1c0,1.6-1.3,2.9-2.9,2.9c-0.9,0-1.8-1-2.4-1.7
				c-0.6,0.7-1.5,1.7-2.4,1.7c-1.6,0-2.9-1.3-2.9-2.9c0-2,1.8-3.7,4.6-6.1L9.3,88.9z M9.3,88.9"/>
			<path class="st2" d="M9.3,97c0.6,0.7,1.5,1.6,2.4,1.6c1.6,0,2.9-1.3,2.9-2.9c0-2-1.8-3.7-4.6-6.1l-0.7-0.7V97z"/>
		</g>
	</g>
	<g>
		<g>
			<g>
				<path class="st1" d="M47.3,37.7l-0.9-0.9c-3.2-2.9-5.4-4.8-5.4-7.2c0-1.9,1.5-3.4,3.4-3.4c1.1,0,2.1,1.1,2.8,1.9
					c0.7-0.8,1.7-1.9,2.8-1.9c1.9,0,3.4,1.5,3.4,3.4c0,2.4-2.1,4.3-5.4,7.2L47.3,37.7z M47.3,37.7"/>
				<path class="st2" d="M47.3,28.1c-0.7-0.8-1.7-1.9-2.8-1.9c-1.9,0-3.4,1.5-3.4,3.4c0,2.4,2.1,4.3,5.4,7.2l0.9,0.9V28.1z"/>
			</g>
		</g>
		<g>
			<g>
				<path class="st1" d="M21.8,77.5l-0.9-0.9c-3.2-2.9-5.4-4.8-5.4-7.2c0-1.9,1.5-3.4,3.4-3.4c1.1,0,2.1,1.1,2.8,1.9
					c0.7-0.8,1.7-1.9,2.8-1.9c1.9,0,3.4,1.5,3.4,3.4c0,2.4-2.1,4.3-5.4,7.2L21.8,77.5z M21.8,77.5"/>
				<path class="st2" d="M21.8,67.9C21.1,67.1,20,66,19,66c-1.9,0-3.4,1.5-3.4,3.4c0,2.4,2.1,4.3,5.4,7.2l0.9,0.9V67.9z"/>
			</g>
		</g>
		<g>
			<g>
				<path class="st1" d="M21.8,37.7l-0.9-0.9c-3.2-2.9-5.4-4.8-5.4-7.2c0-1.9,1.5-3.4,3.4-3.4c1.1,0,2.1,1.1,2.8,1.9
					c0.7-0.8,1.7-1.9,2.8-1.9c1.9,0,3.4,1.5,3.4,3.4c0,2.4-2.1,4.3-5.4,7.2L21.8,37.7z M21.8,37.7"/>
				<path class="st2" d="M21.8,28.1c-0.7-0.8-1.7-1.9-2.8-1.9c-1.9,0-3.4,1.5-3.4,3.4c0,2.4,2.1,4.3,5.4,7.2l0.9,0.9V28.1z"/>
			</g>
		</g>
		<g>
			<g>
				<path class="st1" d="M47.3,57.6l-0.9-0.9c-3.2-2.9-5.4-4.8-5.4-7.2c0-1.9,1.5-3.4,3.4-3.4c1.1,0,2.1,1.1,2.8,1.9
					c0.7-0.8,1.7-1.9,2.8-1.9c1.9,0,3.4,1.5,3.4,3.4c0,2.4-2.1,4.3-5.4,7.2L47.3,57.6z M47.3,57.6"/>
				<path class="st2" d="M47.3,48c-0.7-0.8-1.7-1.9-2.8-1.9c-1.9,0-3.4,1.5-3.4,3.4c0,2.4,2.1,4.3,5.4,7.2l0.9,0.9V48z"/>
			</g>
		</g>
		<g>
			<g>
				<path class="st1" d="M21.8,57.6l-0.9-0.9c-3.2-2.9-5.4-4.8-5.4-7.2c0-1.9,1.5-3.4,3.4-3.4c1.1,0,2.1,1.1,2.8,1.9
					c0.7-0.8,1.7-1.9,2.8-1.9c1.9,0,3.4,1.5,3.4,3.4c0,2.4-2.1,4.3-5.4,7.2L21.8,57.6z M21.8,57.6"/>
				<path class="st2" d="M21.8,48c-0.7-0.8-1.7-1.9-2.8-1.9c-1.9,0-3.4,1.5-3.4,3.4c0,2.4,2.1,4.3,5.4,7.2l0.9,0.9V48z"/>
			</g>
		</g>
		<g>
			<g>
				<path class="st1" d="M47.3,77.5l-0.9-0.9c-3.2-2.9-5.4-4.8-5.4-7.2c0-1.9,1.5-3.4,3.4-3.4c1.1,0,2.1,1.1,2.8,1.9
					C48,67.1,49,66,50.1,66c1.9,0,3.4,1.5,3.4,3.4c0,2.4-2.1,4.3-5.4,7.2L47.3,77.5z M47.3,77.5"/>
				<path class="st2" d="M47.3,67.9c-0.7-0.8-1.7-1.9-2.8-1.9c-1.9,0-3.4,1.5-3.4,3.4c0,2.4,2.1,4.3,5.4,7.2l0.9,0.9V67.9z"/>
			</g>
		</g>
		<g>
			<g>
				<path class="st1" d="M34.6,46.7l-0.9-0.9c-3.2-2.9-5.4-4.8-5.4-7.2c0-1.9,1.5-3.4,3.4-3.4c1.1,0,2.1,1.1,2.8,1.9
					c0.7-0.8,1.7-1.9,2.8-1.9c1.9,0,3.4,1.5,3.4,3.4c0,2.4-2.1,4.3-5.4,7.2L34.6,46.7z M34.6,46.7"/>
				<path class="st2" d="M34.5,37.1c-0.7-0.8-1.7-1.9-2.8-1.9c-1.9,0-3.4,1.5-3.4,3.4c0,2.4,2.1,4.3,5.4,7.2l0.9,0.9V37.1z"/>
			</g>
		</g>
	</g>
</g>
</svg>
