<?xml version="1.0" encoding="utf-8"?>
<!-- Generator: Adobe Illustrator 26.5.0, SVG Export Plug-In . SVG Version: 6.00 Build 0)  -->
<svg version="1.1" id="Layer_1" xmlns="http://www.w3.org/2000/svg" xmlns:xlink="http://www.w3.org/1999/xlink" x="0px" y="0px"
	 viewBox="0 0 69.1 103.7" style="enable-background:new 0 0 69.1 103.7;" xml:space="preserve">
<style type="text/css">
	.st0{fill:#F2F2F2;}
	.st1{fill:#7A2B2B;}
	.st2{fill:#943434;}
</style>
<g>
	<path class="st0" d="M69.1,101c0,1.5-1.2,2.7-2.7,2.7H2.7c-1.5,0-2.7-1.2-2.7-2.7V2.7C0,1.2,1.2,0,2.7,0h63.7
		c1.5,0,2.7,1.2,2.7,2.7V101z"/>
	<g>
		<g>
			<path class="st1" d="M4.8,14c0.3,0,0.6,0,1.1,0c0.8-0.1,1.5-0.4,2-0.9c0.6-0.6,1.1-1.4,1.3-2.6h0c-0.5,0.7-1.3,1-2.3,1
				c-1.8,0-2.9-1.3-2.9-3C4,6.6,5.3,5,7.3,5c2,0,3.2,1.6,3.2,4.1c0,2.1-0.7,3.6-1.7,4.6C8.1,14.4,7.1,14.9,6,15
				c-0.5,0.1-0.9,0.1-1.2,0.1V14z M5.3,8.4c0,1.2,0.7,2.1,1.9,2.1c0.9,0,1.6-0.4,1.9-1c0.1-0.1,0.1-0.3,0.1-0.5c0-1.7-0.6-2.9-2-2.9
				C6.1,6,5.3,7,5.3,8.4z"/>
		</g>
		<g>
			<path class="st1" d="M59.7,15.1l-0.8-0.8c-2.8-2.5-4.7-4.2-4.7-6.3c0-1.7,1.3-3,3-3c0.9,0,1.9,1,2.5,1.7C60.3,6,61.2,5,62.1,5
				c1.7,0,3,1.3,3,3c0,2.1-1.9,3.8-4.7,6.3L59.7,15.1z M59.7,15.1"/>
			<path class="st2" d="M59.6,6.7C59,6,58.1,5,57.2,5c-1.7,0-3,1.3-3,3c0,2.1,1.9,3.8,4.7,6.3l0.8,0.8V6.7z"/>
		</g>
	</g>
	<g>
		<g>
			<path class="st1" d="M64.3,89.7c-0.3,0-0.6,0-1.1,0c-0.8,0.1-1.5,0.4-2,0.9c-0.6,0.6-1.1,1.4-1.3,2.6h0c0.5-0.7,1.3-1,2.3-1
				c1.8,0,2.9,1.3,2.9,3c0,1.8-1.3,3.5-3.3,3.5c-2,0-3.2-1.6-3.2-4.1c0-2.1,0.7-3.6,1.7-4.6c0.8-0.7,1.8-1.2,2.8-1.3
				c0.5-0.1,0.9-0.1,1.2-0.1V89.7z M63.8,95.3c0-1.2-0.7-2.1-1.9-2.1c-0.9,0-1.6,0.4-1.9,1c-0.1,0.1-0.1,0.3-0.1,0.5
				c0,1.7,0.6,2.9,2,2.9C63,97.7,63.8,96.7,63.8,95.3z"/>
		</g>
		<g>
			<path class="st1" d="M9.5,88.6l0.8,0.8c2.8,2.5,4.7,4.2,4.7,6.3c0,1.7-1.3,3-3,3c-0.9,0-1.9-1-2.5-1.7c-0.6,0.7-1.5,1.7-2.5,1.7
				c-1.7,0-3-1.3-3-3c0-2.1,1.9-3.8,4.7-6.3L9.5,88.6z M9.5,88.6"/>
			<path class="st2" d="M9.5,97c0.6,0.7,1.5,1.7,2.5,1.7c1.7,0,3-1.3,3-3c0-2.1-1.9-3.8-4.7-6.3l-0.8-0.8V97z"/>
		</g>
	</g>
	<g>
		<g>
			<g>
				<g>
					<g>
						<path class="st1" d="M47.3,33.7l-0.9-0.9c-3.2-2.9-5.4-4.8-5.4-7.2c0-1.9,1.5-3.4,3.4-3.4c1.1,0,2.1,1.1,2.8,1.9
							c0.7-0.8,1.7-1.9,2.8-1.9c1.9,0,3.4,1.5,3.4,3.4c0,2.4-2.1,4.3-5.4,7.2L47.3,33.7z M47.3,33.7"/>
						<path class="st2" d="M47.3,24.2c-0.7-0.8-1.7-1.9-2.8-1.9c-1.9,0-3.4,1.5-3.4,3.4c0,2.4,2.1,4.3,5.4,7.2l0.9,0.9V24.2z"/>
					</g>
				</g>
				<g>
					<g>
						<path class="st1" d="M21.8,33.7l-0.9-0.9c-3.2-2.9-5.4-4.8-5.4-7.2c0-1.9,1.5-3.4,3.4-3.4c1.1,0,2.1,1.1,2.8,1.9
							c0.7-0.8,1.7-1.9,2.8-1.9c1.9,0,3.4,1.5,3.4,3.4c0,2.4-2.1,4.3-5.4,7.2L21.8,33.7z M21.8,33.7"/>
						<path class="st2" d="M21.8,24.2c-0.7-0.8-1.7-1.9-2.8-1.9c-1.9,0-3.4,1.5-3.4,3.4c0,2.4,2.1,4.3,5.4,7.2l0.9,0.9V24.2z"/>
					</g>
				</g>
			</g>
			<g>
				<g>
					<g>
						<path class="st1" d="M47.3,49.6l-0.9-0.9c-3.2-2.9-5.4-4.8-5.4-7.2c0-1.9,1.5-3.4,3.4-3.4c1.1,0,2.1,1.1,2.8,1.9
							c0.7-0.8,1.7-1.9,2.8-1.9c1.9,0,3.4,1.5,3.4,3.4c0,2.4-2.1,4.3-5.4,7.2L47.3,49.6z M47.3,49.6"/>
						<path class="st2" d="M47.3,40.1c-0.7-0.8-1.7-1.9-2.8-1.9c-1.9,0-3.4,1.5-3.4,3.4c0,2.4,2.1,4.3,5.4,7.2l0.9,0.9V40.1z"/>
					</g>
				</g>
				<g>
					<g>
						<path class="st1" d="M21.8,49.6l-0.9-0.9c-3.2-2.9-5.4-4.8-5.4-7.2c0-1.9,1.5-3.4,3.4-3.4c1.1,0,2.1,1.1,2.8,1.9
							c0.7-0.8,1.7-1.9,2.8-1.9c1.9,0,3.4,1.5,3.4,3.4c0,2.4-2.1,4.3-5.4,7.2L21.8,49.6z M21.8,49.6"/>
						<path class="st2" d="M21.8,40.1c-0.7-0.8-1.7-1.9-2.8-1.9c-1.9,0-3.4,1.5-3.4,3.4c0,2.4,2.1,4.3,5.4,7.2l0.9,0.9V40.1z"/>
					</g>
				</g>
			</g>
			<g>
				<g>
					<g>
						<path class="st1" d="M21.8,65.5l-0.9-0.9c-3.2-2.9-5.4-4.8-5.4-7.2c0-1.9,1.5-3.4,3.4-3.4c1.1,0,2.1,1.1,2.8,1.9
							c0.7-0.8,1.7-1.9,2.8-1.9c1.9,0,3.4,1.5,3.4,3.4c0,2.4-2.1,4.3-5.4,7.2L21.8,65.5z M21.8,65.5"/>
						<path class="st2" d="M21.8,56C21.1,55.2,20.1,54,19,54c-1.9,0-3.4,1.5-3.4,3.4c0,2.4,2.1,4.3,5.4,7.2l0.9,0.9V56z"/>
					</g>
				</g>
				<g>
					<g>
						<path class="st1" d="M47.3,65.5l-0.9-0.9c-3.2-2.9-5.4-4.8-5.4-7.2c0-1.9,1.5-3.4,3.4-3.4c1.1,0,2.1,1.1,2.8,1.9
							c0.7-0.8,1.7-1.9,2.8-1.9c1.9,0,3.4,1.5,3.4,3.4c0,2.4-2.1,4.3-5.4,7.2L47.3,65.5z M47.3,65.5"/>
						<path class="st2" d="M47.3,56c-0.7-0.8-1.7-1.9-2.8-1.9c-1.9,0-3.4,1.5-3.4,3.4c0,2.4,2.1,4.3,5.4,7.2l0.9,0.9V56z"/>
					</g>
				</g>
			</g>
			<g>
				<g>
					<g>
						<path class="st1" d="M21.8,81.4l-0.9-0.9c-3.2-2.9-5.4-4.8-5.4-7.2c0-1.9,1.5-3.4,3.4-3.4c1.1,0,2.1,1.1,2.8,1.9
							c0.7-0.8,1.7-1.9,2.8-1.9c1.9,0,3.4,1.5,3.4,3.4c0,2.4-2.1,4.3-5.4,7.2L21.8,81.4z M21.8,81.4"/>
						<path class="st2" d="M21.8,71.9C21.1,71.1,20.1,70,19,70c-1.9,0-3.4,1.5-3.4,3.4c0,2.4,2.1,4.3,5.4,7.2l0.9,0.9V71.9z"/>
					</g>
				</g>
				<g>
					<g>
						<path class="st1" d="M47.3,81.4l-0.9-0.9c-3.2-2.9-5.4-4.8-5.4-7.2c0-1.9,1.5-3.4,3.4-3.4c1.1,0,2.1,1.1,2.8,1.9
							c0.7-0.8,1.7-1.9,2.8-1.9c1.9,0,3.4,1.5,3.4,3.4c0,2.4-2.1,4.3-5.4,7.2L47.3,81.4z M47.3,81.4"/>
						<path class="st2" d="M47.3,71.9c-0.7-0.8-1.7-1.9-2.8-1.9c-1.9,0-3.4,1.5-3.4,3.4c0,2.4,2.1,4.3,5.4,7.2l0.9,0.9V71.9z"/>
					</g>
				</g>
			</g>
		</g>
		<g>
			<g>
				<path class="st1" d="M34.6,57.6l-0.9-0.9c-3.2-2.9-5.4-4.8-5.4-7.2c0-1.9,1.5-3.4,3.4-3.4c1.1,0,2.1,1.1,2.8,1.9
					c0.7-0.8,1.7-1.9,2.8-1.9c1.9,0,3.4,1.5,3.4,3.4c0,2.4-2.1,4.3-5.4,7.2L34.6,57.6z M34.6,57.6"/>
				<path class="st2" d="M34.5,48c-0.7-0.8-1.7-1.9-2.8-1.9c-1.9,0-3.4,1.5-3.4,3.4c0,2.4,2.1,4.3,5.4,7.2l0.9,0.9V48z"/>
			</g>
		</g>
	</g>
</g>
</svg>
