<?xml version="1.0" encoding="utf-8"?>
<!-- Generator: Adobe Illustrator 26.5.0, SVG Export Plug-In . SVG Version: 6.00 Build 0)  -->
<svg version="1.1" id="Layer_1" xmlns="http://www.w3.org/2000/svg" xmlns:xlink="http://www.w3.org/1999/xlink" x="0px" y="0px"
	 viewBox="0 0 69.1 103.7" style="enable-background:new 0 0 69.1 103.7;" xml:space="preserve">
<style type="text/css">
	.st0{fill:#F2F2F2;}
	.st1{fill:#7A2B2B;}
	.st2{fill:#943434;}
</style>
<g>
	<path class="st0" d="M69.1,101c0,1.5-1.2,2.7-2.7,2.7H2.7c-1.5,0-2.7-1.2-2.7-2.7V2.7C0,1.2,1.2,0,2.7,0h63.7
		c1.5,0,2.7,1.2,2.7,2.7V101z"/>
	<g>
		<path class="st1" d="M34.6,69.3l-2.7-2.7C22,57.9,15.6,52,15.6,44.8c0-5.9,4.6-10.4,10.4-10.4c3.2,0,6.5,3.5,8.6,5.9
			c2.1-2.5,5.3-5.9,8.6-5.9c5.9,0,10.4,4.6,10.4,10.4c0,7.2-6.5,13.1-16.3,21.9L34.6,69.3z M34.6,69.3"/>
		<path class="st2" d="M34.5,40.3c-2.1-2.5-5.3-5.9-8.5-5.9c-5.9,0-10.4,4.6-10.4,10.4c0,7.2,6.5,13.1,16.3,21.9l2.6,2.6V40.3z"/>
	</g>
	<g>
		<path class="st1" d="M60.1,13.9l-0.7-0.7c-2.6-2.3-4.3-3.8-4.3-5.8c0-1.5,1.2-2.7,2.7-2.7c0.9,0,1.7,0.9,2.3,1.6
			c0.5-0.6,1.4-1.6,2.3-1.6c1.5,0,2.7,1.2,2.7,2.7c0,1.9-1.7,3.5-4.3,5.8L60.1,13.9z M60.1,13.9"/>
		<path class="st2" d="M60.1,6.2c-0.5-0.6-1.4-1.5-2.2-1.5c-1.5,0-2.7,1.2-2.7,2.7c0,1.9,1.7,3.5,4.3,5.8l0.7,0.7V6.2z"/>
	</g>
	<g>
		<path class="st1" d="M9,89.8l0.7,0.7c2.6,2.3,4.3,3.8,4.3,5.8c0,1.5-1.2,2.7-2.7,2.7c-0.9,0-1.7-0.9-2.3-1.6
			C8.5,98.1,7.6,99,6.7,99C5.2,99,4,97.8,4,96.3c0-1.9,1.7-3.5,4.3-5.8L9,89.8z M9,89.8"/>
		<path class="st2" d="M9,97.5c0.5,0.6,1.4,1.5,2.2,1.5c1.5,0,2.7-1.2,2.7-2.7c0-1.9-1.7-3.5-4.3-5.8L9,89.8V97.5z"/>
	</g>
	<g>
		<path class="st1" d="M6.4,11.6l-1,3.2H4L7.4,4.7H9l3.4,10.1h-1.4L10,11.6H6.4z M9.7,10.6l-1-2.9C8.5,7,8.3,6.4,8.2,5.8h0
			C8,6.4,7.9,7,7.7,7.6l-1,2.9H9.7z"/>
	</g>
	<g>
		<path class="st1" d="M62.7,92.1l1-3.2h1.4L61.7,99h-1.6l-3.4-10.1h1.4l1.1,3.2H62.7z M59.4,93.1l1,2.9c0.2,0.7,0.4,1.3,0.5,1.8h0
			c0.1-0.6,0.3-1.2,0.5-1.8l1-2.9H59.4z"/>
	</g>
</g>
</svg>
