<?xml version="1.0" encoding="utf-8"?>
<!-- Generator: Adobe Illustrator 26.5.0, SVG Export Plug-In . SVG Version: 6.00 Build 0)  -->
<svg version="1.1" id="Layer_1" xmlns="http://www.w3.org/2000/svg" xmlns:xlink="http://www.w3.org/1999/xlink" x="0px" y="0px"
	 viewBox="0 0 69.1 103.7" style="enable-background:new 0 0 69.1 103.7;" xml:space="preserve">
<style type="text/css">
	.st0{fill:#F2F2F2;}
	.st1{fill:#333333;}
	.st2{fill:#4D4D4D;}
</style>
<g>
	<path class="st0" d="M69.1,101c0,1.5-1.2,2.7-2.7,2.7H2.7c-1.5,0-2.7-1.2-2.7-2.7V2.7C0,1.2,1.2,0,2.7,0h63.7
		c1.5,0,2.7,1.2,2.7,2.7V101z"/>
	<g>
		<g>
			<path class="st1" d="M62.5,6.7c-0.6-0.5-1.2-1-1.7-1.6C60.7,5.1,60.6,5,60.5,5h0c-0.1,0-0.2,0.1-0.3,0.2
				c-0.5,0.6-1.1,1.1-1.7,1.6c-1.3,1-2.6,2.1-2.6,3.8c0,1.5,1.1,2.6,2.6,2.6c0.7,0,1.4-0.4,1.8-0.8c-0.2,0.9-0.6,2-1.3,2.8h3.2
				c-0.7-0.8-1.1-1.9-1.3-2.8c0.4,0.4,1.1,0.8,1.8,0.8c1.5,0,2.6-1.1,2.6-2.6C65.1,8.9,63.8,7.8,62.5,6.7z"/>
			<path class="st2" d="M60.5,15.1V5h0c-0.1,0-0.2,0.1-0.3,0.2c-0.5,0.6-1.1,1.1-1.7,1.6c-1.3,1-2.6,2.1-2.6,3.8
				c0,1.5,1.1,2.6,2.6,2.6c0.7,0,1.4-0.4,1.8-0.8c-0.2,0.9-0.6,2-1.3,2.8H60.5z"/>
		</g>
		<g>
			<path class="st1" d="M6,6.4L6,6.4L4.3,7.3L4,6.3l2.1-1.1h1.1v9.8H6V6.4z"/>
			<path class="st1" d="M17.3,9.9c0,3.3-1.2,5.1-3.4,5.1c-1.9,0-3.2-1.8-3.2-5c0-3.3,1.4-5.1,3.4-5.1C16.1,5,17.3,6.8,17.3,9.9z
				 M12,10.1c0,2.5,0.8,4,2,4c1.4,0,2-1.6,2-4.1c0-2.4-0.6-4-2-4C12.8,6,12,7.4,12,10.1z"/>
		</g>
	</g>
	<g>
		<g>
			<path class="st1" d="M6.6,96c0.6,0.5,1.2,1,1.7,1.6c0.1,0.1,0.2,0.2,0.3,0.2h0c0.1,0,0.2-0.1,0.3-0.2c0.5-0.6,1.1-1.1,1.7-1.6
				c1.3-1,2.6-2.1,2.6-3.8c0-1.5-1.1-2.6-2.6-2.6c-0.7,0-1.4,0.4-1.8,0.8c0.2-0.9,0.6-2,1.3-2.8H7.1c0.7,0.8,1.1,1.9,1.3,2.8
				C8,90,7.3,89.6,6.6,89.6c-1.5,0-2.6,1.1-2.6,2.6C4,93.8,5.3,94.9,6.6,96z"/>
			<path class="st2" d="M8.7,87.6v10.1h0c0.1,0,0.2-0.1,0.3-0.2c0.5-0.6,1.1-1.1,1.7-1.6c1.3-1,2.6-2.1,2.6-3.8
				c0-1.5-1.1-2.6-2.6-2.6c-0.7,0-1.4,0.4-1.8,0.8c0.2-0.9,0.6-2,1.3-2.8H8.7z"/>
		</g>
		<g>
			<path class="st1" d="M63.1,96.3L63.1,96.3l1.7-0.9l0.3,1L63,97.5h-1.1v-9.8h1.3V96.3z"/>
			<path class="st1" d="M51.8,92.8c0-3.3,1.2-5.1,3.4-5.1c1.9,0,3.2,1.8,3.2,5c0,3.3-1.4,5.1-3.4,5.1C53,97.7,51.8,95.9,51.8,92.8z
				 M57.1,92.6c0-2.5-0.8-4-2-4c-1.4,0-2,1.6-2,4.1c0,2.4,0.6,4,2,4C56.3,96.7,57.1,95.3,57.1,92.6z"/>
		</g>
	</g>
	<g>
		<g>
			<g>
				<path class="st1" d="M24.3,24.5c-0.7-0.6-1.4-1.2-2-1.8c-0.1-0.1-0.2-0.2-0.4-0.2h0c-0.1,0-0.3,0.1-0.4,0.2
					c-0.6,0.7-1.3,1.3-2,1.8c-1.5,1.2-3,2.5-3,4.4c0,1.8,1.2,3,3,3c0.9,0,1.6-0.5,2.1-1c-0.2,1-0.7,2.3-1.6,3.2h3.7
					c-0.9-1-1.3-2.2-1.6-3.2c0.5,0.5,1.3,1,2.1,1c1.8,0,3-1.2,3-3C27.3,27,25.8,25.7,24.3,24.5z"/>
				<path class="st2" d="M21.9,34.2V22.5l0,0c-0.1,0-0.3,0.1-0.4,0.2c-0.6,0.7-1.3,1.3-2,1.8c-1.5,1.2-3,2.5-3,4.4c0,1.8,1.2,3,3,3
					c0.9,0,1.6-0.5,2.1-1c-0.2,1-0.7,2.3-1.6,3.2H21.9z"/>
			</g>
			<g>
				<path class="st1" d="M49.5,24.5c-0.7-0.6-1.4-1.2-2-1.8c-0.1-0.1-0.2-0.2-0.4-0.2h0c-0.1,0-0.3,0.1-0.4,0.2
					c-0.6,0.7-1.3,1.3-2,1.8c-1.5,1.2-3,2.5-3,4.4c0,1.8,1.2,3,3,3c0.9,0,1.6-0.5,2.1-1c-0.2,1-0.7,2.3-1.6,3.2H49
					c-0.9-1-1.3-2.2-1.6-3.2c0.5,0.5,1.3,1,2.1,1c1.8,0,3-1.2,3-3C52.5,27,51,25.7,49.5,24.5z"/>
				<path class="st2" d="M47.1,34.2V22.5h0c-0.1,0-0.3,0.1-0.4,0.2c-0.6,0.7-1.3,1.3-2,1.8c-1.5,1.2-3,2.5-3,4.4c0,1.8,1.2,3,3,3
					c0.9,0,1.6-0.5,2.1-1c-0.2,1-0.7,2.3-1.6,3.2H47.1z"/>
			</g>
		</g>
		<g>
			<g>
				<path class="st1" d="M24.3,39.9c-0.7-0.6-1.4-1.2-2-1.8c-0.1-0.1-0.2-0.2-0.4-0.2h0c-0.1,0-0.3,0.1-0.4,0.2
					c-0.6,0.7-1.3,1.3-2,1.8c-1.5,1.2-3,2.5-3,4.4c0,1.8,1.2,3,3,3c0.9,0,1.6-0.5,2.1-1c-0.2,1-0.7,2.3-1.6,3.2h3.7
					c-0.9-1-1.3-2.2-1.6-3.2c0.5,0.5,1.3,1,2.1,1c1.8,0,3-1.2,3-3C27.3,42.4,25.8,41.1,24.3,39.9z"/>
				<path class="st2" d="M21.9,49.6V37.9l0,0c-0.1,0-0.3,0.1-0.4,0.2c-0.6,0.7-1.3,1.3-2,1.8c-1.5,1.2-3,2.5-3,4.4c0,1.8,1.2,3,3,3
					c0.9,0,1.6-0.5,2.1-1c-0.2,1-0.7,2.3-1.6,3.2H21.9z"/>
			</g>
			<g>
				<path class="st1" d="M49.5,39.9c-0.7-0.6-1.4-1.2-2-1.8c-0.1-0.1-0.2-0.2-0.4-0.2h0c-0.1,0-0.3,0.1-0.4,0.2
					c-0.6,0.7-1.3,1.3-2,1.8c-1.5,1.2-3,2.5-3,4.4c0,1.8,1.2,3,3,3c0.9,0,1.6-0.5,2.1-1c-0.2,1-0.7,2.3-1.6,3.2H49
					c-0.9-1-1.3-2.2-1.6-3.2c0.5,0.5,1.3,1,2.1,1c1.8,0,3-1.2,3-3C52.5,42.4,51,41.1,49.5,39.9z"/>
				<path class="st2" d="M47.1,49.6V37.9h0c-0.1,0-0.3,0.1-0.4,0.2c-0.6,0.7-1.3,1.3-2,1.8c-1.5,1.2-3,2.5-3,4.4c0,1.8,1.2,3,3,3
					c0.9,0,1.6-0.5,2.1-1c-0.2,1-0.7,2.3-1.6,3.2H47.1z"/>
			</g>
		</g>
		<g>
			<g>
				<path class="st1" d="M24.3,55.3c-0.7-0.6-1.4-1.2-2-1.8c-0.1-0.1-0.2-0.2-0.4-0.2h0c-0.1,0-0.3,0.1-0.4,0.2
					c-0.6,0.7-1.3,1.3-2,1.8c-1.5,1.2-3,2.5-3,4.4c0,1.8,1.2,3,3,3c0.9,0,1.6-0.5,2.1-1c-0.2,1-0.7,2.3-1.6,3.2h3.7
					c-0.9-1-1.3-2.2-1.6-3.2c0.5,0.5,1.3,1,2.1,1c1.8,0,3-1.2,3-3C27.3,57.8,25.8,56.5,24.3,55.3z"/>
				<path class="st2" d="M21.9,65V53.3l0,0c-0.1,0-0.3,0.1-0.4,0.2c-0.6,0.7-1.3,1.3-2,1.8c-1.5,1.2-3,2.5-3,4.4c0,1.8,1.2,3,3,3
					c0.9,0,1.6-0.5,2.1-1c-0.2,1-0.7,2.3-1.6,3.2H21.9z"/>
			</g>
			<g>
				<path class="st1" d="M49.5,55.3c-0.7-0.6-1.4-1.2-2-1.8c-0.1-0.1-0.2-0.2-0.4-0.2h0c-0.1,0-0.3,0.1-0.4,0.2
					c-0.6,0.7-1.3,1.3-2,1.8c-1.5,1.2-3,2.5-3,4.4c0,1.8,1.2,3,3,3c0.9,0,1.6-0.5,2.1-1c-0.2,1-0.7,2.3-1.6,3.2H49
					c-0.9-1-1.3-2.2-1.6-3.2c0.5,0.5,1.3,1,2.1,1c1.8,0,3-1.2,3-3C52.5,57.8,51,56.5,49.5,55.3z"/>
				<path class="st2" d="M47.1,65V53.3h0c-0.1,0-0.3,0.1-0.4,0.2c-0.6,0.7-1.3,1.3-2,1.8c-1.5,1.2-3,2.5-3,4.4c0,1.8,1.2,3,3,3
					c0.9,0,1.6-0.5,2.1-1c-0.2,1-0.7,2.3-1.6,3.2H47.1z"/>
			</g>
		</g>
		<g>
			<g>
				<path class="st1" d="M24.3,70.7c-0.7-0.6-1.4-1.2-2-1.8c-0.1-0.1-0.2-0.2-0.4-0.2h0c-0.1,0-0.3,0.1-0.4,0.2
					c-0.6,0.7-1.3,1.3-2,1.8c-1.5,1.2-3,2.5-3,4.4c0,1.8,1.2,3,3,3c0.9,0,1.6-0.5,2.1-1c-0.2,1-0.7,2.3-1.6,3.2h3.7
					c-0.9-1-1.3-2.2-1.6-3.2c0.5,0.5,1.3,1,2.1,1c1.8,0,3-1.2,3-3C27.3,73.2,25.8,71.9,24.3,70.7z"/>
				<path class="st2" d="M21.9,80.4V68.7l0,0c-0.1,0-0.3,0.1-0.4,0.2c-0.6,0.7-1.3,1.3-2,1.8c-1.5,1.2-3,2.5-3,4.4c0,1.8,1.2,3,3,3
					c0.9,0,1.6-0.5,2.1-1c-0.2,1-0.7,2.3-1.6,3.2H21.9z"/>
			</g>
			<g>
				<path class="st1" d="M49.5,70.7c-0.7-0.6-1.4-1.2-2-1.8c-0.1-0.1-0.2-0.2-0.4-0.2h0c-0.1,0-0.3,0.1-0.4,0.2
					c-0.6,0.7-1.3,1.3-2,1.8c-1.5,1.2-3,2.5-3,4.4c0,1.8,1.2,3,3,3c0.9,0,1.6-0.5,2.1-1c-0.2,1-0.7,2.3-1.6,3.2H49
					c-0.9-1-1.3-2.2-1.6-3.2c0.5,0.5,1.3,1,2.1,1c1.8,0,3-1.2,3-3C52.5,73.2,51,71.9,49.5,70.7z"/>
				<path class="st2" d="M47.1,80.4V68.7h0c-0.1,0-0.3,0.1-0.4,0.2c-0.6,0.7-1.3,1.3-2,1.8c-1.5,1.2-3,2.5-3,4.4c0,1.8,1.2,3,3,3
					c0.9,0,1.6-0.5,2.1-1c-0.2,1-0.7,2.3-1.6,3.2H47.1z"/>
			</g>
		</g>
		<g>
			<path class="st1" d="M36.9,32.6c-0.7-0.6-1.4-1.2-2-1.8c-0.1-0.1-0.2-0.2-0.4-0.2h0c-0.1,0-0.3,0.1-0.4,0.2
				c-0.6,0.7-1.3,1.3-2,1.8c-1.5,1.2-3,2.5-3,4.4c0,1.8,1.2,3,3,3c0.9,0,1.6-0.5,2.1-1c-0.2,1-0.7,2.3-1.6,3.2h3.7
				c-0.9-1-1.3-2.2-1.6-3.2c0.5,0.5,1.3,1,2.1,1c1.8,0,3-1.2,3-3C39.9,35.1,38.4,33.8,36.9,32.6z"/>
			<path class="st2" d="M34.5,42.3V30.6l0,0c-0.1,0-0.3,0.1-0.4,0.2c-0.6,0.7-1.3,1.3-2,1.8c-1.5,1.2-3,2.5-3,4.4c0,1.8,1.2,3,3,3
				c0.9,0,1.6-0.5,2.1-1c-0.2,1-0.7,2.3-1.6,3.2H34.5z"/>
		</g>
		<g>
			<path class="st1" d="M36.9,63.4c-0.7-0.6-1.4-1.2-2-1.8c-0.1-0.1-0.2-0.2-0.4-0.2h0c-0.1,0-0.3,0.1-0.4,0.2
				c-0.6,0.7-1.3,1.3-2,1.8c-1.5,1.2-3,2.5-3,4.4c0,1.8,1.2,3,3,3c0.9,0,1.6-0.5,2.1-1c-0.2,1-0.7,2.3-1.6,3.2h3.7
				c-0.9-1-1.3-2.2-1.6-3.2c0.5,0.5,1.3,1,2.1,1c1.8,0,3-1.2,3-3C39.9,65.8,38.4,64.6,36.9,63.4z"/>
			<path class="st2" d="M34.5,73V61.4l0,0c-0.1,0-0.3,0.1-0.4,0.2c-0.6,0.7-1.3,1.3-2,1.8c-1.5,1.2-3,2.5-3,4.4c0,1.8,1.2,3,3,3
				c0.9,0,1.6-0.5,2.1-1c-0.2,1-0.7,2.3-1.6,3.2H34.5z"/>
		</g>
	</g>
</g>
</svg>
