<?xml version="1.0" encoding="utf-8"?>
<!-- Generator: Adobe Illustrator 26.5.0, SVG Export Plug-In . SVG Version: 6.00 Build 0)  -->
<svg version="1.1" id="Layer_1" xmlns="http://www.w3.org/2000/svg" xmlns:xlink="http://www.w3.org/1999/xlink" x="0px" y="0px"
	 viewBox="0 0 69.1 103.7" style="enable-background:new 0 0 69.1 103.7;" xml:space="preserve">
<style type="text/css">
	.st0{fill:#F2F2F2;}
	.st1{fill:#333333;}
	.st2{fill:#4D4D4D;}
</style>
<g>
	<path class="st0" d="M69.1,101c0,1.5-1.2,2.7-2.7,2.7H2.7c-1.5,0-2.7-1.2-2.7-2.7V2.7C0,1.2,1.2,0,2.7,0h63.7
		c1.5,0,2.7,1.2,2.7,2.7V101z"/>
	<g>
		<g>
			<path class="st1" d="M37.5,28.7c-0.9-0.7-1.8-1.5-2.5-2.3c-0.1-0.1-0.3-0.2-0.5-0.2h0c-0.2,0-0.4,0.1-0.5,0.2
				c-0.7,0.8-1.6,1.6-2.5,2.3c-1.8,1.5-3.8,3.1-3.8,5.5c0,2.2,1.5,3.7,3.7,3.7c1.1,0,2-0.6,2.6-1.2c-0.3,1.3-0.9,2.8-1.9,4h4.6
				c-1.1-1.2-1.6-2.7-1.9-4c0.6,0.6,1.6,1.2,2.6,1.2c2.2,0,3.7-1.5,3.7-3.7C41.3,31.8,39.3,30.2,37.5,28.7z"/>
			<path class="st2" d="M34.5,40.8V26.2l0,0c-0.2,0-0.4,0.1-0.5,0.2c-0.7,0.8-1.6,1.6-2.5,2.3c-1.8,1.5-3.8,3.1-3.8,5.5
				c0,2.2,1.5,3.7,3.7,3.7c1.1,0,2-0.6,2.6-1.2c-0.3,1.3-0.9,2.8-1.9,4H34.5z"/>
		</g>
		<g>
			<path class="st1" d="M37.5,65.4c-0.9-0.7-1.8-1.5-2.5-2.3c-0.1-0.1-0.3-0.2-0.5-0.2h0c-0.2,0-0.4,0.1-0.5,0.2
				c-0.7,0.8-1.6,1.6-2.5,2.3c-1.8,1.5-3.8,3.1-3.8,5.5c0,2.2,1.5,3.7,3.7,3.7c1.1,0,2-0.6,2.6-1.2c-0.3,1.3-0.9,2.8-1.9,4h4.6
				c-1.1-1.2-1.6-2.7-1.9-4c0.6,0.6,1.6,1.2,2.6,1.2c2.2,0,3.7-1.5,3.7-3.7C41.3,68.5,39.3,66.9,37.5,65.4z"/>
			<path class="st2" d="M34.5,77.5V62.9l0,0c-0.2,0-0.4,0.1-0.5,0.2c-0.7,0.8-1.6,1.6-2.5,2.3c-1.8,1.5-3.8,3.1-3.8,5.5
				c0,2.2,1.5,3.7,3.7,3.7c1.1,0,2-0.6,2.6-1.2c-0.3,1.3-0.9,2.8-1.9,4H34.5z"/>
		</g>
	</g>
	<g>
		<g>
			<path class="st1" d="M62.6,6.7c-0.6-0.5-1.2-1-1.7-1.5C60.8,5.1,60.7,5,60.6,5h0c-0.1,0-0.2,0.1-0.3,0.1
				c-0.5,0.6-1.1,1.1-1.7,1.5c-1.3,1-2.6,2.1-2.6,3.7c0,1.5,1,2.5,2.5,2.5c0.7,0,1.4-0.4,1.8-0.8c-0.2,0.9-0.6,1.9-1.3,2.7h3.1
				c-0.7-0.8-1.1-1.9-1.3-2.7c0.4,0.4,1.1,0.8,1.8,0.8c1.5,0,2.5-1,2.5-2.5C65.1,8.8,63.8,7.7,62.6,6.7z"/>
			<path class="st2" d="M60.5,14.9V5l0,0c-0.1,0-0.2,0.1-0.3,0.1c-0.5,0.6-1.1,1.1-1.7,1.5c-1.3,1-2.6,2.1-2.6,3.7
				c0,1.5,1,2.5,2.5,2.5c0.7,0,1.4-0.4,1.8-0.8c-0.2,0.9-0.6,1.9-1.3,2.7H60.5z"/>
		</g>
		<g>
			<path class="st1" d="M4,14.9v-0.8l1-1C7.5,10.7,8.7,9.5,8.7,8c0-1-0.5-1.9-1.9-1.9c-0.9,0-1.6,0.4-2.1,0.8L4.2,6
				C4.9,5.4,5.9,5,7,5c2.1,0,3,1.4,3,2.8c0,1.8-1.3,3.3-3.4,5.2l-0.8,0.7v0h4.4v1.1H4z"/>
		</g>
	</g>
	<g>
		<g>
			<path class="st1" d="M6.6,97c0.6,0.5,1.2,1,1.7,1.5c0.1,0.1,0.2,0.1,0.3,0.1h0c0.1,0,0.2-0.1,0.3-0.1C9.4,98,10,97.5,10.6,97
				c1.3-1,2.6-2.1,2.6-3.7c0-1.5-1-2.5-2.5-2.5c-0.7,0-1.4,0.4-1.8,0.8c0.2-0.9,0.6-1.9,1.3-2.7H7c0.7,0.8,1.1,1.9,1.3,2.7
				c-0.4-0.4-1.1-0.8-1.8-0.8c-1.5,0-2.5,1-2.5,2.5C4,94.9,5.3,96,6.6,97z"/>
			<path class="st2" d="M8.6,88.8v9.9l0,0c0.1,0,0.2-0.1,0.3-0.1C9.4,98,10,97.5,10.6,97c1.3-1,2.6-2.1,2.6-3.7c0-1.5-1-2.5-2.5-2.5
				c-0.7,0-1.4,0.4-1.8,0.8c0.2-0.9,0.6-1.9,1.3-2.7H8.6z"/>
		</g>
		<g>
			<path class="st1" d="M65.1,88.8v0.8l-1,1c-2.5,2.4-3.6,3.6-3.6,5.1c0,1,0.5,1.9,1.9,1.9c0.9,0,1.6-0.4,2.1-0.8l0.4,0.9
				c-0.7,0.6-1.6,1-2.8,1c-2.1,0-3-1.4-3-2.8c0-1.8,1.3-3.3,3.4-5.2l0.8-0.7v0h-4.4v-1.1H65.1z"/>
		</g>
	</g>
</g>
</svg>
