<?xml version="1.0" encoding="utf-8"?>
<!-- Generator: Adobe Illustrator 26.5.0, SVG Export Plug-In . SVG Version: 6.00 Build 0)  -->
<svg version="1.1" id="Layer_1" xmlns="http://www.w3.org/2000/svg" xmlns:xlink="http://www.w3.org/1999/xlink" x="0px" y="0px"
	 viewBox="0 0 69.1 103.7" style="enable-background:new 0 0 69.1 103.7;" xml:space="preserve">
<style type="text/css">
	.st0{fill:#F2F2F2;}
	.st1{fill:#333333;}
	.st2{fill:#4D4D4D;}
</style>
<g>
	<path class="st0" d="M69.1,101c0,1.5-1.2,2.7-2.7,2.7H2.7c-1.5,0-2.7-1.2-2.7-2.7V2.7C0,1.2,1.2,0,2.7,0h63.7
		c1.5,0,2.7,1.2,2.7,2.7V101z"/>
	<g>
		<g>
			<path class="st1" d="M50.4,27c-0.7-0.6-1.5-1.2-2.1-1.9c-0.1-0.1-0.2-0.2-0.4-0.2h0c-0.2,0-0.3,0.1-0.4,0.2
				c-0.6,0.7-1.4,1.3-2.1,1.9c-1.6,1.3-3.2,2.6-3.2,4.7c0,1.9,1.3,3.2,3.2,3.2c0.9,0,1.7-0.5,2.2-1c-0.3,1.1-0.7,2.4-1.6,3.4h3.9
				c-0.9-1-1.4-2.3-1.6-3.4c0.5,0.5,1.3,1,2.2,1c1.9,0,3.2-1.3,3.2-3.2C53.6,29.7,51.9,28.3,50.4,27z"/>
			<path class="st2" d="M47.9,37.3V24.9l0,0c-0.2,0-0.3,0.1-0.4,0.2c-0.6,0.7-1.4,1.3-2.1,1.9c-1.6,1.3-3.2,2.6-3.2,4.7
				c0,1.9,1.3,3.2,3.2,3.2c0.9,0,1.7-0.5,2.2-1c-0.3,1.1-0.7,2.4-1.6,3.4H47.9z"/>
		</g>
		<g>
			<path class="st1" d="M23.7,68.5c-0.7-0.6-1.5-1.2-2.1-1.9c-0.1-0.1-0.2-0.2-0.4-0.2h0c-0.2,0-0.3,0.1-0.4,0.2
				c-0.6,0.7-1.4,1.3-2.1,1.9c-1.6,1.3-3.2,2.6-3.2,4.7c0,1.9,1.3,3.2,3.2,3.2c0.9,0,1.7-0.5,2.2-1c-0.3,1.1-0.7,2.4-1.6,3.4h3.9
				c-0.9-1-1.4-2.3-1.6-3.4c0.5,0.5,1.3,1,2.2,1c1.9,0,3.2-1.3,3.2-3.2C26.9,71.1,25.3,69.8,23.7,68.5z"/>
			<path class="st2" d="M21.2,78.7V66.4l0,0c-0.2,0-0.3,0.1-0.4,0.2c-0.6,0.7-1.4,1.3-2.1,1.9c-1.6,1.3-3.2,2.6-3.2,4.7
				c0,1.9,1.3,3.2,3.2,3.2c0.9,0,1.7-0.5,2.2-1c-0.3,1.1-0.7,2.4-1.6,3.4H21.2z"/>
		</g>
		<g>
			<path class="st1" d="M37.1,47.8c-0.7-0.6-1.5-1.2-2.1-1.9c-0.1-0.1-0.2-0.2-0.4-0.2h0c-0.2,0-0.3,0.1-0.4,0.2
				c-0.6,0.7-1.4,1.3-2.1,1.9c-1.6,1.3-3.2,2.6-3.2,4.7c0,1.9,1.3,3.2,3.2,3.2c0.9,0,1.7-0.5,2.2-1C34,55.7,33.5,57,32.6,58h3.9
				c-0.9-1-1.4-2.3-1.6-3.4c0.5,0.5,1.3,1,2.2,1c1.9,0,3.2-1.3,3.2-3.2C40.2,50.4,38.6,49.1,37.1,47.8z"/>
			<path class="st2" d="M34.5,58V45.7h0c-0.2,0-0.3,0.1-0.4,0.2c-0.6,0.7-1.4,1.3-2.1,1.9c-1.6,1.3-3.2,2.6-3.2,4.7
				c0,1.9,1.3,3.2,3.2,3.2c0.9,0,1.7-0.5,2.2-1C34,55.7,33.5,57,32.6,58H34.5z"/>
		</g>
	</g>
	<g>
		<g>
			<path class="st1" d="M4.4,13.4C4.7,13.6,5.6,14,6.5,14c1.7,0,2.2-1.1,2.2-1.9c0-1.4-1.2-2-2.5-2H5.5v-1h0.7c1,0,2.2-0.5,2.2-1.7
				c0-0.8-0.5-1.5-1.7-1.5c-0.8,0-1.5,0.3-2,0.6l-0.3-1C4.9,5.4,5.9,5,6.9,5c1.9,0,2.8,1.1,2.8,2.3c0,1-0.6,1.9-1.8,2.3v0
				c1.2,0.2,2.2,1.1,2.2,2.5c0,1.6-1.2,2.9-3.6,2.9c-1.1,0-2.1-0.3-2.5-0.7L4.4,13.4z"/>
		</g>
		<g>
			<path class="st1" d="M62.6,6.7c-0.6-0.5-1.2-1-1.7-1.6C60.8,5.1,60.7,5,60.6,5h0c-0.1,0-0.2,0.1-0.3,0.1
				c-0.5,0.6-1.1,1.1-1.7,1.6c-1.3,1-2.6,2.1-2.6,3.7c0,1.5,1,2.5,2.5,2.5c0.7,0,1.4-0.4,1.8-0.8c-0.2,0.9-0.6,1.9-1.3,2.7h3.1
				c-0.7-0.8-1.1-1.9-1.3-2.7c0.4,0.4,1.1,0.8,1.8,0.8c1.5,0,2.5-1,2.5-2.5C65.1,8.8,63.8,7.7,62.6,6.7z"/>
			<path class="st2" d="M60.5,14.9V5l0,0c-0.1,0-0.2,0.1-0.3,0.1c-0.5,0.6-1.1,1.1-1.7,1.6c-1.3,1-2.6,2.1-2.6,3.7
				c0,1.5,1,2.5,2.5,2.5c0.7,0,1.4-0.4,1.8-0.8c-0.2,0.9-0.6,1.9-1.3,2.7H60.5z"/>
		</g>
	</g>
	<g>
		<g>
			<path class="st1" d="M64.8,90.3c-0.4-0.2-1.2-0.6-2.2-0.6c-1.7,0-2.2,1.1-2.2,1.9c0,1.4,1.2,2,2.5,2h0.7v1h-0.7
				c-1,0-2.2,0.5-2.2,1.7c0,0.8,0.5,1.5,1.7,1.5c0.8,0,1.5-0.3,2-0.6l0.3,1c-0.5,0.4-1.5,0.8-2.5,0.8c-1.9,0-2.8-1.1-2.8-2.3
				c0-1,0.6-1.9,1.8-2.3v0C60,93.8,59,92.9,59,91.5c0-1.6,1.2-2.9,3.6-2.9c1.1,0,2.1,0.3,2.5,0.7L64.8,90.3z"/>
		</g>
		<g>
			<path class="st1" d="M6.6,97c0.6,0.5,1.2,1,1.7,1.6c0.1,0.1,0.2,0.1,0.3,0.1h0c0.1,0,0.2-0.1,0.3-0.1C9.4,98,10,97.5,10.6,97
				c1.3-1,2.6-2.1,2.6-3.7c0-1.5-1-2.5-2.5-2.5c-0.7,0-1.4,0.4-1.8,0.8c0.2-0.9,0.6-1.9,1.3-2.7H7c0.7,0.8,1.1,1.9,1.3,2.7
				c-0.4-0.4-1.1-0.8-1.8-0.8c-1.5,0-2.5,1-2.5,2.5C4,94.9,5.3,96,6.6,97z"/>
			<path class="st2" d="M8.6,88.8v9.9l0,0c0.1,0,0.2-0.1,0.3-0.1C9.4,98,10,97.5,10.6,97c1.3-1,2.6-2.1,2.6-3.7c0-1.5-1-2.5-2.5-2.5
				c-0.7,0-1.4,0.4-1.8,0.8c0.2-0.9,0.6-1.9,1.3-2.7H8.6z"/>
		</g>
	</g>
</g>
</svg>
