<?xml version="1.0" encoding="utf-8"?>
<!-- Generator: Adobe Illustrator 26.5.0, SVG Export Plug-In . SVG Version: 6.00 Build 0)  -->
<svg version="1.1" id="Layer_1" xmlns="http://www.w3.org/2000/svg" xmlns:xlink="http://www.w3.org/1999/xlink" x="0px" y="0px"
	 viewBox="0 0 69.1 103.7" style="enable-background:new 0 0 69.1 103.7;" xml:space="preserve">
<style type="text/css">
	.st0{fill:#F2F2F2;}
	.st1{fill:#333333;}
	.st2{fill:#4D4D4D;}
</style>
<g>
	<path class="st0" d="M69.1,101c0,1.5-1.2,2.7-2.7,2.7H2.7c-1.5,0-2.7-1.2-2.7-2.7V2.7C0,1.2,1.2,0,2.7,0h63.7
		c1.5,0,2.7,1.2,2.7,2.7V101z"/>
	<g>
		<g>
			<path class="st1" d="M23.7,27c-0.7-0.6-1.5-1.2-2.1-1.9c-0.1-0.1-0.2-0.2-0.4-0.2h0c-0.2,0-0.3,0.1-0.4,0.2
				c-0.6,0.7-1.4,1.3-2.1,1.9c-1.6,1.3-3.2,2.6-3.2,4.7c0,1.9,1.3,3.2,3.2,3.2c0.9,0,1.7-0.5,2.2-1c-0.3,1.1-0.7,2.4-1.6,3.4h3.9
				c-0.9-1-1.4-2.3-1.6-3.4c0.5,0.5,1.3,1,2.2,1c1.9,0,3.2-1.3,3.2-3.2C26.9,29.6,25.3,28.3,23.7,27z"/>
			<path class="st2" d="M21.2,37.3V24.9l0,0c-0.2,0-0.3,0.1-0.4,0.2c-0.6,0.7-1.4,1.3-2.1,1.9c-1.6,1.3-3.2,2.6-3.2,4.7
				c0,1.9,1.3,3.2,3.2,3.2c0.9,0,1.7-0.5,2.2-1c-0.3,1.1-0.7,2.4-1.6,3.4H21.2z"/>
		</g>
		<g>
			<path class="st1" d="M50.3,27c-0.7-0.6-1.5-1.2-2.1-1.9c-0.1-0.1-0.2-0.2-0.4-0.2h0c-0.2,0-0.3,0.1-0.4,0.2
				c-0.6,0.7-1.4,1.3-2.1,1.9c-1.6,1.3-3.2,2.6-3.2,4.7c0,1.9,1.3,3.2,3.2,3.2c0.9,0,1.7-0.5,2.2-1c-0.3,1.1-0.7,2.4-1.6,3.4h3.9
				c-0.9-1-1.4-2.3-1.6-3.4c0.5,0.5,1.3,1,2.2,1c1.9,0,3.2-1.3,3.2-3.2C53.5,29.6,51.9,28.3,50.3,27z"/>
			<path class="st2" d="M47.8,37.3V24.9h0c-0.2,0-0.3,0.1-0.4,0.2c-0.6,0.7-1.4,1.3-2.1,1.9c-1.6,1.3-3.2,2.6-3.2,4.7
				c0,1.9,1.3,3.2,3.2,3.2c0.9,0,1.7-0.5,2.2-1c-0.3,1.1-0.7,2.4-1.6,3.4H47.8z"/>
		</g>
		<g>
			<path class="st1" d="M23.7,68.5c-0.7-0.6-1.5-1.2-2.1-1.9c-0.1-0.1-0.2-0.2-0.4-0.2h0c-0.2,0-0.3,0.1-0.4,0.2
				c-0.6,0.7-1.4,1.3-2.1,1.9c-1.6,1.3-3.2,2.6-3.2,4.7c0,1.9,1.3,3.2,3.2,3.2c0.9,0,1.7-0.5,2.2-1c-0.3,1.1-0.7,2.4-1.6,3.4h3.9
				c-0.9-1-1.4-2.3-1.6-3.4c0.5,0.5,1.3,1,2.2,1c1.9,0,3.2-1.3,3.2-3.2C26.9,71.2,25.3,69.8,23.7,68.5z"/>
			<path class="st2" d="M21.2,78.8V66.4l0,0c-0.2,0-0.3,0.1-0.4,0.2c-0.6,0.7-1.4,1.3-2.1,1.9c-1.6,1.3-3.2,2.6-3.2,4.7
				c0,1.9,1.3,3.2,3.2,3.2c0.9,0,1.7-0.5,2.2-1c-0.3,1.1-0.7,2.4-1.6,3.4H21.2z"/>
		</g>
		<g>
			<path class="st1" d="M50.3,68.5c-0.7-0.6-1.5-1.2-2.1-1.9c-0.1-0.1-0.2-0.2-0.4-0.2h0c-0.2,0-0.3,0.1-0.4,0.2
				c-0.6,0.7-1.4,1.3-2.1,1.9c-1.6,1.3-3.2,2.6-3.2,4.7c0,1.9,1.3,3.2,3.2,3.2c0.9,0,1.7-0.5,2.2-1c-0.3,1.1-0.7,2.4-1.6,3.4h3.9
				c-0.9-1-1.4-2.3-1.6-3.4c0.5,0.5,1.3,1,2.2,1c1.9,0,3.2-1.3,3.2-3.2C53.5,71.2,51.9,69.8,50.3,68.5z"/>
			<path class="st2" d="M47.8,78.8V66.4h0c-0.2,0-0.3,0.1-0.4,0.2c-0.6,0.7-1.4,1.3-2.1,1.9c-1.6,1.3-3.2,2.6-3.2,4.7
				c0,1.9,1.3,3.2,3.2,3.2c0.9,0,1.7-0.5,2.2-1c-0.3,1.1-0.7,2.4-1.6,3.4H47.8z"/>
		</g>
	</g>
	<g>
		<g>
			<path class="st1" d="M62.6,6.9C62,6.5,61.4,6,61,5.4c-0.1-0.1-0.2-0.1-0.3-0.1h0c-0.1,0-0.2,0.1-0.3,0.1c-0.5,0.5-1.1,1-1.7,1.5
				c-1.2,1-2.5,2.1-2.5,3.7c0,1.5,1,2.5,2.5,2.5c0.7,0,1.3-0.4,1.8-0.8c-0.2,0.9-0.6,1.9-1.3,2.7h3.1c-0.7-0.8-1.1-1.8-1.3-2.7
				c0.4,0.4,1,0.8,1.8,0.8c1.5,0,2.5-1,2.5-2.5C65.1,9,63.8,8,62.6,6.9z"/>
			<path class="st2" d="M60.6,15V5.3h0c-0.1,0-0.2,0.1-0.3,0.1c-0.5,0.5-1.1,1-1.7,1.5c-1.2,1-2.5,2.1-2.5,3.7c0,1.5,1,2.5,2.5,2.5
				c0.7,0,1.3-0.4,1.8-0.8c-0.2,0.9-0.6,1.9-1.3,2.7H60.6z"/>
		</g>
		<g>
			<path class="st1" d="M8.5,14.8v-2.7H4v-0.9L8.3,5h1.4v6.1h1.4v1H9.8v2.7H8.5z M8.5,11.1V7.8c0-0.5,0-1,0-1.5h0
				C8.2,6.8,8,7.3,7.7,7.7L5.3,11v0H8.5z"/>
		</g>
	</g>
	<g>
		<g>
			<path class="st1" d="M6.5,97c0.6,0.5,1.2,1,1.7,1.5c0.1,0.1,0.2,0.1,0.3,0.1h0c0.1,0,0.2-0.1,0.3-0.1c0.5-0.5,1.1-1,1.7-1.5
				c1.2-1,2.5-2.1,2.5-3.7c0-1.5-1-2.5-2.5-2.5c-0.7,0-1.3,0.4-1.8,0.8c0.2-0.9,0.6-1.9,1.3-2.7H7c0.7,0.8,1.1,1.8,1.3,2.7
				c-0.4-0.4-1-0.8-1.8-0.8c-1.5,0-2.5,1-2.5,2.5C4,95,5.3,96,6.5,97z"/>
			<path class="st2" d="M8.5,88.9v9.8h0c0.1,0,0.2-0.1,0.3-0.1c0.5-0.5,1.1-1,1.7-1.5c1.2-1,2.5-2.1,2.5-3.7c0-1.5-1-2.5-2.5-2.5
				c-0.7,0-1.3,0.4-1.8,0.8c0.2-0.9,0.6-1.9,1.3-2.7H8.5z"/>
		</g>
		<g>
			<path class="st1" d="M60.6,89.2v2.7h4.5v0.9L60.8,99h-1.4v-6.1H58v-1h1.4v-2.7H60.6z M60.6,92.9v3.3c0,0.5,0,1,0,1.5h0
				c0.3-0.6,0.5-1,0.8-1.4l2.4-3.3v0H60.6z"/>
		</g>
	</g>
</g>
</svg>
