<?xml version="1.0" encoding="utf-8"?>
<!-- Generator: Adobe Illustrator 26.5.0, SVG Export Plug-In . SVG Version: 6.00 Build 0)  -->
<svg version="1.1" id="Layer_1" xmlns="http://www.w3.org/2000/svg" xmlns:xlink="http://www.w3.org/1999/xlink" x="0px" y="0px"
	 viewBox="0 0 69.1 103.7" style="enable-background:new 0 0 69.1 103.7;" xml:space="preserve">
<style type="text/css">
	.st0{fill:#F2F2F2;}
	.st1{fill:#333333;}
	.st2{fill:#4D4D4D;}
</style>
<g>
	<path class="st0" d="M69.1,101c0,1.5-1.2,2.7-2.7,2.7H2.7c-1.5,0-2.7-1.2-2.7-2.7V2.7C0,1.2,1.2,0,2.7,0h63.7
		c1.5,0,2.7,1.2,2.7,2.7V101z"/>
	<g>
		<path class="st1" d="M62.6,6.7c-0.6-0.5-1.2-1-1.7-1.6C60.8,5.1,60.7,5,60.6,5h0c-0.1,0-0.2,0.1-0.3,0.1c-0.5,0.6-1.1,1.1-1.7,1.6
			c-1.3,1-2.6,2.1-2.6,3.7c0,1.5,1,2.5,2.5,2.5c0.7,0,1.4-0.4,1.8-0.8c-0.2,0.9-0.6,1.9-1.3,2.7h3.1c-0.7-0.8-1.1-1.9-1.3-2.7
			c0.4,0.4,1.1,0.8,1.8,0.8c1.5,0,2.5-1,2.5-2.5C65.1,8.8,63.8,7.7,62.6,6.7z"/>
		<path class="st2" d="M60.5,14.9V5l0,0c-0.1,0-0.2,0.1-0.3,0.1c-0.5,0.6-1.1,1.1-1.7,1.6c-1.3,1-2.6,2.1-2.6,3.7
			c0,1.5,1,2.5,2.5,2.5c0.7,0,1.4-0.4,1.8-0.8c-0.2,0.9-0.6,1.9-1.3,2.7H60.5z"/>
	</g>
	<g>
		<path class="st1" d="M9.9,6.1H6.1L5.8,8.6c0.2,0,0.4-0.1,0.8-0.1c0.8,0,1.5,0.2,2.1,0.5c0.8,0.4,1.4,1.3,1.4,2.5
			c0,1.9-1.5,3.3-3.6,3.3c-1.1,0-2-0.3-2.4-0.6l0.3-1c0.4,0.2,1.2,0.5,2.1,0.5c1.2,0,2.3-0.8,2.3-2.1c0-1.3-0.9-2.2-2.8-2.2
			c-0.6,0-1,0.1-1.3,0.1L5.2,5h4.7V6.1z"/>
	</g>
	<g>
		<path class="st1" d="M6.6,97c0.6,0.5,1.2,1,1.7,1.6c0.1,0.1,0.2,0.1,0.3,0.1h0c0.1,0,0.2-0.1,0.3-0.1C9.4,98,10,97.5,10.6,97
			c1.3-1,2.6-2.1,2.6-3.7c0-1.5-1-2.5-2.5-2.5c-0.7,0-1.4,0.4-1.8,0.8c0.2-0.9,0.6-1.9,1.3-2.7H7c0.7,0.8,1.1,1.9,1.3,2.7
			c-0.4-0.4-1.1-0.8-1.8-0.8c-1.5,0-2.5,1-2.5,2.5C4,94.9,5.3,96,6.6,97z"/>
		<path class="st2" d="M8.6,88.8v9.9l0,0c0.1,0,0.2-0.1,0.3-0.1C9.4,98,10,97.5,10.6,97c1.3-1,2.6-2.1,2.6-3.7c0-1.5-1-2.5-2.5-2.5
			c-0.7,0-1.4,0.4-1.8,0.8c0.2-0.9,0.6-1.9,1.3-2.7H8.6z"/>
	</g>
	<g>
		<path class="st1" d="M59.3,97.6H63l0.4-2.5c-0.2,0-0.4,0.1-0.8,0.1c-0.8,0-1.5-0.2-2.1-0.5c-0.8-0.4-1.4-1.3-1.4-2.5
			c0-1.9,1.5-3.3,3.6-3.3c1.1,0,2,0.3,2.4,0.6l-0.3,1c-0.4-0.2-1.2-0.5-2.1-0.5c-1.2,0-2.3,0.8-2.3,2.1c0,1.3,0.9,2.2,2.8,2.2
			c0.6,0,1-0.1,1.3-0.1l-0.6,4.7h-4.7V97.6z"/>
	</g>
	<g>
		<g>
			<g>
				<path class="st1" d="M23.7,27c-0.7-0.6-1.5-1.2-2.1-1.9c-0.1-0.1-0.2-0.2-0.4-0.2h0c-0.2,0-0.3,0.1-0.4,0.2
					c-0.6,0.7-1.4,1.3-2.1,1.9c-1.6,1.3-3.2,2.6-3.2,4.7c0,1.9,1.3,3.2,3.2,3.2c0.9,0,1.7-0.5,2.2-1c-0.3,1.1-0.7,2.4-1.6,3.4h3.9
					c-0.9-1-1.4-2.3-1.6-3.4c0.5,0.5,1.3,1,2.2,1c1.9,0,3.2-1.3,3.2-3.2C26.9,29.6,25.3,28.3,23.7,27z"/>
				<path class="st2" d="M21.2,37.3V24.9h0c-0.2,0-0.3,0.1-0.4,0.2c-0.6,0.7-1.4,1.3-2.1,1.9c-1.6,1.3-3.2,2.6-3.2,4.7
					c0,1.9,1.3,3.2,3.2,3.2c0.9,0,1.7-0.5,2.2-1c-0.3,1.1-0.7,2.4-1.6,3.4H21.2z"/>
			</g>
			<g>
				<path class="st1" d="M50.3,27c-0.7-0.6-1.5-1.2-2.1-1.9c-0.1-0.1-0.2-0.2-0.4-0.2h0c-0.2,0-0.3,0.1-0.4,0.2
					c-0.6,0.7-1.4,1.3-2.1,1.9c-1.6,1.3-3.2,2.6-3.2,4.7c0,1.9,1.3,3.2,3.2,3.2c0.9,0,1.7-0.5,2.2-1c-0.3,1.1-0.7,2.4-1.6,3.4h3.9
					c-0.9-1-1.4-2.3-1.6-3.4c0.5,0.5,1.3,1,2.2,1c1.9,0,3.2-1.3,3.2-3.2C53.5,29.6,51.9,28.3,50.3,27z"/>
				<path class="st2" d="M47.8,37.3V24.9l0,0c-0.2,0-0.3,0.1-0.4,0.2c-0.6,0.7-1.4,1.3-2.1,1.9c-1.6,1.3-3.2,2.6-3.2,4.7
					c0,1.9,1.3,3.2,3.2,3.2c0.9,0,1.7-0.5,2.2-1c-0.3,1.1-0.7,2.4-1.6,3.4H47.8z"/>
			</g>
			<g>
				<path class="st1" d="M23.7,68.5c-0.7-0.6-1.5-1.2-2.1-1.9c-0.1-0.1-0.2-0.2-0.4-0.2h0c-0.2,0-0.3,0.1-0.4,0.2
					c-0.6,0.7-1.4,1.3-2.1,1.9c-1.6,1.3-3.2,2.6-3.2,4.7c0,1.9,1.3,3.2,3.2,3.2c0.9,0,1.7-0.5,2.2-1c-0.3,1.1-0.7,2.4-1.6,3.4h3.9
					c-0.9-1-1.4-2.3-1.6-3.4c0.5,0.5,1.3,1,2.2,1c1.9,0,3.2-1.3,3.2-3.2C26.9,71.2,25.3,69.8,23.7,68.5z"/>
				<path class="st2" d="M21.2,78.8V66.4h0c-0.2,0-0.3,0.1-0.4,0.2c-0.6,0.7-1.4,1.3-2.1,1.9c-1.6,1.3-3.2,2.6-3.2,4.7
					c0,1.9,1.3,3.2,3.2,3.2c0.9,0,1.7-0.5,2.2-1c-0.3,1.1-0.7,2.4-1.6,3.4H21.2z"/>
			</g>
			<g>
				<path class="st1" d="M50.3,68.5c-0.7-0.6-1.5-1.2-2.1-1.9c-0.1-0.1-0.2-0.2-0.4-0.2h0c-0.2,0-0.3,0.1-0.4,0.2
					c-0.6,0.7-1.4,1.3-2.1,1.9c-1.6,1.3-3.2,2.6-3.2,4.7c0,1.9,1.3,3.2,3.2,3.2c0.9,0,1.7-0.5,2.2-1c-0.3,1.1-0.7,2.4-1.6,3.4h3.9
					c-0.9-1-1.4-2.3-1.6-3.4c0.5,0.5,1.3,1,2.2,1c1.9,0,3.2-1.3,3.2-3.2C53.5,71.2,51.9,69.8,50.3,68.5z"/>
				<path class="st2" d="M47.8,78.8V66.4l0,0c-0.2,0-0.3,0.1-0.4,0.2c-0.6,0.7-1.4,1.3-2.1,1.9c-1.6,1.3-3.2,2.6-3.2,4.7
					c0,1.9,1.3,3.2,3.2,3.2c0.9,0,1.7-0.5,2.2-1c-0.3,1.1-0.7,2.4-1.6,3.4H47.8z"/>
			</g>
			<path class="st1" d="M37.1,48c-0.7-0.6-1.5-1.2-2.1-1.9c-0.1-0.1-0.2-0.2-0.4-0.2h0c-0.2,0-0.3,0.1-0.4,0.2
				c-0.6,0.7-1.4,1.3-2.1,1.9c-1.6,1.3-3.2,2.6-3.2,4.7c0,1.9,1.3,3.2,3.2,3.2c0.9,0,1.7-0.5,2.2-1c-0.3,1.1-0.7,2.4-1.6,3.4h3.9
				c-0.9-1-1.4-2.3-1.6-3.4c0.5,0.5,1.3,1,2.2,1c1.9,0,3.2-1.3,3.2-3.2C40.2,50.6,38.6,49.3,37.1,48z"/>
		</g>
		<path class="st2" d="M34.5,58.2V45.9h0c-0.2,0-0.3,0.1-0.4,0.2c-0.6,0.7-1.4,1.3-2.1,1.9c-1.6,1.3-3.2,2.6-3.2,4.7
			c0,1.9,1.3,3.2,3.2,3.2c0.9,0,1.7-0.5,2.2-1c-0.3,1.1-0.7,2.4-1.6,3.4H34.5z"/>
	</g>
</g>
</svg>
