<?xml version="1.0" encoding="utf-8"?>
<!-- Generator: Adobe Illustrator 26.5.0, SVG Export Plug-In . SVG Version: 6.00 Build 0)  -->
<svg version="1.1" id="Layer_1" xmlns="http://www.w3.org/2000/svg" xmlns:xlink="http://www.w3.org/1999/xlink" x="0px" y="0px"
	 viewBox="0 0 69.1 103.7" style="enable-background:new 0 0 69.1 103.7;" xml:space="preserve">
<style type="text/css">
	.st0{fill:#F2F2F2;}
	.st1{fill:#333333;}
	.st2{fill:#4D4D4D;}
</style>
<g>
	<path class="st0" d="M69.1,101c0,1.5-1.2,2.7-2.7,2.7H2.7c-1.5,0-2.7-1.2-2.7-2.7V2.7C0,1.2,1.2,0,2.7,0h63.7
		c1.5,0,2.7,1.2,2.7,2.7V101z"/>
	<g>
		<g>
			<path class="st1" d="M23.7,27c-0.7-0.6-1.5-1.2-2.1-1.9c-0.1-0.1-0.2-0.2-0.4-0.2h0c-0.2,0-0.3,0.1-0.4,0.2
				c-0.6,0.7-1.4,1.3-2.1,1.9c-1.6,1.3-3.2,2.6-3.2,4.7c0,1.9,1.3,3.2,3.2,3.2c0.9,0,1.7-0.5,2.2-1c-0.3,1.1-0.7,2.4-1.6,3.4h3.9
				c-0.9-1-1.4-2.3-1.6-3.4c0.5,0.5,1.3,1,2.2,1c1.9,0,3.2-1.3,3.2-3.2C26.9,29.6,25.3,28.3,23.7,27z"/>
			<path class="st2" d="M21.2,37.3V24.9l0,0c-0.2,0-0.3,0.1-0.4,0.2c-0.6,0.7-1.4,1.3-2.1,1.9c-1.6,1.3-3.2,2.6-3.2,4.7
				c0,1.9,1.3,3.2,3.2,3.2c0.9,0,1.7-0.5,2.2-1c-0.3,1.1-0.7,2.4-1.6,3.4H21.2z"/>
		</g>
		<g>
			<path class="st1" d="M50.3,27c-0.7-0.6-1.5-1.2-2.1-1.9c-0.1-0.1-0.2-0.2-0.4-0.2h0c-0.2,0-0.3,0.1-0.4,0.2
				c-0.6,0.7-1.4,1.3-2.1,1.9c-1.6,1.3-3.2,2.6-3.2,4.7c0,1.9,1.3,3.2,3.2,3.2c0.9,0,1.7-0.5,2.2-1c-0.3,1.1-0.7,2.4-1.6,3.4h3.9
				c-0.9-1-1.4-2.3-1.6-3.4c0.5,0.5,1.3,1,2.2,1c1.9,0,3.2-1.3,3.2-3.2C53.5,29.6,51.9,28.3,50.3,27z"/>
			<path class="st2" d="M47.8,37.3V24.9h0c-0.2,0-0.3,0.1-0.4,0.2c-0.6,0.7-1.4,1.3-2.1,1.9c-1.6,1.3-3.2,2.6-3.2,4.7
				c0,1.9,1.3,3.2,3.2,3.2c0.9,0,1.7-0.5,2.2-1c-0.3,1.1-0.7,2.4-1.6,3.4H47.8z"/>
		</g>
		<g>
			<path class="st1" d="M23.7,47.8c-0.7-0.6-1.5-1.2-2.1-1.9c-0.1-0.1-0.2-0.2-0.4-0.2h0c-0.2,0-0.3,0.1-0.4,0.2
				c-0.6,0.7-1.4,1.3-2.1,1.9c-1.6,1.3-3.2,2.6-3.2,4.7c0,1.9,1.3,3.2,3.2,3.2c0.9,0,1.7-0.5,2.2-1c-0.3,1.1-0.7,2.4-1.6,3.4h3.9
				c-0.9-1-1.4-2.3-1.6-3.4c0.5,0.5,1.3,1,2.2,1c1.9,0,3.2-1.3,3.2-3.2C26.9,50.4,25.3,49.1,23.7,47.8z"/>
			<path class="st2" d="M21.2,58V45.7l0,0c-0.2,0-0.3,0.1-0.4,0.2c-0.6,0.7-1.4,1.3-2.1,1.9c-1.6,1.3-3.2,2.6-3.2,4.7
				c0,1.9,1.3,3.2,3.2,3.2c0.9,0,1.7-0.5,2.2-1c-0.3,1.1-0.7,2.4-1.6,3.4H21.2z"/>
		</g>
		<g>
			<path class="st1" d="M50.3,47.8c-0.7-0.6-1.5-1.2-2.1-1.9c-0.1-0.1-0.2-0.2-0.4-0.2h0c-0.2,0-0.3,0.1-0.4,0.2
				c-0.6,0.7-1.4,1.3-2.1,1.9c-1.6,1.3-3.2,2.6-3.2,4.7c0,1.9,1.3,3.2,3.2,3.2c0.9,0,1.7-0.5,2.2-1c-0.3,1.1-0.7,2.4-1.6,3.4h3.9
				c-0.9-1-1.4-2.3-1.6-3.4c0.5,0.5,1.3,1,2.2,1c1.9,0,3.2-1.3,3.2-3.2C53.5,50.4,51.9,49.1,50.3,47.8z"/>
			<path class="st2" d="M47.8,58V45.7h0c-0.2,0-0.3,0.1-0.4,0.2c-0.6,0.7-1.4,1.3-2.1,1.9c-1.6,1.3-3.2,2.6-3.2,4.7
				c0,1.9,1.3,3.2,3.2,3.2c0.9,0,1.7-0.5,2.2-1c-0.3,1.1-0.7,2.4-1.6,3.4H47.8z"/>
		</g>
		<g>
			<path class="st1" d="M23.7,68.5c-0.7-0.6-1.5-1.2-2.1-1.9c-0.1-0.1-0.2-0.2-0.4-0.2h0c-0.2,0-0.3,0.1-0.4,0.2
				c-0.6,0.7-1.4,1.3-2.1,1.9c-1.6,1.3-3.2,2.6-3.2,4.7c0,1.9,1.3,3.2,3.2,3.2c0.9,0,1.7-0.5,2.2-1c-0.3,1.1-0.7,2.4-1.6,3.4h3.9
				c-0.9-1-1.4-2.3-1.6-3.4c0.5,0.5,1.3,1,2.2,1c1.9,0,3.2-1.3,3.2-3.2C26.9,71.2,25.3,69.8,23.7,68.5z"/>
			<path class="st2" d="M21.2,78.8V66.4l0,0c-0.2,0-0.3,0.1-0.4,0.2c-0.6,0.7-1.4,1.3-2.1,1.9c-1.6,1.3-3.2,2.6-3.2,4.7
				c0,1.9,1.3,3.2,3.2,3.2c0.9,0,1.7-0.5,2.2-1c-0.3,1.1-0.7,2.4-1.6,3.4H21.2z"/>
		</g>
		<g>
			<path class="st1" d="M50.3,68.5c-0.7-0.6-1.5-1.2-2.1-1.9c-0.1-0.1-0.2-0.2-0.4-0.2h0c-0.2,0-0.3,0.1-0.4,0.2
				c-0.6,0.7-1.4,1.3-2.1,1.9c-1.6,1.3-3.2,2.6-3.2,4.7c0,1.9,1.3,3.2,3.2,3.2c0.9,0,1.7-0.5,2.2-1c-0.3,1.1-0.7,2.4-1.6,3.4h3.9
				c-0.9-1-1.4-2.3-1.6-3.4c0.5,0.5,1.3,1,2.2,1c1.9,0,3.2-1.3,3.2-3.2C53.5,71.2,51.9,69.8,50.3,68.5z"/>
			<path class="st2" d="M47.8,78.8V66.4h0c-0.2,0-0.3,0.1-0.4,0.2c-0.6,0.7-1.4,1.3-2.1,1.9c-1.6,1.3-3.2,2.6-3.2,4.7
				c0,1.9,1.3,3.2,3.2,3.2c0.9,0,1.7-0.5,2.2-1c-0.3,1.1-0.7,2.4-1.6,3.4H47.8z"/>
		</g>
	</g>
	<g>
		<g>
			<path class="st1" d="M62.5,6.7c-0.6-0.5-1.2-1-1.7-1.6C60.7,5.1,60.6,5,60.5,5h0c-0.1,0-0.2,0.1-0.3,0.1
				c-0.5,0.6-1.1,1.1-1.7,1.6c-1.3,1-2.6,2.1-2.6,3.8c0,1.5,1.1,2.6,2.6,2.6c0.7,0,1.4-0.4,1.8-0.8c-0.2,0.9-0.6,2-1.3,2.8h3.2
				c-0.7-0.8-1.1-1.9-1.3-2.8c0.4,0.4,1.1,0.8,1.8,0.8c1.5,0,2.6-1.1,2.6-2.6C65.1,8.9,63.8,7.8,62.5,6.7z"/>
			<path class="st2" d="M60.5,15.1V5h0c-0.1,0-0.2,0.1-0.3,0.1c-0.5,0.6-1.1,1.1-1.7,1.6c-1.3,1-2.6,2.1-2.6,3.8
				c0,1.5,1.1,2.6,2.6,2.6c0.7,0,1.4-0.4,1.8-0.8c-0.2,0.9-0.6,2-1.3,2.8H60.5z"/>
		</g>
		<g>
			<path class="st1" d="M9.7,6.1c-0.3,0-0.6,0-1,0.1C6.7,6.5,5.6,8,5.4,9.6h0C5.9,9,6.7,8.5,7.8,8.5c1.7,0,2.9,1.2,2.9,3.2
				c0,1.8-1.2,3.4-3.2,3.4c-2.1,0-3.5-1.6-3.5-4.2C4,9,4.7,7.5,5.7,6.5c0.8-0.8,1.9-1.3,3.1-1.4C9.2,5,9.5,5,9.7,5V6.1z M9.4,11.7
				c0-1.4-0.8-2.2-2-2.2c-0.8,0-1.5,0.5-1.9,1.2c-0.1,0.1-0.2,0.3-0.2,0.6c0,1.6,0.8,2.8,2.1,2.8C8.6,14,9.4,13.1,9.4,11.7z"/>
		</g>
	</g>
	<g>
		<g>
			<path class="st1" d="M6.6,97c0.6,0.5,1.2,1,1.7,1.6c0.1,0.1,0.2,0.1,0.3,0.1h0c0.1,0,0.2-0.1,0.3-0.1c0.5-0.6,1.1-1.1,1.7-1.6
				c1.3-1,2.6-2.1,2.6-3.8c0-1.5-1.1-2.6-2.6-2.6c-0.7,0-1.4,0.4-1.8,0.8c0.2-0.9,0.6-2,1.3-2.8H7.1c0.7,0.8,1.1,1.9,1.3,2.8
				C8,91,7.3,90.6,6.6,90.6c-1.5,0-2.6,1.1-2.6,2.6C4,94.8,5.3,95.9,6.6,97z"/>
			<path class="st2" d="M8.7,88.6v10.1h0c0.1,0,0.2-0.1,0.3-0.1c0.5-0.6,1.1-1.1,1.7-1.6c1.3-1,2.6-2.1,2.6-3.8
				c0-1.5-1.1-2.6-2.6-2.6c-0.7,0-1.4,0.4-1.8,0.8c0.2-0.9,0.6-2,1.3-2.8H8.7z"/>
		</g>
		<g>
			<path class="st1" d="M59.4,97.6c0.3,0,0.6,0,1-0.1c2.1-0.3,3.2-1.9,3.4-3.5h0c-0.5,0.6-1.3,1.1-2.4,1.1c-1.7,0-2.9-1.2-2.9-3.2
				c0-1.8,1.2-3.4,3.2-3.4c2.1,0,3.5,1.6,3.5,4.2c0,1.9-0.7,3.4-1.7,4.4c-0.8,0.8-1.9,1.3-3.1,1.4c-0.4,0.1-0.7,0.1-1,0.1V97.6z
				 M59.8,92c0,1.4,0.8,2.2,2,2.2c0.8,0,1.5-0.5,1.9-1.2c0.1-0.1,0.2-0.3,0.2-0.6c0-1.6-0.8-2.8-2.1-2.8
				C60.5,89.6,59.8,90.6,59.8,92z"/>
		</g>
	</g>
</g>
</svg>
