<?xml version="1.0" encoding="utf-8"?>
<!-- Generator: Adobe Illustrator 26.5.0, SVG Export Plug-In . SVG Version: 6.00 Build 0)  -->
<svg version="1.1" id="Layer_1" xmlns="http://www.w3.org/2000/svg" xmlns:xlink="http://www.w3.org/1999/xlink" x="0px" y="0px"
	 viewBox="0 0 69.1 103.7" style="enable-background:new 0 0 69.1 103.7;" xml:space="preserve">
<style type="text/css">
	.st0{fill:#F2F2F2;}
	.st1{fill:#333333;}
	.st2{fill:#4D4D4D;}
</style>
<g>
	<path class="st0" d="M69.1,101c0,1.5-1.2,2.7-2.7,2.7H2.7c-1.5,0-2.7-1.2-2.7-2.7V2.7C0,1.2,1.2,0,2.7,0h63.7
		c1.5,0,2.7,1.2,2.7,2.7V101z"/>
	<g>
		<g>
			<path class="st1" d="M62.6,6.7c-0.6-0.5-1.2-1-1.7-1.5C60.9,5.1,60.8,5,60.6,5h0c-0.1,0-0.2,0.1-0.3,0.1c-0.5,0.5-1.1,1-1.7,1.5
				c-1.2,1-2.5,2.1-2.5,3.7c0,1.5,1,2.5,2.5,2.5c0.7,0,1.3-0.4,1.8-0.8c-0.2,0.9-0.6,1.9-1.3,2.7h3.1c-0.7-0.8-1.1-1.8-1.3-2.7
				c0.4,0.4,1,0.8,1.8,0.8c1.5,0,2.5-1,2.5-2.5C65.1,8.7,63.8,7.7,62.6,6.7z"/>
			<path class="st2" d="M60.6,14.7V5l0,0c-0.1,0-0.2,0.1-0.3,0.1c-0.5,0.5-1.1,1-1.7,1.5c-1.2,1-2.5,2.1-2.5,3.7
				c0,1.5,1,2.5,2.5,2.5c0.7,0,1.3-0.4,1.8-0.8c-0.2,0.9-0.6,1.9-1.3,2.7H60.6z"/>
		</g>
		<g>
			<path class="st1" d="M10.2,5v0.9l-4.2,8.9H4.5l4.2-8.6v0H4V5H10.2z"/>
		</g>
	</g>
	<g>
		<g>
			<path class="st1" d="M6.5,97c0.6,0.5,1.2,1,1.7,1.5c0.1,0.1,0.2,0.1,0.3,0.1h0c0.1,0,0.2-0.1,0.3-0.1c0.5-0.5,1.1-1,1.7-1.5
				c1.2-1,2.5-2.1,2.5-3.7c0-1.5-1-2.5-2.5-2.5c-0.7,0-1.3,0.4-1.8,0.8c0.2-0.9,0.6-1.9,1.3-2.7H7c0.7,0.8,1.1,1.8,1.3,2.7
				c-0.4-0.4-1-0.8-1.8-0.8c-1.5,0-2.5,1-2.5,2.5C4,95,5.3,96,6.5,97z"/>
			<path class="st2" d="M8.5,88.9v9.7l0,0c0.1,0,0.2-0.1,0.3-0.1c0.5-0.5,1.1-1,1.7-1.5c1.2-1,2.5-2.1,2.5-3.7c0-1.5-1-2.5-2.5-2.5
				c-0.7,0-1.3,0.4-1.8,0.8c0.2-0.9,0.6-1.9,1.3-2.7H8.5z"/>
		</g>
		<g>
			<path class="st1" d="M59,98.7v-0.9l4.2-8.9h1.4l-4.2,8.6v0h4.8v1.1H59z"/>
		</g>
	</g>
	<g>
		<g>
			<path class="st1" d="M23.7,27c-0.7-0.6-1.5-1.2-2.1-1.9c-0.1-0.1-0.2-0.2-0.4-0.2h0c-0.2,0-0.3,0.1-0.4,0.2
				c-0.6,0.7-1.4,1.3-2.1,1.9c-1.6,1.3-3.2,2.6-3.2,4.7c0,1.9,1.3,3.2,3.2,3.2c0.9,0,1.7-0.5,2.2-1c-0.3,1.1-0.7,2.4-1.6,3.4h3.9
				c-0.9-1-1.4-2.3-1.6-3.4c0.5,0.5,1.3,1,2.2,1c1.9,0,3.2-1.3,3.2-3.2C26.9,29.6,25.3,28.3,23.7,27z"/>
			<path class="st2" d="M21.2,37.3V24.9h0c-0.2,0-0.3,0.1-0.4,0.2c-0.6,0.7-1.4,1.3-2.1,1.9c-1.6,1.3-3.2,2.6-3.2,4.7
				c0,1.9,1.3,3.2,3.2,3.2c0.9,0,1.7-0.5,2.2-1c-0.3,1.1-0.7,2.4-1.6,3.4H21.2z"/>
		</g>
		<g>
			<path class="st1" d="M50.3,27c-0.7-0.6-1.5-1.2-2.1-1.9c-0.1-0.1-0.2-0.2-0.4-0.2h0c-0.2,0-0.3,0.1-0.4,0.2
				c-0.6,0.7-1.4,1.3-2.1,1.9c-1.6,1.3-3.2,2.6-3.2,4.7c0,1.9,1.3,3.2,3.2,3.2c0.9,0,1.7-0.5,2.2-1c-0.3,1.1-0.7,2.4-1.6,3.4h3.9
				c-0.9-1-1.4-2.3-1.6-3.4c0.5,0.5,1.3,1,2.2,1c1.9,0,3.2-1.3,3.2-3.2C53.5,29.6,51.9,28.3,50.3,27z"/>
			<path class="st2" d="M47.8,37.3V24.9l0,0c-0.2,0-0.3,0.1-0.4,0.2c-0.6,0.7-1.4,1.3-2.1,1.9c-1.6,1.3-3.2,2.6-3.2,4.7
				c0,1.9,1.3,3.2,3.2,3.2c0.9,0,1.7-0.5,2.2-1c-0.3,1.1-0.7,2.4-1.6,3.4H47.8z"/>
		</g>
		<g>
			<path class="st1" d="M23.7,47.8c-0.7-0.6-1.5-1.2-2.1-1.9c-0.1-0.1-0.2-0.2-0.4-0.2h0c-0.2,0-0.3,0.1-0.4,0.2
				c-0.6,0.7-1.4,1.3-2.1,1.9c-1.6,1.3-3.2,2.6-3.2,4.7c0,1.9,1.3,3.2,3.2,3.2c0.9,0,1.7-0.5,2.2-1c-0.3,1.1-0.7,2.4-1.6,3.4h3.9
				c-0.9-1-1.4-2.3-1.6-3.4c0.5,0.5,1.3,1,2.2,1c1.9,0,3.2-1.3,3.2-3.2C26.9,50.4,25.3,49.1,23.7,47.8z"/>
			<path class="st2" d="M21.2,58V45.7h0c-0.2,0-0.3,0.1-0.4,0.2c-0.6,0.7-1.4,1.3-2.1,1.9c-1.6,1.3-3.2,2.6-3.2,4.7
				c0,1.9,1.3,3.2,3.2,3.2c0.9,0,1.7-0.5,2.2-1c-0.3,1.1-0.7,2.4-1.6,3.4H21.2z"/>
		</g>
		<g>
			<path class="st1" d="M50.3,47.8c-0.7-0.6-1.5-1.2-2.1-1.9c-0.1-0.1-0.2-0.2-0.4-0.2h0c-0.2,0-0.3,0.1-0.4,0.2
				c-0.6,0.7-1.4,1.3-2.1,1.9c-1.6,1.3-3.2,2.6-3.2,4.7c0,1.9,1.3,3.2,3.2,3.2c0.9,0,1.7-0.5,2.2-1c-0.3,1.1-0.7,2.4-1.6,3.4h3.9
				c-0.9-1-1.4-2.3-1.6-3.4c0.5,0.5,1.3,1,2.2,1c1.9,0,3.2-1.3,3.2-3.2C53.5,50.4,51.9,49.1,50.3,47.8z"/>
			<path class="st2" d="M47.8,58V45.7l0,0c-0.2,0-0.3,0.1-0.4,0.2c-0.6,0.7-1.4,1.3-2.1,1.9c-1.6,1.3-3.2,2.6-3.2,4.7
				c0,1.9,1.3,3.2,3.2,3.2c0.9,0,1.7-0.5,2.2-1c-0.3,1.1-0.7,2.4-1.6,3.4H47.8z"/>
		</g>
		<g>
			<path class="st1" d="M23.7,68.5c-0.7-0.6-1.5-1.2-2.1-1.9c-0.1-0.1-0.2-0.2-0.4-0.2h0c-0.2,0-0.3,0.1-0.4,0.2
				c-0.6,0.7-1.4,1.3-2.1,1.9c-1.6,1.3-3.2,2.6-3.2,4.7c0,1.9,1.3,3.2,3.2,3.2c0.9,0,1.7-0.5,2.2-1c-0.3,1.1-0.7,2.4-1.6,3.4h3.9
				c-0.9-1-1.4-2.3-1.6-3.4c0.5,0.5,1.3,1,2.2,1c1.9,0,3.2-1.3,3.2-3.2C26.9,71.2,25.3,69.8,23.7,68.5z"/>
			<path class="st2" d="M21.2,78.8V66.4h0c-0.2,0-0.3,0.1-0.4,0.2c-0.6,0.7-1.4,1.3-2.1,1.9c-1.6,1.3-3.2,2.6-3.2,4.7
				c0,1.9,1.3,3.2,3.2,3.2c0.9,0,1.7-0.5,2.2-1c-0.3,1.1-0.7,2.4-1.6,3.4H21.2z"/>
		</g>
		<g>
			<path class="st1" d="M50.3,68.5c-0.7-0.6-1.5-1.2-2.1-1.9c-0.1-0.1-0.2-0.2-0.4-0.2h0c-0.2,0-0.3,0.1-0.4,0.2
				c-0.6,0.7-1.4,1.3-2.1,1.9c-1.6,1.3-3.2,2.6-3.2,4.7c0,1.9,1.3,3.2,3.2,3.2c0.9,0,1.7-0.5,2.2-1c-0.3,1.1-0.7,2.4-1.6,3.4h3.9
				c-0.9-1-1.4-2.3-1.6-3.4c0.5,0.5,1.3,1,2.2,1c1.9,0,3.2-1.3,3.2-3.2C53.5,71.2,51.9,69.8,50.3,68.5z"/>
			<path class="st2" d="M47.8,78.8V66.4l0,0c-0.2,0-0.3,0.1-0.4,0.2c-0.6,0.7-1.4,1.3-2.1,1.9c-1.6,1.3-3.2,2.6-3.2,4.7
				c0,1.9,1.3,3.2,3.2,3.2c0.9,0,1.7-0.5,2.2-1c-0.3,1.1-0.7,2.4-1.6,3.4H47.8z"/>
		</g>
		<g>
			<path class="st1" d="M37.1,36.4c-0.7-0.6-1.5-1.2-2.1-1.9c-0.1-0.1-0.2-0.2-0.4-0.2h0c-0.2,0-0.3,0.1-0.4,0.2
				c-0.6,0.7-1.4,1.3-2.1,1.9c-1.6,1.3-3.2,2.6-3.2,4.7c0,1.9,1.3,3.2,3.2,3.2c0.9,0,1.7-0.5,2.2-1c-0.3,1.1-0.7,2.4-1.6,3.4h3.9
				c-0.9-1-1.4-2.3-1.6-3.4c0.5,0.5,1.3,1,2.2,1c1.9,0,3.2-1.3,3.2-3.2C40.2,39,38.6,37.7,37.1,36.4z"/>
			<path class="st2" d="M34.5,46.6V34.3h0c-0.2,0-0.3,0.1-0.4,0.2c-0.6,0.7-1.4,1.3-2.1,1.9c-1.6,1.3-3.2,2.6-3.2,4.7
				c0,1.9,1.3,3.2,3.2,3.2c0.9,0,1.7-0.5,2.2-1c-0.3,1.1-0.7,2.4-1.6,3.4H34.5z"/>
		</g>
	</g>
</g>
</svg>
