<?xml version="1.0" encoding="utf-8"?>
<!-- Generator: Adobe Illustrator 26.5.0, SVG Export Plug-In . SVG Version: 6.00 Build 0)  -->
<svg version="1.1" id="Layer_1" xmlns="http://www.w3.org/2000/svg" xmlns:xlink="http://www.w3.org/1999/xlink" x="0px" y="0px"
	 viewBox="0 0 69.1 103.7" style="enable-background:new 0 0 69.1 103.7;" xml:space="preserve">
<style type="text/css">
	.st0{fill:#F2F2F2;}
	.st1{fill:#333333;}
	.st2{fill:#4D4D4D;}
</style>
<g>
	<path class="st0" d="M69.1,101c0,1.5-1.2,2.7-2.7,2.7H2.7c-1.5,0-2.7-1.2-2.7-2.7V2.7C0,1.2,1.2,0,2.7,0h63.7
		c1.5,0,2.7,1.2,2.7,2.7V101z"/>
	<g>
		<g>
			<path class="st1" d="M62.5,6.7c-0.6-0.5-1.2-1-1.7-1.6C60.7,5.1,60.6,5,60.5,5h0c-0.1,0-0.2,0.1-0.3,0.1
				c-0.5,0.6-1.1,1.1-1.7,1.6c-1.3,1-2.6,2.1-2.6,3.8c0,1.5,1.1,2.6,2.6,2.6c0.7,0,1.4-0.4,1.8-0.8c-0.2,0.9-0.6,2-1.3,2.8h3.2
				c-0.7-0.8-1.1-1.9-1.3-2.8c0.4,0.4,1.1,0.8,1.8,0.8c1.5,0,2.6-1.1,2.6-2.6C65.1,8.9,63.8,7.8,62.5,6.7z"/>
			<path class="st2" d="M60.5,15.1V5h0c-0.1,0-0.2,0.1-0.3,0.1c-0.5,0.6-1.1,1.1-1.7,1.6c-1.3,1-2.6,2.1-2.6,3.8
				c0,1.5,1.1,2.6,2.6,2.6c0.7,0,1.4-0.4,1.8-0.8c-0.2,0.9-0.6,2-1.3,2.8H60.5z"/>
		</g>
		<g>
			<path class="st1" d="M4,12.4c0-1.2,0.7-2.1,1.9-2.6l0,0C4.8,9.3,4.4,8.4,4.4,7.6c0-1.5,1.3-2.6,3-2.6c1.9,0,2.8,1.2,2.8,2.4
				c0,0.8-0.4,1.7-1.6,2.3v0c1.2,0.5,2,1.3,2,2.5c0,1.7-1.5,2.8-3.3,2.8C5.2,15.1,4,13.9,4,12.4z M9.2,12.4c0-1.2-0.8-1.8-2.1-2.1
				c-1.1,0.3-1.8,1.1-1.8,2c0,1,0.7,1.9,2,1.9C8.5,14.1,9.2,13.4,9.2,12.4z M5.6,7.5c0,1,0.7,1.5,1.9,1.8C8.3,9,9,8.4,9,7.5
				c0-0.8-0.5-1.6-1.7-1.6C6.2,5.9,5.6,6.7,5.6,7.5z"/>
		</g>
	</g>
	<g>
		<g>
			<path class="st1" d="M6.6,96c0.6,0.5,1.2,1,1.7,1.6c0.1,0.1,0.2,0.1,0.3,0.1h0c0.1,0,0.2-0.1,0.3-0.1c0.5-0.6,1.1-1.1,1.7-1.6
				c1.3-1,2.6-2.1,2.6-3.8c0-1.5-1.1-2.6-2.6-2.6c-0.7,0-1.4,0.4-1.8,0.8c0.2-0.9,0.6-2,1.3-2.8H7.1c0.7,0.8,1.1,1.9,1.3,2.8
				C8,90,7.3,89.6,6.6,89.6c-1.5,0-2.6,1.1-2.6,2.6C4,93.8,5.3,94.9,6.6,96z"/>
			<path class="st2" d="M8.7,87.6v10.1h0c0.1,0,0.2-0.1,0.3-0.1c0.5-0.6,1.1-1.1,1.7-1.6c1.3-1,2.6-2.1,2.6-3.8
				c0-1.5-1.1-2.6-2.6-2.6c-0.7,0-1.4,0.4-1.8,0.8c0.2-0.9,0.6-2,1.3-2.8H8.7z"/>
		</g>
		<g>
			<path class="st1" d="M65.1,90.2c0,1.2-0.7,2.1-1.9,2.6l0,0c1.1,0.5,1.5,1.3,1.5,2.2c0,1.5-1.3,2.6-3,2.6c-1.9,0-2.8-1.2-2.8-2.4
				c0-0.8,0.4-1.7,1.6-2.3v0c-1.2-0.5-2-1.3-2-2.5c0-1.7,1.5-2.8,3.3-2.8C63.9,87.6,65.1,88.8,65.1,90.2z M59.9,90.3
				c0,1.2,0.8,1.8,2.1,2.1c1.1-0.3,1.8-1.1,1.8-2c0-1-0.7-1.9-2-1.9C60.6,88.6,59.9,89.3,59.9,90.3z M63.5,95.2c0-1-0.7-1.5-1.9-1.8
				c-0.8,0.3-1.5,0.9-1.5,1.8c0,0.8,0.5,1.6,1.7,1.6C62.9,96.7,63.5,96,63.5,95.2z"/>
		</g>
	</g>
	<g>
		<g>
			<path class="st1" d="M23.7,27c-0.7-0.6-1.5-1.2-2.1-1.9c-0.1-0.1-0.2-0.2-0.4-0.2h0c-0.2,0-0.3,0.1-0.4,0.2
				c-0.6,0.7-1.4,1.3-2.1,1.9c-1.6,1.3-3.2,2.6-3.2,4.7c0,1.9,1.3,3.2,3.2,3.2c0.9,0,1.7-0.5,2.2-1c-0.3,1.1-0.7,2.4-1.6,3.4h3.9
				c-0.9-1-1.4-2.3-1.6-3.4c0.5,0.5,1.3,1,2.2,1c1.9,0,3.2-1.3,3.2-3.2C26.9,29.6,25.3,28.3,23.7,27z"/>
			<path class="st2" d="M21.2,37.3V24.9l0,0c-0.2,0-0.3,0.1-0.4,0.2c-0.6,0.7-1.4,1.3-2.1,1.9c-1.6,1.3-3.2,2.6-3.2,4.7
				c0,1.9,1.3,3.2,3.2,3.2c0.9,0,1.7-0.5,2.2-1c-0.3,1.1-0.7,2.4-1.6,3.4H21.2z"/>
		</g>
		<g>
			<path class="st1" d="M50.3,27c-0.7-0.6-1.5-1.2-2.1-1.9c-0.1-0.1-0.2-0.2-0.4-0.2h0c-0.2,0-0.3,0.1-0.4,0.2
				c-0.6,0.7-1.4,1.3-2.1,1.9c-1.6,1.3-3.2,2.6-3.2,4.7c0,1.9,1.3,3.2,3.2,3.2c0.9,0,1.7-0.5,2.2-1c-0.3,1.1-0.7,2.4-1.6,3.4h3.9
				c-0.9-1-1.4-2.3-1.6-3.4c0.5,0.5,1.3,1,2.2,1c1.9,0,3.2-1.3,3.2-3.2C53.5,29.6,51.9,28.3,50.3,27z"/>
			<path class="st2" d="M47.8,37.3V24.9h0c-0.2,0-0.3,0.1-0.4,0.2c-0.6,0.7-1.4,1.3-2.1,1.9c-1.6,1.3-3.2,2.6-3.2,4.7
				c0,1.9,1.3,3.2,3.2,3.2c0.9,0,1.7-0.5,2.2-1c-0.3,1.1-0.7,2.4-1.6,3.4H47.8z"/>
		</g>
		<g>
			<path class="st1" d="M23.7,47.8c-0.7-0.6-1.5-1.2-2.1-1.9c-0.1-0.1-0.2-0.2-0.4-0.2h0c-0.2,0-0.3,0.1-0.4,0.2
				c-0.6,0.7-1.4,1.3-2.1,1.9c-1.6,1.3-3.2,2.6-3.2,4.7c0,1.9,1.3,3.2,3.2,3.2c0.9,0,1.7-0.5,2.2-1c-0.3,1.1-0.7,2.4-1.6,3.4h3.9
				c-0.9-1-1.4-2.3-1.6-3.4c0.5,0.5,1.3,1,2.2,1c1.9,0,3.2-1.3,3.2-3.2C26.9,50.4,25.3,49.1,23.7,47.8z"/>
			<path class="st2" d="M21.2,58V45.7l0,0c-0.2,0-0.3,0.1-0.4,0.2c-0.6,0.7-1.4,1.3-2.1,1.9c-1.6,1.3-3.2,2.6-3.2,4.7
				c0,1.9,1.3,3.2,3.2,3.2c0.9,0,1.7-0.5,2.2-1c-0.3,1.1-0.7,2.4-1.6,3.4H21.2z"/>
		</g>
		<g>
			<path class="st1" d="M50.3,47.8c-0.7-0.6-1.5-1.2-2.1-1.9c-0.1-0.1-0.2-0.2-0.4-0.2h0c-0.2,0-0.3,0.1-0.4,0.2
				c-0.6,0.7-1.4,1.3-2.1,1.9c-1.6,1.3-3.2,2.6-3.2,4.7c0,1.9,1.3,3.2,3.2,3.2c0.9,0,1.7-0.5,2.2-1c-0.3,1.1-0.7,2.4-1.6,3.4h3.9
				c-0.9-1-1.4-2.3-1.6-3.4c0.5,0.5,1.3,1,2.2,1c1.9,0,3.2-1.3,3.2-3.2C53.5,50.4,51.9,49.1,50.3,47.8z"/>
			<path class="st2" d="M47.8,58V45.7h0c-0.2,0-0.3,0.1-0.4,0.2c-0.6,0.7-1.4,1.3-2.1,1.9c-1.6,1.3-3.2,2.6-3.2,4.7
				c0,1.9,1.3,3.2,3.2,3.2c0.9,0,1.7-0.5,2.2-1c-0.3,1.1-0.7,2.4-1.6,3.4H47.8z"/>
		</g>
		<g>
			<path class="st1" d="M23.7,68.5c-0.7-0.6-1.5-1.2-2.1-1.9c-0.1-0.1-0.2-0.2-0.4-0.2h0c-0.2,0-0.3,0.1-0.4,0.2
				c-0.6,0.7-1.4,1.3-2.1,1.9c-1.6,1.3-3.2,2.6-3.2,4.7c0,1.9,1.3,3.2,3.2,3.2c0.9,0,1.7-0.5,2.2-1c-0.3,1.1-0.7,2.4-1.6,3.4h3.9
				c-0.9-1-1.4-2.3-1.6-3.4c0.5,0.5,1.3,1,2.2,1c1.9,0,3.2-1.3,3.2-3.2C26.9,71.2,25.3,69.8,23.7,68.5z"/>
			<path class="st2" d="M21.2,78.8V66.4l0,0c-0.2,0-0.3,0.1-0.4,0.2c-0.6,0.7-1.4,1.3-2.1,1.9c-1.6,1.3-3.2,2.6-3.2,4.7
				c0,1.9,1.3,3.2,3.2,3.2c0.9,0,1.7-0.5,2.2-1c-0.3,1.1-0.7,2.4-1.6,3.4H21.2z"/>
		</g>
		<g>
			<path class="st1" d="M50.3,68.5c-0.7-0.6-1.5-1.2-2.1-1.9c-0.1-0.1-0.2-0.2-0.4-0.2h0c-0.2,0-0.3,0.1-0.4,0.2
				c-0.6,0.7-1.4,1.3-2.1,1.9c-1.6,1.3-3.2,2.6-3.2,4.7c0,1.9,1.3,3.2,3.2,3.2c0.9,0,1.7-0.5,2.2-1c-0.3,1.1-0.7,2.4-1.6,3.4h3.9
				c-0.9-1-1.4-2.3-1.6-3.4c0.5,0.5,1.3,1,2.2,1c1.9,0,3.2-1.3,3.2-3.2C53.5,71.2,51.9,69.8,50.3,68.5z"/>
			<path class="st2" d="M47.8,78.8V66.4h0c-0.2,0-0.3,0.1-0.4,0.2c-0.6,0.7-1.4,1.3-2.1,1.9c-1.6,1.3-3.2,2.6-3.2,4.7
				c0,1.9,1.3,3.2,3.2,3.2c0.9,0,1.7-0.5,2.2-1c-0.3,1.1-0.7,2.4-1.6,3.4H47.8z"/>
		</g>
		<g>
			<path class="st1" d="M37.1,36.4c-0.7-0.6-1.5-1.2-2.1-1.9c-0.1-0.1-0.2-0.2-0.4-0.2h0c-0.2,0-0.3,0.1-0.4,0.2
				c-0.6,0.7-1.4,1.3-2.1,1.9c-1.6,1.3-3.2,2.6-3.2,4.7c0,1.9,1.3,3.2,3.2,3.2c0.9,0,1.7-0.5,2.2-1c-0.3,1.1-0.7,2.4-1.6,3.4h3.9
				c-0.9-1-1.4-2.3-1.6-3.4c0.5,0.5,1.3,1,2.2,1c1.9,0,3.2-1.3,3.2-3.2C40.2,39,38.6,37.7,37.1,36.4z"/>
			<path class="st2" d="M34.5,46.6V34.3l0,0c-0.2,0-0.3,0.1-0.4,0.2c-0.6,0.7-1.4,1.3-2.1,1.9c-1.6,1.3-3.2,2.6-3.2,4.7
				c0,1.9,1.3,3.2,3.2,3.2c0.9,0,1.7-0.5,2.2-1c-0.3,1.1-0.7,2.4-1.6,3.4H34.5z"/>
		</g>
		<g>
			<path class="st1" d="M37.1,58.5c-0.7-0.6-1.5-1.2-2.1-1.9c-0.1-0.1-0.2-0.2-0.4-0.2h0c-0.2,0-0.3,0.1-0.4,0.2
				c-0.6,0.7-1.4,1.3-2.1,1.9c-1.6,1.3-3.2,2.6-3.2,4.7c0,1.9,1.3,3.2,3.2,3.2c0.9,0,1.7-0.5,2.2-1c-0.3,1.1-0.7,2.4-1.6,3.4h3.9
				c-0.9-1-1.4-2.3-1.6-3.4c0.5,0.5,1.3,1,2.2,1c1.9,0,3.2-1.3,3.2-3.2C40.2,61.1,38.6,59.7,37.1,58.5z"/>
			<path class="st2" d="M34.5,68.7V56.3l0,0c-0.2,0-0.3,0.1-0.4,0.2c-0.6,0.7-1.4,1.3-2.1,1.9c-1.6,1.3-3.2,2.6-3.2,4.7
				c0,1.9,1.3,3.2,3.2,3.2c0.9,0,1.7-0.5,2.2-1c-0.3,1.1-0.7,2.4-1.6,3.4H34.5z"/>
		</g>
	</g>
</g>
</svg>
