<?xml version="1.0" encoding="utf-8"?>
<!-- Generator: Adobe Illustrator 26.5.0, SVG Export Plug-In . SVG Version: 6.00 Build 0)  -->
<svg version="1.1" id="Layer_1" xmlns="http://www.w3.org/2000/svg" xmlns:xlink="http://www.w3.org/1999/xlink" x="0px" y="0px"
	 viewBox="0 0 69.1 103.7" style="enable-background:new 0 0 69.1 103.7;" xml:space="preserve">
<style type="text/css">
	.st0{fill:#F2F2F2;}
	.st1{fill:#333333;}
	.st2{fill:#4D4D4D;}
</style>
<g>
	<path class="st0" d="M69.1,101c0,1.5-1.2,2.7-2.7,2.7H2.7c-1.5,0-2.7-1.2-2.7-2.7V2.7C0,1.2,1.2,0,2.7,0h63.7
		c1.5,0,2.7,1.2,2.7,2.7V101z"/>
	<g>
		<g>
			<path class="st1" d="M62.5,6.7c-0.6-0.5-1.2-1-1.7-1.6C60.7,5.1,60.6,5,60.5,5h0c-0.1,0-0.2,0.1-0.3,0.1
				c-0.5,0.6-1.1,1.1-1.7,1.6c-1.3,1-2.6,2.1-2.6,3.8c0,1.5,1.1,2.6,2.6,2.6c0.7,0,1.4-0.4,1.8-0.8c-0.2,0.9-0.6,2-1.3,2.8h3.2
				c-0.7-0.8-1.1-1.9-1.3-2.8c0.4,0.4,1.1,0.8,1.8,0.8c1.5,0,2.6-1.1,2.6-2.6C65.1,8.9,63.8,7.8,62.5,6.7z"/>
			<path class="st2" d="M60.5,15.1V5l0,0c-0.1,0-0.2,0.1-0.3,0.1c-0.5,0.6-1.1,1.1-1.7,1.6c-1.3,1-2.6,2.1-2.6,3.8
				c0,1.5,1.1,2.6,2.6,2.6c0.7,0,1.4-0.4,1.8-0.8c-0.2,0.9-0.6,2-1.3,2.8H60.5z"/>
		</g>
		<g>
			<path class="st1" d="M4.8,14c0.3,0,0.6,0,1.1,0c0.8-0.1,1.5-0.4,2-0.9c0.6-0.6,1.1-1.4,1.3-2.6h0c-0.5,0.7-1.3,1-2.3,1
				c-1.8,0-2.9-1.3-2.9-3C4,6.6,5.3,5,7.3,5c2,0,3.2,1.6,3.2,4.1c0,2.1-0.7,3.6-1.7,4.6C8.1,14.4,7.1,14.9,6,15
				c-0.5,0.1-0.9,0.1-1.2,0.1V14z M5.3,8.4c0,1.2,0.7,2.1,1.9,2.1c0.9,0,1.6-0.4,1.9-1c0.1-0.1,0.1-0.3,0.1-0.5c0-1.7-0.6-2.9-2-2.9
				C6.1,6,5.3,7,5.3,8.4z"/>
		</g>
	</g>
	<g>
		<g>
			<path class="st1" d="M6.6,97c0.6,0.5,1.2,1,1.7,1.6c0.1,0.1,0.2,0.1,0.3,0.1h0c0.1,0,0.2-0.1,0.3-0.1c0.5-0.6,1.1-1.1,1.7-1.6
				c1.3-1,2.6-2.1,2.6-3.8c0-1.5-1.1-2.6-2.6-2.6c-0.7,0-1.4,0.4-1.8,0.8c0.2-0.9,0.6-2,1.3-2.8H7.1c0.7,0.8,1.1,1.9,1.3,2.8
				C8,91,7.3,90.6,6.6,90.6c-1.5,0-2.6,1.1-2.6,2.6C4,94.8,5.3,95.9,6.6,97z"/>
			<path class="st2" d="M8.7,88.6v10.1l0,0c0.1,0,0.2-0.1,0.3-0.1c0.5-0.6,1.1-1.1,1.7-1.6c1.3-1,2.6-2.1,2.6-3.8
				c0-1.5-1.1-2.6-2.6-2.6c-0.7,0-1.4,0.4-1.8,0.8c0.2-0.9,0.6-2,1.3-2.8H8.7z"/>
		</g>
		<g>
			<path class="st1" d="M64.3,89.7c-0.3,0-0.6,0-1.1,0c-0.8,0.1-1.5,0.4-2,0.9c-0.6,0.6-1.1,1.4-1.3,2.6h0c0.5-0.7,1.3-1,2.3-1
				c1.8,0,2.9,1.3,2.9,3c0,1.8-1.3,3.5-3.3,3.5c-2,0-3.2-1.6-3.2-4.1c0-2.1,0.7-3.6,1.7-4.6c0.8-0.7,1.8-1.2,2.8-1.3
				c0.5-0.1,0.9-0.1,1.2-0.1V89.7z M63.8,95.3c0-1.2-0.7-2.1-1.9-2.1c-0.9,0-1.6,0.4-1.9,1c-0.1,0.1-0.1,0.3-0.1,0.5
				c0,1.7,0.6,2.9,2,2.9C63,97.7,63.8,96.7,63.8,95.3z"/>
		</g>
	</g>
	<g>
		<g>
			<g>
				<path class="st1" d="M23.7,23c-0.7-0.6-1.5-1.2-2.1-1.9c-0.1-0.1-0.2-0.2-0.4-0.2h0c-0.2,0-0.3,0.1-0.4,0.2
					c-0.6,0.7-1.4,1.3-2.1,1.9c-1.6,1.3-3.2,2.6-3.2,4.7c0,1.9,1.3,3.2,3.2,3.2c0.9,0,1.7-0.5,2.2-1c-0.3,1.1-0.7,2.4-1.6,3.4h3.9
					c-0.9-1-1.4-2.3-1.6-3.4c0.5,0.5,1.3,1,2.2,1c1.9,0,3.2-1.3,3.2-3.2C26.9,25.6,25.3,24.3,23.7,23z"/>
				<path class="st2" d="M21.2,33.2V20.9h0c-0.2,0-0.3,0.1-0.4,0.2c-0.6,0.7-1.4,1.3-2.1,1.9c-1.6,1.3-3.2,2.6-3.2,4.7
					c0,1.9,1.3,3.2,3.2,3.2c0.9,0,1.7-0.5,2.2-1c-0.3,1.1-0.7,2.4-1.6,3.4H21.2z"/>
			</g>
			<g>
				<path class="st1" d="M50.3,23c-0.7-0.6-1.5-1.2-2.1-1.9c-0.1-0.1-0.2-0.2-0.4-0.2h0c-0.2,0-0.3,0.1-0.4,0.2
					c-0.6,0.7-1.4,1.3-2.1,1.9c-1.6,1.3-3.2,2.6-3.2,4.7c0,1.9,1.3,3.2,3.2,3.2c0.9,0,1.7-0.5,2.2-1c-0.3,1.1-0.7,2.4-1.6,3.4h3.9
					c-0.9-1-1.4-2.3-1.6-3.4c0.5,0.5,1.3,1,2.2,1c1.9,0,3.2-1.3,3.2-3.2C53.5,25.6,51.9,24.3,50.3,23z"/>
				<path class="st2" d="M47.8,33.2V20.9l0,0c-0.2,0-0.3,0.1-0.4,0.2c-0.6,0.7-1.4,1.3-2.1,1.9c-1.6,1.3-3.2,2.6-3.2,4.7
					c0,1.9,1.3,3.2,3.2,3.2c0.9,0,1.7-0.5,2.2-1c-0.3,1.1-0.7,2.4-1.6,3.4H47.8z"/>
			</g>
		</g>
		<g>
			<g>
				<path class="st1" d="M23.7,39.2c-0.7-0.6-1.5-1.2-2.1-1.9c-0.1-0.1-0.2-0.2-0.4-0.2h0c-0.2,0-0.3,0.1-0.4,0.2
					c-0.6,0.7-1.4,1.3-2.1,1.9c-1.6,1.3-3.2,2.6-3.2,4.7c0,1.9,1.3,3.2,3.2,3.2c0.9,0,1.7-0.5,2.2-1c-0.3,1.1-0.7,2.4-1.6,3.4h3.9
					c-0.9-1-1.4-2.3-1.6-3.4c0.5,0.5,1.3,1,2.2,1c1.9,0,3.2-1.3,3.2-3.2C26.9,41.9,25.3,40.5,23.7,39.2z"/>
				<path class="st2" d="M21.2,49.5V37.1h0c-0.2,0-0.3,0.1-0.4,0.2c-0.6,0.7-1.4,1.3-2.1,1.9c-1.6,1.3-3.2,2.6-3.2,4.7
					c0,1.9,1.3,3.2,3.2,3.2c0.9,0,1.7-0.5,2.2-1c-0.3,1.1-0.7,2.4-1.6,3.4H21.2z"/>
			</g>
			<g>
				<path class="st1" d="M50.3,39.2c-0.7-0.6-1.5-1.2-2.1-1.9c-0.1-0.1-0.2-0.2-0.4-0.2h0c-0.2,0-0.3,0.1-0.4,0.2
					c-0.6,0.7-1.4,1.3-2.1,1.9c-1.6,1.3-3.2,2.6-3.2,4.7c0,1.9,1.3,3.2,3.2,3.2c0.9,0,1.7-0.5,2.2-1c-0.3,1.1-0.7,2.4-1.6,3.4h3.9
					c-0.9-1-1.4-2.3-1.6-3.4c0.5,0.5,1.3,1,2.2,1c1.9,0,3.2-1.3,3.2-3.2C53.5,41.9,51.9,40.5,50.3,39.2z"/>
				<path class="st2" d="M47.8,49.5V37.1l0,0c-0.2,0-0.3,0.1-0.4,0.2c-0.6,0.7-1.4,1.3-2.1,1.9c-1.6,1.3-3.2,2.6-3.2,4.7
					c0,1.9,1.3,3.2,3.2,3.2c0.9,0,1.7-0.5,2.2-1c-0.3,1.1-0.7,2.4-1.6,3.4H47.8z"/>
			</g>
		</g>
		<g>
			<g>
				<path class="st1" d="M23.7,55.5c-0.7-0.6-1.5-1.2-2.1-1.9c-0.1-0.1-0.2-0.2-0.4-0.2h0c-0.2,0-0.3,0.1-0.4,0.2
					c-0.6,0.7-1.4,1.3-2.1,1.9c-1.6,1.3-3.2,2.6-3.2,4.7c0,1.9,1.3,3.2,3.2,3.2c0.9,0,1.7-0.5,2.2-1c-0.3,1.1-0.7,2.4-1.6,3.4h3.9
					c-0.9-1-1.4-2.3-1.6-3.4c0.5,0.5,1.3,1,2.2,1c1.9,0,3.2-1.3,3.2-3.2C26.9,58.1,25.3,56.8,23.7,55.5z"/>
				<path class="st2" d="M21.2,65.7V53.4h0c-0.2,0-0.3,0.1-0.4,0.2c-0.6,0.7-1.4,1.3-2.1,1.9c-1.6,1.3-3.2,2.6-3.2,4.7
					c0,1.9,1.3,3.2,3.2,3.2c0.9,0,1.7-0.5,2.2-1c-0.3,1.1-0.7,2.4-1.6,3.4H21.2z"/>
			</g>
			<g>
				<path class="st1" d="M50.3,55.5c-0.7-0.6-1.5-1.2-2.1-1.9c-0.1-0.1-0.2-0.2-0.4-0.2h0c-0.2,0-0.3,0.1-0.4,0.2
					c-0.6,0.7-1.4,1.3-2.1,1.9c-1.6,1.3-3.2,2.6-3.2,4.7c0,1.9,1.3,3.2,3.2,3.2c0.9,0,1.7-0.5,2.2-1c-0.3,1.1-0.7,2.4-1.6,3.4h3.9
					c-0.9-1-1.4-2.3-1.6-3.4c0.5,0.5,1.3,1,2.2,1c1.9,0,3.2-1.3,3.2-3.2C53.5,58.1,51.9,56.8,50.3,55.5z"/>
				<path class="st2" d="M47.8,65.7V53.4l0,0c-0.2,0-0.3,0.1-0.4,0.2c-0.6,0.7-1.4,1.3-2.1,1.9c-1.6,1.3-3.2,2.6-3.2,4.7
					c0,1.9,1.3,3.2,3.2,3.2c0.9,0,1.7-0.5,2.2-1c-0.3,1.1-0.7,2.4-1.6,3.4H47.8z"/>
			</g>
		</g>
		<g>
			<g>
				<path class="st1" d="M23.7,71.7c-0.7-0.6-1.5-1.2-2.1-1.9c-0.1-0.1-0.2-0.2-0.4-0.2h0c-0.2,0-0.3,0.1-0.4,0.2
					c-0.6,0.7-1.4,1.3-2.1,1.9c-1.6,1.3-3.2,2.6-3.2,4.7c0,1.9,1.3,3.2,3.2,3.2c0.9,0,1.7-0.5,2.2-1c-0.3,1.1-0.7,2.4-1.6,3.4h3.9
					c-0.9-1-1.4-2.3-1.6-3.4c0.5,0.5,1.3,1,2.2,1c1.9,0,3.2-1.3,3.2-3.2C26.9,74.4,25.3,73,23.7,71.7z"/>
				<path class="st2" d="M21.2,82V69.6h0c-0.2,0-0.3,0.1-0.4,0.2c-0.6,0.7-1.4,1.3-2.1,1.9c-1.6,1.3-3.2,2.6-3.2,4.7
					c0,1.9,1.3,3.2,3.2,3.2c0.9,0,1.7-0.5,2.2-1c-0.3,1.1-0.7,2.4-1.6,3.4H21.2z"/>
			</g>
			<g>
				<path class="st1" d="M50.3,71.7c-0.7-0.6-1.5-1.2-2.1-1.9c-0.1-0.1-0.2-0.2-0.4-0.2h0c-0.2,0-0.3,0.1-0.4,0.2
					c-0.6,0.7-1.4,1.3-2.1,1.9c-1.6,1.3-3.2,2.6-3.2,4.7c0,1.9,1.3,3.2,3.2,3.2c0.9,0,1.7-0.5,2.2-1c-0.3,1.1-0.7,2.4-1.6,3.4h3.9
					c-0.9-1-1.4-2.3-1.6-3.4c0.5,0.5,1.3,1,2.2,1c1.9,0,3.2-1.3,3.2-3.2C53.5,74.4,51.9,73,50.3,71.7z"/>
				<path class="st2" d="M47.8,82V69.6l0,0c-0.2,0-0.3,0.1-0.4,0.2c-0.6,0.7-1.4,1.3-2.1,1.9c-1.6,1.3-3.2,2.6-3.2,4.7
					c0,1.9,1.3,3.2,3.2,3.2c0.9,0,1.7-0.5,2.2-1c-0.3,1.1-0.7,2.4-1.6,3.4H47.8z"/>
			</g>
		</g>
		<g>
			<path class="st1" d="M37.1,47.7c-0.7-0.6-1.5-1.2-2.1-1.9c-0.1-0.1-0.2-0.2-0.4-0.2h0c-0.2,0-0.3,0.1-0.4,0.2
				c-0.6,0.7-1.4,1.3-2.1,1.9c-1.6,1.3-3.2,2.6-3.2,4.7c0,1.9,1.3,3.2,3.2,3.2c0.9,0,1.7-0.5,2.2-1c-0.3,1.1-0.7,2.4-1.6,3.4h3.9
				c-0.9-1-1.4-2.3-1.6-3.4c0.5,0.5,1.3,1,2.2,1c1.9,0,3.2-1.3,3.2-3.2C40.2,50.3,38.6,49,37.1,47.7z"/>
			<path class="st2" d="M34.5,57.9V45.6h0c-0.2,0-0.3,0.1-0.4,0.2c-0.6,0.7-1.4,1.3-2.1,1.9c-1.6,1.3-3.2,2.6-3.2,4.7
				c0,1.9,1.3,3.2,3.2,3.2c0.9,0,1.7-0.5,2.2-1c-0.3,1.1-0.7,2.4-1.6,3.4H34.5z"/>
		</g>
	</g>
</g>
</svg>
