<?xml version="1.0" encoding="utf-8"?>
<!-- Generator: Adobe Illustrator 26.5.0, SVG Export Plug-In . SVG Version: 6.00 Build 0)  -->
<svg version="1.1" id="Layer_1" xmlns="http://www.w3.org/2000/svg" xmlns:xlink="http://www.w3.org/1999/xlink" x="0px" y="0px"
	 viewBox="0 0 69.1 103.7" style="enable-background:new 0 0 69.1 103.7;" xml:space="preserve">
<style type="text/css">
	.st0{fill:#F2F2F2;}
	.st1{fill:#333333;}
	.st2{fill:#4D4D4D;}
</style>
<g>
	<path class="st0" d="M69.1,101c0,1.5-1.2,2.7-2.7,2.7H2.7c-1.5,0-2.7-1.2-2.7-2.7V2.7C0,1.2,1.2,0,2.7,0h63.7
		c1.5,0,2.7,1.2,2.7,2.7V101z"/>
	<g>
		<path class="st1" d="M42.2,39.4c-2.3-1.9-4.6-3.8-6.4-5.9c-0.3-0.4-0.8-0.6-1.2-0.6h-0.1c-0.5,0-0.9,0.2-1.2,0.6
			c-1.8,2.1-4.2,4.1-6.4,5.9c-4.8,3.9-9.8,8-9.8,14.4c0,5.7,4,9.7,9.8,9.7c2.8,0,5.2-1.6,6.8-3.1c-0.8,3.4-2.3,7.4-5.1,10.5h11.9
			c-2.8-3.1-4.3-7.1-5.1-10.5c1.6,1.5,4.1,3.1,6.9,3.1c5.7,0,9.8-4,9.8-9.7C52,47.4,47,43.3,42.2,39.4z"/>
		<path class="st2" d="M34.5,70.8v-38h0c-0.5,0-0.9,0.2-1.2,0.6c-1.8,2.1-4.2,4.1-6.4,5.9c-4.8,3.9-9.8,8-9.8,14.4
			c0,5.7,4,9.7,9.8,9.7c2.8,0,5.2-1.6,6.8-3.1c-0.8,3.4-2.3,7.4-5.1,10.5H34.5z"/>
	</g>
	<g>
		<path class="st1" d="M62.5,6.7c-0.6-0.5-1.2-1-1.7-1.6C60.7,5.1,60.6,5,60.5,5h0c-0.1,0-0.2,0.1-0.3,0.1c-0.5,0.6-1.1,1.1-1.7,1.6
			c-1.3,1.1-2.6,2.1-2.6,3.8c0,1.5,1.1,2.6,2.6,2.6c0.7,0,1.4-0.4,1.8-0.8c-0.2,0.9-0.6,2-1.3,2.8H62c-0.7-0.8-1.1-1.9-1.3-2.8
			c0.4,0.4,1.1,0.8,1.8,0.8c1.5,0,2.6-1.1,2.6-2.6C65.1,8.9,63.8,7.8,62.5,6.7z"/>
		<path class="st2" d="M60.4,15.1V5l0,0c-0.1,0-0.2,0.1-0.3,0.1c-0.5,0.6-1.1,1.1-1.7,1.6c-1.3,1.1-2.6,2.1-2.6,3.8
			c0,1.5,1.1,2.6,2.6,2.6c0.7,0,1.4-0.4,1.8-0.8c-0.2,0.9-0.6,2-1.3,2.8H60.4z"/>
	</g>
	<g>
		<path class="st1" d="M6.6,97c0.6,0.5,1.2,1,1.7,1.6c0.1,0.1,0.2,0.1,0.3,0.1h0c0.1,0,0.2-0.1,0.3-0.1c0.5-0.6,1.1-1.1,1.7-1.6
			c1.3-1.1,2.6-2.1,2.6-3.8c0-1.5-1.1-2.6-2.6-2.6c-0.7,0-1.4,0.4-1.8,0.8c0.2-0.9,0.6-2,1.3-2.8H7.1c0.7,0.8,1.1,1.9,1.3,2.8
			C8,91,7.3,90.5,6.6,90.5c-1.5,0-2.6,1.1-2.6,2.6C4,94.8,5.3,95.9,6.6,97z"/>
		<path class="st2" d="M8.7,88.6v10.1l0,0c0.1,0,0.2-0.1,0.3-0.1c0.5-0.6,1.1-1.1,1.7-1.6c1.3-1.1,2.6-2.1,2.6-3.8
			c0-1.5-1.1-2.6-2.6-2.6c-0.7,0-1.4,0.4-1.8,0.8c0.2-0.9,0.6-2,1.3-2.8H8.7z"/>
	</g>
	<g>
		<path class="st1" d="M6.4,11.9l-1,3.2H4L7.4,5H9l3.5,10.1h-1.4L10,11.9H6.4z M9.7,10.9L8.7,8C8.5,7.3,8.3,6.7,8.2,6.2h0
			C8,6.8,7.9,7.4,7.7,8l-1,2.9H9.7z"/>
	</g>
	<g>
		<path class="st1" d="M62.7,91.8l1-3.2h1.3l-3.4,10.1h-1.6l-3.5-10.1h1.4l1.1,3.2H62.7z M59.4,92.8l1,2.9c0.2,0.7,0.4,1.3,0.5,1.8
			h0c0.2-0.6,0.3-1.2,0.5-1.8l1-2.9H59.4z"/>
	</g>
</g>
</svg>
