<?xml version="1.0" encoding="utf-8"?>
<!-- Generator: Adobe Illustrator 26.5.0, SVG Export Plug-In . SVG Version: 6.00 Build 0)  -->
<svg version="1.1" id="Layer_1" xmlns="http://www.w3.org/2000/svg" xmlns:xlink="http://www.w3.org/1999/xlink" x="0px" y="0px"
	 viewBox="0 0 69.1 103.7" style="enable-background:new 0 0 69.1 103.7;" xml:space="preserve">
<style type="text/css">
	.st0{fill:#F2F2F2;}
	.st1{fill:#333333;}
	.st2{fill:#4D4D4D;}
	.st3{fill:#AA292E;}
	.st4{fill:#0B050F;}
	.st5{fill:#AD6E2D;}
	.st6{fill:#1F2D6C;}
	.st7{fill:#3856C8;}
	.st8{fill:#BF9B4D;}
	.st9{fill:#E8EFFF;}
	.st10{fill:#C9D8F7;}
	.st11{fill:#715C57;}
	.st12{fill:#AA7941;}
	.st13{fill:#DCE3F2;}
	.st14{fill:#D28537;}
	.st15{fill:#A86B2C;}
	.st16{fill:#B3712E;}
	.st17{fill:#B87530;}
	.st18{fill:#BD7831;}
	.st19{fill:#2A3757;}
</style>
<g>
	<path class="st0" d="M69.1,101c0,1.5-1.2,2.7-2.7,2.7H2.7c-1.5,0-2.7-1.2-2.7-2.7V2.7C0,1.2,1.2,0,2.7,0h63.7
		c1.5,0,2.7,1.2,2.7,2.7V101z"/>
	<g>
		<g>
			<path class="st1" d="M62.5,6.8c-0.6-0.5-1.3-1-1.7-1.6C60.6,5.1,60.5,5,60.4,5h0c-0.1,0-0.2,0.1-0.3,0.2
				c-0.5,0.6-1.1,1.1-1.7,1.6c-1.3,1.1-2.7,2.2-2.7,3.9c0,1.5,1.1,2.6,2.6,2.6c0.8,0,1.4-0.4,1.9-0.8c-0.2,0.9-0.6,2-1.4,2.8H62
				c-0.8-0.8-1.2-1.9-1.4-2.8c0.4,0.4,1.1,0.9,1.9,0.9c1.6,0,2.6-1.1,2.6-2.6C65.1,8.9,63.8,7.8,62.5,6.8z"/>
			<path class="st2" d="M60.4,15.3V5l0,0c-0.1,0-0.2,0.1-0.3,0.2c-0.5,0.6-1.1,1.1-1.7,1.6c-1.3,1.1-2.7,2.2-2.7,3.9
				c0,1.5,1.1,2.6,2.6,2.6c0.8,0,1.4-0.4,1.9-0.8c-0.2,0.9-0.6,2-1.4,2.8H60.4z"/>
		</g>
		<g>
			<path class="st1" d="M7.2,5h1.3v6.8c0,2.7-1.3,3.5-3.1,3.5c-0.5,0-1.1-0.1-1.4-0.2L4.2,14c0.3,0.1,0.7,0.2,1.1,0.2
				c1.2,0,1.9-0.5,1.9-2.5V5z"/>
		</g>
	</g>
	<g>
		<g>
			<path class="st1" d="M6.7,96.9c0.6,0.5,1.3,1,1.7,1.6c0.1,0.1,0.2,0.2,0.3,0.2h0c0.1,0,0.2-0.1,0.3-0.2c0.5-0.6,1.1-1.1,1.7-1.6
				c1.3-1.1,2.7-2.2,2.7-3.9c0-1.5-1.1-2.6-2.6-2.6c-0.8,0-1.4,0.4-1.9,0.8c0.2-0.9,0.6-2,1.4-2.8H7.1c0.8,0.8,1.2,1.9,1.4,2.8
				c-0.4-0.4-1.1-0.9-1.9-0.9C5.1,90.4,4,91.5,4,93C4,94.8,5.3,95.9,6.7,96.9z"/>
			<path class="st2" d="M8.7,88.4v10.3l0,0c0.1,0,0.2-0.1,0.3-0.2c0.5-0.6,1.1-1.1,1.7-1.6c1.3-1.1,2.7-2.2,2.7-3.9
				c0-1.5-1.1-2.6-2.6-2.6c-0.8,0-1.4,0.4-1.9,0.8c0.2-0.9,0.6-2,1.4-2.8H8.7z"/>
		</g>
		<g>
			<path class="st1" d="M62,98.7h-1.3v-6.8c0-2.7,1.3-3.5,3.1-3.5c0.5,0,1.1,0.1,1.4,0.2l-0.2,1.1c-0.3-0.1-0.7-0.2-1.1-0.2
				c-1.2,0-1.9,0.5-1.9,2.5V98.7z"/>
		</g>
	</g>
	<g>
		<path class="st1" d="M45.5,67.1c0,0,2.6-0.9,5.1-3.6v-3.2h-5.1V67.1z"/>
		<g>
			<path class="st1" d="M43.4,27.1l2.7-3.5c0,0-5.3-3.5-6.4-3.6c-1.1-0.1-13.1,3.7-13.1,3.7l2.7,4.4L43.4,27.1z"/>
			<path class="st3" d="M29.4,22.8c0,0,1.5,4.8,1.9,5.1c0.4,0.3,2.4-0.6,2.4-0.6s-1.5-1.5-2.3-5.1L29.4,22.8z"/>
			<path class="st1" d="M50.6,58.6V40.4c0,0-2.3-2.9-6.9-3.3C43.7,37.1,43.6,55.5,50.6,58.6z"/>
			<g>
				<rect x="34.8" y="38.1" class="st4" width="2.3" height="4.3"/>
				<rect x="39.5" y="36.6" class="st4" width="2.3" height="4.3"/>
				<rect x="32.4" y="36.4" class="st3" width="2.3" height="4.3"/>
				<rect x="37.1" y="37.8" class="st3" width="2.3" height="4.3"/>
				<rect x="30.2" y="35.1" class="st4" width="2.3" height="4.3"/>
				<rect x="27.8" y="35" class="st3" width="2.3" height="2.7"/>
			</g>
			<polygon class="st5" points="41.8,35.1 41.3,37 43.1,37.1 			"/>
			<path class="st4" d="M44.3,37.2c0,0-0.8,12,6.3,21.5c0,0.8,0,1.3,0,1.3s-4.2-2-6.5-10.2c-2.4-8.3-1.3-12.5-1.3-12.5H44.3z"/>
			<path class="st6" d="M43.2,37.4c0,0-0.2,7.9,1.7,12.7c2,4.7,3.3,8,5.6,9.8v3.6c0,0-6.4-6.2-8.5-13.2c-2.1-7-1.7-13.1-1.7-13.1
				L43.2,37.4z"/>
			<g>
				<path class="st3" d="M43.3,37.2c0,0.3-0.6,0.5-1.3,0.5c-0.7,0-1.3-0.2-1.3-0.5c0-0.3,0.6-0.5,1.3-0.5
					C42.7,36.7,43.3,36.9,43.3,37.2z"/>
				<path class="st3" d="M43.2,38.4c0,0.3-0.6,0.6-1.3,0.6c-0.7,0-1.3-0.2-1.3-0.5c0-0.3,0.6-0.6,1.3-0.6
					C42.6,37.9,43.2,38.1,43.2,38.4z"/>
				<path class="st3" d="M43.2,39.8c0,0.3-0.5,0.6-1.2,0.7c-0.7,0.1-1.3-0.1-1.3-0.4c0-0.3,0.5-0.6,1.2-0.7
					C42.6,39.3,43.2,39.5,43.2,39.8z"/>
				<path class="st3" d="M43.3,41.3c0,0.3-0.5,0.6-1.2,0.7c-0.7,0.1-1.3,0-1.3-0.3c0-0.3,0.5-0.6,1.2-0.7
					C42.6,40.9,43.2,41,43.3,41.3z"/>
				<path class="st3" d="M43.4,42.9c0.1,0.3-0.4,0.6-1.1,0.8c-0.7,0.2-1.3,0.1-1.3-0.2c-0.1-0.3,0.4-0.6,1.1-0.8
					C42.8,42.5,43.4,42.6,43.4,42.9z"/>
				<path class="st3" d="M43.7,44.6c0.1,0.3-0.4,0.6-1.1,0.8c-0.7,0.2-1.3,0.1-1.3-0.1c-0.1-0.3,0.4-0.6,1.1-0.8
					C43,44.3,43.6,44.4,43.7,44.6z"/>
				<path class="st3" d="M44,46.4c0.1,0.3-0.4,0.7-1,0.9c-0.6,0.2-1.2,0.2-1.3-0.1c-0.1-0.3,0.4-0.7,1-0.9
					C43.3,46.1,43.9,46.2,44,46.4z"/>
				<path class="st3" d="M44.4,48.3c0.1,0.3-0.3,0.7-0.9,0.9c-0.6,0.3-1.2,0.3-1.3,0c-0.1-0.3,0.3-0.7,0.9-0.9
					C43.7,48,44.3,48,44.4,48.3z"/>
				<path class="st3" d="M45,50.1c0.1,0.2-0.3,0.7-0.9,1c-0.6,0.3-1.2,0.4-1.3,0.1c-0.1-0.2,0.3-0.7,0.9-1
					C44.2,49.9,44.8,49.9,45,50.1z"/>
				<path class="st3" d="M45.6,51.9c0.1,0.2-0.2,0.7-0.8,1.1c-0.6,0.3-1.2,0.4-1.3,0.2c-0.1-0.2,0.2-0.7,0.8-1.1
					C44.9,51.8,45.5,51.7,45.6,51.9z"/>
				<path class="st3" d="M46.3,53.7c0.2,0.2-0.2,0.7-0.8,1.1c-0.6,0.4-1.2,0.5-1.3,0.3c-0.2-0.2,0.2-0.7,0.8-1.1
					C45.6,53.6,46.2,53.5,46.3,53.7z"/>
				<path class="st3" d="M47.2,55.4c0.2,0.2-0.2,0.8-0.7,1.2c-0.6,0.4-1.2,0.6-1.3,0.4c-0.2-0.2,0.2-0.8,0.7-1.2
					C46.4,55.3,47,55.2,47.2,55.4z"/>
				<path class="st3" d="M48.2,57c0.2,0.2-0.1,0.8-0.7,1.2c-0.5,0.5-1.1,0.7-1.3,0.4c-0.2-0.2,0.1-0.8,0.7-1.2
					C47.4,57,48,56.8,48.2,57z"/>
				<path class="st3" d="M49.3,58.5c0.2,0.2-0.1,0.8-0.6,1.3c-0.5,0.5-1.1,0.7-1.3,0.5c-0.2-0.2,0.1-0.8,0.6-1.3
					C48.5,58.5,49.1,58.3,49.3,58.5z"/>
				<path class="st3" d="M50.5,59.8c0.2,0.2,0,0.8-0.5,1.3c-0.5,0.5-1.1,0.8-1.3,0.6c-0.2-0.2,0-0.8,0.5-1.3
					C49.7,59.8,50.3,59.6,50.5,59.8z"/>
			</g>
			<rect x="33.2" y="43.6" class="st7" width="3.7" height="4.1"/>
			<polygon class="st8" points="33.4,47.5 37,47.5 37,51.3 			"/>
			<rect x="33.3" y="44.1" class="st8" width="3.8" height="3.1"/>
			<polygon class="st8" points="33.3,43.9 37,43.9 37,42.9 33.3,40.6 			"/>
			<path class="st1" d="M37.7,51.6l-0.1-8.7l3.1-1.7c0,0,0.6,7.2,1.3,8.5C42.7,51,37.7,51.6,37.7,51.6z"/>
			<polygon class="st9" points="37.7,51.6 36.8,51.2 36.8,42.3 37.7,42.3 			"/>
			<polygon class="st4" points="38,52 37.1,51.5 37.1,42.7 38,42.7 			"/>
			<g>
				<path class="st4" d="M44,55c-0.3-0.8-0.8-1.5-1.2-2.2c-0.6-1.2-1.1-2.5-1.3-3.8c0,0,0,0-0.1,0c-1.9,0-3.5,1.2-4.1,2.8
					c0.1,0.2,0.3,0.3,0.4,0.5c0.3,0.3,0.7,0.5,1,0.7c0.8,0.6,1.4,1.4,2.3,1.9c0.7,0.4,1.4,0.6,2.1,0.9c0.3,0.1,0.6,0.2,0.9,0.3
					c0.1,0,0.2,0,0.3,0C44.2,55.6,44.1,55.3,44,55z"/>
				<path class="st8" d="M44,55c-0.3-0.8-0.8-1.5-1.2-2.2c-0.6-1.1-1-2.3-1.2-3.5c0,0-0.1,0-0.1,0c-1.8,0-3.3,1.1-3.9,2.7
					c0.1,0.1,0.1,0.1,0.2,0.2c0.3,0.3,0.7,0.5,1,0.7c0.8,0.6,1.4,1.4,2.3,1.9c0.7,0.4,1.4,0.6,2.1,0.9c0.3,0.1,0.6,0.2,0.9,0.3
					c0.1,0,0.2,0,0.3,0C44.2,55.6,44.1,55.3,44,55z"/>
				<path class="st7" d="M42.8,52.8c-0.3-0.5-0.5-1-0.7-1.5c-0.2-0.1-0.4-0.1-0.7-0.1c-1.2,0-2.2,1-2.2,2.2c0.6,0.5,1.1,1.1,1.8,1.5
					c0.4,0.2,0.9,0.4,1.3,0.6c0.6-0.3,1-0.7,1.2-1.3C43.3,53.6,43,53.2,42.8,52.8z"/>
			</g>
			<polygon class="st1" points="28.9,44.6 32.5,46.7 32.7,39.9 28.9,37.8 			"/>
			<rect x="32.5" y="40.2" class="st9" width="0.9" height="6.9"/>
			<path class="st10" d="M25.4,35.8c0,0,1.6-0.9,3.2-1.1l0.2,9.8c0,0-2.5-0.9-3.6-0.9L25.4,35.8z"/>
			<polygon class="st11" points="25.4,35.8 24.8,36 24.8,43.5 25.4,43.5 			"/>
			<path class="st4" d="M24.8,36c0,0-0.8,0.3-1.2,0.6v6.8h1.2V36z"/>
			<path class="st1" d="M23.6,36.6c0,0-2.6,0.9-5.1,3.6v3.2h5.1V36.6z"/>
			<rect x="32.2" y="39.9" class="st4" width="0.9" height="6.9"/>
			<rect x="28.6" y="34.7" class="st11" width="0.6" height="9.7"/>
			<g>
				<path class="st12" d="M43.6,56.1c-0.3,0-0.8-0.1-1.3-0.3c-1.8-0.7-4.1-2.6-6.7-5.7c-3.1-3.7-6.2-5.2-8.3-5.8
					c-2.2-0.6-4.7-0.5-4.7-0.5l-0.1-0.6c0.1,0,2.6-0.1,5,0.5c2.1,0.6,5.3,2.1,8.6,6c5.9,7,8.1,5.7,8.1,5.7l0.3,0.5
					C44.4,55.9,44.1,56.1,43.6,56.1z"/>
			</g>
			<path class="st9" d="M29.1,37.4c0,0,7.5,4.9,8.3,4.9c0.7,0,2.8-1.5,2.8-1.5v0.9c0,0-2.6,1.7-2.9,1.7c-0.3,0-8.2-5.1-8.2-5.1V37.4
				z"/>
			<path class="st8" d="M30,35.1c0,0,6.4,4.7,7.3,4.7c0.9,0,3.5-2.3,3.5-2.3L30,35.1z"/>
			<path class="st8" d="M29.1,36.8c0,0,7.5,5,8.3,5c0.7,0,2.8-1.7,2.8-1.7V41c0,0-2.6,1.7-2.9,1.7c-0.3,0-8.2-4.9-8.2-4.9V36.8z"/>
			<path class="st12" d="M40,37.8c0,0,0,8,1.8,13.2c1.9,5.2,6.5,12.6,7.9,13.3l0.8-0.8c0,0-3.3-2.7-8-12.9c-1.2-5-1.3-2.9-1.9-13.2
				C40.1,27.1,40,37.8,40,37.8z"/>
			<path class="st13" d="M34.2,36.8c0,0,2.6,1.9,3.2,1.9c0.6,0,1.7-1.1,1.7-1.1s-3.6-2.4-4.6-2.1C33.5,35.9,34.2,36.8,34.2,36.8z"/>
			<path class="st14" d="M41.4,27.4c0,0,1.2,1.2,0.9,4.4c-0.3,3.2-0.6,6.4,1.8,5.4c2.3-1,0.3-3.5-1.1-2.1c0,0,0-1.6,0.2-3.6
				C43.4,29.4,43.3,27.4,41.4,27.4z"/>
			<path class="st9" d="M42.7,28c0,0,0.3,1.9,0,2.3c-0.3,0.4,0,1,0,1.5c0,0.5,0.5,4.4-2.2,5.8C37.8,39,38,37,34.7,35.8
				c0,0-0.5-7.7,1.7-8.3C36.5,27.4,40.9,27.1,42.7,28z"/>
			<path class="st15" d="M31.7,28.4c0,0-0.9,0.7-0.9,2.8c0,2.1-1.1,4.3-2.5,3.5c-1.4-0.8,0-2.3,0.8-1.3c0,0,0.1-1,0.1-2.4
				C29.2,29.7,30,28.1,31.7,28.4z"/>
			<path class="st5" d="M32.5,28c0,0-1,0.8-1,3.2c0,2.4-0.5,4.9-2.2,4c-1.7-0.9,0-2.6,1-1.5c0,0,0.1-1.2,0.1-2.7
				C30.4,29.4,31.1,27.8,32.5,28z"/>
			<path class="st16" d="M33.6,27.7c0,0-1,1.7-1,4.3c0,2.6-0.7,4.5-2.5,3.5c-1.8-1,0-2.8,1-1.6c0,0,0.1-1.3,0.1-2.9
				C31.3,29.2,32.1,27.5,33.6,27.7z"/>
			<path class="st17" d="M34.5,27.6c0,0-0.7,1.1-0.7,4c0,2.9-0.6,5.6-2.6,4.5c-2-1.1,0-3.1,1.2-1.8c0,0,0.1-1.4,0.1-3.3
				C32.5,29.2,32.8,27.4,34.5,27.6z"/>
			<path class="st18" d="M35.6,27.4c0,0-1.3,1.1-1.3,4.1s0,6.2-2.2,5c-2.1-1.2,0-3.3,1.2-2c0,0,0.1-1.5,0.1-3.5
				C33.5,29.1,33.9,27.3,35.6,27.4z"/>
			<path class="st14" d="M36.5,27.4c0,0-1.3,1.1-1.3,4.3c0,3.2,0,6.4-2.3,5.2c-2.2-1.2,0-3.5,1.3-2c0,0,0.1-1.6,0.1-3.6
				C34.3,29.2,34.6,27.3,36.5,27.4z"/>
			<path class="st1" d="M29.7,29.3c0,0,5.1-2.8,13.3-1l0.5-1.2c0,0-6.4-2.5-14.1,0.9L29.7,29.3z"/>
			<g>
				<path class="st14" d="M40.6,30c0.6-0.2,1.9-0.6,2,0.3C41.9,30,41.3,30,40.6,30L40.6,30z"/>
			</g>
			<g>
				<path class="st14" d="M38.4,30c-0.7-0.1-1.4,0-2,0.3c-0.1-0.2,0.2-0.4,0.4-0.5C37.1,29.6,38,29.7,38.4,30L38.4,30z"/>
			</g>
			<g>
				<path class="st19" d="M39.1,30.9c-0.6,0.7-2.1,1-2.6,0.2c0.5,0,0.9,0.1,1.3,0.2C38.3,31.3,38.7,31.1,39.1,30.9L39.1,30.9z"/>
			</g>
			<g>
				<path class="st19" d="M40.7,30.9c0.6,0.4,1.2,0.1,1.9,0.2c0,0.2-0.3,0.3-0.4,0.3C41.7,31.6,40.9,31.3,40.7,30.9L40.7,30.9z"/>
			</g>
			<g>
				<path class="st19" d="M40.2,30.5c0,0.9,0.1,1.9,0.6,2.7c0.1,0.1,0.1,0.3,0.1,0.5c-0.3,0.7-1.3,0.7-1.8,0.2
					c-0.2-0.1-0.4-0.7-0.2-0.7c0.1,0.5,0.5,0.7,1,0.7c0.4,0,0.9-0.2,0.7-0.5C40.1,32.6,40,31.4,40.2,30.5L40.2,30.5z"/>
			</g>
			<g>
				<path class="st19" d="M38.2,35.1c1,0,2.1-0.4,2.9,0C40.2,35.4,39.1,35.2,38.2,35.1L38.2,35.1z"/>
			</g>
			<g>
				<path class="st19" d="M39.3,35.7c0.3,0,0.8-0.4,1.1,0C40.1,36,40,36,39.8,35.9C39.6,35.9,39.3,35.9,39.3,35.7L39.3,35.7z"/>
			</g>
		</g>
		<path class="st1" d="M25.7,76.6L23,80.1c0,0,5.3,3.5,6.4,3.6c1.1,0.1,13.1-3.7,13.1-3.7l-2.7-4.4L25.7,76.6z"/>
		<path class="st3" d="M39.8,80.9c0,0-1.5-4.8-1.9-5.1c-0.4-0.3-2.4,0.6-2.4,0.6s1.5,1.5,2.3,5.1L39.8,80.9z"/>
		<path class="st1" d="M18.6,45.1v18.2c0,0,2.3,2.9,6.9,3.3C25.4,66.6,25.5,48.2,18.6,45.1z"/>
		<g>
			<rect x="32" y="61.3" class="st4" width="2.3" height="4.3"/>
			<rect x="27.3" y="62.8" class="st4" width="2.3" height="4.3"/>
			<rect x="34.4" y="63" class="st3" width="2.3" height="4.3"/>
			<rect x="29.7" y="61.6" class="st3" width="2.3" height="4.3"/>
			<rect x="36.6" y="64.3" class="st4" width="2.3" height="4.3"/>
			<rect x="39" y="66" class="st3" width="2.3" height="2.7"/>
		</g>
		<polygon class="st5" points="27.3,68.6 27.9,66.7 26.1,66.6 		"/>
		<path class="st4" d="M24.8,66.5c0,0,0.8-12-6.3-21.5c0-0.8,0-1.3,0-1.3s4.2,2,6.5,10.2c2.4,8.3,1.3,12.5,1.3,12.5H24.8z"/>
		<path class="st6" d="M25.9,66.3c0,0,0.2-7.9-1.7-12.7c-2-4.8-3.3-8-5.6-9.8v-3.6c0,0,3.5,0.7,8.5,13.2c2.1,7,1.7,13.1,1.7,13.1
			L25.9,66.3z"/>
		<g>
			<path class="st3" d="M25.8,66.5c0-0.3,0.6-0.5,1.3-0.5c0.7,0,1.3,0.2,1.3,0.5c0,0.3-0.6,0.5-1.3,0.5C26.4,67,25.8,66.8,25.8,66.5
				z"/>
			<path class="st3" d="M25.9,65.3c0-0.3,0.6-0.6,1.3-0.6c0.7,0,1.3,0.2,1.3,0.5c0,0.3-0.6,0.6-1.3,0.6
				C26.5,65.8,25.9,65.6,25.9,65.3z"/>
			<path class="st3" d="M25.9,63.9c0-0.3,0.5-0.6,1.2-0.7c0.7-0.1,1.3,0.1,1.3,0.4c0,0.3-0.5,0.6-1.2,0.7
				C26.5,64.4,25.9,64.2,25.9,63.9z"/>
			<path class="st3" d="M25.8,62.4c0-0.3,0.5-0.6,1.2-0.7c0.7-0.1,1.3,0,1.3,0.3c0,0.3-0.5,0.6-1.2,0.7
				C26.5,62.8,25.9,62.7,25.8,62.4z"/>
			<path class="st3" d="M25.7,60.8c-0.1-0.3,0.4-0.6,1.1-0.8c0.7-0.2,1.3-0.1,1.3,0.2c0.1,0.3-0.4,0.6-1.1,0.8
				C26.3,61.2,25.8,61.1,25.7,60.8z"/>
			<path class="st3" d="M25.5,59.1c-0.1-0.3,0.4-0.6,1.1-0.8c0.7-0.2,1.3-0.1,1.3,0.1c0.1,0.3-0.4,0.6-1.1,0.8
				C26.1,59.4,25.5,59.3,25.5,59.1z"/>
			<path class="st3" d="M25.1,57.3c-0.1-0.3,0.4-0.7,1-0.9c0.6-0.2,1.2-0.2,1.3,0.1c0.1,0.3-0.4,0.7-1,0.9
				C25.8,57.6,25.2,57.5,25.1,57.3z"/>
			<path class="st3" d="M24.7,55.4c-0.1-0.3,0.3-0.7,0.9-0.9c0.6-0.3,1.2-0.3,1.3,0c0.1,0.3-0.3,0.7-0.9,0.9
				C25.4,55.7,24.8,55.7,24.7,55.4z"/>
			<path class="st3" d="M24.2,53.6c-0.1-0.2,0.3-0.7,0.9-1c0.6-0.3,1.2-0.4,1.3-0.1c0.1,0.2-0.3,0.7-0.9,1
				C24.9,53.8,24.3,53.8,24.2,53.6z"/>
			<path class="st3" d="M23.5,51.8c-0.1-0.2,0.2-0.7,0.8-1.1c0.6-0.3,1.2-0.4,1.3-0.2c0.1,0.2-0.2,0.7-0.8,1.1
				C24.3,51.9,23.7,52,23.5,51.8z"/>
			<path class="st3" d="M22.8,50c-0.2-0.2,0.2-0.7,0.8-1.1c0.6-0.4,1.2-0.5,1.3-0.3c0.2,0.2-0.2,0.7-0.8,1.1
				C23.5,50.1,22.9,50.2,22.8,50z"/>
			<path class="st3" d="M21.9,48.3c-0.2-0.2,0.2-0.8,0.7-1.2c0.6-0.4,1.2-0.6,1.3-0.4c0.2,0.2-0.2,0.7-0.7,1.2
				C22.7,48.4,22.1,48.5,21.9,48.3z"/>
			<path class="st3" d="M20.9,46.7c-0.2-0.2,0.1-0.8,0.7-1.2c0.5-0.5,1.1-0.7,1.3-0.4c0.2,0.2-0.1,0.8-0.7,1.2
				C21.7,46.7,21.1,46.9,20.9,46.7z"/>
			<path class="st3" d="M19.9,45.2c-0.2-0.2,0.1-0.8,0.6-1.3c0.5-0.5,1.1-0.7,1.3-0.5c0.2,0.2-0.1,0.8-0.6,1.3
				C20.6,45.2,20.1,45.4,19.9,45.2z"/>
			<path class="st3" d="M18.6,43.9c-0.2-0.2,0-0.8,0.5-1.3c0.5-0.5,1.1-0.8,1.3-0.6c0.2,0.2,0,0.8-0.5,1.3
				C19.4,43.9,18.9,44.1,18.6,43.9z"/>
		</g>
		<rect x="32.2" y="56" class="st7" width="3.7" height="4.1"/>
		<polygon class="st8" points="35.7,56.2 32.2,56.2 32.2,52.4 		"/>
		<rect x="32.1" y="56.5" class="st8" width="3.8" height="3.1"/>
		<polygon class="st8" points="35.8,59.8 32.2,59.8 32.2,60.8 35.8,63.1 		"/>
		<path class="st1" d="M31.4,52.1l0.1,8.7l-3.1,1.7c0,0-0.6-7.2-1.3-8.5C26.5,52.7,31.4,52.1,31.4,52.1z"/>
		<polygon class="st9" points="31.4,52.1 32.3,52.5 32.3,61.4 31.4,61.4 		"/>
		<polygon class="st4" points="31.1,51.7 32,52.2 32,61 31.1,61 		"/>
		<g>
			<path class="st4" d="M25.2,48.7c0.3,0.8,0.8,1.5,1.2,2.2c0.6,1.2,1.1,2.5,1.3,3.8c0,0,0,0,0.1,0c1.9,0,3.5-1.2,4.1-2.8
				c-0.1-0.2-0.3-0.3-0.4-0.5c-0.3-0.3-0.7-0.5-1-0.7c-0.8-0.6-1.4-1.4-2.3-1.9c-0.7-0.4-1.4-0.6-2.1-0.9c-0.3-0.1-0.6-0.2-0.9-0.3
				c-0.1,0-0.2,0-0.3,0C24.9,48.1,25,48.4,25.2,48.7z"/>
			<path class="st8" d="M25.2,48.7c0.3,0.8,0.8,1.5,1.2,2.2c0.6,1.1,1,2.3,1.2,3.5c0,0,0.1,0,0.1,0c1.8,0,3.3-1.1,3.9-2.7
				c-0.1-0.1-0.1-0.1-0.2-0.2c-0.3-0.3-0.7-0.5-1-0.7c-0.8-0.6-1.4-1.4-2.3-1.9c-0.7-0.4-1.4-0.6-2.1-0.9c-0.3-0.1-0.6-0.2-0.9-0.3
				c-0.1,0-0.2,0-0.3,0C24.9,48.1,25,48.4,25.2,48.7z"/>
			<path class="st7" d="M26.4,50.9c0.3,0.5,0.5,1,0.7,1.5c0.2,0.1,0.4,0.1,0.7,0.1c1.2,0,2.2-1,2.2-2.2c-0.6-0.5-1.1-1.1-1.8-1.5
				c-0.4-0.2-0.9-0.4-1.3-0.6c-0.6,0.3-1,0.7-1.2,1.3C25.9,50.1,26.1,50.5,26.4,50.9z"/>
		</g>
		<polygon class="st1" points="40.3,59.1 36.6,57 36.4,63.8 40.3,65.9 		"/>
		<rect x="35.7" y="56.6" class="st9" width="0.9" height="6.9"/>
		<path class="st10" d="M43.7,67.9c0,0-1.6,0.9-3.2,1.1l-0.2-9.8c0,0,2.5,0.9,3.6,0.9L43.7,67.9z"/>
		<polygon class="st11" points="43.7,67.9 44.3,67.7 44.3,60.2 43.7,60.2 		"/>
		<path class="st4" d="M44.3,67.7c0,0,0.8-0.3,1.2-0.6v-6.8h-1.2V67.7z"/>
		<rect x="36.1" y="56.9" class="st4" width="0.9" height="6.9"/>
		<rect x="40" y="59.4" class="st11" width="0.6" height="9.7"/>
		<g>
			<path class="st12" d="M25.6,47.6c0.3,0,0.8,0.1,1.3,0.3c1.8,0.7,4.1,2.6,6.7,5.7c3.1,3.7,6.2,5.2,8.3,5.8
				c2.2,0.6,4.6,0.3,4.6,0.3l0.1,0.6c-0.1,0-2.5,0.3-4.8-0.3c-2.1-0.6-5.3-2.1-8.6-6c-5.9-7-8.1-5.7-8.1-5.7l-0.3-0.5
				C24.7,47.8,25,47.6,25.6,47.6z"/>
		</g>
		<path class="st9" d="M40,66.3c0,0-7.5-4.9-8.3-4.9c-0.7,0-2.8,1.5-2.8,1.5V62c0,0,2.6-1.7,2.9-1.7c0.3,0,8.2,5.1,8.2,5.1V66.3z"/>
		<path class="st8" d="M39.1,68.6c0,0-6.4-4.7-7.3-4.7c-0.9,0-3.5,2.3-3.5,2.3L39.1,68.6z"/>
		<path class="st8" d="M40,66.9c0,0-7.5-5-8.3-5c-0.7,0-2.8,1.7-2.8,1.7v-0.8c0,0,2.6-1.7,2.9-1.7C32.1,61,40,66,40,66V66.9z"/>
		<path class="st12" d="M29.1,65.9c0,0,0-8-1.8-13.2c-1.9-5.2-6.1-12.5-8-13.2l-0.7,0.7c1.7,0.8,7,9,8,12.9c1.2,5,1.3,2.9,1.9,13.2
			C29,76.6,29.1,65.9,29.1,65.9z"/>
		<path class="st13" d="M35,66.9c0,0-2.6-1.9-3.2-1.9c-0.6,0-1.7,1.1-1.7,1.1s3.6,2.4,4.6,2.1C35.6,67.8,35,66.9,35,66.9z"/>
		<path class="st14" d="M27.7,76.3c0,0-1.2-1.2-0.9-4.4c0.3-3.2,0.6-6.4-1.8-5.4c-2.3,1-0.3,3.5,1.1,2.1c0,0,0,1.6-0.2,3.6
			C25.7,74.3,25.9,76.3,27.7,76.3z"/>
		<path class="st9" d="M26.5,75.7c0,0-0.3-1.9,0-2.3s0-1,0-1.5c0-0.5-0.5-4.4,2.2-5.8c2.7-1.4,2.5,0.5,5.8,1.8c0,0,0.5,7.7-1.7,8.3
			C32.7,76.3,28.2,76.6,26.5,75.7z"/>
		<path class="st15" d="M37.4,75.3c0,0,0.9-0.7,0.9-2.8c0-2.1,1.1-4.3,2.5-3.5c1.4,0.8,0,2.3-0.8,1.3c0,0-0.1,1-0.1,2.4
			C39.9,74,39.2,75.6,37.4,75.3z"/>
		<path class="st5" d="M36.6,75.7c0,0,1-0.8,1-3.2c0-2.4,0.5-4.9,2.2-4c1.7,0.9,0,2.6-1,1.5c0,0-0.1,1.2-0.1,2.7
			C38.8,74.3,38,75.9,36.6,75.7z"/>
		<path class="st16" d="M35.5,76c0,0,1-1.7,1-4.3c0-2.6,0.7-4.5,2.5-3.5c1.8,1,0,2.8-1,1.6c0,0-0.1,1.3-0.1,2.9
			C37.8,74.5,37,76.2,35.5,76z"/>
		<path class="st17" d="M34.7,76.1c0,0,0.7-1.1,0.7-4c0-2.9,0.6-5.6,2.6-4.5c2,1.1,0,3.1-1.2,1.8c0,0-0.1,1.4-0.1,3.3
			C36.6,74.5,36.3,76.3,34.7,76.1z"/>
		<path class="st18" d="M33.5,76.3c0,0,1.3-1.1,1.3-4.1c0-3.1,0-6.2,2.2-5c2.1,1.2,0,3.3-1.2,2c0,0-0.1,1.5-0.1,3.5
			C35.6,74.6,35.3,76.4,33.5,76.3z"/>
		<path class="st14" d="M32.7,76.3c0,0,1.3-1.1,1.3-4.3c0-3.2,0-6.4,2.3-5.2c2.2,1.2,0,3.5-1.3,2c0,0-0.1,1.6-0.1,3.6
			C34.8,74.5,34.5,76.4,32.7,76.3z"/>
		<path class="st1" d="M39.5,74.4c0,0-5.1,2.8-13.3,1l-0.5,1.2c0,0,6.4,2.5,14.1-0.9L39.5,74.4z"/>
		<g>
			<path class="st14" d="M28.5,73.7c-0.6,0.2-1.9,0.6-2-0.3C27.2,73.7,27.8,73.7,28.5,73.7L28.5,73.7z"/>
		</g>
		<g>
			<path class="st14" d="M30.8,73.7c0.7,0.1,1.4,0,2-0.3c0.1,0.2-0.2,0.4-0.4,0.5C32,74.1,31.1,74,30.8,73.7L30.8,73.7z"/>
		</g>
		<g>
			<path class="st19" d="M30,72.8c0.6-0.7,2.1-1,2.6-0.2c-0.5,0-0.9-0.1-1.3-0.2C30.9,72.4,30.4,72.6,30,72.8L30,72.8z"/>
		</g>
		<g>
			<path class="st19" d="M28.4,72.8c-0.6-0.4-1.2-0.1-1.9-0.2c0-0.2,0.3-0.3,0.4-0.3C27.4,72.1,28.3,72.4,28.4,72.8L28.4,72.8z"/>
		</g>
		<g>
			<path class="st19" d="M28.9,73.2c0-0.9-0.1-1.9-0.6-2.7c-0.1-0.1-0.1-0.3-0.1-0.5c0.3-0.7,1.3-0.7,1.8-0.2
				c0.2,0.1,0.4,0.7,0.2,0.7c-0.1-0.5-0.5-0.7-1-0.7c-0.4,0-0.9,0.2-0.8,0.5C29,71.1,29.1,72.3,28.9,73.2L28.9,73.2z"/>
		</g>
		<g>
			<path class="st19" d="M31,68.6c-1,0-2.1,0.4-2.9,0C29,68.3,30.1,68.5,31,68.6L31,68.6z"/>
		</g>
		<g>
			<path class="st19" d="M29.9,68c-0.3,0-0.8,0.4-1.1,0c0.2-0.2,0.4-0.2,0.5-0.1C29.5,67.9,29.8,67.8,29.9,68L29.9,68z"/>
		</g>
	</g>
</g>
</svg>
