<?xml version="1.0" encoding="utf-8"?>
<!-- Generator: Adobe Illustrator 26.5.0, SVG Export Plug-In . SVG Version: 6.00 Build 0)  -->
<svg version="1.1" id="Layer_1" xmlns="http://www.w3.org/2000/svg" xmlns:xlink="http://www.w3.org/1999/xlink" x="0px" y="0px"
	 viewBox="0 0 69.1 103.7" style="enable-background:new 0 0 69.1 103.7;" xml:space="preserve">
<style type="text/css">
	.st0{fill:#F2F2F2;}
	.st1{fill:#333333;}
	.st2{fill:#4D4D4D;}
	.st3{fill:#1F2D6C;}
	.st4{fill:#AA292E;}
	.st5{fill:#0B050F;}
	.st6{fill:none;stroke:#AA7941;stroke-width:0.7677;stroke-miterlimit:10;}
	.st7{fill:#DCE3F2;}
	.st8{fill:#E8EFFF;}
	.st9{fill:#AA7941;}
	.st10{fill:#BF9B4D;}
	.st11{fill:#D28537;}
	.st12{fill:#BD7831;}
	.st13{fill:#2A3757;}
</style>
<g>
	<path class="st0" d="M69.1,101c0,1.5-1.2,2.7-2.7,2.7H2.7c-1.5,0-2.7-1.2-2.7-2.7V2.7C0,1.2,1.2,0,2.7,0h63.7
		c1.5,0,2.7,1.2,2.7,2.7V101z"/>
	<g>
		<g>
			<path class="st1" d="M62.2,7c-0.7-0.6-1.4-1.1-1.9-1.8C60.1,5.1,60,5,59.9,5h0c-0.1,0-0.3,0.1-0.4,0.2c-0.5,0.6-1.3,1.2-1.9,1.8
				c-1.5,1.2-3,2.4-3,4.3c0,1.7,1.2,2.9,2.9,2.9c0.8,0,1.6-0.5,2.1-0.9c-0.2,1-0.7,2.2-1.5,3.2h3.6c-0.8-0.9-1.3-2.2-1.5-3.2
				c0.5,0.5,1.2,0.9,2.1,0.9c1.7,0,2.9-1.2,2.9-2.9C65.1,9.4,63.6,8.2,62.2,7z"/>
			<path class="st2" d="M59.8,16.5V5l0,0c-0.1,0-0.3,0.1-0.4,0.2c-0.5,0.6-1.3,1.2-1.9,1.8c-1.5,1.2-3,2.4-3,4.3
				c0,1.7,1.2,2.9,2.9,2.9c0.8,0,1.6-0.5,2.1-0.9c-0.2,1-0.7,2.2-1.5,3.2H59.8z"/>
		</g>
		<g>
			<path class="st1" d="M12.9,16.8c-1.4-0.4-2.7-0.8-3.9-1.2c-0.2-0.1-0.4-0.2-0.6-0.2C6.1,15.3,4,13.6,4,10.3C4,7.1,6,5,8.7,5
				c2.7,0,4.5,2.1,4.5,5.1c0,2.6-1.2,4.3-2.9,4.8V15c1,0.3,2.1,0.5,3,0.6L12.9,16.8z M11.9,10.2c0-2-1.1-4.1-3.2-4.1
				c-2.2,0-3.3,2-3.3,4.2c0,2.1,1.2,4.1,3.2,4.1C10.7,14.4,11.9,12.5,11.9,10.2z"/>
		</g>
	</g>
	<g>
		<g>
			<path class="st1" d="M7,96.7c0.7,0.6,1.4,1.1,1.9,1.8c0.1,0.1,0.2,0.2,0.4,0.2h0c0.1,0,0.3-0.1,0.4-0.2c0.5-0.6,1.3-1.2,1.9-1.8
				c1.5-1.2,3-2.4,3-4.3c0-1.7-1.2-2.9-2.9-2.9c-0.8,0-1.6,0.5-2.1,0.9c0.2-1,0.7-2.2,1.5-3.2H7.5c0.8,0.9,1.3,2.2,1.5,3.2
				c-0.5-0.5-1.2-0.9-2.1-0.9c-1.7,0-2.9,1.2-2.9,2.9C4,94.3,5.5,95.5,7,96.7z"/>
			<path class="st2" d="M9.3,87.2v11.5l0,0c0.1,0,0.3-0.1,0.4-0.2c0.5-0.6,1.3-1.2,1.9-1.8c1.5-1.2,3-2.4,3-4.3
				c0-1.7-1.2-2.9-2.9-2.9c-0.8,0-1.6,0.5-2.1,0.9c0.2-1,0.7-2.2,1.5-3.2H9.3z"/>
		</g>
		<g>
			<path class="st1" d="M56.2,86.9c1.4,0.4,2.7,0.8,3.9,1.2c0.2,0.1,0.4,0.2,0.6,0.2c2.4,0.1,4.5,1.9,4.5,5.1c0,3.2-2,5.3-4.7,5.3
				c-2.7,0-4.5-2.1-4.5-5.1c0-2.6,1.2-4.3,2.9-4.8v-0.1c-1-0.3-2.1-0.5-3-0.6L56.2,86.9z M57.3,93.5c0,2,1.1,4.1,3.2,4.1
				c2.2,0,3.3-2,3.3-4.2c0-2.1-1.2-4.1-3.2-4.1C58.4,89.3,57.3,91.2,57.3,93.5z"/>
		</g>
	</g>
	<g>
		<rect x="31.6" y="47.2" class="st3" width="2.6" height="0.9"/>
		<rect x="31.8" y="46.3" class="st4" width="2.6" height="0.9"/>
		<rect x="32.2" y="45.4" class="st3" width="2.6" height="0.9"/>
		<rect x="32.5" y="44.6" class="st4" width="2.6" height="0.9"/>
		<rect x="32.8" y="43.7" class="st3" width="2.6" height="0.9"/>
		<rect x="33.1" y="42.8" class="st4" width="2.6" height="0.9"/>
		<rect x="33.4" y="42" class="st3" width="2.6" height="0.9"/>
		<polygon class="st1" points="34.4,48.1 36.3,43.2 41.2,42.9 38.4,48.5 		"/>
		<polygon class="st1" points="28.3,47.8 27.7,42.4 32.6,42.6 32.7,44.6 31,48.1 		"/>
		<path class="st5" d="M34,42.3L31.8,48l-1.6-0.2c0,0,2.3-3,1.9-4.1c-0.4-1.1-3-0.4-3-0.4l-1.1-2L34,42.3z"/>
		<path class="st5" d="M33.7,48.1l2.2-5.8l5.5-0.4l-0.7,1.6c0,0-3-0.6-3.9,0.1c-0.9,0.7-1.7,4.3-1.7,4.3L33.7,48.1z"/>
		<path class="st5" d="M39,50.2c-4.5,0.2-11-0.4-11-0.4v-2c0,0,6.5,0.6,11,0.4"/>
		<path class="st6" d="M28,47.8c0,0,6.5,0.6,11,0.4"/>
		<path class="st6" d="M28,49.8c0,0,6.5,0.6,11,0.4"/>
		<path class="st7" d="M24.4,43.7l3.1-2.8c0,0,2.4,1.3,2.2,3.8c-0.3,2.5-1.6,3.4-1.6,3.4L24.4,43.7z"/>
		<path class="st5" d="M24.4,43.7l2.8-2.5c0,0,2.2,1.1,1.9,3.4c-0.3,2.2-1.5,3-1.5,3L24.4,43.7z"/>
		<path class="st3" d="M24.4,43.7l2.3-2.1c0,0,1.8,0.9,1.6,2.8c-0.2,1.9-1.2,2.5-1.2,2.5L24.4,43.7z"/>
		<g>
			<rect x="34.9" y="55.6" class="st3" width="2.6" height="0.9"/>
			<rect x="34.7" y="56.5" class="st4" width="2.6" height="0.9"/>
			<rect x="34.3" y="57.4" class="st3" width="2.6" height="0.9"/>
			<rect x="34.1" y="58.2" class="st4" width="2.6" height="0.9"/>
			<rect x="33.7" y="59.1" class="st3" width="2.6" height="0.9"/>
			<rect x="33.5" y="60" class="st4" width="2.6" height="0.9"/>
			<rect x="33.1" y="60.9" class="st3" width="2.6" height="0.9"/>
			<polygon class="st1" points="34.7,55.6 32.8,60.5 27.9,60.8 30.7,55.2 			"/>
			<polygon class="st1" points="40.8,55.9 41.5,61.3 36.5,61.1 36.4,59.1 38.1,55.5 			"/>
			<path class="st5" d="M35.1,61.4l2.2-5.7l1.6,0.2c0,0-2.3,3-1.9,4.1c0.4,1.1,3,0.4,3,0.4l1.1,2L35.1,61.4z"/>
			<path class="st5" d="M35.5,55.5l-2.2,5.8l-5.5,0.4l0.7-1.6c0,0,3,0.6,3.9-0.1c0.9-0.7,1.7-4.3,1.7-4.3L35.5,55.5z"/>
			<path class="st5" d="M30.2,53.5c4.5-0.2,11,0.4,11,0.4v2c0,0-6.5-0.6-11-0.4"/>
			<path class="st6" d="M41.1,55.9c0,0-6.5-0.6-11-0.4"/>
			<path class="st6" d="M41.1,53.9c0,0-6.5-0.6-11-0.4"/>
			<path class="st8" d="M18.6,64.1c0.9,0.3,1.8,0.4,2.8,0.4c5.5,0,9.9-4.8,9.9-10.8c0-6-4.4-10.8-9.9-10.8c-1,0-1.9,0.2-2.8,0.4
				V64.1z"/>
			<path class="st7" d="M18.6,63.6c0.9,0.3,1.8,0.5,2.8,0.5c5.2,0,9.5-4.6,9.5-10.4c0-5.7-4.2-10.4-9.5-10.4c-1,0-1.9,0.2-2.8,0.5
				V63.6z"/>
			<path class="st9" d="M18.6,61.3c0.9,0.4,1.8,0.6,2.8,0.6c4.2,0,7.5-3.7,7.5-8.2c0-4.6-3.4-8.2-7.5-8.2c-1,0-1.9,0.2-2.8,0.6V61.3
				z"/>
			<path class="st10" d="M18.6,60.5c0.9,0.4,1.8,0.7,2.8,0.7c3.8,0,6.8-3.3,6.8-7.4c0-4.1-3-7.4-6.8-7.4c-1,0-1.9,0.2-2.8,0.7V60.5z
				"/>
			<path class="st8" d="M18.6,57.9c0.8,0.6,1.8,1,2.8,1c2.6,0,4.8-2.3,4.8-5.2c0-2.9-2.1-5.2-4.8-5.2c-1,0-2,0.4-2.8,1V57.9z"/>
			<path class="st1" d="M18.6,57.6c0.8,0.7,1.7,1.1,2.8,1.1c2.5,0,4.6-2.2,4.6-5c0-2.8-2-5-4.6-5c-1.1,0-2,0.4-2.8,1.1V57.6z"/>
			<path class="st9" d="M18.6,54.4c0.2,0.1,0.3,0.2,0.5,0.3l0,0c0.2,0.1,0.3,0.2,0.5,0.4h0c0.1,0.1,0.3,0.2,0.4,0.4c0,0,0,0,0,0
				c0.1,0.1,0.3,0.3,0.4,0.4c0,0,0,0,0,0c0-0.1,0-0.3,0.1-0.4c0,0,0,0,0-0.1c0-0.1,0-0.2,0.1-0.3c0,0,0,0,0,0c0,0,0-0.1,0-0.1
				c0-0.1,0-0.2,0.1-0.3c0,0,0,0,0,0c0,0,0-0.1,0-0.1c0-0.1,0-0.2,0.1-0.2c0,0,0,0,0,0c0,0,0-0.1,0-0.1c0-0.1,0.1-0.2,0.1-0.2
				c0-0.1,0-0.1,0.1-0.2c0-0.1,0.1-0.2,0.1-0.2c0-0.1,0-0.1,0.1-0.2c0-0.1,0.1-0.1,0.1-0.2c0-0.1,0.1-0.1,0.1-0.2
				c0-0.1,0.1-0.1,0.1-0.2c0-0.1,0.1-0.1,0.1-0.2c0-0.1,0.1-0.1,0.1-0.2c0,0,0,0,0,0c0,0,0.1-0.1,0.1-0.1c0-0.1,0.1-0.1,0.1-0.2
				c0,0,0-0.1,0.1-0.1c0,0,0-0.1,0.1-0.1c0-0.1,0.1-0.1,0.1-0.2c0,0,0.1-0.1,0.1-0.1c0,0,0,0,0-0.1c0-0.1,0.1-0.1,0.1-0.2
				c0-0.1,0.1-0.1,0.1-0.2c0-0.1,0.1-0.1,0.1-0.2c0,0,0,0,0.1-0.1c0,0,0.1-0.1,0.1-0.1c0,0,0.1-0.1,0.1-0.1c0,0,0.1-0.1,0.1-0.1
				c0.1-0.1,0.1-0.1,0.2-0.2c0,0,0,0,0,0c0,0,0.1-0.1,0.1-0.1c0.1-0.1,0.1-0.1,0.2-0.2c0,0,0.1-0.1,0.1-0.1c0,0,0.1,0,0.1-0.1
				c0.1-0.1,0.1-0.1,0.2-0.2c0,0,0,0,0,0c0,0,0.1-0.1,0.1-0.1c0.1-0.1,0.1-0.1,0.2-0.2c0.1,0,0.1-0.1,0.2-0.1c0,0,0.1-0.1,0.1-0.1
				c0.1,0,0.1-0.1,0.2-0.1c0,0,0.1-0.1,0.2-0.1c0.1,0,0.1-0.1,0.2-0.1c0.1,0,0.1-0.1,0.2-0.1c0.1,0,0.1-0.1,0.2-0.1
				c0.1,0,0.1-0.1,0.2-0.1c0.1,0,0.1-0.1,0.2-0.1c0.1,0,0.1-0.1,0.2-0.1c0.1,0,0.1-0.1,0.2-0.1c0.1,0,0.1,0,0.2-0.1
				c0.1,0,0.2-0.1,0.2-0.1c0,0,0.1,0,0.1-0.1c0.1,0,0.2-0.1,0.3-0.1c0,0,0.1,0,0.1,0c0.1,0,0.2-0.1,0.3-0.1c0,0,0,0,0.1,0
				c0.1,0,0.3-0.1,0.4-0.1c0,0,0,0,0.1,0c0.1,0,0.2-0.1,0.3-0.1c0,0,0.1,0,0.1,0c0.1,0,0.2,0,0.3-0.1c0.1,0,0.1,0,0.2,0
				c0.2,0,0.5-0.1,0.7-0.1c-1.8-2.7-4.7-4.4-8-4.4c-1,0-1.9,0.2-2.8,0.4V54.4z"/>
			<path class="st10" d="M18.6,53.7c0.1,0.3,0.2,0.6,0.4,0.7c0.4,0.4,0.8,0.7,1.2,1.1c0.5-4.2,4.1-8.2,8.3-8.5
				c-2.4-3.5-9.7-6.3-10-0.5V53.7z"/>
			<path class="st5" d="M36.7,73.5c0,0,3.3-7.2,2.8-9.6c-0.5-2.3-5.2,4.3-5.2,4.3L36.7,73.5z"/>
			<path class="st1" d="M33.9,80.2c0,0,5.2-1.2,7.6-8.5c2.4-7.2,1.3-10,1.3-10l-3.6,2.5c0,0,0.3,3.4-2.2,9.3
				c-2.5,5.9-3.1,5.4-3.1,5.4V80.2z"/>
			<path class="st10" d="M30.9,79.5c0,0,5.2-1.2,7.6-8.5c2.4-7.2,1.2-8.5,1.2-8.5l-1.1,0.2c0,0,1.3,2.3-1.2,8.2
				c-2.5,5.9-6.6,7.3-6.6,7.3V79.5z"/>
			<polygon class="st3" points="18.6,54 18.6,61.1 22.2,64.4 25.9,62.3 			"/>
			<path class="st5" d="M26.7,62.2c0,0-7.9-9.1-8.1-9.2v1.4l6.6,8L26.7,62.2z"/>
			<path class="st9" d="M38.9,64.9l3.2-2.5c0,0-9.4-3.4-20.4,0.8l2.6,3.2L38.9,64.9z"/>
			<path class="st10" d="M38.2,65.4l3.2-2.5c0,0-8.7-3.2-19.7,1l2.6,3.2L38.2,65.4z"/>
			<path class="st7" d="M36,68.2c0-0.1,0.6-1.8,2.3-2.8c0,0-8.6-1.5-13.9,1.1c0,0,0.8,5.3,3.4,4.2C30.3,69.5,36,68.2,36,68.2z"/>
			<path class="st8" d="M36.9,74.9c0,0,0.2-1.9,0-2.2c-0.2-0.3-0.3-0.5-0.2-1c0.1-0.5,0.1-2.7-0.3-3.2c-0.4-0.5-1.9-3.4-3-3.4
				c-1.1,0-5.5,1.8-5.6,4.2c0,0-0.3-0.4-0.7-0.2c-0.4,0.2-0.5,2-0.5,2s3.6,7.9,7.2,7.6C33.9,78.7,36.9,76.5,36.9,74.9z"/>
			<path class="st5" d="M33.9,80.2c0,0-3.8,1-6.7-2.1c-2.9-3.1-6.2-10.6-8.6-11.5v-3.1c0,0,6,3.1,7.4,7.8
				C27.4,76,33.9,80.2,33.9,80.2z"/>
			<path class="st11" d="M33.9,78.5c0,0-1-4.2-5.1-4.4c-1.2,1.1,2.6,4.4,2.6,4.4s0.8,0.6,2.5,0.4V78.5z"/>
			<path class="st1" d="M33.9,78.9c0,0-4-1-7.3-9.2c-5.6-9.1-8-8.7-8-8.7v2.4c0,0,4.1,3.3,6.6,7.8c2.5,4.5,4.2,8.9,8.7,8.9V78.9z"/>
			<path class="st10" d="M33.9,80.2c0,0,5.2-1.2,7.6-8.5c2.4-7.2,1.3-10,1.3-10l-1,0.6c0,0,1.2,3.5-1.3,9.4
				c-2.5,5.9-6.6,7.3-6.6,7.3V80.2z"/>
			<path class="st12" d="M33.9,78.5c0,0,0.6-2.7,3.1-3.6c0,0,0.8,4.5-3.1,4.1V78.5z"/>
			<path class="st7" d="M44.7,60l-3.1,2.8c0,0-2.4-1.3-2.1-3.8c0.3-2.5,1.6-3.4,1.6-3.4L44.7,60z"/>
			<path class="st5" d="M44.7,60l-2.8,2.5c0,0-2.2-1.1-1.9-3.4c0.3-2.2,1.5-3,1.5-3L44.7,60z"/>
			<path class="st3" d="M44.7,59.9l-2.3,2.1c0,0-1.8-0.9-1.6-2.8c0.2-1.9,1.2-2.5,1.2-2.5L44.7,59.9z"/>
			<g>
				<path class="st11" d="M36.9,73c-0.5,0.3-1.6,0.7-2,0.1c0.4-0.1,0.6-0.1,1,0C36.3,73.1,36.7,73,36.9,73L36.9,73z"/>
			</g>
			<g>
				<path class="st11" d="M30.9,73.1c0.9,0.2,1.7-0.1,2.5,0.1c0,0,0,0,0,0c-0.4,0.3-0.8,0.4-1.3,0.3C31.8,73.4,31.2,73.4,30.9,73.1
					L30.9,73.1z"/>
			</g>
			<g>
				<path class="st13" d="M33.1,72.4c-0.7-0.1-1.3,0-2,0C31.7,72,32.5,72,33.1,72.4L33.1,72.4z"/>
			</g>
			<g>
				<path class="st13" d="M35.2,72.4c0.4-0.4,1.1-0.4,1.5,0C36.2,72.3,35.7,72.3,35.2,72.4C35.2,72.4,35.7,72.3,35.2,72.4z"/>
			</g>
			<g>
				<path class="st8" d="M34,67.6c0,0-0.4-0.3-1,0"/>
				<path class="st13" d="M34,67.6c-0.4,0-0.6,0-1,0C33.3,67.3,33.8,67.3,34,67.6C34,67.6,33.8,67.3,34,67.6z"/>
			</g>
			<g>
				<path class="st13" d="M34.7,68.4c-0.8,0.1-1.6,0.1-2.4,0C33.1,68.2,33.9,68.2,34.7,68.4C34.7,68.4,33.9,68.2,34.7,68.4z"/>
			</g>
			<g>
				<path class="st13" d="M34.5,69.7c-0.4-0.3-0.8-0.3-1.3-0.4C33.6,69.2,34.3,69.2,34.5,69.7L34.5,69.7z"/>
			</g>
		</g>
		<path class="st8" d="M50.6,39.6c-0.9-0.3-1.8-0.4-2.8-0.4c-5.5,0-9.9,4.8-9.9,10.8c0,6,4.4,10.8,9.9,10.8c1,0,1.9-0.2,2.8-0.4
			V39.6z"/>
		<path class="st7" d="M50.6,40.1c-0.9-0.3-1.8-0.5-2.8-0.5c-5.2,0-9.5,4.6-9.5,10.4c0,5.7,4.2,10.4,9.5,10.4c1,0,1.9-0.2,2.8-0.5
			V40.1z"/>
		<path class="st9" d="M50.6,42.3c-0.9-0.4-1.8-0.6-2.8-0.6c-4.2,0-7.5,3.7-7.5,8.2c0,4.6,3.4,8.2,7.5,8.2c1,0,1.9-0.2,2.8-0.6V42.3
			z"/>
		<path class="st10" d="M50.6,43.2c-0.9-0.4-1.8-0.7-2.8-0.7C44,42.6,41,45.9,41,50c0,4.1,3,7.4,6.8,7.4c1,0,1.9-0.2,2.8-0.7V43.2z"
			/>
		<path class="st8" d="M50.6,45.7c-0.8-0.6-1.8-1-2.8-1c-2.6,0-4.8,2.3-4.8,5.2s2.1,5.2,4.8,5.2c1,0,2-0.4,2.8-1V45.7z"/>
		<path class="st1" d="M50.6,46.1c-0.8-0.7-1.7-1.1-2.8-1.1c-2.5,0-4.6,2.2-4.6,5c0,2.8,2,5,4.6,5c1.1,0,2-0.4,2.8-1.1V46.1z"/>
		<path class="st9" d="M50.6,49.2c-0.2-0.1-0.3-0.2-0.5-0.3l0,0c-0.2-0.1-0.3-0.2-0.5-0.4h0c-0.1-0.1-0.3-0.2-0.4-0.4c0,0,0,0,0,0
			c-0.1-0.1-0.3-0.3-0.4-0.4c0,0,0,0,0,0c0,0.1,0,0.3-0.1,0.4c0,0,0,0,0,0.1c0,0.1,0,0.2-0.1,0.3c0,0,0,0,0,0c0,0,0,0.1,0,0.1
			c0,0.1,0,0.2-0.1,0.3c0,0,0,0,0,0.1c0,0,0,0.1,0,0.1c0,0.1,0,0.2-0.1,0.2c0,0,0,0,0,0c0,0,0,0.1,0,0.1c0,0.1-0.1,0.2-0.1,0.2
			c0,0.1,0,0.1-0.1,0.2c0,0.1-0.1,0.2-0.1,0.2c0,0.1,0,0.1-0.1,0.2c0,0.1-0.1,0.1-0.1,0.2c0,0.1-0.1,0.1-0.1,0.2
			c0,0.1-0.1,0.1-0.1,0.2c0,0.1-0.1,0.1-0.1,0.2c0,0.1-0.1,0.1-0.1,0.2c0,0,0,0,0,0c0,0-0.1,0.1-0.1,0.1c0,0.1-0.1,0.1-0.1,0.2
			c0,0,0,0.1-0.1,0.1c0,0,0,0.1-0.1,0.1c0,0.1-0.1,0.1-0.1,0.2c0,0-0.1,0.1-0.1,0.1c0,0,0,0,0,0.1c0,0.1-0.1,0.1-0.1,0.2
			c0,0.1-0.1,0.1-0.1,0.2c0,0.1-0.1,0.1-0.1,0.2c0,0,0,0-0.1,0.1c0,0-0.1,0.1-0.1,0.1c0,0-0.1,0.1-0.1,0.1c0,0-0.1,0.1-0.1,0.1
			c-0.1,0.1-0.1,0.1-0.2,0.2c0,0,0,0,0,0c0,0-0.1,0.1-0.1,0.1c-0.1,0.1-0.1,0.1-0.2,0.2c0,0-0.1,0.1-0.1,0.1c0,0-0.1,0-0.1,0.1
			c-0.1,0.1-0.1,0.1-0.2,0.2c0,0,0,0,0,0c0,0-0.1,0.1-0.1,0.1c-0.1,0.1-0.1,0.1-0.2,0.2c-0.1,0-0.1,0.1-0.2,0.1c0,0-0.1,0.1-0.1,0.1
			c-0.1,0-0.1,0.1-0.2,0.1c-0.1,0-0.1,0.1-0.2,0.1c-0.1,0-0.1,0.1-0.2,0.1c-0.1,0-0.1,0.1-0.2,0.1c-0.1,0-0.1,0.1-0.2,0.1
			c-0.1,0-0.1,0.1-0.2,0.1c-0.1,0-0.1,0.1-0.2,0.1c-0.1,0-0.1,0.1-0.2,0.1c-0.1,0-0.1,0.1-0.2,0.1c-0.1,0-0.1,0-0.2,0.1
			c-0.1,0-0.2,0.1-0.2,0.1c0,0-0.1,0-0.1,0.1c-0.1,0-0.2,0.1-0.3,0.1c0,0-0.1,0-0.1,0c-0.1,0-0.2,0.1-0.3,0.1c0,0,0,0-0.1,0
			c-0.1,0-0.3,0.1-0.4,0.1c0,0,0,0-0.1,0c-0.1,0-0.2,0.1-0.3,0.1c0,0-0.1,0-0.1,0c-0.1,0-0.2,0-0.3,0.1c-0.1,0-0.1,0-0.2,0
			c-0.2,0-0.5,0.1-0.7,0.1c1.8,2.7,4.7,4.4,8,4.4c1,0,1.9-0.2,2.8-0.4V49.2z"/>
		<path class="st10" d="M50.6,50c-0.1-0.3-0.2-0.6-0.4-0.7c-0.4-0.4-0.8-0.7-1.2-1.1c-0.5,4.2-4.1,8.2-8.3,8.5
			c2.4,3.5,9.7,6.3,10,0.5V50z"/>
		<polygon class="st3" points="50.6,49.7 50.6,42.6 46.9,39.2 43.2,41.4 		"/>
		<path class="st5" d="M42.4,41.5c0,0,7.9,9.1,8.1,9.2v-1.4l-6.6-8L42.4,41.5z"/>
		<path class="st5" d="M32.4,30.1c0,0-3.3,7.2-2.8,9.6c0.5,2.3,5.2-4.3,5.2-4.3L32.4,30.1z"/>
		<path class="st1" d="M35.2,23.5c0,0-5.2,1.2-7.6,8.5c-2.4,7.2-1.3,10-1.3,10l3.6-2.5c0,0-0.3-3.4,2.2-9.3c2.5-5.9,3.1-5.4,3.1-5.4
			V23.5z"/>
		<path class="st10" d="M38.2,24.1c0,0-5.2,1.2-7.6,8.5c-2.4,7.2-1.2,8.5-1.2,8.5l1.1-0.2c0,0-1.3-2.3,1.2-8.2
			c2.5-5.9,6.6-7.3,6.6-7.3V24.1z"/>
		<path class="st9" d="M30.2,38.8L27,41.3c0,0,9.4,3.4,20.4-0.8l-2.6-3.2L30.2,38.8z"/>
		<path class="st10" d="M30.9,38.3l-3.2,2.5c0,0,8.7,3.2,19.7-1l-2.6-3.2L30.9,38.3z"/>
		<path class="st7" d="M33.2,35.5c0,0.1-0.6,1.8-2.3,2.8c0,0,8.6,1.5,13.9-1.1c0,0-0.8-5.3-3.4-4.2C38.8,34.1,33.2,35.5,33.2,35.5z"
			/>
		<path class="st8" d="M32.2,28.8c0,0-0.2,1.9,0,2.2c0.2,0.3,0.3,0.5,0.2,1c-0.1,0.5-0.1,2.7,0.3,3.2c0.4,0.5,1.9,3.4,3,3.4
			c1.1,0,5.5-1.8,5.6-4.2c0,0,0.3,0.4,0.8,0.2c0.4-0.2,0.5-2,0.5-2s-3.6-7.9-7.2-7.6C35.2,25,32.2,27.2,32.2,28.8z"/>
		<path class="st5" d="M35.2,23.5c0,0,3.8-1,6.7,2.1c2.9,3.1,6.2,10.6,8.6,11.5v3.1c0,0-6-3.1-7.4-7.8
			C41.7,27.7,35.2,23.5,35.2,23.5z"/>
		<path class="st11" d="M35.2,25.2c0,0,1,4.3,5.1,4.4c1.2-1.1-2.6-4.4-2.6-4.4s-0.8-0.6-2.5-0.4V25.2z"/>
		<path class="st1" d="M35.2,24.7c0,0,4,1,7.3,9.2c5.6,9.1,8,8.7,8,8.7v-2.4c0,0-4.1-3.3-6.6-7.8c-2.5-4.5-4.2-8.9-8.7-8.9V24.7z"/>
		<path class="st10" d="M35.2,23.5c0,0-5.2,1.2-7.6,8.5c-2.4,7.2-1.3,10-1.3,10l1-0.6c0,0-1.2-3.5,1.3-9.4c2.5-5.9,6.6-7.3,6.6-7.3
			V23.5z"/>
		<path class="st12" d="M35.2,25.2c0,0-0.6,2.7-3.1,3.6c0,0-0.8-4.5,3.1-4.1V25.2z"/>
		<g>
			<path class="st11" d="M32.2,30.6c0.5-0.3,1.6-0.7,2-0.1c-0.4,0.1-0.6,0.1-1,0C32.9,30.6,32.4,30.7,32.2,30.6L32.2,30.6z"/>
		</g>
		<g>
			<path class="st11" d="M38.2,30.6c-0.9-0.2-1.7,0.1-2.5-0.1c0,0,0,0,0,0c0.4-0.3,0.8-0.4,1.3-0.3C37.4,30.3,38,30.3,38.2,30.6
				L38.2,30.6z"/>
		</g>
		<g>
			<path class="st13" d="M36,31.3c0.7,0.1,1.3,0,2,0C37.4,31.7,36.6,31.7,36,31.3L36,31.3z"/>
		</g>
		<g>
			<path class="st13" d="M34,31.3c-0.4,0.4-1.1,0.4-1.5,0C33,31.4,33.4,31.4,34,31.3C34,31.3,33.4,31.4,34,31.3z"/>
		</g>
		<g>
			<path class="st8" d="M35.1,36.1c0,0,0.4,0.3,1,0"/>
			<path class="st13" d="M35.1,36.1c0.4,0,0.6,0,1,0C35.9,36.3,35.3,36.4,35.1,36.1C35.1,36.1,35.3,36.4,35.1,36.1z"/>
		</g>
		<g>
			<path class="st13" d="M34.4,35.3c0.8-0.1,1.6-0.1,2.4,0C36,35.5,35.2,35.5,34.4,35.3C34.4,35.3,35.2,35.5,34.4,35.3z"/>
		</g>
		<g>
			<path class="st13" d="M34.7,33.9c0.4,0.3,0.8,0.3,1.3,0.4C35.5,34.5,34.8,34.5,34.7,33.9L34.7,33.9z"/>
		</g>
	</g>
</g>
</svg>
